<svg xmlns="http://www.w3.org/2000/svg" viewBox="0 0 60.1 58.67"><defs><style>.cls-1{fill:#fff;stroke:#727272;stroke-miterlimit:10;stroke-width:2px;}.cls-2{fill:#727272;}.cls-3{fill:#42af6f;}</style></defs><title>logo_selenium</title><g id="Ebene_2" data-name="Ebene 2"><g id="Ebene_1-2" data-name="Ebene 1"><path class="cls-1" d="M1,9.47A6.22,6.22,0,0,1,7.21,3.23l42-.1a6.22,6.22,0,0,1,6.24,6.21l.1,42a6.22,6.22,0,0,1-6.21,6.24l-42,.1A6.22,6.22,0,0,1,1.1,51.46Z"/><path class="cls-2" d="M17.63,47.05a2.08,2.08,0,0,0-.81-1.74A10,10,0,0,0,14,44a26.23,26.23,0,0,1-3.34-1.29q-4.23-2-4.23-5.55a4.86,4.86,0,0,1,1-3.11,6.78,6.78,0,0,1,3-2.1,11.79,11.79,0,0,1,4.32-.76,10.59,10.59,0,0,1,4.2.8,6.64,6.64,0,0,1,2.89,2.32,4.91,4.91,0,0,1,1,3.08H17.63a1.88,1.88,0,0,0-.82-1.65,3.25,3.25,0,0,0-2.2-.7,3.58,3.58,0,0,0-2.21.61,1.83,1.83,0,0,0-.81,1.53,1.85,1.85,0,0,0,.9,1.48,11.44,11.44,0,0,0,3.15,1.36,20,20,0,0,1,3.7,1.51c2.34,1.32,3.52,3.13,3.53,5.45a5.14,5.14,0,0,1-2.14,4.37A9.68,9.68,0,0,1,14.85,53a12.05,12.05,0,0,1-4.78-.92,7.18,7.18,0,0,1-3.23-2.52,8.74,8.74,0,0,1-1.09-4.32H11a4.77,4.77,0,0,0,.91,3.12,4.28,4.28,0,0,0,2.93.8,3.36,3.36,0,0,0,2-.55A1.74,1.74,0,0,0,17.63,47.05Z"/><path class="cls-2" d="M33.69,52.94a7.65,7.65,0,0,1-5.58-2A7.12,7.12,0,0,1,26,45.54v-.38a9.37,9.37,0,0,1,.84-4.07,6.26,6.26,0,0,1,2.48-2.73,7.45,7.45,0,0,1,3.86-1,6.43,6.43,0,0,1,5,2A7.72,7.72,0,0,1,40,44.8v1.9l-9.26,0a3.11,3.11,0,0,0,1.09,1.89,3.19,3.19,0,0,0,2.19.71,4.17,4.17,0,0,0,3.45-1.56l2.13,2.52a6,6,0,0,1-2.46,1.93A8.24,8.24,0,0,1,33.69,52.94ZM33.13,41c-1.36,0-2.17.81-2.42,2.63l4.7,0v-.26a2.38,2.38,0,0,0-.57-1.74A2.32,2.32,0,0,0,33.13,41Z"/><polygon class="cls-3" points="25.9 15.63 30.56 10.95 37.61 17.96 56.97 0 60.1 7.77 36.82 28.05 25.9 15.63"/></g></g></svg>