<?xml version="1.0" encoding="utf-8"?>
<!--Generator: Adobe Illustrator 23.0.3, SVG Export Plug-In . SVG Version: 6.00 Build 0)-->
<svg xmlns="http://www.w3.org/2000/svg" xmlns:xlink="http://www.w3.org/1999/xlink" id="Ebene_1" x="0px" y="0px" style="enable-background:new 0 0 500 500" version="1.1" viewBox="0 0 537.37 397.29" xml:space="preserve">
    <g>
        <circle cx="288.68" cy="48.83" r="42.5" class="st3"/>
        <g>
            <g>
                <path d="M259.84,54.07c0-6.84,3.77-11,9.13-11s9.13,4.17,9.13,11c0,6.84-3.77,11.15-9.13,11.15
				S259.84,60.92,259.84,54.07z M275.29,54.07c0-5.32-2.51-8.61-6.32-8.61s-6.32,3.28-6.32,8.61c0,5.32,2.51,8.76,6.32,8.76
				S275.29,59.39,275.29,54.07z" class="st0"/>
                <path d="M280.71,43.47h3.27l4.1,11.42c0.51,1.46,1,2.97,1.52,4.45h0.13c0.51-1.48,0.96-2.99,1.48-4.45l4.05-11.42
				h3.27v21.37H296V53.07c0-1.86,0.21-4.43,0.35-6.32h-0.13l-1.7,4.87l-4.02,11.05h-1.8l-4.04-11.05l-1.69-4.87h-0.13
				c0.14,1.89,0.35,4.46,0.35,6.32v11.76h-2.46V43.47H280.71z" class="st0"/>
                <path d="M302.09,43.47h5.35c6.57,0,10.09,3.82,10.09,10.61s-3.52,10.76-9.97,10.76h-5.47V43.47z M307.23,62.6
				c4.99,0,7.49-3.13,7.49-8.53s-2.49-8.38-7.49-8.38h-2.42V62.6H307.23z" class="st0"/>
            </g>
            <polygon points="289.68,53.68 299.63,26.63 280,26.63 		" class="st0"/>
        </g>
    </g>
</svg>
