<?xml version="1.0" encoding="UTF-8" standalone="no"?>
<!DOCTYPE svg PUBLIC "-//W3C//DTD SVG 1.1//EN" "http://www.w3.org/Graphics/SVG/1.1/DTD/svg11.dtd">
<svg width="100%" height="100%" viewBox="0 0 500 500" version="1.1" xmlns="http://www.w3.org/2000/svg" xmlns:xlink="http://www.w3.org/1999/xlink" xml:space="preserve" xmlns:serif="http://www.serif.com/" style="fill-rule:evenodd;clip-rule:evenodd;stroke-miterlimit:10;">
    <g id="complexity">
        <g transform="matrix(3.98127e-17,-0.65019,3.5708,2.18649e-16,-213.768,291.794)">
            <path d="M50.445,146.678L50.445,113.077L124.865,113.077L124.865,96.277L235.584,129.878L124.865,163.478L124.865,146.678L50.445,146.678Z" style="fill:rgb(149,193,31);"/>
        </g>
        <g>
            <path d="M422.638,248.735C442.788,248.735 459.146,265.094 459.146,285.243L459.146,455.615C459.146,475.764 442.788,492.123 422.638,492.123L422.473,492.123L422.473,319.377L435.939,319.377L409.007,265.513L382.076,319.377L395.541,319.377L395.541,492.123L358.461,492.123L358.461,319.377L371.927,319.377L344.996,265.513L318.064,319.377L331.53,319.377L331.53,492.123L294.45,492.123L294.45,319.377L307.916,319.377L280.984,265.513L254.052,319.377L267.518,319.377L267.518,492.123L230.438,492.123L230.438,319.377L243.904,319.377L216.972,265.513L190.04,319.377L203.506,319.377L203.506,492.123L166.426,492.123L166.426,319.377L179.892,319.377L152.96,265.513L126.029,319.377L139.495,319.377L139.495,492.123L102.415,492.123L102.415,319.377L115.88,319.377L88.949,265.513L62.017,319.377L75.483,319.377L75.483,492.075C56.205,491.096 40.854,475.134 40.854,455.615L40.854,285.243C40.854,265.094 57.212,248.735 77.362,248.735L422.638,248.735Z" style="fill:rgb(149,193,31);"/>
        </g>
        <g id="selenium-logo" transform="matrix(2.61693,0,0,2.61693,180.556,328.358)">
            <path d="M1,9.47C1,9.463 1,9.457 1,9.45C1,6.042 3.802,3.235 7.21,3.23L49.21,3.13C49.217,3.13 49.223,3.13 49.23,3.13C52.638,3.13 55.445,5.932 55.45,9.34L55.55,51.34C55.55,51.347 55.55,51.353 55.55,51.36C55.55,54.768 52.748,57.575 49.34,57.58L7.34,57.68C7.333,57.68 7.327,57.68 7.32,57.68C3.908,57.68 1.1,54.872 1.1,51.46C1.1,51.46 1.1,51.46 1.1,51.46L1,9.47Z" style="fill:white;fill-rule:nonzero;stroke:rgb(60,60,59);stroke-width:2px;"/>
            <path d="M17.63,47.05C17.66,46.373 17.357,45.723 16.82,45.31C15.954,44.729 15.003,44.287 14,44C12.859,43.647 11.743,43.216 10.66,42.71C7.84,41.377 6.43,39.527 6.43,37.16C6.395,36.039 6.748,34.94 7.43,34.05C8.218,33.088 9.256,32.362 10.43,31.95C11.81,31.429 13.275,31.171 14.75,31.19C16.19,31.168 17.619,31.441 18.95,31.99C20.114,32.473 21.116,33.278 21.84,34.31C22.512,35.194 22.865,36.28 22.84,37.39L17.63,37.39C17.663,36.735 17.352,36.109 16.81,35.74C16.187,35.245 15.404,34.996 14.61,35.04C13.827,34.996 13.05,35.21 12.4,35.65C11.891,35.992 11.586,36.567 11.59,37.18C11.626,37.791 11.964,38.347 12.49,38.66C13.466,39.269 14.528,39.728 15.64,40.02C16.921,40.399 18.16,40.904 19.34,41.53C21.68,42.85 22.86,44.66 22.87,46.98C22.935,48.702 22.13,50.346 20.73,51.35C19,52.52 16.936,53.099 14.85,53C13.211,53.022 11.584,52.709 10.07,52.08C8.772,51.572 7.649,50.696 6.84,49.56C6.11,48.238 5.734,46.75 5.75,45.24L11,45.24C10.929,46.354 11.251,47.459 11.91,48.36C12.756,48.976 13.799,49.26 14.84,49.16C15.548,49.192 16.248,49 16.84,48.61C17.364,48.27 17.666,47.673 17.63,47.05Z" style="fill:rgb(60,60,59);fill-rule:nonzero;"/>
            <path d="M33.69,52.94C31.638,53.05 29.625,52.329 28.11,50.94C26.673,49.522 25.906,47.557 26,45.54L26,45.16C25.972,43.758 26.259,42.367 26.84,41.09C27.374,39.952 28.238,39 29.32,38.36C30.492,37.682 31.826,37.336 33.18,37.36C35.058,37.263 36.887,37.995 38.18,39.36C39.462,40.872 40.115,42.821 40,44.8L40,46.7L30.74,46.7C30.863,47.441 31.251,48.112 31.83,48.59C32.446,49.091 33.227,49.344 34.02,49.3C35.352,49.362 36.637,48.781 37.47,47.74L39.6,50.26C38.965,51.109 38.116,51.775 37.14,52.19C36.058,52.686 34.881,52.942 33.69,52.94ZM33.13,41C31.77,41 30.96,41.81 30.71,43.63L35.41,43.63L35.41,43.37C35.46,42.737 35.254,42.111 34.84,41.63C34.38,41.196 33.762,40.968 33.13,41Z" style="fill:rgb(60,60,59);fill-rule:nonzero;"/>
            <path d="M25.9,15.63L30.56,10.95L37.61,17.96L56.97,0L60.1,7.77L36.82,28.05L25.9,15.63Z" style="fill:rgb(149,193,31);fill-rule:nonzero;"/>
        </g>
        <g transform="matrix(1,0,0,0.559502,0,109.567)">
            <g transform="matrix(1,0,0,1,23.3842,-63.5615)">
                <path d="M167.68,237.89L167.68,312.297L93.273,312.297L93.754,312.295C134.599,312.036 167.679,278.796 167.68,237.89Z" style="fill:rgb(149,193,31);"/>
            </g>
            <g transform="matrix(-1,0,0,1,476.883,-63.5615)">
                <path d="M167.68,237.89L167.68,312.297L93.273,312.297L93.754,312.295C134.599,312.036 167.679,278.796 167.68,237.89Z" style="fill:rgb(149,193,31);"/>
            </g>
        </g>
        <g id="sakuli" transform="matrix(0.729017,0,0,0.729017,65.391,-146.874)">
            <path d="M11.57,364.07C12.67,359.67 16.63,356.58 21.17,356.58L77.33,356.58C80.28,356.58 82.94,355.49 85.01,353.42C87.08,351.35 88.17,348.69 88.17,345.73C88.17,342.78 87.08,340.12 85.01,338.05C82.94,335.98 80.27,334.89 77.32,334.89L35.84,334.89C27.32,334.89 20.25,331.95 14.19,325.9C8.14,319.85 5.2,312.77 5.2,304.25C5.2,295.73 8.14,288.66 14.19,282.6C20.24,276.55 27.32,273.61 35.84,273.61L86.47,273.61C92.91,273.61 97.64,279.66 96.07,285.9C94.97,290.3 91.01,293.39 86.47,293.39L35.84,293.39C32.89,293.39 30.22,294.48 28.16,296.55C26.09,298.62 25,301.28 25,304.23C25,307.2 26.09,309.85 28.18,311.92C30.24,313.98 32.89,315.08 35.86,315.08L77.35,315.08C85.87,315.08 92.94,318.02 99,324.07C105.05,330.12 107.99,337.2 107.99,345.72C107.99,354.24 105.05,361.31 99,367.37C92.95,373.42 85.87,376.36 77.35,376.36L21.17,376.36C14.73,376.36 10.01,370.31 11.57,364.07Z" style="fill:rgb(124,124,123);fill-rule:nonzero;"/>
            <path d="M464.68,224.36C467.53,226.17 469.26,229.32 469.26,232.71L469.26,366.57C469.26,372.02 464.87,376.43 459.42,376.47C453.94,376.51 449.46,372.07 449.46,366.57L449.46,232.71C449.47,224.89 458.1,220.17 464.68,224.36Z" style="fill:rgb(124,124,123);fill-rule:nonzero;"/>
            <path d="M481.46,366.46L481.46,283.47C481.46,278 485.89,273.57 491.36,273.57C496.83,273.57 501.26,278 501.26,283.47L501.26,366.46C501.26,371.93 496.83,376.36 491.36,376.36C485.89,376.36 481.46,371.93 481.46,366.46Z" style="fill:rgb(124,124,123);fill-rule:nonzero;"/>
            <circle cx="490.95" cy="252.87" r="10.15" style="fill:rgb(124,124,123);"/>
            <path d="M321.39,361.06C321.33,360.97 321.29,360.87 321.23,360.79L300.33,331.29C297.65,327.53 297.65,322.47 300.33,318.7L321.77,288.81C323.11,287.12 323.95,285.01 323.95,282.69C323.95,277.24 319.58,272.65 314.14,272.65C310.07,272.65 307.48,274.47 304.95,278.42C303.72,280.06 304.01,279.66 303.61,280.22L289.12,300.34L283.81,307.77C280.52,312.36 275.22,315.09 269.58,315.09C259.92,315.09 252.09,307.26 252.09,297.6L252.09,264.38C252.09,263.96 252.16,263.55 252.09,263.14C252.1,262.9 252.09,262.67 252.09,262.43C252.09,256.98 247.62,252.57 242.18,252.57C237.09,252.57 232.95,256.44 232.42,261.38C232.36,261.68 232.31,262.01 232.31,262.41L232.31,367.18C232.31,367.71 232.38,368.21 232.51,368.71C233.28,373.4 237.31,376.97 242.21,376.97C247.11,376.97 251.15,373.37 251.91,368.68C252.02,368.2 252.1,367.69 252.1,367.17L252.1,352.37C252.1,342.71 259.93,334.88 269.59,334.88C275.23,334.88 280.53,337.61 283.82,342.2L289.14,349.64L305.23,372.37C305.45,372.68 305.71,372.93 305.97,373.19C307.78,375.44 310.51,376.9 313.62,376.9C319.07,376.9 323.48,372.48 323.48,367.04C323.44,364.77 322.66,362.71 321.39,361.06Z" style="fill:rgb(124,124,123);fill-rule:nonzero;"/>
            <path d="M211.29,282.58C205.24,276.53 198.16,273.59 189.64,273.59L138.79,273.59C132.35,273.59 127.62,279.64 129.19,285.88C130.29,290.28 134.25,293.37 138.79,293.37L189.64,293.37C192.59,293.37 195.25,294.46 197.32,296.53C198.99,298.2 200.04,300.26 200.37,302.55C201.35,309.21 195.77,315.06 189.04,315.06L148.16,315.06C139.64,315.06 132.57,318 126.51,324.05C120.46,330.1 117.52,337.18 117.52,345.7C117.52,354.22 120.46,361.29 126.51,367.35C132.56,373.4 139.64,376.34 148.16,376.34L210.39,376.34C215.29,376.34 219.33,372.74 220.09,368.05C220.2,367.57 220.28,367.06 220.28,366.54L220.28,365.03L220.28,351.76L220.28,304.23C220.28,295.72 217.34,288.64 211.29,282.58ZM148.15,356.56C145.2,356.56 142.54,355.47 140.47,353.4C138.4,351.33 137.31,348.67 137.31,345.72C137.31,342.77 138.4,340.11 140.47,338.04C142.54,335.97 145.2,334.88 148.15,334.88L189.1,334.88C195.77,334.88 201.13,340.35 200.4,346.99C200.13,349.43 199.07,351.64 197.3,353.42C195.23,355.49 192.57,356.58 189.62,356.58L148.15,356.58L148.15,356.56Z" style="fill:rgb(124,124,123);fill-rule:nonzero;"/>
            <path d="M436.99,283.6C436.99,283.54 437.01,283.48 437.01,283.4C437.01,277.95 432.59,273.54 427.15,273.54C421.71,273.54 417.29,277.96 417.29,283.4L417.29,283.42C417.28,283.59 417.24,283.75 417.24,283.94L417.24,345.7C417.24,348.65 416.15,351.31 414.08,353.39C412.01,355.46 409.35,356.55 406.4,356.55L364.91,356.55C361.96,356.55 359.3,355.46 357.23,353.39C355.16,351.32 354.07,348.66 354.07,345.71L354.07,283.95C354.07,283.43 354.01,282.92 353.91,282.42C353.41,277.43 349.26,273.54 344.15,273.54C338.7,273.54 334.29,277.96 334.29,283.4C334.29,283.5 334.31,283.59 334.31,283.67C334.31,283.75 334.29,283.84 334.29,283.94L334.29,345.7C334.29,354.22 337.23,361.29 343.28,367.35C349.33,373.4 356.41,376.34 364.93,376.34L427.16,376.34C432.06,376.34 436.1,372.74 436.86,368.05C436.97,367.57 437.05,367.06 437.05,366.54L437.05,365.03L437.05,351.74L437.05,283.94C437.03,283.84 437,283.72 436.99,283.6Z" style="fill:rgb(124,124,123);fill-rule:nonzero;"/>
        </g>
    </g>
</svg>
