<?xml version="1.0" encoding="UTF-8" standalone="no"?>
<!DOCTYPE svg PUBLIC "-//W3C//DTD SVG 1.1//EN" "http://www.w3.org/Graphics/SVG/1.1/DTD/svg11.dtd">
<svg width="100%" height="100%" viewBox="0 0 500 500" version="1.1" xmlns="http://www.w3.org/2000/svg" xmlns:xlink="http://www.w3.org/1999/xlink" xml:space="preserve" xmlns:serif="http://www.serif.com/" style="fill-rule:evenodd;clip-rule:evenodd;stroke-miterlimit:10;">
    <g id="Database" transform="matrix(5.76471,0,0,5.76471,-1913.32,-1280.41)">
        <circle cx="375.27" cy="265.48" r="42.5" style="fill:rgb(60,60,59);stroke:rgb(149,193,31);stroke-width:1.21px;"/>
        <g id="_x30_bRrWc_2_">
            <path d="M375.22,260.26C370.64,260.23 366.16,259.65 361.84,258.1C359.85,257.39 357.95,256.47 356.35,255.06C355.02,253.89 354.02,252.54 354.08,250.63C354.13,248.86 355.1,247.59 356.35,246.51C358.63,244.55 361.38,243.5 364.24,242.72C368.59,241.53 373.02,241.19 377.5,241.39C381.64,241.58 385.71,242.25 389.58,243.83C391.48,244.61 393.27,245.58 394.73,247.07C397.09,249.48 397.01,252.43 394.52,254.73C392.32,256.76 389.66,257.87 386.85,258.69C384.2,259.47 381.49,259.94 378.72,260.08C377.55,260.14 376.39,260.2 375.22,260.26Z" style="fill:rgb(149,193,31);fill-rule:nonzero;"/>
            <path d="M354.08,273.88C354.88,276.45 356.87,277.86 359.06,279.04C361.75,280.48 364.67,281.25 367.66,281.77C370.53,282.26 373.44,282.49 376.35,282.39C381.34,282.22 386.24,281.53 390.81,279.35C392.67,278.46 394.42,277.39 395.57,275.6C395.93,275.04 396.16,274.41 396.45,273.79L396.45,275.12C396.45,276.6 396.39,278.08 396.46,279.55C396.57,281.75 395.53,283.36 393.92,284.67C391.5,286.63 388.65,287.69 385.67,288.42C381.35,289.49 376.96,289.83 372.52,289.56C368.91,289.34 365.38,288.78 361.97,287.56C359.81,286.79 357.74,285.81 356.05,284.2C354.8,283.02 354,281.65 354.07,279.83C354.14,277.84 354.08,275.86 354.08,273.88Z" style="fill:rgb(149,193,31);fill-rule:nonzero;"/>
            <path d="M396.45,263.88C396.45,266.2 396.5,268.4 396.43,270.6C396.38,272.24 395.47,273.48 394.29,274.53C392.15,276.44 389.56,277.49 386.86,278.29C382.17,279.67 377.36,280.01 372.51,279.75C368.39,279.54 364.35,278.82 360.54,277.18C358.32,276.23 356.23,275.06 354.86,272.97C354.34,272.19 354.06,271.33 354.08,270.37C354.11,268.28 354.09,266.2 354.12,264.1C354.91,266.69 356.93,268.1 359.15,269.27C361.77,270.65 364.6,271.4 367.51,271.93C370.88,272.54 374.27,272.69 377.68,272.51C382.66,272.25 387.52,271.39 391.96,268.95C393.55,268.07 394.99,266.98 395.87,265.32C396.07,264.9 396.22,264.44 396.45,263.88Z" style="fill:rgb(149,193,31);fill-rule:nonzero;"/>
            <path d="M396.36,254.27C396.36,256.55 396.48,258.94 396.32,261.32C396.19,263.18 394.83,264.41 393.4,265.46C390.95,267.26 388.13,268.22 385.22,268.93C381.72,269.77 378.15,270.11 374.56,270.04C369.79,269.95 365.1,269.3 360.66,267.45C358.49,266.54 356.46,265.39 355.03,263.44C354.39,262.56 354.04,261.59 354.06,260.47C354.1,258.42 354.07,256.37 354.07,254.14C355.02,257.19 357.33,258.64 359.84,259.83C362.97,261.31 366.31,262.05 369.74,262.45C372.66,262.8 375.59,262.9 378.52,262.67C383.15,262.3 387.67,261.47 391.81,259.22C393.48,258.31 394.99,257.19 395.89,255.44C396.1,255.03 396.24,254.59 396.36,254.27Z" style="fill:rgb(149,193,31);fill-rule:nonzero;"/>
        </g>
    </g>
</svg>
