<?xml version="1.0" encoding="UTF-8" standalone="no"?>
<!DOCTYPE svg PUBLIC "-//W3C//DTD SVG 1.1//EN" "http://www.w3.org/Graphics/SVG/1.1/DTD/svg11.dtd">
<svg width="100%" height="100%" viewBox="0 0 500 500" version="1.1" xmlns="http://www.w3.org/2000/svg" xmlns:xlink="http://www.w3.org/1999/xlink" xml:space="preserve" xmlns:serif="http://www.serif.com/" style="fill-rule:evenodd;clip-rule:evenodd;stroke-linecap:round;stroke-linejoin:round;stroke-miterlimit:1.5;">
    <g id="debugging">
        <g id="node_js" transform="matrix(1.39697,0,0,1.34384,-231.017,8.39988)">
            <path d="M338.173,30.959L462.159,105.373L462.159,254.201L338.173,328.614L214.187,254.201L214.187,105.373L338.173,30.959Z" style="fill:rgb(149,193,31);"/>
        </g>
        <g id="bug" transform="matrix(0.759831,0.192099,-0.192099,0.759831,77.6275,98.4396)">
            <ellipse cx="159.098" cy="315.038" rx="90.902" ry="114.489" style="fill:rgb(60,60,59);"/>
            <g transform="matrix(0.651016,0,0,0.446431,55.5227,59.9064)">
                <ellipse cx="159.098" cy="315.038" rx="90.902" ry="114.489" style="fill:rgb(60,60,59);"/>
            </g>
            <g id="exkremente">
                <g id="fühler" transform="matrix(1,0,0,1,0,23)">
                    <g transform="matrix(1,0,0,1,65.4565,20.7625)">
                        <path d="M55.599,90.787C90.429,116.273 88.673,138.188 88.673,138.188" style="fill:none;stroke:rgb(60,60,59);stroke-width:19.14px;"/>
                    </g>
                    <g transform="matrix(-1,0,0,1,252.743,20.7625)">
                        <path d="M55.599,90.787C90.429,116.273 88.673,138.188 88.673,138.188" style="fill:none;stroke:rgb(60,60,59);stroke-width:19.14px;"/>
                    </g>
                </g>
                <g id="beine_rechts" transform="matrix(1,0,0,1,-10.9838,11.7429)">
                    <g transform="matrix(-0.85616,-0.516712,-0.516712,0.85616,370.923,189.258)">
                        <path d="M55.599,90.787C90.429,116.273 88.673,138.188 88.673,138.188" style="fill:none;stroke:rgb(60,60,59);stroke-width:19.14px;"/>
                    </g>
                    <g transform="matrix(-0.642515,-0.766273,-0.766273,0.642515,396.081,283.018)">
                        <path d="M55.599,90.787C90.429,116.273 88.673,138.188 88.673,138.188" style="fill:none;stroke:rgb(60,60,59);stroke-width:19.14px;"/>
                    </g>
                    <g transform="matrix(-0.192038,-0.981387,-0.981387,0.192038,376.246,405.488)">
                        <path d="M55.599,90.787C90.429,116.273 88.673,138.188 88.673,138.188" style="fill:none;stroke:rgb(60,60,59);stroke-width:19.14px;"/>
                    </g>
                </g>
                <g id="beine_links" transform="matrix(-1,0,0,1,329.18,11.7552)">
                    <g transform="matrix(-0.85616,-0.516712,-0.516712,0.85616,370.923,189.258)">
                        <path d="M55.599,90.787C90.429,116.273 88.673,138.188 88.673,138.188" style="fill:none;stroke:rgb(60,60,59);stroke-width:19.14px;"/>
                    </g>
                    <g transform="matrix(-0.642515,-0.766273,-0.766273,0.642515,396.081,283.018)">
                        <path d="M55.599,90.787C90.429,116.273 88.673,138.188 88.673,138.188" style="fill:none;stroke:rgb(60,60,59);stroke-width:19.14px;"/>
                    </g>
                    <g transform="matrix(-0.192038,-0.981387,-0.981387,0.192038,376.246,405.488)">
                        <path d="M55.599,90.787C90.429,116.273 88.673,138.188 88.673,138.188" style="fill:none;stroke:rgb(60,60,59);stroke-width:19.14px;"/>
                    </g>
                </g>
            </g>
        </g>
    </g>
</svg>
