<?xml version="1.0" encoding="UTF-8" standalone="no"?>
<!DOCTYPE svg PUBLIC "-//W3C//DTD SVG 1.1//EN" "http://www.w3.org/Graphics/SVG/1.1/DTD/svg11.dtd">
<svg width="100%" height="100%" viewBox="0 0 500 500" version="1.1" xmlns="http://www.w3.org/2000/svg" xmlns:xlink="http://www.w3.org/1999/xlink" xml:space="preserve" xmlns:serif="http://www.serif.com/" style="fill-rule:evenodd;clip-rule:evenodd;stroke-miterlimit:10;">
    <g transform="matrix(5.76471,0,0,5.76471,-1913.32,-1280.41)">
        <circle cx="375.27" cy="265.48" r="42.5" style="fill:rgb(60,60,59);stroke:rgb(149,193,31);stroke-width:1.21px;"/>
        <g id="logo" transform="matrix(0.173469,0,0,0.173469,339.464,227.616)">
            <path id="path3906" d="M144.198,142.764L184.317,60.189M117.964,155.089L50.378,99.625M137.719,177.582L183.7,254.611M134.629,174.191L299.432,133.519M134.629,174.191L55.009,288.197" style="fill:rgb(149,193,31);fill-rule:nonzero;stroke:rgb(149,193,31);stroke-width:4.01px;"/>
            <path id="path4016" d="M97.908,127.662C121.056,108.868 155.004,112.259 173.83,135.368C192.655,158.477 189.261,192.367 166.112,211.166C142.967,229.652 109.019,226.261 90.194,203.152C71.369,180.351 75.071,146.461 97.908,127.662ZM173.83,18.591C185.867,9.037 203.458,10.885 213.331,22.593C223.209,34.61 221.357,52.173 209.32,62.034C197.283,71.895 179.692,70.043 169.819,58.027C159.941,46.01 161.792,28.448 173.83,18.591ZM273.514,132.285C272.588,120.268 281.844,109.792 293.881,108.868C306.227,107.944 316.718,116.878 317.643,128.898C318.569,141.222 309.313,151.695 297.275,152.623C285.238,153.547 274.439,144.609 273.514,132.285ZM35.567,107.944C31.864,100.242 34.95,90.381 42.974,86.682C50.998,82.68 60.566,86.067 64.577,94.08C68.588,101.782 65.194,111.643 57.172,115.338C49.147,119.345 39.579,115.954 35.567,107.944ZM172.595,255.532C173.212,249.37 178.766,244.747 184.937,245.368C191.112,246.291 195.74,251.837 194.815,258C194.198,264.162 188.644,268.477 182.469,267.857C176.298,267.241 171.67,261.695 172.595,255.532ZM12.73,293.741C11.187,273.711 26,256.456 46.06,254.917C66.119,253.377 83.402,268.477 84.945,288.195C86.491,308.221 71.677,325.785 51.616,327.326C31.556,328.558 13.964,313.767 12.73,293.741Z" style="fill:rgb(149,193,31);fill-rule:nonzero;stroke:rgb(149,193,31);stroke-width:1px;stroke-linejoin:round;stroke-miterlimit:2;"/>
            <path id="path3926" d="M12.728,293.744C11.185,273.714 25.998,256.459 46.058,254.919C66.117,253.38 83.4,268.479 84.943,288.198C86.489,308.224 71.675,325.788 51.614,327.329C31.554,328.561 13.962,313.77 12.728,293.744Z" style="fill:rgb(149,193,31);fill-rule:nonzero;stroke:rgb(149,193,31);stroke-width:4.01px;"/>
            <path id="path3936" d="M172.593,255.535C173.211,249.373 178.764,244.75 184.935,245.37C191.11,246.294 195.738,251.84 194.813,258.002C194.196,264.165 188.642,268.479 182.467,267.86C176.296,267.244 171.668,261.697 172.593,255.535Z" style="fill:rgb(149,193,31);fill-rule:nonzero;stroke:rgb(149,193,31);stroke-width:1px;stroke-linejoin:round;stroke-miterlimit:2;"/>
            <path id="path3956" d="M35.566,107.947C31.862,100.245 34.948,90.384 42.972,86.685C50.996,82.683 60.564,86.069 64.575,94.083C68.586,101.785 65.192,111.646 57.17,115.341C49.145,119.347 39.577,115.957 35.566,107.947Z" style="fill:rgb(149,193,31);fill-rule:nonzero;stroke:rgb(149,193,31);stroke-width:1px;stroke-linejoin:round;stroke-miterlimit:2;"/>
            <path id="path3986" d="M273.512,132.288C272.586,120.271 281.842,109.794 293.88,108.871C306.225,107.947 316.716,116.88 317.641,128.901C318.567,141.225 309.311,151.698 297.274,152.626C285.236,153.55 274.437,144.612 273.512,132.288Z" style="fill:rgb(149,193,31);fill-rule:nonzero;stroke:rgb(149,193,31);stroke-width:4.01px;"/>
            <path id="path4006" d="M173.828,18.593C185.865,9.04 203.456,10.888 213.329,22.596C223.207,34.613 221.356,52.175 209.318,62.037C197.281,71.898 179.69,70.046 169.817,58.03C159.939,46.013 161.79,28.45 173.828,18.593Z" style="fill:rgb(149,193,31);fill-rule:nonzero;stroke:rgb(149,193,31);stroke-width:4.01px;"/>
            <path id="path4026" d="M97.906,127.665C121.054,108.871 155.002,112.262 173.828,135.371C192.653,158.48 189.259,192.37 166.11,211.168C142.965,229.655 109.017,226.264 90.192,203.155C71.367,180.353 75.069,146.464 97.906,127.665Z" style="fill:rgb(149,193,31);fill-rule:nonzero;stroke:rgb(149,193,31);stroke-width:4.01px;"/>
        </g>
    </g>
</svg>
