<?xml version="1.0" encoding="utf-8"?>
<!-- Generator: Adobe Illustrator 23.0.3, SVG Export Plug-In . SVG Version: 6.00 Build 0)  -->
<svg version="1.1" id="Ebene_1" xmlns="http://www.w3.org/2000/svg" xmlns:xlink="http://www.w3.org/1999/xlink" x="0px" y="0px"
	 width="88px" height="88px" viewBox="0 0 88 88" style="enable-background:new 0 0 88 88;" xml:space="preserve">
<style type="text/css">
	.st0{fill:#3C3C3B;stroke:#95C11F;stroke-width:1.2064;stroke-miterlimit:10;}
	.st1{fill:#95C11F;}
</style>
<circle class="st0" cx="44" cy="44" r="42.5"/>
<g>
	<path class="st1" d="M44.34,69.39c-0.89,0-1.67-0.56-2.11-1.56c-0.11-0.11-0.11-0.33-0.22-0.45c-0.11-0.22-0.22-0.56-0.33-0.78
		c-0.11-0.11-0.33-0.33-0.56-0.33c-0.67,0.11-1.45,0.11-2.11,0.11s-1.34,0-2-0.11l0,0c-0.22,0-0.45,0.11-0.56,0.33
		c-0.11,0.22-0.22,0.56-0.33,0.78c-0.11,0.11-0.11,0.33-0.22,0.45c-0.45,1-1.22,1.56-2.11,1.56c-0.33,0-0.67-0.11-1-0.22
		c-0.78-0.33-1.56-0.67-2.34-1c-1.34-0.56-1.78-1.78-1.34-3.12c0.11-0.22,0.11-0.33,0.22-0.56c0.11-0.22,0.22-0.45,0.33-0.78
		c0.11-0.11,0-0.45-0.11-0.56c-0.78-0.78-1.67-1.56-2.56-2.45l-0.78-0.78c0,0-1,0.45-1.34,0.56s-0.78,0.22-1.11,0.22
		c-1,0-1.78-0.56-2.11-1.56c-0.22-0.67-0.56-1.22-0.78-1.89l-0.45-0.67v-0.89c0.33-0.89,1-1.56,2.23-2c0.11,0,0.11,0,0.22-0.11
		c0.11,0,0.11-0.11,0.22-0.11c0.33-0.11,0.45-0.33,0.45-0.67c0-1.45,0-2.67,0-3.89c0-0.45-0.11-0.56-0.45-0.78
		c-1.11-0.45-2.23-0.89-2.67-2.23v-0.89l0.33-0.78c0.22-0.67,0.56-1.22,0.78-1.89c0.45-1,1.22-1.67,2.23-1.67
		c0.33,0,0.78,0.11,1.11,0.22c0.11,0,0.22,0.11,0.45,0.22c0.33,0.11,0.56,0.33,0.89,0.33h0.11c0.33-0.11,0.56-0.33,0.67-0.67
		c0.11-0.11,0.22-0.33,0.33-0.45c0.67-0.67,1.34-1.34,2.11-2c0.22-0.22,0.33-0.45,0.22-0.78c-0.22-0.45-0.45-0.89-0.56-1.34
		c-0.45-1.22,0.11-2.34,1.22-2.89c0.89-0.45,1.78-0.78,2.67-1.11c0.33-0.11,0.56-0.11,0.89-0.11c0.89,0,1.67,0.45,2,1.34
		c0.33,0.78,0.67,1.56,1,2.34c0.11,0.45,0,0.78-0.33,1c-0.11,0-0.22,0.11-0.33,0.11c-0.33,0-0.56-0.22-0.67-0.45
		c-0.22-0.45-0.33-0.89-0.56-1.22c-0.11-0.22-0.22-0.56-0.33-0.78c-0.11-0.33-0.33-0.67-0.78-0.67c-0.11,0-0.33,0-0.56,0.11
		c-0.67,0.33-1.45,0.56-2.11,0.89c-0.67,0.22-0.78,0.67-0.56,1.34c0.11,0.33,0.33,0.67,0.45,1.11l0.33,0.89
		c0.22,0.67,0.22,0.89-0.33,1.22c-1.45,1-2.67,2.23-3.67,3.67c-0.22,0.11-0.45,0.22-0.67,0.22c-0.11,0-0.33,0-0.56-0.11
		c-0.33-0.11-1.56-0.67-1.89-0.78c-0.22-0.11-0.33-0.11-0.56-0.11c-0.45,0-0.67,0.33-0.78,0.67c-0.33,0.67-0.56,1.45-0.89,2.11
		c-0.22,0.67-0.11,1,0.56,1.34c0.33,0.11,0.67,0.33,1,0.45l0.78,0.33c0.56,0.22,0.78,0.56,0.67,1.11c-0.33,1.67-0.33,3.45,0,5.12
		c0.11,0.56,0,0.78-0.56,1c-0.33,0.11-0.67,0.33-1.11,0.45c-0.33,0.11-0.56,0.22-0.89,0.33c-0.67,0.33-0.78,0.67-0.56,1.34
		c0.33,0.67,0.56,1.34,0.89,2.11c0.11,0.33,0.33,0.67,0.78,0.67c0.11,0,0.33,0,0.56-0.11c0.33-0.11,1.56-0.67,1.89-0.78
		c0.22-0.11,0.33-0.11,0.56-0.11c0.22,0,0.45,0.11,0.67,0.45c1,1.45,2.23,2.67,3.78,3.78c0.45,0.33,0.56,0.56,0.33,1.11
		c-0.11,0.33-0.33,0.67-0.45,1c-0.11,0.33-0.22,0.67-0.33,0.89c-0.22,0.67-0.11,1,0.56,1.34c0.67,0.33,1.45,0.56,2.11,0.89
		c0.22,0.11,0.33,0.11,0.56,0.11c0.45,0,0.67-0.33,0.78-0.67c0.11-0.33,0.33-0.67,0.45-1c0.11-0.33,0.22-0.67,0.33-0.89
		c0.22-0.45,0.45-0.67,0.78-0.67c0.11,0,0.22,0,0.33,0c0.89,0.11,1.78,0.22,2.56,0.22c0.89,0,1.67-0.11,2.56-0.22
		c0.11,0,0.22,0,0.33,0c0.33,0,0.56,0.11,0.78,0.67c0.11,0.33,0.33,0.67,0.45,1.11l0.33,0.78c0.11,0.33,0.33,0.67,0.78,0.67
		c0.11,0,0.33,0,0.56-0.11c0.67-0.33,1.45-0.56,2.11-0.89c0.67-0.22,0.78-0.67,0.56-1.34c-0.11-0.33-0.22-0.67-0.45-1
		c-0.11-0.33-0.22-0.67-0.45-1c-0.22-0.56-0.11-0.78,0.33-1.11c1.45-1,2.67-2.23,3.67-3.67c0.22-0.33,0.45-0.45,0.67-0.45
		c0.11,0,0.33,0,0.45,0.11c0.33,0.11,0.67,0.22,0.89,0.33c0.33,0.11,0.67,0.33,1,0.45c0.22,0.11,0.33,0.11,0.56,0.11
		c0.45,0,0.67-0.33,0.78-0.67c0.33-0.67,0.67-1.45,0.89-2.11c0.22-0.67,0.11-1-0.56-1.34c-0.33-0.11-0.67-0.22-0.89-0.33
		c-0.33-0.11-0.67-0.33-1-0.45c-0.56-0.22-0.78-0.67-0.56-1c0.11-0.33,0.33-0.45,0.67-0.45c0.11,0,0.33,0,0.45,0.11
		c0.67,0.22,1.34,0.56,2,0.78c1.34,0.56,1.89,1.78,1.34,3.23c-0.33,0.78-0.67,1.56-1,2.34c-0.45,1-1.22,1.56-2.11,1.56
		c-0.33,0-0.67-0.11-1-0.22c-0.33-0.11-0.67-0.33-1-0.45l-0.45-0.22l-3.56,3.56l0.22,0.45c0.11,0.33,0.22,0.67,0.45,1
		c0.56,1.45,0,2.67-1.34,3.23c-0.78,0.33-1.45,0.67-2.23,0.89C45.01,69.39,44.67,69.39,44.34,69.39z"/>
	<path class="st1" d="M44.34,69.39c-0.89,0-1.67-0.56-2.11-1.56c-0.11-0.11-0.11-0.33-0.22-0.45c-0.11-0.22-0.22-0.56-0.33-0.78
		c-0.11-0.11-0.33-0.33-0.56-0.33c-0.67,0.11-1.45,0.11-2.11,0.11s-1.34,0-2-0.11l0,0c-0.22,0-0.45,0.11-0.56,0.33
		c-0.11,0.22-0.22,0.56-0.33,0.78c-0.11,0.11-0.11,0.33-0.22,0.45c-0.45,1-1.22,1.56-2.11,1.56c-0.33,0-0.67-0.11-1-0.22
		c-0.78-0.33-1.56-0.67-2.34-1c-1.34-0.56-1.78-1.78-1.34-3.12c0.11-0.22,0.11-0.33,0.22-0.56c0.11-0.22,0.22-0.45,0.33-0.78
		c0.11-0.11,0-0.45-0.11-0.56c-0.78-0.78-1.67-1.56-2.56-2.45l-0.78-0.78c0,0-1,0.45-1.34,0.56s-0.78,0.22-1.11,0.22
		c-1,0-1.78-0.56-2.11-1.56c-0.22-0.67-0.56-1.22-0.78-1.89l-0.45-0.67v-0.89c0.33-0.89,1-1.56,2.23-2c0.11,0,0.11,0,0.22-0.11
		c0.11,0,0.11-0.11,0.22-0.11c0.33-0.11,0.45-0.33,0.45-0.67c0-1.45,0-2.67,0-3.89c0-0.45-0.11-0.56-0.45-0.78
		c-1.11-0.45-2.23-0.89-2.67-2.23v-0.89l0.33-0.78c0.22-0.67,0.56-1.22,0.78-1.89c0.45-1,1.22-1.67,2.23-1.67
		c0.33,0,0.78,0.11,1.11,0.22c0.11,0,0.22,0.11,0.45,0.22c0.33,0.11,0.56,0.33,0.89,0.33h0.11c0.33-0.11,0.56-0.33,0.67-0.67
		c0.11-0.11,0.22-0.33,0.33-0.45c0.67-0.67,1.34-1.34,2.11-2c0.22-0.22,0.33-0.45,0.22-0.78c-0.22-0.45-0.45-0.89-0.56-1.34
		c-0.45-1.22,0.11-2.34,1.22-2.89c0.89-0.45,1.78-0.78,2.67-1.11c0.33-0.11,0.56-0.11,0.89-0.11c0.89,0,1.67,0.45,2,1.34
		c0.33,0.78,0.67,1.56,1,2.34c0.11,0.45,0,0.78-0.33,1c-0.11,0-0.22,0.11-0.33,0.11c-0.33,0-0.56-0.22-0.67-0.45
		c-0.22-0.45-0.33-0.89-0.56-1.22c-0.11-0.22-0.22-0.56-0.33-0.78c-0.11-0.33-0.33-0.67-0.78-0.67c-0.11,0-0.33,0-0.56,0.11
		c-0.67,0.33-1.45,0.56-2.11,0.89c-0.67,0.22-0.78,0.67-0.56,1.34c0.11,0.33,0.33,0.67,0.45,1.11l0.33,0.89
		c0.22,0.67,0.22,0.89-0.33,1.22c-1.45,1-2.67,2.23-3.67,3.67c-0.22,0.11-0.45,0.22-0.67,0.22c-0.11,0-0.33,0-0.56-0.11
		c-0.33-0.11-1.56-0.67-1.89-0.78c-0.22-0.11-0.33-0.11-0.56-0.11c-0.45,0-0.67,0.33-0.78,0.67c-0.33,0.67-0.56,1.45-0.89,2.11
		c-0.22,0.67-0.11,1,0.56,1.34c0.33,0.11,0.67,0.33,1,0.45l0.78,0.33c0.56,0.22,0.78,0.56,0.67,1.11c-0.33,1.67-0.33,3.45,0,5.12
		c0.11,0.56,0,0.78-0.56,1c-0.33,0.11-0.67,0.33-1.11,0.45c-0.33,0.11-0.56,0.22-0.89,0.33c-0.67,0.33-0.78,0.67-0.56,1.34
		c0.33,0.67,0.56,1.34,0.89,2.11c0.11,0.33,0.33,0.67,0.78,0.67c0.11,0,0.33,0,0.56-0.11c0.33-0.11,1.56-0.67,1.89-0.78
		c0.22-0.11,0.33-0.11,0.56-0.11c0.22,0,0.45,0.11,0.67,0.45c1,1.45,2.23,2.67,3.78,3.78c0.45,0.33,0.56,0.56,0.33,1.11
		c-0.11,0.33-0.33,0.67-0.45,1c-0.11,0.33-0.22,0.67-0.33,0.89c-0.22,0.67-0.11,1,0.56,1.34c0.67,0.33,1.45,0.56,2.11,0.89
		c0.22,0.11,0.33,0.11,0.56,0.11c0.45,0,0.67-0.33,0.78-0.67c0.11-0.33,0.33-0.67,0.45-1c0.11-0.33,0.22-0.67,0.33-0.89
		c0.22-0.45,0.45-0.67,0.78-0.67c0.11,0,0.22,0,0.33,0c0.89,0.11,1.78,0.22,2.56,0.22c0.89,0,1.67-0.11,2.56-0.22
		c0.11,0,0.22,0,0.33,0c0.33,0,0.56,0.11,0.78,0.67c0.11,0.33,0.33,0.67,0.45,1.11l0.33,0.78c0.11,0.33,0.33,0.67,0.78,0.67
		c0.11,0,0.33,0,0.56-0.11c0.67-0.33,1.45-0.56,2.11-0.89c0.67-0.22,0.78-0.67,0.56-1.34c-0.11-0.33-0.22-0.67-0.45-1
		c-0.11-0.33-0.22-0.67-0.45-1c-0.22-0.56-0.11-0.78,0.33-1.11c1.45-1,2.67-2.23,3.67-3.67c0.22-0.33,0.45-0.45,0.67-0.45
		c0.11,0,0.33,0,0.45,0.11c0.33,0.11,0.67,0.22,0.89,0.33c0.33,0.11,0.67,0.33,1,0.45c0.22,0.11,0.33,0.11,0.56,0.11
		c0.45,0,0.67-0.33,0.78-0.67c0.33-0.67,0.67-1.45,0.89-2.11c0.22-0.67,0.11-1-0.56-1.34c-0.33-0.11-0.67-0.22-0.89-0.33
		c-0.33-0.11-0.67-0.33-1-0.45c-0.56-0.22-0.78-0.67-0.56-1c0.11-0.33,0.33-0.45,0.67-0.45c0.11,0,0.33,0,0.45,0.11
		c0.67,0.22,1.34,0.56,2,0.78c1.34,0.56,1.89,1.78,1.34,3.23c-0.33,0.78-0.67,1.56-1,2.34c-0.45,1-1.22,1.56-2.11,1.56
		c-0.33,0-0.67-0.11-1-0.22c-0.33-0.11-0.67-0.33-1-0.45l-0.45-0.22l-3.56,3.56l0.22,0.45c0.11,0.33,0.22,0.67,0.45,1
		c0.56,1.45,0,2.67-1.34,3.23c-0.78,0.33-1.45,0.67-2.23,0.89C45.01,69.39,44.67,69.39,44.34,69.39z"/>
	<path class="st1" d="M54.91,49.81c-0.33,0-0.67,0-1,0c-0.56,0-1-0.22-1.45-0.56c-0.33-0.33-0.45-0.78-0.45-1.22
		c0-1-0.33-1.56-1.34-1.78c-0.33-0.11-0.78-0.33-1.11-0.45l-0.11-0.11c-0.11-0.11-0.22-0.11-0.33-0.11c-0.22,0-0.33,0.11-0.45,0.22
		c-0.11,0.22-0.33,0.33-0.56,0.56c-0.33,0.33-0.78,0.45-1.22,0.45s-0.89-0.22-1.22-0.56c-0.56-0.45-1-1-1.45-1.45
		c-0.67-0.78-0.67-1.78,0-2.56c0.11-0.22,0.33-0.33,0.56-0.45c0.11-0.11,0.33-0.22,0.33-0.22l-1.34-3.23h-1c-1.22,0-2-0.78-2-1.89
		c0-0.56,0-1.22,0-1.89c0-1.22,0.78-1.89,2-2h1l1.11-3.12l-0.33-0.22c-0.11-0.11-0.33-0.33-0.56-0.45c-0.78-0.78-0.78-1.89,0-2.67
		c0.45-0.45,0.89-1,1.45-1.45c0.33-0.33,0.78-0.56,1.34-0.56c0.45,0,1,0.22,1.34,0.56c0.22,0.11,0.33,0.33,0.45,0.45l0.33,0.33
		l0.78-0.33c0.78-0.33,1.45-0.56,2.11-0.78c0.22-0.11,0.22-0.33,0.33-0.45c0-0.11,0-0.33,0-0.45s0-0.22,0-0.33
		c0.11-1.11,0.78-1.78,1.89-1.89c0.33,0,0.67,0,1,0c0.33,0,0.67,0,1,0c1.11,0.11,1.89,0.78,1.89,2c0,1,0.11,1.11,1,1.45
		c0.45,0.22,0.89,0.33,1.34,0.56l0.67,0.22l0.22-0.33c0.11-0.22,0.33-0.33,0.45-0.56c0.45-0.33,0.89-0.56,1.34-0.56
		c0.45,0,1,0.22,1.34,0.56c0.45,0.45,0.89,0.89,1.34,1.34c0.78,0.89,0.78,1.89,0,2.78c-0.67,0.78-0.67,0.89-0.33,1.78
		c0.22,0.45,0.45,1,0.56,1.56c0.11,0.33,0.22,0.45,0.67,0.45c2.11,0,2.56,0.56,2.56,2.67c0,0,0,0.78,0,1c0,1.22-0.78,2-2,2
		c-1,0-1,0.11-1.45,1c-0.22,0.45-0.33,0.89-0.56,1.34l-0.11,1l0.33,0.22c0.22,0.11,0.33,0.33,0.56,0.45c0.78,0.78,0.78,1.89,0,2.67
		c-0.45,0.45-0.89,0.89-1.45,1.45c-0.45,0.33-0.89,0.56-1.34,0.56c-0.45,0-0.89-0.22-1.22-0.56c-0.33-0.45-0.67-0.56-1.11-0.56
		c-0.22,0-0.56,0.11-0.89,0.33c-0.33,0.22-0.78,0.33-1.22,0.45l-0.33,0.11c-0.22,0.11-0.45,0.22-0.45,0.67c0,0.22,0,0.67,0,1.11
		c-0.11,0.89-0.89,1.56-1.78,1.56C55.58,49.81,55.24,49.81,54.91,49.81z M54.91,48.25c0.22,0,0.45,0,0.78,0l0,0
		c0.22,0,0.33,0,0.45-0.11c0.11-0.11,0.11-0.33,0.11-0.45c0-0.45,0-0.89,0-1.34c0-0.56,0.22-0.78,0.78-0.89
		c1.22-0.33,2.34-0.78,3.45-1.45c0.22-0.11,0.33-0.22,0.56-0.22c0.22,0,0.45,0.11,0.67,0.33c0.22,0.22,0.33,0.33,0.56,0.56
		l0.45,0.45c0.11,0.11,0.11,0.11,0.22,0.22l0.22,0.11h0.11c0.11-0.11,0.22-0.11,0.22-0.11l0.22-0.22c0.33-0.33,0.67-0.67,1-1.11
		c0.11-0.11,0.11-0.56-0.11-0.67c-0.22-0.22-0.45-0.56-0.67-0.78l-0.33-0.33c-0.33-0.33-0.33-0.67-0.11-1
		c0.67-1.11,1.22-2.34,1.45-3.56c0.11-0.45,0.33-0.67,0.89-0.67h0.78c0.22,0,0.45,0,0.56,0l0,0c0.22,0,0.45,0,0.56-0.11
		c0.11-0.11,0.11-0.33,0.11-0.56c0-0.45,0-0.89,0-1.34c0-0.22,0-0.45-0.11-0.56s-0.22-0.11-0.45-0.11c-0.22,0-0.45,0-0.67,0
		s-0.78,0-0.78,0c-0.56,0-0.89-0.22-1-0.78c-0.22-1.22-0.78-2.34-1.45-3.45c-0.22-0.45-0.22-0.78,0.11-1.11s0.67-0.67,1-1
		c0.11-0.11,0.22-0.33,0.22-0.45c0-0.22-0.11-0.33-0.22-0.45c-0.33-0.33-0.67-0.67-1-1c-0.11-0.11-0.33-0.22-0.45-0.22
		c-0.22,0-0.33,0.11-0.45,0.22c-0.33,0.11-0.67,0.45-1,0.78c-0.22,0.22-0.45,0.33-0.67,0.33c-0.11,0-0.33-0.11-0.56-0.22
		c-1-0.67-2.11-1.11-3.34-1.45c-0.67-0.11-0.78-0.33-0.78-1c0-0.45,0-0.89,0-1.34c0-0.22,0-0.33-0.11-0.45s-0.22-0.11-0.45-0.11
		h-0.78c-0.22,0-0.67,0-0.67,0c-0.22,0-0.33,0-0.45,0.11c-0.11,0.11-0.11,0.22-0.11,0.45c0,0.45,0,1,0,1.45
		c0,0.56-0.22,0.78-0.67,0.89c-1.34,0.33-2.56,0.78-3.67,1.45c-0.22,0.11-0.33,0.22-0.56,0.22c-0.22,0-0.33-0.11-0.67-0.33
		c-0.33-0.33-0.67-0.67-1-1c-0.11-0.11-0.22-0.22-0.33-0.22s-0.22,0.11-0.33,0.22c-0.33,0.45-0.78,0.78-1.11,1.11
		c-0.11,0.11-0.22,0.22-0.22,0.33c0,0.11,0.11,0.22,0.22,0.33c0.33,0.33,0.67,0.67,1,1c0.45,0.56,0.56,0.78,0.22,1.34
		c-0.67,1-1.11,2.23-1.34,3.34c-0.11,0.56-0.45,0.78-1,0.78c0,0-0.56,0-0.67,0c-0.22,0-0.33,0-0.56,0h-0.11
		c-0.22,0-0.33,0.11-0.45,0.22c-0.11,0.11-0.11,0.33-0.11,0.56c0,0.33,0,0.67,0,1.22c0,0.22,0,0.45,0.11,0.56
		c0.11,0.11,0.22,0.22,0.45,0.22c0.22,0,0.45,0,0.67,0h0.78c0.56,0,0.78,0.22,0.89,0.67c0.33,1.22,0.78,2.45,1.45,3.56
		c0.22,0.45,0.22,0.78-0.22,1.11c-0.33,0.33-0.67,0.67-1,1c-0.11,0.11-0.22,0.22-0.22,0.45c0,0.11,0.11,0.22,0.22,0.33
		c0.33,0.33,0.78,0.78,1.11,1.11c0.11,0.11,0.22,0.22,0.45,0.22c0.11,0,0.22-0.11,0.45-0.22c0.33-0.33,0.67-0.67,1-1
		c0.22-0.22,0.45-0.33,0.67-0.33c0.11,0,0.33,0.11,0.56,0.22c1.11,0.67,2.11,1.11,3.34,1.34c0.67,0.11,0.78,0.45,0.89,1.11
		c0,0.45,0,0.89,0,1.34c0,0.11,0,0.33,0.11,0.45c0.11,0.11,0.22,0.11,0.45,0.11C54.46,48.25,54.69,48.25,54.91,48.25z"/>
	<path class="st1" d="M54.91,49.81c-0.33,0-0.67,0-1,0c-0.56,0-1-0.22-1.45-0.56c-0.33-0.33-0.45-0.78-0.45-1.22
		c0-1-0.33-1.56-1.34-1.78c-0.33-0.11-0.78-0.33-1.11-0.45l-0.11-0.11c-0.11-0.11-0.22-0.11-0.33-0.11c-0.22,0-0.33,0.11-0.45,0.22
		c-0.11,0.22-0.33,0.33-0.56,0.56c-0.33,0.33-0.78,0.45-1.22,0.45s-0.89-0.22-1.22-0.56c-0.56-0.45-1-1-1.45-1.45
		c-0.67-0.78-0.67-1.78,0-2.56c0.11-0.22,0.33-0.33,0.56-0.45c0.11-0.11,0.33-0.22,0.33-0.22l-1.34-3.23h-1c-1.22,0-2-0.78-2-1.89
		c0-0.56,0-1.22,0-1.89c0-1.22,0.78-1.89,2-2h1l1.11-3.12l-0.33-0.22c-0.11-0.11-0.33-0.33-0.56-0.45c-0.78-0.78-0.78-1.89,0-2.67
		c0.45-0.45,0.89-1,1.45-1.45c0.33-0.33,0.78-0.56,1.34-0.56c0.45,0,1,0.22,1.34,0.56c0.22,0.11,0.33,0.33,0.45,0.45l0.33,0.33
		l0.78-0.33c0.78-0.33,1.45-0.56,2.11-0.78c0.22-0.11,0.22-0.33,0.33-0.45c0-0.11,0-0.33,0-0.45s0-0.22,0-0.33
		c0.11-1.11,0.78-1.78,1.89-1.89c0.33,0,0.67,0,1,0c0.33,0,0.67,0,1,0c1.11,0.11,1.89,0.78,1.89,2c0,1,0.11,1.11,1,1.45
		c0.45,0.22,0.89,0.33,1.34,0.56l0.67,0.22l0.22-0.33c0.11-0.22,0.33-0.33,0.45-0.56c0.45-0.33,0.89-0.56,1.34-0.56
		c0.45,0,1,0.22,1.34,0.56c0.45,0.45,0.89,0.89,1.34,1.34c0.78,0.89,0.78,1.89,0,2.78c-0.67,0.78-0.67,0.89-0.33,1.78
		c0.22,0.45,0.45,1,0.56,1.56c0.11,0.33,0.22,0.45,0.67,0.45c2.11,0,2.56,0.56,2.56,2.67c0,0,0,0.78,0,1c0,1.22-0.78,2-2,2
		c-1,0-1,0.11-1.45,1c-0.22,0.45-0.33,0.89-0.56,1.34l-0.11,1l0.33,0.22c0.22,0.11,0.33,0.33,0.56,0.45c0.78,0.78,0.78,1.89,0,2.67
		c-0.45,0.45-0.89,0.89-1.45,1.45c-0.45,0.33-0.89,0.56-1.34,0.56c-0.45,0-0.89-0.22-1.22-0.56c-0.33-0.45-0.67-0.56-1.11-0.56
		c-0.22,0-0.56,0.11-0.89,0.33c-0.33,0.22-0.78,0.33-1.22,0.45l-0.33,0.11c-0.22,0.11-0.45,0.22-0.45,0.67c0,0.22,0,0.67,0,1.11
		c-0.11,0.89-0.89,1.56-1.78,1.56C55.58,49.81,55.24,49.81,54.91,49.81z M54.91,48.25c0.22,0,0.45,0,0.78,0l0,0
		c0.22,0,0.33,0,0.45-0.11c0.11-0.11,0.11-0.33,0.11-0.45c0-0.45,0-0.89,0-1.34c0-0.56,0.22-0.78,0.78-0.89
		c1.22-0.33,2.34-0.78,3.45-1.45c0.22-0.11,0.33-0.22,0.56-0.22c0.22,0,0.45,0.11,0.67,0.33c0.22,0.22,0.33,0.33,0.56,0.56
		l0.45,0.45c0.11,0.11,0.11,0.11,0.22,0.22l0.22,0.11h0.11c0.11-0.11,0.22-0.11,0.22-0.11l0.22-0.22c0.33-0.33,0.67-0.67,1-1.11
		c0.11-0.11,0.11-0.56-0.11-0.67c-0.22-0.22-0.45-0.56-0.67-0.78l-0.33-0.33c-0.33-0.33-0.33-0.67-0.11-1
		c0.67-1.11,1.22-2.34,1.45-3.56c0.11-0.45,0.33-0.67,0.89-0.67h0.78c0.22,0,0.45,0,0.56,0l0,0c0.22,0,0.45,0,0.56-0.11
		c0.11-0.11,0.11-0.33,0.11-0.56c0-0.45,0-0.89,0-1.34c0-0.22,0-0.45-0.11-0.56s-0.22-0.11-0.45-0.11c-0.22,0-0.45,0-0.67,0
		s-0.78,0-0.78,0c-0.56,0-0.89-0.22-1-0.78c-0.22-1.22-0.78-2.34-1.45-3.45c-0.22-0.45-0.22-0.78,0.11-1.11s0.67-0.67,1-1
		c0.11-0.11,0.22-0.33,0.22-0.45c0-0.22-0.11-0.33-0.22-0.45c-0.33-0.33-0.67-0.67-1-1c-0.11-0.11-0.33-0.22-0.45-0.22
		c-0.22,0-0.33,0.11-0.45,0.22c-0.33,0.11-0.67,0.45-1,0.78c-0.22,0.22-0.45,0.33-0.67,0.33c-0.11,0-0.33-0.11-0.56-0.22
		c-1-0.67-2.11-1.11-3.34-1.45c-0.67-0.11-0.78-0.33-0.78-1c0-0.45,0-0.89,0-1.34c0-0.22,0-0.33-0.11-0.45s-0.22-0.11-0.45-0.11
		h-0.78c-0.22,0-0.67,0-0.67,0c-0.22,0-0.33,0-0.45,0.11c-0.11,0.11-0.11,0.22-0.11,0.45c0,0.45,0,1,0,1.45
		c0,0.56-0.22,0.78-0.67,0.89c-1.34,0.33-2.56,0.78-3.67,1.45c-0.22,0.11-0.33,0.22-0.56,0.22c-0.22,0-0.33-0.11-0.67-0.33
		c-0.33-0.33-0.67-0.67-1-1c-0.11-0.11-0.22-0.22-0.33-0.22s-0.22,0.11-0.33,0.22c-0.33,0.45-0.78,0.78-1.11,1.11
		c-0.11,0.11-0.22,0.22-0.22,0.33c0,0.11,0.11,0.22,0.22,0.33c0.33,0.33,0.67,0.67,1,1c0.45,0.56,0.56,0.78,0.22,1.34
		c-0.67,1-1.11,2.23-1.34,3.34c-0.11,0.56-0.45,0.78-1,0.78c0,0-0.56,0-0.67,0c-0.22,0-0.33,0-0.56,0h-0.11
		c-0.22,0-0.33,0.11-0.45,0.22c-0.11,0.11-0.11,0.33-0.11,0.56c0,0.33,0,0.67,0,1.22c0,0.22,0,0.45,0.11,0.56
		c0.11,0.11,0.22,0.22,0.45,0.22c0.22,0,0.45,0,0.67,0h0.78c0.56,0,0.78,0.22,0.89,0.67c0.33,1.22,0.78,2.45,1.45,3.56
		c0.22,0.45,0.22,0.78-0.22,1.11c-0.33,0.33-0.67,0.67-1,1c-0.11,0.11-0.22,0.22-0.22,0.45c0,0.11,0.11,0.22,0.22,0.33
		c0.33,0.33,0.78,0.78,1.11,1.11c0.11,0.11,0.22,0.22,0.45,0.22c0.11,0,0.22-0.11,0.45-0.22c0.33-0.33,0.67-0.67,1-1
		c0.22-0.22,0.45-0.33,0.67-0.33c0.11,0,0.33,0.11,0.56,0.22c1.11,0.67,2.11,1.11,3.34,1.34c0.67,0.11,0.78,0.45,0.89,1.11
		c0,0.45,0,0.89,0,1.34c0,0.11,0,0.33,0.11,0.45c0.11,0.11,0.22,0.11,0.45,0.11C54.46,48.25,54.69,48.25,54.91,48.25z"/>
	<path class="st1" d="M39.55,58.71c-4.67,0-8.12-3.23-8.23-7.68c-0.11-4.12,3-7.68,7.23-8.01h0.11c0.11,0,0.22,0,0.33,0
		c0.11,0,0.11,0,0.22,0c0.45,0,0.67,0.33,0.67,0.78c0,0.33-0.33,0.67-0.78,0.78h-0.45c-0.33,0-0.67,0.11-1,0.11
		c-3,0.67-5.12,3.34-4.9,6.45c0.11,3,2.45,5.56,5.45,5.9c0.33,0,0.56,0.11,0.89,0.11c3.34,0,6.12-2.78,6.34-6.12
		c0-0.11,0-0.22,0-0.45c0.11-0.45,0.33-0.67,0.67-0.67c0.45,0,0.78,0.33,0.78,0.78c0,1.34-0.22,2.56-0.89,3.67
		C44.56,57.04,42.22,58.6,39.55,58.71z"/>
	<path class="st1" d="M39.55,58.71c-4.67,0-8.12-3.23-8.23-7.68c-0.11-4.12,3-7.68,7.23-8.01h0.11c0.11,0,0.22,0,0.33,0
		c0.11,0,0.11,0,0.22,0c0.45,0,0.67,0.33,0.67,0.78c0,0.33-0.33,0.67-0.78,0.78h-0.45c-0.33,0-0.67,0.11-1,0.11
		c-3,0.67-5.12,3.34-4.9,6.45c0.11,3,2.45,5.56,5.45,5.9c0.33,0,0.56,0.11,0.89,0.11c3.34,0,6.12-2.78,6.34-6.12
		c0-0.11,0-0.22,0-0.45c0.11-0.45,0.33-0.67,0.67-0.67c0.45,0,0.78,0.33,0.78,0.78c0,1.34-0.22,2.56-0.89,3.67
		C44.56,57.04,42.22,58.6,39.55,58.71z"/>
	<path class="st1" d="M54.91,41.13c-3.12,0-5.67-2.56-5.67-5.67s2.56-5.67,5.67-5.67s5.67,2.56,5.67,5.67
		C60.58,38.57,58.02,41.13,54.91,41.13L54.91,41.13z M54.91,31.34c-2.34,0-4.12,1.89-4.12,4.12c0,2.23,1.89,4.12,4.12,4.12
		s4.12-1.89,4.12-4.12c0-1.11-0.45-2.11-1.22-2.89C57.02,31.78,56.02,31.34,54.91,31.34L54.91,31.34L54.91,31.34z"/>
	<path class="st1" d="M54.91,41.13c-3.12,0-5.67-2.56-5.67-5.67s2.56-5.67,5.67-5.67s5.67,2.56,5.67,5.67
		C60.58,38.57,58.02,41.13,54.91,41.13L54.91,41.13z M54.91,31.34c-2.34,0-4.12,1.89-4.12,4.12c0,2.23,1.89,4.12,4.12,4.12
		s4.12-1.89,4.12-4.12c0-1.11-0.45-2.11-1.22-2.89C57.02,31.78,56.02,31.34,54.91,31.34L54.91,31.34L54.91,31.34z"/>
</g>
</svg>
