<?xml version="1.0" encoding="UTF-8" standalone="no"?>
<!DOCTYPE svg PUBLIC "-//W3C//DTD SVG 1.1//EN" "http://www.w3.org/Graphics/SVG/1.1/DTD/svg11.dtd">
<svg width="100%" height="100%" viewBox="0 0 500 500" version="1.1" xmlns="http://www.w3.org/2000/svg" xmlns:xlink="http://www.w3.org/1999/xlink" xml:space="preserve" xmlns:serif="http://www.serif.com/" style="fill-rule:evenodd;clip-rule:evenodd;stroke-linecap:round;stroke-linejoin:round;stroke-miterlimit:1.5;">
    <g id="no-stale">
        <g transform="matrix(1,0,0,1,22.837,-20.6333)">
            <circle cx="227.163" cy="270.633" r="176.564" style="fill:none;stroke:rgb(60,60,59);stroke-width:50px;"/>
        </g>
        <g id="light" transform="matrix(-0.48046,0,0,1.04867,361.67,-33.0327)">
            <g transform="matrix(-0.718939,-0.173981,0.133311,-0.550878,362.344,372.412)">
                <path d="M458.189,437.058L41.6,437.058L145.747,182.126L354.041,182.126L458.189,437.058Z" style="fill:rgb(149,193,31);stroke:rgb(149,193,31);stroke-width:8.72px;"/>
            </g>
            <g transform="matrix(-0.97027,-0.242026,0.242026,-0.97027,488.195,844.337)">
                <path d="M344.801,303.021L421.892,529.36L267.711,529.36L344.801,303.021Z" style="fill:rgb(149,193,31);stroke:rgb(149,193,31);stroke-width:5.36px;"/>
            </g>
        </g>
        <g transform="matrix(1,0,0,1,-186.886,57.4721)">
            <text x="205.794px" y="225.104px" style="font-family:'CourierNewPS-BoldMT', 'Courier New', monospace;font-weight:700;font-size:110px;fill:rgb(149,193,31);stroke:rgb(60,60,59);stroke-width:5px;stroke-linecap:butt;stroke-miterlimit:2;">&lt;STALE&gt;</text>
        </g>
        <g transform="matrix(0.707107,-0.707107,0.707107,0.707107,42.7536,396.307)">
            <path d="M73.436,40.96L426.564,45.221" style="fill:none;stroke:rgb(60,60,59);stroke-width:50px;"/>
        </g>
    </g>
</svg>
