<?xml version="1.0" encoding="UTF-8" standalone="no"?>
<!DOCTYPE svg PUBLIC "-//W3C//DTD SVG 1.1//EN" "http://www.w3.org/Graphics/SVG/1.1/DTD/svg11.dtd">
<svg width="100%" height="100%" viewBox="0 0 1080 800" version="1.1" xmlns="http://www.w3.org/2000/svg" xmlns:xlink="http://www.w3.org/1999/xlink" xml:space="preserve" xmlns:serif="http://www.serif.com/" style="fill-rule:evenodd;clip-rule:evenodd;stroke-miterlimit:10;">
    <g id="Ebene1" transform="matrix(1,0,0,1,283.765,-629.875)">
        <g transform="matrix(4.16667,0,0,4.16667,358.127,758.773)">
            <path d="M0,50.455L-15.275,60.245C-16.089,60.767 -17,61.016 -17.899,61.016C-19.504,61.017 -21.076,60.224 -22.006,58.772C-23.457,56.507 -22.799,53.494 -20.533,52.042L-6.313,42.929L-20.533,33.815C-22.799,32.363 -23.457,29.35 -22.006,27.084C-20.555,24.819 -17.54,24.159 -15.275,25.612L0,35.402C2.577,37.054 4.115,39.867 4.115,42.929C4.115,45.99 2.577,48.803 0,50.455M-28.233,17.32C-25.969,18.772 -25.31,21.785 -26.762,24.05C-27.691,25.501 -29.263,26.294 -30.867,26.294C-31.768,26.294 -32.678,26.045 -33.491,25.523L-48.767,15.733C-51.344,14.081 -52.883,11.268 -52.883,8.206C-52.883,5.144 -51.344,2.331 -48.766,0.679L-33.491,-9.11C-31.227,-10.562 -28.212,-9.902 -26.762,-7.638C-25.31,-5.372 -25.969,-2.359 -28.233,-0.907L-42.453,8.206L-28.233,17.32Z" style="fill:rgb(140,198,63);fill-rule:nonzero;"/>
        </g>
        <g transform="matrix(0,4.16667,4.16667,0,255.888,656.634)">
            <circle cx="50.861" cy="0" r="50.861" style="fill:none;stroke:rgb(140,198,63);stroke-width:7px;"/>
        </g>
        <g transform="matrix(4.16667,0,0,4.16667,-270.376,1231.5)">
            <path d="M0,40.866L0,40.865C0.576,38.562 2.646,36.947 5.019,36.947L34.377,36.947C35.921,36.947 37.31,36.376 38.392,35.295C39.476,34.21 40.047,32.821 40.047,31.276C40.047,29.734 39.476,28.346 38.396,27.263C37.31,26.178 35.921,25.606 34.377,25.606L12.69,25.606C8.238,25.606 4.536,24.069 1.373,20.906C-1.789,17.744 -3.326,14.042 -3.326,9.59C-3.326,5.137 -1.789,1.436 1.373,-1.727C4.535,-4.889 8.237,-6.427 12.69,-6.427L39.158,-6.427C42.523,-6.427 44.992,-3.264 44.177,0.001L44.176,0.001C43.601,2.304 41.531,3.92 39.158,3.92L12.69,3.92C11.145,3.92 9.755,4.492 8.673,5.575C7.592,6.656 7.02,8.045 7.02,9.59C7.02,11.137 7.592,12.526 8.677,13.608C9.753,14.687 11.143,15.261 12.69,15.261L34.377,15.261C38.829,15.261 42.531,16.798 45.693,19.961C48.856,23.123 50.394,26.824 50.394,31.276C50.394,35.728 48.856,39.431 45.693,42.594C42.531,45.756 38.83,47.293 34.377,47.293L5.019,47.293C1.653,47.293 -0.815,44.131 0,40.866" style="fill:rgb(118,120,123);fill-rule:nonzero;"/>
        </g>
        <g transform="matrix(4.16667,0,0,4.16667,716.591,1419.72)">
            <path d="M0,-77.34C1.491,-76.39 2.395,-74.745 2.395,-72.977L2.395,-2.998C2.395,-0.154 0.098,2.157 -2.746,2.175C-5.615,2.193 -7.952,-0.129 -7.952,-2.998L-7.952,-72.977C-7.952,-77.06 -3.443,-79.533 0,-77.34" style="fill:rgb(118,120,123);fill-rule:nonzero;"/>
        </g>
        <g transform="matrix(4.16667,0,0,4.16667,753.126,1226.23)">
            <path d="M0,43.384L0,0.001C0,-2.856 2.315,-5.173 5.173,-5.173C8.029,-5.173 10.346,-2.856 10.346,0.001L10.346,43.384C10.346,46.241 8.029,48.557 5.173,48.557C2.315,48.557 0,46.241 0,43.384" style="fill:rgb(118,120,123);fill-rule:nonzero;"/>
        </g>
        <g transform="matrix(4.16667,0,0,4.16667,795.9,1159.57)">
            <path d="M0,-0.001C0,2.929 -2.375,5.304 -5.305,5.304C-8.233,5.304 -10.608,2.929 -10.608,-0.001C-10.608,-2.93 -8.233,-5.305 -5.305,-5.305C-2.375,-5.305 0,-2.93 0,-0.001" style="fill:rgb(118,120,123);fill-rule:nonzero;"/>
        </g>
        <g transform="matrix(4.16667,0,0,4.16667,404.473,1193.53)">
            <path d="M0,48.408C-0.03,48.36 -0.053,48.311 -0.087,48.263L-11.018,32.838C-12.422,30.869 -12.422,28.223 -11.019,26.254L0.187,10.628C0.888,9.747 1.325,8.646 1.325,7.432C1.325,4.585 -0.957,2.185 -3.805,2.185C-5.933,2.185 -7.288,3.138 -8.611,5.201C-9.253,6.057 -9.105,5.85 -9.312,6.14L-16.886,16.662L-19.664,20.547C-21.382,22.948 -24.151,24.373 -27.104,24.373C-32.154,24.373 -36.249,20.278 -36.249,15.227L-36.249,-2.141C-36.249,-2.362 -36.209,-2.576 -36.249,-2.786C-36.239,-2.911 -36.249,-3.03 -36.249,-3.157C-36.249,-6.005 -38.586,-8.314 -41.434,-8.314C-44.093,-8.314 -46.256,-6.293 -46.535,-3.708C-46.569,-3.55 -46.594,-3.376 -46.594,-3.167L-46.594,51.602C-46.594,51.879 -46.554,52.143 -46.492,52.4C-46.092,54.849 -43.982,56.722 -41.42,56.722C-38.855,56.722 -36.744,54.845 -36.347,52.392C-36.287,52.137 -36.249,51.875 -36.249,51.602L-36.249,43.864C-36.249,38.813 -32.154,34.719 -27.104,34.719C-24.152,34.719 -21.382,36.143 -19.665,38.543L-16.883,42.431L-8.475,54.313C-8.36,54.473 -8.22,54.606 -8.083,54.743C-7.138,55.916 -5.707,56.68 -4.084,56.68C-1.235,56.68 1.073,54.372 1.073,51.524C1.073,50.347 0.663,49.276 0,48.408" style="fill:rgb(118,120,123);fill-rule:nonzero;"/>
        </g>
        <g transform="matrix(4.16667,0,0,4.16667,27.1415,1247.83)">
            <path d="M0,33.028C-1.545,33.028 -2.933,32.457 -4.017,31.374C-5.099,30.292 -5.671,28.903 -5.671,27.357C-5.671,25.814 -5.1,24.426 -4.016,23.34C-2.933,22.258 -1.545,21.687 0,21.687L21.41,21.687C24.899,21.687 27.701,24.548 27.321,28.015C27.182,29.297 26.629,30.447 25.7,31.376C24.618,32.457 23.229,33.028 21.687,33.028L0,33.028ZM33.003,-5.646C29.841,-8.808 26.139,-10.346 21.687,-10.346L-4.899,-10.346C-8.265,-10.346 -10.734,-7.183 -9.918,-3.918C-9.343,-1.615 -7.273,0.001 -4.899,0.001L21.687,0.001C23.231,0.001 24.62,0.572 25.701,1.655C26.578,2.53 27.12,3.606 27.295,4.803C27.804,8.285 24.891,11.341 21.372,11.341L0,11.341C-4.453,11.341 -8.155,12.879 -11.317,16.042C-14.479,19.204 -16.017,22.905 -16.017,27.357C-16.017,31.811 -14.479,35.512 -11.317,38.674C-8.155,41.837 -4.453,43.374 0,43.374L32.531,43.374C35.096,43.374 37.207,41.496 37.604,39.044C37.664,38.789 37.703,38.527 37.703,38.255L37.703,37.463L37.703,30.516L37.703,5.671C37.703,1.219 36.166,-2.483 33.003,-5.646" style="fill:rgb(118,120,123);fill-rule:nonzero;"/>
        </g>
        <g transform="matrix(4.16667,0,0,4.16667,656.296,1406.65)">
            <path d="M0,-43.229C0,-43.264 0.01,-43.296 0.01,-43.331C0.01,-46.178 -2.299,-48.487 -5.146,-48.487C-7.995,-48.487 -10.304,-46.178 -10.304,-43.331C-10.304,-43.325 -10.302,-43.32 -10.302,-43.315C-10.309,-43.224 -10.329,-43.138 -10.329,-43.045L-10.329,-10.759C-10.329,-9.213 -10.9,-7.824 -11.984,-6.74C-13.067,-5.659 -14.456,-5.088 -15.999,-5.088L-37.686,-5.088C-39.231,-5.088 -40.62,-5.659 -41.702,-6.742C-42.784,-7.824 -43.356,-9.213 -43.356,-10.759L-43.356,-43.045C-43.356,-43.318 -43.387,-43.584 -43.44,-43.842C-43.701,-46.446 -45.873,-48.487 -48.546,-48.487C-51.394,-48.487 -53.702,-46.178 -53.702,-43.331C-53.702,-43.282 -53.689,-43.236 -53.688,-43.188C-53.689,-43.14 -53.702,-43.094 -53.702,-43.045L-53.702,-10.759C-53.702,-6.306 -52.165,-2.604 -49.003,0.559C-45.841,3.721 -42.139,5.258 -37.686,5.258L-5.153,5.258C-2.589,5.258 -0.478,3.38 -0.08,0.928C-0.021,0.673 0.019,0.411 0.019,0.139L0.019,-0.653L0.019,-7.6L0.019,-43.045C0.019,-43.108 0.003,-43.167 0,-43.229" style="fill:rgb(118,120,123);fill-rule:nonzero;"/>
        </g>
    </g>
</svg>
