<?xml version="1.0" encoding="UTF-8" standalone="no"?>
<!DOCTYPE svg PUBLIC "-//W3C//DTD SVG 1.1//EN" "http://www.w3.org/Graphics/SVG/1.1/DTD/svg11.dtd">
<svg width="100%" height="100%" viewBox="0 0 500 500" version="1.1" xmlns="http://www.w3.org/2000/svg" xmlns:xlink="http://www.w3.org/1999/xlink" xml:space="preserve" xmlns:serif="http://www.serif.com/" style="fill-rule:evenodd;clip-rule:evenodd;stroke-linecap:round;stroke-linejoin:round;stroke-miterlimit:1.5;">
    <g id="screenshot-based" transform="matrix(1,0,0,1,16.8747,13.7713)">
        <g id="monitor" transform="matrix(1.35715,0,0,1.35715,-58.9145,-5.79068)">
            <g id="Segment" transform="matrix(0.885593,0,0,0.348473,23.8729,141.862)">
                <path d="M328.682,281.701C313.554,262.084 285.596,250 255.34,250C225.083,250 197.125,262.084 181.997,281.701L328.682,281.701Z" style="fill:rgb(60,60,59);stroke:rgb(60,60,59);stroke-width:16.42px;"/>
            </g>
            <g id="Abgerundetes-Rechteck" serif:id="Abgerundetes Rechteck" transform="matrix(0.804542,0,0,1.10422,-9.77053,-24.1298)">
                <path d="M488.192,80.185C488.192,76.436 484.014,73.393 478.869,73.393L166.891,73.393C161.746,73.393 157.569,76.436 157.569,80.185L157.569,202.443C157.569,206.192 161.746,209.235 166.891,209.235L478.869,209.235C484.014,209.235 488.192,206.192 488.192,202.443L488.192,80.185Z" style="fill:rgb(149,193,31);stroke:rgb(60,60,59);stroke-width:11.44px;"/>
            </g>
            <g id="Rechteck" transform="matrix(0.532112,0,0,0.897729,116.414,23.7887)">
                <rect x="222.858" y="203.985" width="56.379" height="28.62" style="fill:rgb(60,60,59);stroke:rgb(60,60,59);stroke-width:14.98px;"/>
            </g>
        </g>
        <g id="image_on_screen" transform="matrix(0.69555,0,0,0.69555,200.993,-7.57069)">
            <g id="Abgerundetes-Rechteck1" serif:id="Abgerundetes Rechteck" transform="matrix(0.977266,0,0,1,-34.9805,60.8727)">
                <path d="M379.175,102.251C379.175,96.923 374.749,92.598 369.297,92.598L97.535,92.598C92.084,92.598 87.658,96.923 87.658,102.251L87.658,276.004C87.658,281.331 92.084,285.657 97.535,285.657L369.297,285.657C374.749,285.657 379.175,281.331 379.175,276.004L379.175,102.251Z" style="fill:white;stroke:rgb(60,60,59);stroke-width:14.54px;"/>
            </g>
            <circle id="Ellipse" cx="108.366" cy="218.812" r="31.188" style="fill:rgb(149,193,31);"/>
            <g id="Rechteck1" serif:id="Rechteck" transform="matrix(1,0,0,1,0,-1)">
                <rect x="77.177" y="305.991" width="233.233" height="19.363" style="fill:rgb(149,193,31);"/>
            </g>
            <g id="Dreieck" transform="matrix(0.986731,0,0,1,1.0241,0)">
                <path d="M152.539,270.307L227.9,305.991L77.177,305.991L152.539,270.307Z" style="fill:rgb(149,193,31);"/>
            </g>
            <g id="Dreieck1" serif:id="Dreieck" transform="matrix(1,0,0,1,46.1733,106.501)">
                <path d="M186.49,75.23L264.614,199.49L108.366,199.49L186.49,75.23Z" style="fill:rgb(149,193,31);"/>
            </g>
        </g>
        <g transform="matrix(0.465784,-0.308094,0.551686,0.834052,-151.759,-41.8942)">
            <path d="M133.915,452.203L133.915,433.023L319.459,433.023L319.459,415.213L368.523,442.613L319.459,470.014L319.459,452.203L133.915,452.203Z" style="fill:rgb(60,60,59);stroke:rgb(60,60,59);stroke-width:12.35px;"/>
        </g>
        <g id="image_on_screen1" serif:id="image_on_screen" transform="matrix(0.5,0,0,0.5,3.30759,187.466)">
            <g transform="matrix(0.977266,0,0,1,-34.9805,60.8727)">
                <path d="M379.175,102.251C379.175,96.923 374.749,92.598 369.297,92.598L97.535,92.598C92.084,92.598 87.658,96.923 87.658,102.251L87.658,276.004C87.658,281.331 92.084,285.657 97.535,285.657L369.297,285.657C374.749,285.657 379.175,281.331 379.175,276.004L379.175,102.251Z" style="fill:white;stroke:rgb(60,60,59);stroke-width:20.23px;"/>
            </g>
            <circle id="Ellipse1" serif:id="Ellipse" cx="108.366" cy="218.812" r="31.188" style="fill:rgb(149,193,31);"/>
            <g id="Rechteck2" serif:id="Rechteck" transform="matrix(1,0,0,1,0,-1)">
                <rect x="77.177" y="305.991" width="233.233" height="19.363" style="fill:rgb(149,193,31);"/>
            </g>
            <g id="Dreieck2" serif:id="Dreieck" transform="matrix(0.986731,0,0,1,1.0241,0)">
                <path d="M152.539,270.307L227.9,305.991L77.177,305.991L152.539,270.307Z" style="fill:rgb(149,193,31);"/>
            </g>
            <g id="Dreieck3" serif:id="Dreieck" transform="matrix(1,0,0,1,46.1733,106.501)">
                <path d="M186.49,75.23L264.614,199.49L108.366,199.49L186.49,75.23Z" style="fill:rgb(149,193,31);"/>
            </g>
        </g>
    </g>
</svg>
