<svg id="svg" version="1.1" xmlns="http://www.w3.org/2000/svg" xmlns:xlink="http://www.w3.org/1999/xlink" width="400" height="418" viewBox="0, 0, 400,418"><g id="svgg"><path id="path0" d="M118.800 88.738 C 118.800 88.924,119.160 89.402,119.600 89.800 C 120.040 90.198,120.400 90.406,120.400 90.262 C 120.400 90.118,120.040 89.640,119.600 89.200 C 119.160 88.760,118.800 88.552,118.800 88.738 M197.130 117.662 C 187.267 118.609,178.109 125.035,173.562 134.200 C 170.878 139.610,170.702 140.629,170.437 152.200 L 170.200 162.600 147.500 162.703 L 124.800 162.807 124.800 170.203 L 124.800 177.600 147.600 177.600 L 170.400 177.600 170.400 179.421 C 170.400 189.329,178.218 200.733,188.000 205.095 C 206.673 213.422,228.635 200.921,230.328 181.000 L 230.600 177.800 253.500 177.697 L 276.400 177.593 276.400 170.200 L 276.400 162.807 253.500 162.703 L 230.600 162.600 230.365 151.800 C 230.177 143.198,229.992 140.593,229.455 139.000 C 224.647 124.732,211.802 116.253,197.130 117.662 M204.123 133.501 C 204.779 133.886,205.874 134.892,206.558 135.737 L 207.800 137.274 207.800 162.600 L 207.800 187.926 206.577 189.463 C 203.181 193.730,197.475 193.781,194.425 189.571 L 193.200 187.880 193.200 162.687 C 193.200 137.907,193.214 137.473,194.028 136.154 C 196.154 132.715,200.729 131.512,204.123 133.501 " stroke="none" fill="#94c31c" fill-rule="evenodd"></path><path id="path1" d="M200.529 31.478 C 200.050 31.572,199.443 31.907,199.180 32.224 C 198.917 32.541,198.485 32.800,198.220 32.800 C 197.767 32.800,194.338 34.117,191.200 35.495 C 188.286 36.776,184.831 37.899,184.557 37.654 C 184.400 37.514,184.389 37.606,184.533 37.857 C 184.690 38.132,184.355 38.439,183.697 38.625 C 183.094 38.795,182.510 38.969,182.400 39.012 C 182.290 39.054,181.615 39.226,180.900 39.394 C 180.185 39.562,179.600 39.834,179.600 39.997 C 179.600 40.161,178.520 40.598,177.200 40.968 C 175.880 41.338,174.800 41.798,174.800 41.989 C 174.800 42.180,174.215 42.452,173.500 42.593 C 171.700 42.949,169.900 43.668,169.271 44.283 C 168.981 44.567,168.491 44.800,168.183 44.800 C 167.876 44.800,166.673 45.228,165.512 45.750 C 164.350 46.273,162.725 46.917,161.900 47.181 C 161.075 47.446,160.400 47.808,160.400 47.987 C 160.400 48.165,159.738 48.435,158.929 48.587 C 158.119 48.739,156.724 49.194,155.829 49.598 C 154.933 50.002,153.480 50.565,152.600 50.849 C 151.720 51.133,150.730 51.576,150.400 51.832 C 149.777 52.317,147.598 53.092,145.988 53.402 C 145.477 53.501,144.956 53.739,144.829 53.933 C 144.616 54.259,141.647 55.372,141.200 55.293 C 141.090 55.273,140.730 55.491,140.400 55.778 C 139.823 56.279,137.405 57.182,136.144 57.367 C 135.810 57.416,135.415 57.638,135.268 57.859 C 135.121 58.081,133.785 58.606,132.300 59.026 C 130.815 59.446,129.600 59.913,129.600 60.064 C 129.600 60.335,127.320 61.194,126.144 61.367 C 125.810 61.416,125.415 61.650,125.268 61.887 C 125.121 62.124,124.190 62.529,123.200 62.788 C 119.088 63.864,117.391 68.052,120.100 70.441 C 120.815 71.071,121.625 71.590,121.900 71.594 C 122.175 71.597,122.400 71.735,122.400 71.900 C 122.401 72.352,125.900 72.486,126.173 72.044 C 126.303 71.834,127.352 71.350,128.505 70.969 C 129.657 70.589,130.960 70.054,131.400 69.780 C 131.840 69.507,132.650 69.153,133.200 68.995 C 133.750 68.836,135.100 68.304,136.200 67.813 C 138.338 66.859,140.392 66.221,140.930 66.344 C 141.111 66.386,141.160 66.258,141.037 66.060 C 140.915 65.863,141.892 65.399,143.208 65.030 C 144.523 64.661,145.600 64.204,145.600 64.014 C 145.600 63.825,146.319 63.549,147.198 63.400 C 148.077 63.252,148.897 62.966,149.022 62.765 C 149.146 62.564,149.597 62.400,150.024 62.400 C 150.451 62.400,150.800 62.248,150.800 62.063 C 150.800 61.878,151.565 61.503,152.500 61.229 C 153.435 60.955,154.563 60.500,155.006 60.218 C 155.449 59.936,156.427 59.570,157.179 59.405 C 157.931 59.240,159.136 58.773,159.857 58.368 C 160.578 57.963,162.210 57.331,163.484 56.963 C 164.758 56.595,166.160 56.043,166.600 55.737 C 167.040 55.431,168.102 54.990,168.960 54.758 C 169.818 54.527,170.754 54.103,171.041 53.817 C 171.327 53.530,172.245 53.169,173.080 53.012 C 173.916 52.856,174.829 52.539,175.108 52.309 C 175.896 51.657,180.724 50.061,181.043 50.346 C 181.200 50.486,181.207 50.388,181.058 50.129 C 180.782 49.646,181.169 49.467,183.504 48.997 C 184.221 48.853,185.031 48.521,185.304 48.260 C 185.577 47.999,186.867 47.455,188.172 47.050 C 189.476 46.645,190.794 46.063,191.100 45.757 C 191.406 45.451,191.984 45.200,192.383 45.200 C 193.427 45.200,195.663 44.197,195.340 43.873 C 195.190 43.723,195.378 43.600,195.758 43.600 C 196.805 43.600,200.533 42.314,201.093 41.759 C 201.592 41.266,203.025 41.424,203.849 42.064 C 204.095 42.256,205.175 42.675,206.249 42.995 C 207.322 43.315,208.913 43.943,209.785 44.389 C 210.656 44.835,211.697 45.200,212.097 45.200 C 212.498 45.200,212.921 45.450,213.038 45.755 C 213.155 46.060,213.825 46.446,214.526 46.611 C 215.227 46.776,215.890 46.951,216.000 47.000 C 216.110 47.049,216.782 47.225,217.494 47.393 C 218.205 47.560,218.689 47.855,218.570 48.049 C 218.450 48.242,218.645 48.400,219.001 48.400 C 220.202 48.400,223.594 49.686,223.366 50.055 C 223.242 50.255,223.289 50.377,223.470 50.326 C 224.011 50.171,228.506 51.699,229.800 52.476 C 230.460 52.873,231.383 53.198,231.851 53.199 C 232.319 53.199,232.911 53.452,233.167 53.760 C 233.422 54.068,234.794 54.634,236.216 55.019 C 237.637 55.404,238.800 55.859,238.800 56.031 C 238.800 56.203,239.835 56.643,241.100 57.009 C 242.365 57.376,243.580 57.815,243.800 57.986 C 244.020 58.156,244.920 58.526,245.800 58.807 C 246.680 59.088,248.007 59.640,248.748 60.034 C 249.490 60.428,250.975 60.976,252.048 61.251 C 253.122 61.526,254.000 61.880,254.000 62.038 C 254.000 62.196,255.035 62.646,256.300 63.038 C 257.565 63.430,258.720 63.928,258.867 64.145 C 259.014 64.363,259.550 64.604,260.059 64.682 C 260.567 64.759,261.158 64.998,261.371 65.211 C 261.585 65.425,262.185 65.600,262.704 65.600 C 263.223 65.600,263.556 65.748,263.444 65.929 C 263.332 66.111,264.109 66.482,265.172 66.754 C 266.234 67.026,267.728 67.584,268.491 67.993 C 269.254 68.402,270.626 68.938,271.539 69.184 C 272.453 69.430,273.200 69.804,273.200 70.015 C 273.200 70.227,273.335 70.370,273.500 70.334 C 273.909 70.245,276.106 70.846,276.600 71.183 C 278.054 72.175,280.385 72.498,281.677 71.888 C 282.405 71.544,283.270 71.203,283.600 71.131 C 284.489 70.937,285.564 68.800,285.583 67.188 C 285.605 65.359,283.632 63.420,281.046 62.728 C 280.031 62.456,279.200 62.096,279.200 61.928 C 279.200 61.760,278.213 61.336,277.007 60.985 C 275.801 60.634,274.730 60.210,274.627 60.043 C 274.523 59.875,273.305 59.406,271.919 59.000 C 270.534 58.594,269.130 58.039,268.800 57.768 C 268.470 57.497,267.443 57.073,266.517 56.826 C 265.591 56.580,264.726 56.203,264.593 55.989 C 264.461 55.775,264.048 55.599,263.676 55.598 C 263.304 55.596,262.484 55.326,261.854 54.998 C 261.224 54.669,260.459 54.400,260.154 54.400 C 259.849 54.400,259.600 54.220,259.600 54.000 C 259.600 53.780,259.342 53.600,259.026 53.600 C 258.710 53.600,258.035 53.442,257.526 53.248 C 257.017 53.054,256.502 52.919,256.382 52.948 C 256.263 52.977,255.717 52.707,255.170 52.348 C 254.622 51.989,253.145 51.371,251.887 50.975 C 250.629 50.578,249.600 50.133,249.600 49.986 C 249.600 49.839,248.430 49.402,247.000 49.015 C 245.570 48.628,244.400 48.184,244.400 48.029 C 244.400 47.873,243.365 47.421,242.100 47.024 C 240.835 46.627,239.697 46.140,239.571 45.942 C 239.444 45.744,238.994 45.501,238.571 45.404 C 235.816 44.768,234.147 44.193,233.800 43.759 C 233.580 43.483,232.680 43.069,231.800 42.839 C 230.920 42.608,229.487 42.055,228.615 41.610 C 227.744 41.164,226.814 40.800,226.548 40.800 C 226.283 40.800,225.170 40.350,224.075 39.800 C 222.980 39.250,221.874 38.800,221.617 38.800 C 221.360 38.800,220.181 38.342,218.997 37.781 C 217.812 37.221,216.519 36.697,216.122 36.617 C 215.725 36.537,214.410 36.007,213.200 35.440 C 211.990 34.872,210.685 34.406,210.300 34.404 C 209.915 34.402,209.600 34.227,209.600 34.015 C 209.600 33.804,208.835 33.440,207.900 33.207 C 206.965 32.974,205.430 32.427,204.489 31.992 C 202.806 31.213,202.259 31.142,200.529 31.478 M200.500 51.313 C 199.345 51.504,198.400 51.808,198.400 51.987 C 198.400 52.265,197.934 52.457,195.900 53.017 C 195.735 53.063,195.433 53.123,195.229 53.150 C 195.024 53.178,194.619 53.431,194.329 53.714 C 194.038 53.997,192.630 54.576,191.200 55.000 C 189.770 55.424,188.362 56.003,188.071 56.286 C 187.781 56.569,187.286 56.823,186.971 56.850 C 185.863 56.947,185.664 57.003,185.367 57.300 C 185.202 57.465,184.737 57.600,184.333 57.600 C 183.930 57.600,183.600 57.752,183.600 57.937 C 183.600 58.122,182.835 58.500,181.900 58.778 C 180.965 59.055,179.300 59.702,178.200 60.215 C 177.100 60.728,175.705 61.269,175.100 61.417 C 174.495 61.566,174.000 61.831,174.000 62.008 C 174.000 62.185,173.281 62.451,172.402 62.600 C 171.523 62.748,170.703 63.034,170.578 63.235 C 170.454 63.436,170.003 63.600,169.576 63.600 C 169.149 63.600,168.800 63.756,168.800 63.947 C 168.800 64.138,167.716 64.599,166.391 64.971 C 165.066 65.342,164.086 65.816,164.214 66.023 C 164.342 66.230,164.079 66.400,163.628 66.400 C 163.177 66.400,161.916 66.739,160.825 67.154 C 159.734 67.568,158.713 67.793,158.556 67.654 C 158.400 67.514,158.398 67.620,158.552 67.888 C 158.812 68.340,158.183 68.646,156.376 68.943 C 156.059 68.996,155.419 69.248,154.953 69.505 C 154.487 69.762,153.963 69.843,153.788 69.686 C 153.614 69.529,153.586 69.600,153.725 69.844 C 153.885 70.125,153.028 70.544,151.389 70.988 C 149.965 71.373,148.800 71.820,148.800 71.981 C 148.800 72.142,147.720 72.600,146.400 73.000 C 145.080 73.400,144.000 73.856,144.000 74.013 C 144.000 74.171,143.419 74.416,142.710 74.558 C 142.000 74.700,140.695 75.153,139.810 75.565 C 138.924 75.977,137.300 76.638,136.200 77.033 C 135.100 77.429,133.840 77.968,133.400 78.232 C 132.960 78.495,131.880 78.934,131.000 79.208 C 130.120 79.481,129.220 79.841,129.000 80.007 C 128.780 80.174,127.520 80.642,126.200 81.048 C 124.880 81.454,123.562 82.014,123.271 82.293 C 122.981 82.572,122.480 82.800,122.158 82.800 C 119.787 82.800,117.906 87.506,119.600 89.200 C 120.040 89.640,120.400 90.162,120.400 90.361 C 120.400 92.126,128.046 91.643,130.475 89.725 C 130.764 89.497,131.540 89.181,132.200 89.024 C 132.860 88.867,133.670 88.505,134.000 88.221 C 134.330 87.937,135.050 87.609,135.600 87.493 C 136.858 87.226,139.335 86.278,139.600 85.961 C 139.710 85.829,140.880 85.353,142.200 84.902 C 146.043 83.590,149.384 82.262,149.600 81.961 C 149.710 81.808,150.610 81.468,151.600 81.205 C 152.590 80.942,153.940 80.398,154.600 79.997 C 155.260 79.596,156.469 79.143,157.286 78.992 C 158.103 78.840,158.970 78.477,159.213 78.184 C 159.456 77.891,160.228 77.531,160.928 77.383 C 161.627 77.236,163.010 76.717,164.000 76.231 C 164.990 75.745,166.652 75.112,167.693 74.824 C 168.734 74.536,169.488 74.143,169.369 73.950 C 169.250 73.758,169.454 73.600,169.823 73.600 C 170.724 73.600,174.567 72.275,174.731 71.907 C 174.845 71.652,177.646 70.705,178.515 70.628 C 178.688 70.613,178.958 70.415,179.115 70.189 C 179.272 69.963,180.474 69.447,181.787 69.041 C 183.100 68.636,184.540 68.078,184.987 67.802 C 185.434 67.526,186.655 67.059,187.700 66.763 C 188.745 66.467,189.600 66.099,189.600 65.944 C 189.600 65.790,190.185 65.537,190.900 65.382 C 191.615 65.228,193.010 64.699,194.000 64.208 C 194.990 63.717,196.340 63.168,197.000 62.990 C 197.660 62.811,198.335 62.628,198.500 62.583 C 198.665 62.537,199.010 62.477,199.267 62.450 C 199.523 62.423,199.611 62.277,199.461 62.128 C 199.311 61.978,199.933 61.604,200.843 61.296 C 202.026 60.896,202.620 60.860,202.929 61.169 C 203.166 61.406,203.785 61.600,204.304 61.600 C 204.831 61.600,205.138 61.777,205.000 62.000 C 204.864 62.220,204.943 62.423,205.176 62.450 C 206.305 62.583,209.716 63.704,210.600 64.233 C 211.040 64.496,212.120 64.937,213.000 65.213 C 213.880 65.490,214.690 65.825,214.800 65.958 C 215.137 66.366,218.956 67.701,219.709 67.674 C 220.098 67.660,220.318 67.809,220.197 68.006 C 220.075 68.202,220.746 68.558,221.688 68.797 C 222.630 69.035,224.334 69.674,225.475 70.215 C 226.616 70.757,227.696 71.201,227.875 71.202 C 228.054 71.204,228.650 71.440,229.200 71.727 C 229.750 72.013,231.190 72.596,232.400 73.021 C 233.610 73.446,234.690 73.906,234.800 74.044 C 234.910 74.181,236.041 74.595,237.314 74.962 C 238.587 75.330,239.521 75.804,239.391 76.015 C 239.260 76.227,239.603 76.400,240.153 76.400 C 240.703 76.400,241.254 76.564,241.378 76.765 C 241.503 76.966,242.323 77.252,243.202 77.400 C 244.081 77.549,244.800 77.811,244.800 77.983 C 244.800 78.155,245.655 78.533,246.700 78.822 C 247.745 79.111,249.410 79.745,250.400 80.231 C 251.390 80.717,252.787 81.239,253.503 81.390 C 254.220 81.541,254.702 81.835,254.574 82.042 C 254.445 82.250,254.489 82.378,254.670 82.327 C 255.113 82.203,259.197 83.568,260.200 84.176 C 260.640 84.442,261.852 84.894,262.893 85.180 C 263.934 85.466,264.688 85.857,264.569 86.050 C 264.450 86.242,264.803 86.400,265.353 86.400 C 265.903 86.400,266.454 86.564,266.578 86.765 C 266.703 86.966,267.523 87.252,268.402 87.400 C 269.281 87.549,270.000 87.806,270.000 87.971 C 270.000 88.137,270.765 88.512,271.700 88.806 C 272.635 89.099,273.850 89.572,274.400 89.857 C 279.029 92.254,282.637 92.113,284.863 89.450 C 286.588 87.386,285.133 83.768,282.187 82.796 C 281.424 82.544,280.800 82.206,280.800 82.045 C 280.800 81.883,279.935 81.530,278.878 81.259 C 277.821 80.988,276.491 80.525,275.923 80.230 C 275.355 79.935,273.970 79.389,272.845 79.015 C 271.720 78.641,270.798 78.215,270.797 78.068 C 270.795 77.921,269.670 77.454,268.297 77.031 C 266.923 76.608,265.440 76.042,265.000 75.773 C 264.560 75.504,263.750 75.153,263.200 74.995 C 262.650 74.836,261.260 74.282,260.111 73.763 C 258.962 73.245,257.566 72.706,257.010 72.567 C 256.453 72.427,255.330 71.972,254.514 71.556 C 253.698 71.140,252.789 70.800,252.492 70.800 C 252.196 70.800,251.199 70.379,250.277 69.864 C 249.355 69.349,248.464 68.902,248.298 68.871 C 246.840 68.597,245.724 68.181,245.291 67.748 C 245.007 67.464,244.105 67.114,243.287 66.971 C 242.469 66.827,241.440 66.488,241.000 66.216 C 240.560 65.944,239.480 65.491,238.600 65.210 C 237.720 64.929,236.721 64.456,236.379 64.159 C 236.038 63.862,235.408 63.552,234.979 63.471 C 232.944 63.084,230.400 62.275,230.400 62.016 C 230.400 61.857,229.635 61.500,228.700 61.224 C 227.765 60.947,226.730 60.506,226.400 60.244 C 226.070 59.981,224.720 59.421,223.400 58.999 C 222.080 58.576,220.910 58.130,220.800 58.007 C 220.442 57.607,218.379 56.800,217.713 56.800 C 217.355 56.800,216.779 56.564,216.431 56.276 C 216.084 55.988,214.743 55.431,213.450 55.040 C 212.158 54.648,210.538 53.985,209.850 53.565 C 209.163 53.146,208.254 52.802,207.831 52.801 C 207.409 52.801,206.779 52.556,206.431 52.257 C 205.379 51.353,202.767 50.937,200.500 51.313 M189.600 87.368 C 187.730 87.622,185.930 87.947,185.600 88.091 C 185.270 88.234,183.568 88.636,181.819 88.984 C 180.069 89.332,178.539 89.750,178.419 89.914 C 178.298 90.078,176.941 90.540,175.402 90.941 C 173.863 91.343,172.513 91.804,172.402 91.966 C 172.291 92.129,171.210 92.581,170.000 92.971 C 168.790 93.361,167.710 93.817,167.600 93.983 C 167.490 94.150,166.590 94.668,165.600 95.134 C 163.529 96.109,161.182 97.408,160.600 97.901 C 160.380 98.087,159.570 98.591,158.800 99.020 C 158.030 99.449,157.165 100.115,156.877 100.500 C 156.590 100.885,156.089 101.200,155.765 101.200 C 155.440 101.200,155.071 101.470,154.945 101.800 C 154.818 102.130,154.477 102.400,154.186 102.400 C 153.896 102.400,153.330 102.806,152.929 103.302 C 152.528 103.798,151.742 104.498,151.181 104.858 C 149.963 105.640,142.400 113.219,142.400 113.657 C 142.400 113.937,141.692 114.778,139.572 117.014 C 139.147 117.462,138.800 118.038,138.800 118.294 C 138.800 118.551,138.575 118.904,138.300 119.080 C 138.025 119.256,137.449 120.030,137.020 120.800 C 136.591 121.570,136.087 122.380,135.901 122.600 C 135.408 123.182,134.109 125.529,133.134 127.600 C 132.668 128.590,132.154 129.490,131.992 129.600 C 131.830 129.710,131.360 130.790,130.949 132.000 C 130.537 133.210,129.997 134.416,129.748 134.680 C 129.500 134.945,129.168 135.845,129.012 136.680 C 128.855 137.516,128.400 138.920,127.999 139.800 C 127.599 140.680,127.069 142.570,126.822 144.000 C 126.575 145.430,126.215 146.960,126.022 147.400 C 125.439 148.728,124.799 154.753,124.799 158.903 L 124.800 162.807 147.500 162.703 L 170.200 162.600 170.437 152.200 C 170.702 140.629,170.878 139.610,173.562 134.200 C 185.665 109.804,220.628 112.807,229.455 139.000 C 229.992 140.593,230.177 143.198,230.365 151.800 L 230.600 162.600 253.500 162.703 L 276.400 162.807 276.400 158.603 C 276.400 156.291,276.246 154.400,276.058 154.400 C 275.869 154.400,275.593 152.942,275.445 151.161 C 275.153 147.660,274.485 144.042,274.012 143.400 C 273.849 143.180,273.408 141.743,273.031 140.208 C 272.653 138.672,272.201 137.232,272.024 137.008 C 271.848 136.783,271.481 135.880,271.208 135.000 C 270.559 132.907,266.445 124.400,266.082 124.399 C 265.927 124.398,265.473 123.602,265.074 122.631 C 264.675 121.660,264.090 120.766,263.774 120.645 C 263.458 120.524,263.200 120.160,263.200 119.835 C 263.200 119.511,262.885 119.010,262.500 118.723 C 262.115 118.435,261.530 117.669,261.200 117.019 C 260.275 115.198,252.713 107.255,248.711 103.901 C 247.990 103.297,246.967 102.442,246.439 102.001 C 245.910 101.560,245.370 101.200,245.239 101.199 C 245.107 101.199,244.370 100.659,243.600 100.000 C 242.830 99.341,242.003 98.801,241.761 98.801 C 241.520 98.800,240.916 98.448,240.420 98.017 C 239.924 97.587,238.922 97.038,238.194 96.798 C 237.466 96.558,236.784 96.135,236.678 95.859 C 236.572 95.582,235.746 95.112,234.843 94.814 C 233.939 94.516,233.200 94.150,233.200 94.000 C 233.200 93.850,232.435 93.491,231.500 93.201 C 230.565 92.911,229.440 92.463,229.000 92.206 C 227.981 91.610,224.246 90.400,223.425 90.400 C 223.081 90.400,222.800 90.245,222.800 90.055 C 222.800 89.865,221.225 89.408,219.300 89.039 C 217.375 88.670,215.440 88.207,215.000 88.009 C 212.425 86.855,196.359 86.449,189.600 87.368 M198.317 132.775 C 193.037 134.466,193.200 133.515,193.200 162.687 L 193.200 187.880 194.425 189.571 C 197.475 193.781,203.181 193.730,206.577 189.463 L 207.800 187.926 207.800 162.600 L 207.800 137.274 206.558 135.737 C 204.420 133.092,201.076 131.891,198.317 132.775 M124.800 219.171 C 124.800 258.814,124.961 265.464,125.974 267.800 C 126.165 268.240,126.600 270.114,126.940 271.964 C 127.281 273.814,127.727 275.434,127.932 275.564 C 128.136 275.694,128.539 276.855,128.826 278.145 C 129.113 279.435,129.540 280.695,129.775 280.945 C 130.009 281.195,130.542 282.390,130.959 283.600 C 131.375 284.810,131.930 286.070,132.192 286.400 C 132.454 286.730,132.900 287.585,133.183 288.300 C 133.466 289.015,133.826 289.600,133.985 289.600 C 134.143 289.600,134.516 290.339,134.814 291.243 C 135.112 292.146,135.573 292.968,135.839 293.070 C 136.104 293.172,136.424 293.558,136.549 293.928 C 136.804 294.680,137.500 295.775,138.400 296.839 C 138.730 297.230,139.360 298.036,139.800 298.632 C 140.240 299.227,141.005 300.147,141.500 300.675 C 141.995 301.204,142.402 301.763,142.405 301.918 C 142.410 302.226,151.140 310.784,153.097 312.400 C 155.831 314.657,158.637 316.620,159.967 317.206 C 160.499 317.440,161.129 317.867,161.367 318.154 C 161.605 318.441,162.430 318.919,163.200 319.216 C 163.970 319.512,164.690 319.875,164.800 320.021 C 165.148 320.486,167.534 321.600,168.180 321.600 C 168.521 321.600,168.800 321.773,168.800 321.985 C 168.800 322.196,169.677 322.629,170.749 322.948 C 171.821 323.266,173.216 323.785,173.849 324.101 C 174.482 324.417,175.900 324.915,177.000 325.208 C 178.100 325.501,179.090 325.859,179.200 326.004 C 179.453 326.337,185.841 327.601,187.267 327.600 C 187.853 327.600,188.408 327.825,188.500 328.100 C 188.730 328.790,209.404 328.811,212.000 328.123 C 212.990 327.861,215.510 327.338,217.600 326.961 C 219.690 326.584,221.490 326.151,221.600 325.999 C 221.710 325.846,223.105 325.405,224.700 325.018 C 226.295 324.631,227.600 324.182,227.600 324.020 C 227.600 323.859,228.680 323.400,230.000 323.000 C 231.320 322.600,232.400 322.161,232.400 322.025 C 232.400 321.888,233.300 321.427,234.400 321.000 C 235.500 320.573,236.400 320.097,236.400 319.943 C 236.400 319.788,237.029 319.455,237.797 319.201 C 238.565 318.947,239.330 318.519,239.497 318.248 C 239.664 317.978,240.475 317.443,241.300 317.060 C 242.125 316.676,242.800 316.213,242.800 316.030 C 242.800 315.847,243.344 315.472,244.009 315.196 C 244.675 314.921,245.350 314.489,245.509 314.238 C 245.669 313.987,246.307 313.458,246.927 313.064 C 248.929 311.789,258.800 302.281,258.800 301.627 C 258.800 301.417,259.118 301.010,259.507 300.723 C 259.896 300.435,260.556 299.665,260.975 299.010 C 261.393 298.356,261.889 297.636,262.076 297.410 C 262.263 297.185,263.176 295.830,264.105 294.400 C 265.034 292.970,265.914 291.709,266.061 291.599 C 266.207 291.488,266.649 290.588,267.043 289.599 C 267.436 288.609,267.988 287.567,268.268 287.282 C 268.549 286.997,268.992 286.052,269.253 285.182 C 269.513 284.312,269.854 283.600,270.011 283.600 C 270.167 283.600,270.598 282.520,270.968 281.200 C 271.338 279.880,271.776 278.800,271.941 278.800 C 272.105 278.800,272.577 277.405,272.989 275.700 C 273.402 273.995,273.867 272.420,274.023 272.200 C 274.469 271.571,275.123 268.088,275.429 264.700 C 275.584 262.995,275.862 261.600,276.048 261.600 C 276.234 261.600,276.390 242.699,276.396 219.597 L 276.407 177.593 253.504 177.697 L 230.600 177.800 230.328 181.000 C 228.635 200.921,206.673 213.422,188.000 205.095 C 178.218 200.733,170.400 189.329,170.400 179.421 L 170.400 177.600 147.600 177.600 L 124.800 177.600 124.800 219.171 M121.679 324.346 C 117.121 326.740,117.884 331.870,122.988 333.155 C 123.985 333.406,124.800 333.800,124.800 334.029 C 124.800 334.259,124.980 334.336,125.200 334.200 C 125.420 334.064,125.600 334.120,125.600 334.325 C 125.600 334.530,126.307 334.811,127.172 334.949 C 128.036 335.087,129.013 335.470,129.343 335.800 C 129.673 336.130,130.175 336.400,130.458 336.400 C 131.216 336.400,134.561 337.702,134.840 338.106 C 134.972 338.297,135.332 338.501,135.640 338.559 C 137.304 338.874,139.600 339.670,139.600 339.932 C 139.600 340.097,140.860 340.578,142.400 341.000 C 143.940 341.422,145.200 341.881,145.200 342.020 C 145.200 342.159,146.280 342.600,147.600 343.000 C 148.920 343.400,150.000 343.871,150.000 344.048 C 150.000 344.225,150.765 344.563,151.700 344.800 C 152.635 345.037,154.307 345.661,155.416 346.187 C 156.525 346.713,157.965 347.274,158.616 347.435 C 159.267 347.595,160.231 348.006,160.758 348.348 C 161.286 348.689,162.090 349.026,162.545 349.095 C 163.000 349.165,163.798 349.499,164.316 349.839 C 164.835 350.179,165.561 350.532,165.930 350.624 C 166.298 350.715,167.455 351.002,168.500 351.262 C 169.545 351.522,170.400 351.879,170.400 352.056 C 170.400 352.233,171.392 352.666,172.605 353.019 C 173.818 353.371,174.707 353.826,174.582 354.030 C 174.456 354.233,174.633 354.423,174.976 354.450 C 175.931 354.527,176.078 354.562,177.900 355.165 C 178.835 355.475,179.600 355.857,179.600 356.014 C 179.600 356.171,180.127 356.405,180.771 356.534 C 181.414 356.663,182.719 357.118,183.671 357.546 C 184.622 357.974,186.300 358.647,187.400 359.041 C 188.500 359.436,189.490 359.867,189.600 359.999 C 189.710 360.131,190.610 360.474,191.600 360.761 C 192.590 361.047,194.300 361.702,195.400 362.215 C 196.500 362.728,197.938 363.280,198.596 363.441 C 199.254 363.603,200.016 363.959,200.290 364.233 C 200.564 364.507,201.106 364.670,201.494 364.596 C 201.882 364.522,202.796 364.447,203.524 364.431 C 204.298 364.413,204.745 364.234,204.600 364.000 C 204.464 363.780,204.633 363.578,204.976 363.550 C 205.939 363.473,206.334 363.331,209.582 361.894 C 210.562 361.460,211.552 361.063,211.782 361.012 C 212.012 360.961,212.650 360.733,213.200 360.506 C 213.750 360.280,214.363 360.191,214.562 360.309 C 214.761 360.427,214.795 360.316,214.638 360.062 C 214.472 359.792,214.613 359.579,214.976 359.550 C 215.773 359.486,215.965 359.431,217.326 358.866 C 217.945 358.610,218.620 358.400,218.826 358.400 C 219.032 358.400,219.200 358.243,219.200 358.050 C 219.200 357.858,219.785 357.562,220.500 357.394 C 221.907 357.063,222.291 356.954,222.600 356.800 C 222.920 356.640,223.551 356.504,224.224 356.450 C 224.567 356.423,224.736 356.220,224.600 356.000 C 224.464 355.780,224.588 355.586,224.876 355.569 C 226.038 355.501,226.927 355.233,227.332 354.828 C 227.568 354.592,228.084 354.400,228.480 354.400 C 228.876 354.400,229.200 354.240,229.200 354.045 C 229.200 353.849,229.785 353.578,230.500 353.442 C 231.215 353.307,232.340 352.911,233.000 352.564 C 234.810 351.610,238.110 350.400,238.900 350.400 C 239.285 350.400,239.600 350.223,239.600 350.008 C 239.600 349.684,240.271 349.397,242.000 348.983 C 242.110 348.956,243.049 348.554,244.086 348.088 C 245.123 347.622,246.698 347.023,247.586 346.757 C 248.474 346.491,249.200 346.150,249.200 346.000 C 249.200 345.684,254.036 344.153,254.530 344.313 C 254.711 344.372,254.758 344.256,254.635 344.056 C 254.511 343.856,255.260 343.478,256.300 343.217 C 257.339 342.955,258.420 342.549,258.703 342.315 C 259.492 341.660,264.322 340.059,264.643 340.346 C 264.800 340.486,264.805 340.385,264.655 340.123 C 264.470 339.801,265.163 339.427,266.791 338.971 C 268.116 338.599,269.200 338.161,269.200 337.997 C 269.200 337.756,271.350 337.120,271.702 337.258 C 271.756 337.279,272.645 336.824,273.677 336.248 C 274.709 335.672,275.746 335.200,275.981 335.200 C 276.216 335.200,277.172 334.845,278.104 334.411 C 279.037 333.976,280.592 333.345,281.560 333.007 C 286.359 331.333,287.078 325.688,282.634 324.573 C 282.065 324.430,281.600 324.153,281.600 323.957 C 281.600 323.390,279.401 323.543,278.146 324.198 C 277.516 324.526,276.640 324.797,276.200 324.799 C 275.760 324.801,274.845 325.141,274.167 325.555 C 273.488 325.969,272.365 326.432,271.671 326.584 C 270.977 326.737,270.306 327.028,270.181 327.231 C 270.055 327.434,269.587 327.600,269.139 327.600 C 268.692 327.600,267.869 327.960,267.309 328.400 C 266.750 328.840,265.999 329.200,265.640 329.200 C 265.282 329.200,264.361 329.536,263.594 329.947 C 262.827 330.357,261.570 330.827,260.800 330.991 C 260.030 331.155,259.130 331.514,258.800 331.788 C 258.164 332.316,255.600 333.277,255.600 332.987 C 255.600 332.893,254.745 333.293,253.700 333.877 C 252.655 334.460,251.710 334.912,251.600 334.880 C 251.079 334.731,248.399 335.675,248.568 335.948 C 248.674 336.119,247.914 336.479,246.880 336.749 C 245.846 337.018,244.100 337.678,243.000 338.215 C 241.900 338.753,240.698 339.194,240.329 339.196 C 239.959 339.198,239.410 339.447,239.109 339.748 C 238.807 340.050,237.509 340.602,236.224 340.976 C 234.939 341.349,233.508 341.892,233.044 342.183 C 232.580 342.473,231.508 342.931,230.661 343.199 C 229.815 343.468,228.645 343.937,228.061 344.241 C 227.478 344.546,226.756 344.796,226.458 344.798 C 226.160 344.799,225.080 345.218,224.058 345.730 C 223.036 346.241,221.345 346.910,220.300 347.217 C 219.255 347.524,218.400 347.896,218.400 348.044 C 218.400 348.280,217.198 348.719,215.717 349.025 C 215.452 349.079,214.642 349.428,213.917 349.798 C 213.193 350.169,211.745 350.733,210.700 351.052 C 209.655 351.370,208.800 351.804,208.800 352.015 C 208.800 352.227,208.438 352.400,207.995 352.400 C 207.151 352.400,206.856 352.517,204.121 353.931 C 202.165 354.943,201.841 354.981,201.129 354.281 C 200.838 353.996,199.520 353.426,198.200 353.015 C 196.880 352.604,195.248 351.959,194.573 351.582 C 193.898 351.204,192.773 350.770,192.073 350.616 C 191.373 350.462,190.800 350.216,190.800 350.068 C 190.800 349.921,189.630 349.447,188.200 349.015 C 186.770 348.583,185.600 348.117,185.600 347.979 C 185.600 347.841,184.835 347.500,183.900 347.220 C 182.965 346.941,181.293 346.295,180.184 345.785 C 179.075 345.275,177.635 344.730,176.984 344.575 C 176.333 344.420,175.530 344.074,175.200 343.807 C 174.870 343.540,173.740 343.090,172.690 342.806 C 171.639 342.522,170.688 342.143,170.577 341.962 C 170.465 341.782,169.300 341.333,167.987 340.964 C 166.674 340.596,165.600 340.176,165.600 340.030 C 165.600 339.885,164.565 339.415,163.300 338.986 C 162.035 338.557,160.377 337.890,159.615 337.503 C 158.854 337.116,157.988 336.800,157.691 336.800 C 157.394 336.800,156.203 336.352,155.045 335.804 C 153.887 335.256,152.368 334.694,151.670 334.554 C 150.971 334.414,150.400 334.152,150.400 333.970 C 150.400 333.789,149.365 333.320,148.100 332.928 C 146.835 332.535,145.582 332.006,145.315 331.751 C 145.048 331.496,143.924 331.070,142.816 330.804 C 141.708 330.538,140.905 330.154,141.031 329.950 C 141.156 329.747,141.111 329.623,140.930 329.674 C 140.504 329.796,135.863 328.331,135.600 327.992 C 135.490 327.850,134.410 327.390,133.200 326.970 C 131.990 326.550,130.910 326.097,130.800 325.964 C 129.670 324.594,123.343 323.472,121.679 324.346 M121.166 344.141 C 116.581 347.333,117.885 351.294,124.100 353.054 C 125.365 353.412,126.400 353.826,126.400 353.974 C 126.400 354.121,127.345 354.568,128.500 354.967 C 129.655 355.365,131.332 356.031,132.226 356.446 C 133.121 356.861,134.053 357.200,134.298 357.200 C 134.543 357.200,134.981 357.431,135.271 357.714 C 135.771 358.201,138.470 359.171,140.183 359.479 C 140.613 359.557,141.063 359.778,141.183 359.970 C 141.302 360.162,142.345 360.628,143.500 361.006 C 144.655 361.383,145.600 361.851,145.600 362.046 C 145.600 362.241,145.864 362.400,146.186 362.400 C 147.078 362.400,150.569 363.646,150.829 364.056 C 150.956 364.256,151.496 364.502,152.029 364.604 C 153.217 364.831,155.062 365.498,156.400 366.184 C 156.950 366.466,158.120 366.923,159.000 367.199 C 159.880 367.475,160.915 367.976,161.300 368.313 C 161.685 368.649,162.000 368.808,162.000 368.665 C 162.000 368.392,164.265 369.183,167.096 370.444 C 168.028 370.860,169.039 371.200,169.342 371.200 C 169.644 371.200,170.321 371.534,170.846 371.942 C 171.371 372.350,172.433 372.801,173.207 372.943 C 173.981 373.085,175.241 373.535,176.007 373.942 C 176.773 374.349,178.120 374.912,179.000 375.192 C 179.880 375.472,180.870 375.925,181.200 376.200 C 181.530 376.474,182.745 376.919,183.899 377.189 C 185.054 377.459,185.895 377.846,185.769 378.050 C 185.644 378.253,185.689 378.383,185.870 378.338 C 186.370 378.213,189.992 379.431,191.827 380.341 C 192.722 380.785,193.982 381.278,194.627 381.437 C 195.272 381.596,196.160 381.953,196.600 382.229 C 197.040 382.505,198.165 382.955,199.100 383.229 C 200.035 383.503,200.800 383.878,200.800 384.063 C 200.800 384.248,201.340 384.400,202.000 384.400 C 202.660 384.400,203.200 384.244,203.200 384.053 C 203.200 383.862,204.280 383.402,205.600 383.032 C 206.920 382.662,208.000 382.217,208.000 382.044 C 208.000 381.870,209.170 381.394,210.600 380.985 C 212.030 380.576,213.200 380.111,213.200 379.952 C 213.200 379.714,215.071 379.107,216.067 379.023 C 216.213 379.010,216.468 378.865,216.633 378.700 C 216.798 378.535,217.263 378.400,217.667 378.400 C 218.070 378.400,218.400 378.237,218.400 378.037 C 218.400 377.838,219.435 377.356,220.700 376.968 C 221.965 376.579,223.355 376.022,223.789 375.730 C 224.223 375.439,224.977 375.200,225.465 375.200 C 225.953 375.200,226.464 375.020,226.600 374.800 C 226.736 374.580,227.197 374.400,227.624 374.400 C 228.051 374.400,228.400 374.234,228.400 374.032 C 228.400 373.829,228.985 373.540,229.700 373.389 C 230.415 373.238,231.817 372.711,232.816 372.216 C 233.814 371.722,235.344 371.085,236.216 370.801 C 237.087 370.517,237.890 370.174,238.000 370.039 C 238.307 369.662,242.107 368.396,242.924 368.398 C 243.322 368.399,243.541 368.228,243.412 368.019 C 243.282 367.809,243.946 367.434,244.888 367.186 C 245.830 366.938,246.960 366.514,247.400 366.245 C 247.840 365.975,249.010 365.524,250.000 365.243 C 250.990 364.961,252.160 364.504,252.600 364.226 C 253.040 363.948,254.120 363.491,255.000 363.209 C 255.880 362.927,257.050 362.466,257.600 362.184 C 258.150 361.902,259.230 361.448,260.000 361.176 C 260.770 360.903,261.940 360.454,262.600 360.178 C 265.152 359.110,267.814 358.212,268.130 358.314 C 268.311 358.372,268.358 358.256,268.235 358.056 C 268.047 357.753,270.068 357.022,272.360 356.565 C 272.668 356.503,273.028 356.282,273.160 356.074 C 273.428 355.650,276.903 354.400,277.814 354.400 C 278.136 354.400,278.400 354.234,278.400 354.031 C 278.400 353.688,280.507 352.831,281.828 352.637 C 282.147 352.590,282.622 352.338,282.884 352.076 C 283.146 351.814,283.549 351.599,283.780 351.597 C 284.480 351.593,285.600 349.225,285.600 347.749 C 285.600 346.370,284.185 344.400,283.195 344.400 C 282.952 344.400,282.845 344.250,282.959 344.067 C 283.459 343.257,277.460 343.283,276.649 344.094 C 276.328 344.415,275.195 344.913,274.133 345.200 C 273.070 345.487,271.930 345.932,271.600 346.190 C 271.270 346.447,270.190 346.902,269.200 347.201 C 268.210 347.500,267.220 347.875,267.000 348.034 C 266.780 348.193,265.655 348.632,264.500 349.008 C 263.345 349.384,262.400 349.837,262.400 350.014 C 262.400 350.191,261.815 350.462,261.100 350.615 C 260.385 350.768,259.170 351.191,258.400 351.555 C 257.630 351.918,255.965 352.564,254.700 352.991 C 253.435 353.417,252.400 353.894,252.400 354.051 C 252.400 354.208,251.815 354.458,251.100 354.607 C 250.385 354.756,249.260 355.182,248.600 355.555 C 247.940 355.927,246.275 356.568,244.900 356.979 C 243.525 357.390,242.400 357.860,242.400 358.023 C 242.400 358.187,241.499 358.536,240.399 358.800 C 239.298 359.064,238.302 359.434,238.186 359.623 C 238.070 359.811,237.733 359.873,237.439 359.760 C 237.144 359.647,236.796 359.834,236.664 360.177 C 236.533 360.520,236.098 360.800,235.697 360.800 C 235.297 360.800,234.310 361.136,233.505 361.546 C 232.700 361.957,230.954 362.632,229.624 363.046 C 228.295 363.461,227.205 363.922,227.203 364.072 C 227.202 364.221,226.165 364.644,224.900 365.011 C 223.635 365.379,222.510 365.808,222.400 365.965 C 222.290 366.122,221.122 366.584,219.804 366.992 C 218.486 367.401,217.193 367.950,216.931 368.212 C 216.668 368.474,215.730 368.805,214.846 368.946 C 213.961 369.088,213.094 369.437,212.919 369.722 C 212.611 370.223,208.849 371.600,207.787 371.600 C 207.501 371.600,207.203 371.790,207.126 372.022 C 207.049 372.254,206.719 372.489,206.393 372.544 C 205.005 372.778,202.800 373.691,202.800 374.031 C 202.800 374.619,201.308 374.458,201.072 373.845 C 200.955 373.539,199.955 373.057,198.850 372.774 C 197.744 372.491,196.932 372.111,197.044 371.929 C 197.156 371.748,196.817 371.600,196.290 371.600 C 195.764 371.600,195.198 371.465,195.033 371.300 C 194.868 371.135,194.613 370.990,194.467 370.977 C 193.444 370.891,191.600 370.283,191.600 370.032 C 191.600 369.865,190.835 369.503,189.900 369.229 C 188.063 368.690,187.226 368.345,183.108 366.433 C 181.627 365.746,179.827 365.071,179.108 364.934 C 178.388 364.797,177.080 364.270,176.200 363.763 C 175.320 363.256,174.466 362.828,174.302 362.811 C 173.079 362.687,171.600 362.250,171.600 362.013 C 171.600 361.856,170.520 361.400,169.200 361.000 C 167.880 360.600,166.800 360.142,166.800 359.981 C 166.800 359.820,165.630 359.372,164.200 358.985 C 162.770 358.598,161.600 358.140,161.600 357.968 C 161.600 357.795,161.195 357.538,160.700 357.396 C 159.735 357.120,153.508 354.725,151.200 353.742 C 150.430 353.414,149.440 352.996,149.000 352.813 C 148.560 352.630,147.347 352.102,146.304 351.640 C 145.262 351.178,144.179 350.800,143.898 350.800 C 143.618 350.800,142.761 350.474,141.994 350.077 C 141.227 349.679,139.790 349.101,138.800 348.793 C 137.810 348.485,136.460 347.911,135.800 347.518 C 135.140 347.125,134.298 346.802,133.929 346.801 C 133.559 346.801,133.015 346.558,132.719 346.262 C 132.422 345.965,131.233 345.496,130.075 345.218 C 128.917 344.940,127.707 344.450,127.385 344.128 C 126.263 343.006,122.785 343.013,121.166 344.141 " stroke="none" fill="#3a3a3a" fill-rule="evenodd"></path></g></svg>