<?xml version="1.0" encoding="UTF-8" standalone="no"?>
<!DOCTYPE svg PUBLIC "-//W3C//DTD SVG 1.1//EN" "http://www.w3.org/Graphics/SVG/1.1/DTD/svg11.dtd">
<svg width="100%" height="100%" viewBox="0 0 500 500" version="1.1" xmlns="http://www.w3.org/2000/svg" xmlns:xlink="http://www.w3.org/1999/xlink" xml:space="preserve" xmlns:serif="http://www.serif.com/" style="fill-rule:evenodd;clip-rule:evenodd;stroke-linecap:round;stroke-linejoin:round;stroke-miterlimit:1.5;">
    <g id="secrets" transform="matrix(0.739454,0,0,0.739454,65.1365,54.4939)">
        <g transform="matrix(1.35235,0,0,1.35235,-88.0873,5.21226)">
            <path d="M306.876,232.712C290.61,243.629 271.043,250 250,250C228.957,250 209.39,243.629 193.124,232.712L306.876,232.712ZM180,232.712L147.753,232.712L147.753,147.753C147.753,91.321 193.569,45.506 250,45.506C306.432,45.506 352.247,91.321 352.247,147.753L352.247,232.712L320,232.712L320,147.753C320,109.119 288.634,77.753 250,77.753C211.366,77.753 180,109.119 180,147.753L180,232.712Z" style="fill:rgb(60,60,59);"/>
        </g>
        <g transform="matrix(1,0,0,1,6.06215,58.5972)">
            <path d="M409.007,192.645C409.007,187 404.424,182.416 398.778,182.416L89.097,182.416C83.452,182.416 78.869,187 78.869,192.645L78.869,376.76C78.869,382.405 83.452,386.988 89.097,386.988L398.778,386.988C404.424,386.988 409.007,382.405 409.007,376.76L409.007,192.645Z" style="fill:rgb(60,60,59);stroke:rgb(60,60,59);stroke-width:20.29px;"/>
        </g>
        <g transform="matrix(1,0,0,1,250,313.866)">
            <circle cx="0" cy="0" r="35.156" style="fill:rgb(149,193,31);"/>
        </g>
        <g transform="matrix(1,0,0,1,155.691,229.492)">
            <path d="M94.309,60.663L141.948,178.397L46.671,178.397L94.309,60.663Z" style="fill:rgb(149,193,31);"/>
        </g>
    </g>
</svg>
