<?xml version="1.0" encoding="utf-8"?>
<!-- Generator: Adobe Illustrator 23.0.3, SVG Export Plug-In . SVG Version: 6.00 Build 0)  -->
<svg version="1.1" id="Ebene_1" xmlns="http://www.w3.org/2000/svg" xmlns:xlink="http://www.w3.org/1999/xlink" x="0px" y="0px"
	 viewBox="0 0 73.7 73.7" style="enable-background:new 0 0 73.7 73.7;" xml:space="preserve">
<style type="text/css">
	.st0{fill:#3C3C3B;stroke:#95C11F;stroke-width:0.9656;stroke-miterlimit:10;}
	.st1{enable-background:new    ;}
	.st2{fill:#95C11F;}
</style>
<g>
	<circle class="st0" cx="36.85" cy="36.85" r="34.02"/>
	<g class="st1">
		<path class="st2" d="M37.32,49.36c0.12,0.19,0.19,0.35,0.21,0.47c0.01,0.12-0.03,0.22-0.12,0.3c-0.1,0.07-0.24,0.13-0.44,0.15
			c-0.2,0.03-0.45,0.04-0.77,0.04c-0.31,0-0.56-0.01-0.74-0.03c-0.18-0.02-0.32-0.05-0.43-0.09s-0.19-0.1-0.26-0.16
			s-0.12-0.15-0.17-0.25l-6.39-11.06L21.7,49.79c-0.07,0.1-0.14,0.18-0.2,0.25c-0.07,0.07-0.16,0.12-0.27,0.16
			c-0.11,0.04-0.25,0.07-0.43,0.09c-0.18,0.02-0.41,0.03-0.7,0.03c-0.31,0-0.57-0.01-0.76-0.04c-0.19-0.03-0.33-0.08-0.41-0.15
			c-0.08-0.08-0.12-0.17-0.1-0.3c0.01-0.12,0.08-0.28,0.2-0.47l7.7-12.53L19.3,24.54c-0.12-0.19-0.19-0.35-0.21-0.47
			s0.01-0.22,0.09-0.3c0.08-0.08,0.21-0.13,0.4-0.15c0.18-0.03,0.43-0.04,0.75-0.04c0.3,0,0.54,0.01,0.73,0.03
			c0.18,0.02,0.33,0.05,0.45,0.09c0.12,0.04,0.2,0.1,0.27,0.16s0.13,0.15,0.19,0.25l6.29,10.53l6.27-10.53
			c0.05-0.09,0.11-0.18,0.16-0.25s0.13-0.12,0.23-0.16c0.1-0.04,0.23-0.07,0.39-0.09c0.16-0.02,0.39-0.03,0.68-0.03
			c0.29,0,0.53,0.01,0.73,0.04s0.34,0.08,0.44,0.15c0.1,0.08,0.14,0.17,0.13,0.3c-0.01,0.12-0.06,0.28-0.17,0.47l-7.43,12.18
			L37.32,49.36z"/>
		<path class="st2" d="M55.86,49.06c0,0.19-0.01,0.35-0.04,0.49s-0.07,0.26-0.12,0.36s-0.12,0.18-0.2,0.23s-0.18,0.07-0.29,0.07
			H43.71c-0.25,0-0.5-0.09-0.76-0.28c-0.26-0.18-0.39-0.52-0.39-1.01v-24.8c0-0.08,0.02-0.16,0.06-0.23
			c0.04-0.07,0.11-0.12,0.21-0.16s0.23-0.08,0.39-0.1c0.16-0.03,0.36-0.04,0.59-0.04c0.25,0,0.45,0.01,0.6,0.04s0.28,0.06,0.38,0.1
			s0.16,0.1,0.21,0.16c0.04,0.07,0.06,0.14,0.06,0.23v23.82H55.2c0.11,0,0.21,0.02,0.29,0.07s0.15,0.12,0.2,0.2
			c0.05,0.09,0.1,0.21,0.12,0.35S55.86,48.87,55.86,49.06z"/>
	</g>
</g>
</svg>
