<?xml version="1.0" encoding="utf-8"?>
<!-- Generator: Adobe Illustrator 23.0.2, SVG Export Plug-In . SVG Version: 6.00 Build 0)  -->
<svg version="1.1" id="Ebene_1" xmlns="http://www.w3.org/2000/svg" xmlns:xlink="http://www.w3.org/1999/xlink" x="0px" y="0px"
	 viewBox="0 0 508 383" enable-background="new 0 0 508 383" xml:space="preserve">
<g class="logo-text">
	<path class="character" fill="#7C7C7B" d="M11.57,364.07L11.57,364.07c1.1-4.4,5.06-7.49,9.6-7.49h56.16c2.95,0,5.61-1.09,7.68-3.16
		c2.07-2.07,3.16-4.73,3.16-7.69c0-2.95-1.09-5.61-3.16-7.68c-2.07-2.07-4.74-3.16-7.69-3.16H35.84c-8.52,0-15.59-2.94-21.65-8.99
		c-6.05-6.05-8.99-13.13-8.99-21.65s2.94-15.59,8.99-21.65c6.05-6.05,13.13-8.99,21.65-8.99h50.63c6.44,0,11.17,6.05,9.6,12.29l0,0
		c-1.1,4.4-5.06,7.49-9.6,7.49H35.84c-2.95,0-5.62,1.09-7.68,3.16c-2.07,2.07-3.16,4.73-3.16,7.68c0,2.97,1.09,5.62,3.18,7.69
		c2.06,2.06,4.71,3.16,7.68,3.16h41.49c8.52,0,15.59,2.94,21.65,8.99c6.05,6.05,8.99,13.13,8.99,21.65c0,8.52-2.94,15.59-8.99,21.65
		c-6.05,6.05-13.13,8.99-21.65,8.99H21.17C14.73,376.36,10.01,370.31,11.57,364.07z"/>
	<path class="character" fill="#7C7C7B" d="M464.68,224.36L464.68,224.36c2.85,1.81,4.58,4.96,4.58,8.35v133.86c0,5.45-4.39,9.86-9.84,9.9l0,0
		c-5.48,0.04-9.96-4.4-9.96-9.9V232.71C449.47,224.89,458.1,220.17,464.68,224.36z"/>
	<path class="character" fill="#7C7C7B" d="M481.46,366.46v-82.99c0-5.47,4.43-9.9,9.9-9.9l0,0c5.47,0,9.9,4.43,9.9,9.9v82.99c0,5.47-4.43,9.9-9.9,9.9
		l0,0C485.89,376.36,481.46,371.93,481.46,366.46z"/>
	<circle fill="#7C7C7B" cx="490.95" cy="252.87" r="10.15"/>
	<path class="character" fill="#7C7C7B" d="M321.39,361.06c-0.06-0.09-0.1-0.19-0.16-0.27l-20.9-29.5c-2.68-3.76-2.68-8.82,0-12.59l21.44-29.89
		c1.34-1.69,2.18-3.8,2.18-6.12c0-5.45-4.37-10.04-9.81-10.04c-4.07,0-6.66,1.82-9.19,5.77c-1.23,1.64-0.94,1.24-1.34,1.8
		l-14.49,20.12l-5.31,7.43c-3.29,4.59-8.59,7.32-14.23,7.32l0,0c-9.66,0-17.49-7.83-17.49-17.49v-33.22c0-0.42,0.07-0.83,0-1.24
		c0.01-0.24,0-0.47,0-0.71c0-5.45-4.47-9.86-9.91-9.86c-5.09,0-9.23,3.87-9.76,8.81c-0.06,0.3-0.11,0.63-0.11,1.03v104.77
		c0,0.53,0.07,1.03,0.2,1.53c0.77,4.69,4.8,8.26,9.7,8.26c4.9,0,8.94-3.6,9.7-8.29c0.11-0.48,0.19-0.99,0.19-1.51v-14.8
		c0-9.66,7.83-17.49,17.49-17.49l0,0c5.64,0,10.94,2.73,14.23,7.32l5.32,7.44l16.09,22.73c0.22,0.31,0.48,0.56,0.74,0.82
		c1.81,2.25,4.54,3.71,7.65,3.71c5.45,0,9.86-4.42,9.86-9.86C323.44,364.77,322.66,362.71,321.39,361.06z"/>
	<path class="character" fill="#7C7C7B" d="M211.29,282.58c-6.05-6.05-13.13-8.99-21.65-8.99h-50.85c-6.44,0-11.17,6.05-9.6,12.29
		c1.1,4.4,5.06,7.49,9.6,7.49h50.85c2.95,0,5.61,1.09,7.68,3.16c1.67,1.67,2.72,3.73,3.05,6.02c0.98,6.66-4.6,12.51-11.33,12.51
		h-40.88c-8.52,0-15.59,2.94-21.65,8.99c-6.05,6.05-8.99,13.13-8.99,21.65c0,8.52,2.94,15.59,8.99,21.65
		c6.05,6.05,13.13,8.99,21.65,8.99h34.28h7.21h20.74c4.9,0,8.94-3.6,9.7-8.29c0.11-0.48,0.19-0.99,0.19-1.51v-1.51v-13.27v-47.53
		C220.28,295.72,217.34,288.64,211.29,282.58z M148.15,356.56c-2.95,0-5.61-1.09-7.68-3.16c-2.07-2.07-3.16-4.73-3.16-7.68
		c0-2.95,1.09-5.61,3.16-7.68c2.07-2.07,4.73-3.16,7.68-3.16h40.95c6.67,0,12.03,5.47,11.3,12.11c-0.27,2.44-1.33,4.65-3.1,6.43
		c-2.07,2.07-4.73,3.16-7.68,3.16h-41.47V356.56z"/>
	<path class="character" fill="#7C7C7B" d="M436.99,283.6c0-0.06,0.02-0.12,0.02-0.2c0-5.45-4.42-9.86-9.86-9.86s-9.86,4.42-9.86,9.86
		c0,0.01,0,0.02,0,0.02c-0.01,0.17-0.05,0.33-0.05,0.52v61.76c0,2.95-1.09,5.61-3.16,7.69c-2.07,2.07-4.73,3.16-7.68,3.16h-41.49
		c-2.95,0-5.61-1.09-7.68-3.16c-2.07-2.07-3.16-4.73-3.16-7.68v-61.76c0-0.52-0.06-1.03-0.16-1.53c-0.5-4.99-4.65-8.88-9.76-8.88
		c-5.45,0-9.86,4.42-9.86,9.86c0,0.1,0.02,0.19,0.02,0.27s-0.02,0.17-0.02,0.27v61.76c0,8.52,2.94,15.59,8.99,21.65
		c6.05,6.05,13.13,8.99,21.65,8.99h31.07h10.42h20.74c4.9,0,8.94-3.6,9.7-8.29c0.11-0.48,0.19-0.99,0.19-1.51v-1.51v-13.29v-67.8
		C437.03,283.84,437,283.72,436.99,283.6z"/>
</g>
<g class="logo">
	<path class="logo-typography" fill="#95C11F" d="M246.16,91.82c4.33,2.78,5.6,8.54,2.82,12.88c-1.77,2.78-4.79,4.29-7.85,4.29c-1.72,0-3.46-0.47-5.02-1.48
		l-29.22-18.73c-4.93-3.16-7.88-8.54-7.88-14.4s2.94-11.24,7.88-14.4l29.22-18.72c4.33-2.78,10.1-1.51,12.88,2.82
		c2.78,4.33,1.51,10.1-2.82,12.88l-27.19,17.43L246.16,91.82z M300.16,155.21l-29.22,18.73c-1.55,0.99-3.3,1.48-5.02,1.48
		c-3.06,0-6.08-1.51-7.85-4.29c-2.78-4.33-1.51-10.1,2.82-12.88l27.19-17.43l-27.19-17.43c-4.33-2.78-5.6-8.54-2.82-12.88
		c2.78-4.33,8.55-5.6,12.88-2.82l29.22,18.73c4.93,3.16,7.87,8.55,7.87,14.4S305.09,152.04,300.16,155.21z"/>
	<path class="logo-circle" fill="#95C11F" d="M149.23,109.09c0-57.34,46.65-103.99,103.99-103.99s103.99,46.65,103.99,103.99
		s-46.65,103.99-103.99,103.99S149.23,166.44,149.23,109.09z M343.82,109.09c0-49.96-40.64-90.59-90.59-90.59
		s-90.6,40.64-90.6,90.59s40.64,90.6,90.6,90.6S343.82,159.04,343.82,109.09z"/>
</g>
</svg>
