<?xml version="1.0" encoding="utf-8"?>
<!-- Generator: Adobe Illustrator 23.0.2, SVG Export Plug-In . SVG Version: 6.00 Build 0)  -->
<svg version="1.1" id="Ebene_1" xmlns="http://www.w3.org/2000/svg" xmlns:xlink="http://www.w3.org/1999/xlink" x="0px" y="0px"
	 viewBox="0 0 717 205.28" enable-background="new 0 0 717 205.28" xml:space="preserve">
<g>
	<path fill="#7C7C7B" d="M245.46,148.16L245.46,148.16c1.05-4.19,4.82-7.13,9.14-7.13h53.45c2.81,0,5.34-1.04,7.31-3.01
		c1.97-1.97,3.01-4.5,3.01-7.32c0-2.81-1.04-5.34-3.01-7.31c-1.97-1.97-4.51-3.01-7.32-3.01h-39.49c-8.11,0-14.85-2.8-20.61-8.56
		c-5.76-5.76-8.56-12.5-8.56-20.61c0-8.11,2.8-14.85,8.56-20.61s12.5-8.56,20.61-8.56h48.2c6.13,0,10.63,5.76,9.14,11.7l0,0
		c-1.05,4.19-4.82,7.13-9.14,7.13h-48.2c-2.81,0-5.35,1.04-7.31,3.01c-1.97,1.97-3.01,4.5-3.01,7.31c0,2.82,1.04,5.35,3.02,7.32
		c1.96,1.96,4.49,3.01,7.31,3.01h39.49c8.11,0,14.85,2.8,20.61,8.56c5.76,5.76,8.56,12.5,8.56,20.61c0,8.11-2.8,14.85-8.56,20.61
		c-5.76,5.76-12.5,8.56-20.61,8.56h-53.46C248.47,159.86,243.97,154.1,245.46,148.16z"/>
	<path fill="#7C7C7B" d="M676.8,15.16L676.8,15.16c2.72,1.72,4.36,4.72,4.36,7.95v127.43c0,5.18-4.18,9.39-9.37,9.42l0,0
		c-5.22,0.04-9.48-4.19-9.48-9.42V23.11C662.32,15.67,670.53,11.17,676.8,15.16z"/>
	<path fill="#7C7C7B" d="M692.77,150.44v-79c0-5.21,4.22-9.42,9.42-9.42l0,0c5.21,0,9.42,4.22,9.42,9.42v79
		c0,5.21-4.22,9.42-9.42,9.42l0,0C696.99,159.86,692.77,155.65,692.77,150.44z"/>
	<circle fill="#7C7C7B" cx="701.81" cy="42.3" r="9.66"/>
	<path fill="#7C7C7B" d="M540.4,145.3c-0.06-0.08-0.09-0.18-0.15-0.26l-19.9-28.08c-2.55-3.58-2.55-8.4,0-11.99l20.41-28.45
		c1.28-1.61,2.08-3.61,2.08-5.82c0-5.18-4.16-9.55-9.34-9.55c-3.87,0-6.34,1.74-8.75,5.49c-1.17,1.56-0.9,1.18-1.28,1.71
		L509.67,87.5l-5.05,7.07c-3.13,4.37-8.17,6.97-13.55,6.97l0,0c-9.2,0-16.65-7.45-16.65-16.65V53.26c0-0.4,0.07-0.79,0-1.18
		c0.01-0.22,0-0.45,0-0.67c0-5.18-4.25-9.39-9.44-9.39c-4.84,0-8.79,3.68-9.29,8.39c-0.06,0.28-0.11,0.6-0.11,0.98v99.74
		c0,0.51,0.07,0.98,0.19,1.45c0.73,4.46,4.57,7.87,9.24,7.87c4.67,0,8.52-3.42,9.24-7.89c0.11-0.46,0.18-0.94,0.18-1.44v-14.09
		c0-9.2,7.45-16.65,16.65-16.65l0,0c5.37,0,10.42,2.6,13.55,6.97l5.07,7.09L525,156.06c0.21,0.3,0.46,0.53,0.71,0.78
		c1.72,2.14,4.32,3.53,7.29,3.53c5.18,0,9.39-4.2,9.39-9.39C542.34,148.83,541.6,146.87,540.4,145.3z"/>
	<path fill="#7C7C7B" d="M435.58,70.59c-5.76-5.76-12.5-8.56-20.61-8.56h-48.41c-6.13,0-10.63,5.76-9.14,11.7
		c1.05,4.19,4.82,7.13,9.14,7.13h48.41c2.81,0,5.34,1.04,7.31,3.01c1.59,1.59,2.59,3.55,2.91,5.73c0.93,6.34-4.38,11.9-10.78,11.9
		h-38.91c-8.11,0-14.85,2.8-20.61,8.56c-5.76,5.76-8.56,12.5-8.56,20.61c0,8.11,2.8,14.85,8.56,20.61
		c5.76,5.76,12.5,8.56,20.61,8.56h32.63h6.86h19.75c4.67,0,8.52-3.42,9.24-7.89c0.11-0.46,0.18-0.94,0.18-1.44v-1.44v-12.65V91.19
		C444.14,83.1,441.34,76.35,435.58,70.59z M375.48,141.03c-2.81,0-5.34-1.04-7.31-3.01c-1.97-1.97-3.01-4.5-3.01-7.31
		c0-2.81,1.04-5.34,3.01-7.31c1.97-1.97,4.5-3.01,7.31-3.01h38.99c6.35,0,11.46,5.21,10.76,11.53c-0.26,2.33-1.26,4.43-2.95,6.12
		c-1.97,1.97-4.5,3.01-7.31,3.01h-39.48V141.03z"/>
	<path fill="#7C7C7B" d="M650.44,71.57c0-0.06,0.02-0.12,0.02-0.19c0-5.18-4.2-9.39-9.39-9.39c-5.18,0-9.39,4.2-9.39,9.39
		c0,0.01,0,0.02,0,0.02c-0.01,0.17-0.05,0.32-0.05,0.5v58.79c0,2.81-1.04,5.34-3.01,7.32c-1.97,1.97-4.5,3.01-7.31,3.01h-39.49
		c-2.81,0-5.34-1.04-7.31-3.01c-1.97-1.97-3.01-4.5-3.01-7.31V71.91c0-0.5-0.06-0.98-0.15-1.45c-0.47-4.75-4.43-8.46-9.29-8.46
		c-5.18,0-9.39,4.2-9.39,9.39c0,0.09,0.02,0.18,0.02,0.26s-0.02,0.17-0.02,0.26v58.79c0,8.11,2.8,14.85,8.56,20.61
		c5.76,5.76,12.5,8.56,20.61,8.56h29.57h9.92h19.75c4.67,0,8.52-3.42,9.24-7.89c0.11-0.46,0.18-0.94,0.18-1.44v-1.44v-12.65V71.91
		C650.48,71.78,650.46,71.68,650.44,71.57z"/>
</g>
<g>
	<path fill="#95C11F" d="M95.22,85.59c4.12,2.65,5.33,8.13,2.68,12.26c-1.69,2.65-4.56,4.09-7.48,4.09c-1.64,0-3.3-0.45-4.78-1.41
		L57.83,82.69c-4.69-3.01-7.5-8.13-7.5-13.71s2.8-10.7,7.5-13.71l27.81-17.82c4.12-2.65,9.61-1.44,12.26,2.68s1.44,9.61-2.68,12.26
		L69.33,68.98L95.22,85.59z M146.64,145.93l-27.81,17.83c-1.48,0.94-3.14,1.41-4.78,1.41c-2.92,0-5.79-1.44-7.48-4.09
		c-2.65-4.12-1.44-9.61,2.68-12.26l25.89-16.59l-25.89-16.59c-4.12-2.65-5.33-8.13-2.68-12.26c2.65-4.12,8.14-5.33,12.26-2.68
		l27.81,17.83c4.69,3.01,7.5,8.14,7.5,13.71C154.14,137.81,151.33,142.92,146.64,145.93z"/>
	<path fill="#95C11F" d="M2.96,102.03c0-54.59,44.41-98.99,98.99-98.99s98.99,44.41,98.99,98.99s-44.41,98.99-98.99,98.99
		S2.96,156.6,2.96,102.03z M188.2,102.03c0-47.56-38.69-86.24-86.24-86.24s-86.25,38.69-86.25,86.24s38.69,86.25,86.25,86.25
		S188.2,149.58,188.2,102.03z"/>
</g>
</svg>
