<?xml version="1.0" encoding="UTF-8" ?>
<!DOCTYPE svg PUBLIC "-//W3C//DTD SVG 1.1//EN" "http://www.w3.org/Graphics/SVG/1.1/DTD/svg11.dtd">
<svg width="240pt" height="210pt" viewBox="0 0 240 210" version="1.1" xmlns="http://www.w3.org/2000/svg">
<g id="#ff0707ff">
<path fill="#ff0707" d=" M 0.00 0.00 L 0.41 0.00 C 0.31 0.10 0.10 0.31 0.00 0.41 L 0.00 0.00 Z" />
<path fill="#ff0707" d=" M 11.81 27.02 C 37.23 26.67 62.68 26.68 88.10 27.02 C 88.09 28.67 88.09 30.32 88.09 31.97 C 82.95 32.34 77.53 31.64 72.66 33.70 C 68.78 34.98 70.62 40.03 70.13 43.09 C 56.72 48.04 46.43 59.93 42.70 73.65 L 42.42 74.40 C 36.99 62.54 32.69 50.10 26.08 38.81 C 23.27 33.80 17.25 32.68 12.10 31.66 C 12.00 30.11 11.90 28.57 11.81 27.02 Z" />
<path fill="#ff0707" d=" M 128.82 27.02 C 146.27 26.69 163.76 26.64 181.21 27.04 C 181.96 30.36 180.09 32.58 176.87 33.10 C 170.08 35.24 165.03 40.72 161.80 46.87 C 156.14 55.44 152.65 65.16 148.24 74.38 C 144.44 83.18 139.90 91.69 136.87 100.81 C 136.15 102.95 134.98 104.90 133.67 106.73 C 129.48 112.10 127.52 118.70 124.64 124.77 C 121.62 131.76 117.80 138.43 115.74 145.80 C 110.15 160.11 103.33 173.96 97.06 187.99 C 96.18 190.99 91.72 190.96 91.05 187.86 C 84.36 172.52 77.87 157.08 71.21 141.74 C 71.33 122.50 71.16 103.25 71.25 84.01 C 71.05 77.94 75.03 72.83 79.91 69.69 C 88.22 87.41 95.30 105.67 103.75 123.33 C 105.17 128.01 106.55 132.81 109.25 136.94 C 111.63 137.31 111.81 134.14 112.84 132.65 C 119.37 116.72 127.26 101.36 133.36 85.26 C 139.20 71.79 147.33 58.79 149.48 44.07 C 148.90 33.77 137.25 31.52 128.92 31.87 C 128.88 30.25 128.84 28.64 128.82 27.02 Z" />
</g>
<g id="#000000ff">
<path fill="#000000" d=" M 70.13 43.09 C 80.24 39.45 91.56 38.60 101.84 42.12 C 120.15 47.91 133.32 66.08 133.36 85.26 C 127.26 101.36 119.37 116.72 112.84 132.65 C 111.81 134.14 111.63 137.31 109.25 136.94 C 106.55 132.81 105.17 128.01 103.75 123.33 C 104.24 112.22 103.84 101.10 104.07 89.99 C 104.12 83.99 103.81 77.20 99.33 72.66 C 94.48 67.36 86.17 66.56 79.91 69.69 C 75.03 72.83 71.05 77.94 71.25 84.01 C 71.16 103.25 71.33 122.50 71.21 141.74 C 71.07 143.13 70.89 144.51 70.69 145.89 C 60.83 146.12 50.96 146.08 41.10 145.89 C 40.75 127.60 41.24 109.30 40.86 91.01 C 40.72 85.17 41.86 79.40 42.70 73.65 C 46.43 59.93 56.72 48.04 70.13 43.09 Z" />
<path fill="#000000" d=" M 161.80 46.87 C 182.09 39.87 203.80 41.95 224.85 42.17 C 225.16 52.07 225.07 61.99 224.89 71.90 C 210.61 72.21 196.32 71.88 182.04 72.00 C 175.77 72.21 168.89 75.27 166.42 81.40 C 162.58 91.22 162.61 103.77 170.18 111.84 C 175.30 117.25 183.30 115.76 189.98 115.88 C 201.60 116.05 213.24 115.48 224.85 116.17 C 225.16 126.07 225.07 135.99 224.89 145.89 C 212.94 146.24 200.98 145.78 189.02 146.12 C 175.65 146.39 161.46 142.94 151.68 133.31 C 142.57 125.06 137.35 113.04 136.87 100.81 C 139.90 91.69 144.44 83.18 148.24 74.38 C 152.65 65.16 156.14 55.44 161.80 46.87 Z" />
<path fill="#000000" d=" M 124.64 124.77 C 127.52 118.70 129.48 112.10 133.67 106.73 C 134.47 119.74 134.29 132.83 133.83 145.85 C 127.81 146.17 121.76 146.15 115.74 145.80 C 117.80 138.43 121.62 131.76 124.64 124.77 Z" />
</g>
<g id="#404080ff">
<path fill="#404080" d=" M 120.90 159.90 C 155.63 159.70 190.37 159.70 225.09 159.90 C 225.34 166.96 225.34 174.03 225.09 181.09 C 190.37 181.30 155.63 181.31 120.91 181.09 C 120.66 174.03 120.66 166.96 120.90 159.90 Z" />
</g>
</svg>
