<svg id="Layer_1" data-name="Layer 1" xmlns="http://www.w3.org/2000/svg" viewBox="0 0 130.79 116.49"><defs><style>.cls-1{fill:#a59989;}.cls-2{fill:#9b8b78;}.cls-3{fill:#fff;opacity:0.18;}</style></defs><title>egg</title><path class="cls-1" d="M65.4,10.86a24.89,24.89,0,0,0-11.07,2.65C46.21,21.88,41,34.76,41,49.21c0,25.25,15.87,45.71,35.46,45.71A28.57,28.57,0,0,0,89,92c6.17-8.6,10-20.54,10-33.75C99,32.07,83.93,10.86,65.4,10.86Z"/><path class="cls-1" d="M65.4,10.86a24.89,24.89,0,0,0-11.07,2.65C41.24,20,31.84,37.55,31.84,58.25c0,26.17,15,47.39,33.56,47.39,9.18,0,17.49-5.21,23.55-13.64,6.17-8.6,10-20.54,10-33.75C99,32.07,83.93,10.86,65.4,10.86Z"/><path class="cls-1" d="M62.7,27.12a1.5,1.5,0,0,0,0-3,1.5,1.5,0,0,0,0,3Z"/><path class="cls-1" d="M73.62,32.78a1.5,1.5,0,0,0,0-3,1.5,1.5,0,0,0,0,3Z"/><path class="cls-1" d="M55.42,37.37a1.5,1.5,0,0,0,0-3,1.5,1.5,0,0,0,0,3Z"/><path class="cls-1" d="M67.15,46.4a1.5,1.5,0,0,0,0-3,1.5,1.5,0,0,0,0,3Z"/><path class="cls-1" d="M77.4,46.67a1.5,1.5,0,0,0,0-3,1.5,1.5,0,0,0,0,3Z"/><path class="cls-1" d="M67.56,39.39a1.5,1.5,0,0,0,0-3,1.5,1.5,0,0,0,0,3Z"/><path class="cls-1" d="M46.39,51.39a1.5,1.5,0,0,0,0-3,1.5,1.5,0,0,0,0,3Z"/><path class="cls-2" d="M77,33.32a1.5,1.5,0,0,0,0-3,1.5,1.5,0,0,0,0,3Z"/><path class="cls-2" d="M44.64,48.42a1.5,1.5,0,0,0,0-3,1.5,1.5,0,0,0,0,3Z"/><path class="cls-2" d="M58.93,78.76a1.5,1.5,0,0,0,0-3,1.5,1.5,0,0,0,0,3Z"/><path class="cls-2" d="M76.05,75.12a1.5,1.5,0,0,0,0-3,1.5,1.5,0,0,0,0,3Z"/><path class="cls-2" d="M46.79,85.23a1.5,1.5,0,0,0,0-3,1.5,1.5,0,0,0,0,3Z"/><path class="cls-2" d="M39.11,79.43a1.5,1.5,0,0,0,0-3,1.5,1.5,0,0,0,0,3Z"/><path class="cls-2" d="M48.14,30.62a1.5,1.5,0,0,0,0-3,1.5,1.5,0,0,0,0,3Z"/><path class="cls-2" d="M70,93.05a1.5,1.5,0,0,0,0-3,1.5,1.5,0,0,0,0,3Z"/><path class="cls-2" d="M85.62,40a.38.38,0,0,0,0-.75.38.38,0,0,0,0,.75Z"/><path class="cls-2" d="M82.39,54.44a.38.38,0,0,0,0-.75.38.38,0,0,0,0,.75Z"/><path class="cls-2" d="M74,54.06l.14.14a.38.38,0,0,0,.53-.53l-.14-.14a.38.38,0,0,0-.53.53Z"/><path class="cls-2" d="M68,45.14a.38.38,0,0,0,0-.75.38.38,0,0,0,0,.75Z"/><path class="cls-2" d="M42.48,42.85a.38.38,0,0,0,0-.75.38.38,0,0,0,0,.75Z"/><path class="cls-2" d="M38.4,53.39v-.13a.38.38,0,0,0-.75,0v.13a.38.38,0,0,0,.75,0Z"/><path class="cls-2" d="M54.48,88.82a.38.38,0,0,0,0-.75.38.38,0,0,0,0,.75Z"/><path class="cls-2" d="M60.41,98.67a.38.38,0,0,0,0-.75.38.38,0,0,0,0,.75Z"/><path class="cls-2" d="M58.52,48.51a.38.38,0,0,0,0-.75.38.38,0,0,0,0,.75Z"/><path class="cls-2" d="M56.64,63.48a.38.38,0,0,0,0-.75.38.38,0,0,0,0,.75Z"/><path class="cls-2" d="M64.73,14.8a.38.38,0,0,0,0-.75.38.38,0,0,0,0,.75Z"/><path class="cls-2" d="M81.18,17.36a.38.38,0,0,0,0-.75.38.38,0,0,0,0,.75Z"/><path class="cls-2" d="M95.2,46.22a.38.38,0,0,0,0-.75.38.38,0,0,0,0,.75Z"/><path class="cls-2" d="M96.28,57.14a.38.38,0,0,0,0-.75.38.38,0,0,0,0,.75Z"/><path class="cls-2" d="M90.21,67.79a.38.38,0,0,0,0-.75.38.38,0,0,0,0,.75Z"/><path class="cls-2" d="M53.49,68.78a.38.38,0,0,0,0-.75.38.38,0,0,0,0,.75Z"/><path class="cls-2" d="M33.35,64.73a.38.38,0,0,0,0-.75.38.38,0,0,0,0,.75Z"/><path class="cls-2" d="M71.74,101.23a.38.38,0,0,0,0-.75.38.38,0,0,0,0,.75Z"/><path class="cls-2" d="M84.14,91a.38.38,0,0,0,0-.75.38.38,0,0,0,0,.75Z"/><path class="cls-2" d="M65,20.87a.38.38,0,0,0,0-.75.38.38,0,0,0,0,.75Z"/><path class="cls-2" d="M58,37.32a.38.38,0,0,0,0-.75.38.38,0,0,0,0,.75Z"/><path class="cls-2" d="M64.46,20.6a.38.38,0,0,0,0-.75.38.38,0,0,0,0,.75Z"/><path class="cls-3" d="M65.4,10.86a24.89,24.89,0,0,0-11.07,2.65C46.21,21.88,41,34.76,41,49.21c0,25.25,15.87,45.71,35.46,45.71A28.57,28.57,0,0,0,89,92c6.17-8.6,10-20.54,10-33.75C99,32.07,83.93,10.86,65.4,10.86Z"/></svg>