<svg id="Layer_1" data-name="Layer 1" xmlns="http://www.w3.org/2000/svg" viewBox="0 0 321.62 99.46"><defs><style>.cls-1{fill:#605e5e;}.cls-2{fill:#333;}.cls-3{fill:#474747;}.cls-4{opacity:0.09;}</style></defs><title>skillet</title><path class="cls-1" d="M286.05,41.82l-95.11,2.1-9.83,15.33H292.44c9,0,16.22-4.47,16.22-10S295,41.82,286.05,41.82Z"/><path class="cls-2" d="M187.74,50.71c-5.79-17.53-42.21-31-86.31-31S20.92,33.18,15.12,50.71c11.78,15,46,25.91,86.31,25.91S176,65.75,187.74,50.71Z"/><path class="cls-3" d="M102.27,28.33c43.5,0,79.43,9.67,85.15,22.21,2.8-2.6,4.32-5.37,4.32-8.24,0-14.77-40.05-26.75-89.47-26.75S12.8,27.53,12.8,42.3A8.58,8.58,0,0,0,13,43.9a12.75,12.75,0,0,0,4.17,6.64C22.84,38,58.77,28.33,102.27,28.33Z"/><path class="cls-3" d="M13,43.72l-.18-.61A1.45,1.45,0,0,0,13,43.72Z"/><path class="cls-1" d="M191.74,42.11c-1.19,3.38-8.19,12.25-11.89,15.87-15.5,10.55-44.34,17.64-77.4,17.64-35.3,0-65.82-8.09-80.37-19.84C18.4,51.56,13.92,45.56,13,42.92l3.49,15.66a13.24,13.24,0,0,0,.43,1.92l.06.26h0c5.23,16.8,41.41,29.81,85.29,29.81,45.25,0,82.31-13.83,85.69-31.39a14.11,14.11,0,0,0,.29-1.41Z"/><path class="cls-4" d="M16.24,56.58c0,.21.06.43.1.66C16.3,57,16.27,56.79,16.24,56.58Z"/><path class="cls-4" d="M16.37,57.47c0,.21.07.42.11.65C16.44,57.9,16.41,57.68,16.37,57.47Z"/><path class="cls-4" d="M16.54,58.51c0,.2.06.4.1.62C16.6,58.92,16.57,58.71,16.54,58.51Z"/><path class="cls-4" d="M16.73,59.73l.09.55Z"/><path class="cls-4" d="M17,61.3c0,.16.05.31.07.47C17,61.61,17,61.46,17,61.3Z"/><path class="cls-4" d="M189,54s-7.6,29.3-86.61,29.83C24.09,84.37,15.91,54.4,15.91,54.4s.12.81.33,2.18l.39,1.76a13.24,13.24,0,0,0,.43,1.92l.06.26h0c5.23,16.8,41.41,29.81,85.29,29.81,45.19,0,82.2-13.79,85.67-31.32H292.6c5.61,0,10.56-1.75,13.47-4.43h0C280.44,57,189,54,189,54Z"/><polygon class="cls-4" points="16.24 56.58 16.24 56.58 16.24 56.58 16.24 56.58"/><path class="cls-4" d="M16.34,57.24l0,.23Z"/><path class="cls-4" d="M16.48,58.12l.06.39Z"/><path class="cls-4" d="M16.64,59.13c0,.19.06.4.09.6C16.7,59.53,16.67,59.32,16.64,59.13Z"/><path class="cls-4" d="M16.82,60.28c.05.33.11.68.17,1C16.93,61,16.87,60.61,16.82,60.28Z"/></svg>