<svg xmlns="http://www.w3.org/2000/svg" viewBox="0 0 203 206" width="203" height="206">
	<style>
		tspan { white-space:pre }
		.shp0 { fill: #ffffff } 
	</style>
	<g id="Layer">
		<path id="Layer" class="shp0" d="M95.22 85.59C99.34 88.24 100.55 93.72 97.9 97.85C96.21 100.5 93.34 101.94 90.42 101.94C88.78 101.94 87.12 101.49 85.64 100.53L57.83 82.69C53.14 79.68 50.33 74.56 50.33 68.98C50.33 63.4 53.13 58.28 57.83 55.27L85.64 37.45C89.76 34.8 95.25 36.01 97.9 40.13C100.55 44.25 99.34 49.74 95.22 52.39L69.33 68.98L95.22 85.59ZM146.64 145.93L118.83 163.76C117.35 164.7 115.69 165.17 114.05 165.17C111.13 165.17 108.26 163.73 106.57 161.08C103.92 156.96 105.13 151.47 109.25 148.82L135.14 132.23L109.25 115.64C105.13 112.99 103.92 107.51 106.57 103.38C109.22 99.26 114.71 98.05 118.83 100.7L146.64 118.53C151.33 121.54 154.14 126.67 154.14 132.24C154.14 137.81 151.33 142.92 146.64 145.93Z" />
		<path id="Layer" fill-rule="evenodd" class="shp0" d="M2.96 102.03C2.96 47.44 47.37 3.04 101.95 3.04C156.53 3.04 200.94 47.45 200.94 102.03C200.94 156.61 156.53 201.02 101.95 201.02C47.37 201.02 2.96 156.6 2.96 102.03ZM188.2 102.03C188.2 54.47 149.51 15.79 101.96 15.79C54.41 15.79 15.71 54.48 15.71 102.03C15.71 149.58 54.4 188.28 101.96 188.28C149.52 188.28 188.2 149.58 188.2 102.03Z" />
	</g>
</svg>