<?xml version="1.0" encoding="UTF-8" standalone="no"?>
<!DOCTYPE svg PUBLIC "-//W3C//DTD SVG 1.1//EN" "http://www.w3.org/Graphics/SVG/1.1/DTD/svg11.dtd">
<svg width="100%" height="100%" viewBox="0 0 500 500" version="1.1" xmlns="http://www.w3.org/2000/svg" xmlns:xlink="http://www.w3.org/1999/xlink" xml:space="preserve" xmlns:serif="http://www.serif.com/" style="fill-rule:evenodd;clip-rule:evenodd;stroke-linecap:round;stroke-linejoin:round;stroke-miterlimit:1.5;">
    <g id="dom-based" transform="matrix(1,0,0,1,16.8747,13.7713)">
        <g id="monitor" transform="matrix(1.35715,0,0,1.35715,-58.9145,-5.79068)">
            <g id="Segment" transform="matrix(0.885593,0,0,0.348473,23.8729,141.862)">
                <path d="M328.682,281.701C313.554,262.084 285.596,250 255.34,250C225.083,250 197.125,262.084 181.997,281.701L328.682,281.701Z" style="fill:rgb(60,60,59);stroke:rgb(60,60,59);stroke-width:16.42px;"/>
            </g>
            <g id="Abgerundetes-Rechteck" serif:id="Abgerundetes Rechteck" transform="matrix(0.804542,0,0,1.10422,-9.77053,-24.1298)">
                <path d="M488.192,80.185C488.192,76.436 484.014,73.393 478.869,73.393L166.891,73.393C161.746,73.393 157.569,76.436 157.569,80.185L157.569,202.443C157.569,206.192 161.746,209.235 166.891,209.235L478.869,209.235C484.014,209.235 488.192,206.192 488.192,202.443L488.192,80.185Z" style="fill:rgb(149,193,31);stroke:rgb(60,60,59);stroke-width:11.44px;"/>
            </g>
            <g id="Rechteck" transform="matrix(0.532112,0,0,0.897729,116.414,23.7887)">
                <rect x="222.858" y="203.985" width="56.379" height="28.62" style="fill:rgb(60,60,59);stroke:rgb(60,60,59);stroke-width:14.98px;"/>
            </g>
        </g>
        <g id="Browser" transform="matrix(1,-5.55112e-17,-5.55112e-17,1,206.209,-254.052)">
            <g transform="matrix(1.37678,0,0,1.88461,-51.1552,-392.071)">
                <path d="M208.606,397.093C208.606,395.166 206.464,393.601 203.826,393.601L69.243,393.601C66.605,393.601 64.464,395.166 64.464,397.093L64.464,459.947C64.464,461.875 66.605,463.439 69.243,463.439L203.826,463.439C206.464,463.439 208.606,461.875 208.606,459.947L208.606,397.093Z" style="fill:white;stroke:rgb(60,60,59);stroke-width:6.06px;"/>
            </g>
            <g transform="matrix(1,0,0,1.37628,0,-131.59)">
                <rect x="37.597" y="349.712" width="198.452" height="26.622" style="fill:rgb(60,60,59);"/>
            </g>
            <g transform="matrix(0.738239,0,0,0.522468,-131.244,144.355)">
                <path d="M477.749,424.286C477.749,419.448 474.969,415.52 471.545,415.52L303.452,415.52C300.028,415.52 297.248,419.448 297.248,424.286C297.248,429.124 300.028,433.052 303.452,433.052L471.545,433.052C474.969,433.052 477.749,429.124 477.749,424.286Z" style="fill:rgb(149,193,31);stroke:rgb(149,193,31);stroke-width:15.64px;"/>
            </g>
            <g transform="matrix(0.0509692,0,0,0.522468,46.6613,144.355)">
                <path d="M477.749,424.286C477.749,419.448 437.486,415.52 387.893,415.52L387.104,415.52C337.511,415.52 297.248,419.448 297.248,424.286C297.248,429.124 337.511,433.052 387.104,433.052L387.893,433.052C437.486,433.052 477.749,429.124 477.749,424.286Z" style="fill:rgb(149,193,31);stroke:rgb(149,193,31);stroke-width:26.94px;"/>
            </g>
        </g>
        <g id="Pfeil" transform="matrix(0.465784,-0.308094,0.551686,0.834052,-151.759,-41.8942)">
            <path d="M133.915,452.203L133.915,433.023L319.459,433.023L319.459,415.213L368.523,442.613L319.459,470.014L319.459,452.203L133.915,452.203Z" style="fill:rgb(60,60,59);stroke:rgb(60,60,59);stroke-width:12.35px;"/>
        </g>
        <g id="tag" transform="matrix(1,0,0,1,-16.8747,-13.7713)">
            <g transform="matrix(0.670027,0,0,1.16979,37.5676,-70.5855)">
                <path d="M226.638,297.569C226.638,288.726 214.104,281.547 198.666,281.547L85.548,281.547C70.109,281.547 57.575,288.726 57.575,297.569L57.575,329.613C57.575,338.456 70.109,345.636 85.548,345.636L198.666,345.636C214.104,345.636 226.638,338.456 226.638,329.613L226.638,297.569Z" style="fill:rgb(60,60,59);stroke:rgb(60,60,59);stroke-width:10.49px;"/>
            </g>
            <g transform="matrix(1,0,0,1,9.24806,18.2518)">
                <text x="80.187px" y="294.532px" style="font-family:'CourierNewPS-BoldMT', 'Courier New', monospace;font-weight:700;font-size:48px;fill:rgb(149,193,31);">&lt;/&gt;</text>
            </g>
        </g>
    </g>
</svg>
