<?xml version="1.0" encoding="utf-8"?>
<!-- Generator: Adobe Illustrator 23.0.3, SVG Export Plug-In . SVG Version: 6.00 Build 0)  -->
<svg version="1.1" id="Ebene_1" xmlns="http://www.w3.org/2000/svg" xmlns:xlink="http://www.w3.org/1999/xlink" x="0px" y="0px"
	 width="88px" height="88px" viewBox="0 0 88 88" style="enable-background:new 0 0 88 88;" xml:space="preserve">
<style type="text/css">
	.st0{fill:#3C3C3B;stroke:#95C11F;stroke-width:1.2064;stroke-miterlimit:10;}
	.st1{fill:#95C11F;}
	.st2{fill:none;stroke:#95C11F;stroke-width:1.5028;stroke-miterlimit:10;}
</style>
<circle class="st0" cx="44" cy="44" r="42.5"/>
<path class="st1" d="M34.67,66.9c-0.49,0-0.89-0.39-0.89-0.88c0-2.96,5.36-3.95,7.01-4.18l0.18-0.02v-4.28H21.84
	c-0.49,0-0.89-0.4-0.89-0.89v-30.6c0-0.49,0.39-0.89,0.88-0.89h45.71c0.49,0,0.88,0.39,0.88,0.89v30.6c0,0.49-0.39,0.89-0.88,0.89
	H48.42v4.32l0.18,0.03c1.55,0.25,6.62,1.3,6.62,4.13c0,0.49-0.39,0.88-0.88,0.88H34.67z M42.75,62.59c0,0.46-0.34,0.84-0.8,0.88
	c-2.59,0.27-4.16,0.83-5.01,1.25l0.1,0.4H52l0.08-0.4c-0.8-0.4-2.26-0.93-4.66-1.21c-0.45-0.05-0.79-0.44-0.79-0.88v-5.11h-3.9
	L42.75,62.59L42.75,62.59z M22.73,55.75h43.94v-2.78H22.73V55.75z M22.73,51.19h43.94V26.92H22.73V51.19z"/>
<circle class="st2" cx="44.97" cy="41.77" r="5.18"/>
<circle class="st2" cx="55.12" cy="34.15" r="3.74"/>
</svg>
