<?xml version="1.0" encoding="UTF-8" standalone="no"?>
<!DOCTYPE svg PUBLIC "-//W3C//DTD SVG 1.1//EN" "http://www.w3.org/Graphics/SVG/1.1/DTD/svg11.dtd">
<svg width="100%" height="100%" viewBox="0 0 500 500" version="1.1" xmlns="http://www.w3.org/2000/svg" xmlns:xlink="http://www.w3.org/1999/xlink" xml:space="preserve" xmlns:serif="http://www.serif.com/" style="fill-rule:evenodd;clip-rule:evenodd;stroke-linejoin:round;stroke-miterlimit:1.41421;">
    <g id="Ebene1">
        <path d="M452.5,25C464.969,25.051 475,35.113 475,47.5L475,452.5C475,464.918 464.918,475 452.5,475L47.5,475C35.082,475 25,464.918 25,452.5L25,47.5C25,35.113 35.031,25.051 47.5,25L452.5,25ZM430,50L70,50C58.917,50.045 50,58.989 50,70L50,430C50,441.038 58.962,450 70,450L430,450C441.038,450 450,441.038 450,430L450,70C450,58.989 441.083,50.045 430,50Z" style="fill:rgb(62,63,65);"/>
    </g>
    <g id="Ebene2" transform="matrix(0.706922,0.707291,-1.09656,1.09599,348.999,-92.502)">
        <g transform="matrix(0.899322,5.34338e-17,2.46519e-32,0.546685,1.03026,137.712)">
            <path d="M192.577,149.472L259.294,303.789L125.86,303.789L192.577,149.472Z" style="fill:rgb(141,198,78);"/>
        </g>
        <g transform="matrix(0.705222,0,0,1.2831,39.0526,-82.0135)">
            <path d="M209.39,261.901C209.39,260.167 205.419,258.759 200.527,258.759L182.802,258.759C177.911,258.759 173.94,260.167 173.94,261.901L173.94,365.685C173.94,367.419 177.911,368.827 182.802,368.827L200.527,368.827C205.419,368.827 209.39,367.419 209.39,365.685L209.39,261.901Z" style="fill:rgb(141,198,78);"/>
        </g>
    </g>
</svg>
