<?xml version="1.0" encoding="UTF-8" standalone="no"?>
<!DOCTYPE svg PUBLIC "-//W3C//DTD SVG 1.1//EN" "http://www.w3.org/Graphics/SVG/1.1/DTD/svg11.dtd">
<svg width="100%" height="100%" viewBox="0 0 500 500" version="1.1" xmlns="http://www.w3.org/2000/svg" xmlns:xlink="http://www.w3.org/1999/xlink" xml:space="preserve" xmlns:serif="http://www.serif.com/" style="fill-rule:evenodd;clip-rule:evenodd;stroke-linecap:round;stroke-linejoin:round;stroke-miterlimit:1.5;">
    <g id="native-interaction">
        <g id="tastatur">
            <g transform="matrix(1.37135,-5.43825e-17,0,1.13248,-31.8241,22.844)">
                <path d="M294.758,108.527C294.758,104.872 292.307,101.905 289.289,101.905L45.004,101.905C41.986,101.905 39.535,104.872 39.535,108.527L39.535,227.735C39.535,231.39 41.986,234.357 45.004,234.357L289.289,234.357C292.307,234.357 294.758,231.39 294.758,227.735L294.758,108.527Z" style="fill:rgb(60,60,59);stroke:rgb(60,60,59);stroke-width:7.95px;"/>
            </g>
            <g id="tasten">
                <g id="tasten_l1">
                    <g transform="matrix(0.0597249,-5.5264e-18,0,0.115084,42.8026,149.757)">
                        <path d="M294.758,108.527C294.758,104.872 289.04,101.905 281.997,101.905L52.296,101.905C45.253,101.905 39.535,104.872 39.535,108.527L39.535,227.735C39.535,231.39 45.253,234.357 52.296,234.357L281.997,234.357C289.04,234.357 294.758,231.39 294.758,227.735L294.758,108.527Z" style="fill:rgb(149,193,31);stroke:rgb(149,193,31);stroke-width:109.07px;"/>
                    </g>
                    <g transform="matrix(0.0597249,-5.5264e-18,0,0.115084,78.7891,149.757)">
                        <path d="M294.758,108.527C294.758,104.872 289.04,101.905 281.997,101.905L52.296,101.905C45.253,101.905 39.535,104.872 39.535,108.527L39.535,227.735C39.535,231.39 45.253,234.357 52.296,234.357L281.997,234.357C289.04,234.357 294.758,231.39 294.758,227.735L294.758,108.527Z" style="fill:rgb(149,193,31);stroke:rgb(149,193,31);stroke-width:109.07px;"/>
                    </g>
                    <g transform="matrix(0.0597249,-5.5264e-18,0,0.115084,114.776,149.757)">
                        <path d="M294.758,108.527C294.758,104.872 289.04,101.905 281.997,101.905L52.296,101.905C45.253,101.905 39.535,104.872 39.535,108.527L39.535,227.735C39.535,231.39 45.253,234.357 52.296,234.357L281.997,234.357C289.04,234.357 294.758,231.39 294.758,227.735L294.758,108.527Z" style="fill:rgb(149,193,31);stroke:rgb(149,193,31);stroke-width:109.07px;"/>
                    </g>
                    <g transform="matrix(0.0597249,-5.5264e-18,0,0.115084,150.762,149.757)">
                        <path d="M294.758,108.527C294.758,104.872 289.04,101.905 281.997,101.905L52.296,101.905C45.253,101.905 39.535,104.872 39.535,108.527L39.535,227.735C39.535,231.39 45.253,234.357 52.296,234.357L281.997,234.357C289.04,234.357 294.758,231.39 294.758,227.735L294.758,108.527Z" style="fill:rgb(149,193,31);stroke:rgb(149,193,31);stroke-width:109.07px;"/>
                    </g>
                    <g transform="matrix(0.0597249,-5.5264e-18,0,0.115084,186.749,149.757)">
                        <path d="M294.758,108.527C294.758,104.872 289.04,101.905 281.997,101.905L52.296,101.905C45.253,101.905 39.535,104.872 39.535,108.527L39.535,227.735C39.535,231.39 45.253,234.357 52.296,234.357L281.997,234.357C289.04,234.357 294.758,231.39 294.758,227.735L294.758,108.527Z" style="fill:rgb(149,193,31);stroke:rgb(149,193,31);stroke-width:109.07px;"/>
                    </g>
                    <g transform="matrix(0.0597249,-5.5264e-18,0,0.115084,222.735,149.757)">
                        <path d="M294.758,108.527C294.758,104.872 289.04,101.905 281.997,101.905L52.296,101.905C45.253,101.905 39.535,104.872 39.535,108.527L39.535,227.735C39.535,231.39 45.253,234.357 52.296,234.357L281.997,234.357C289.04,234.357 294.758,231.39 294.758,227.735L294.758,108.527Z" style="fill:rgb(149,193,31);stroke:rgb(149,193,31);stroke-width:109.07px;"/>
                    </g>
                    <g transform="matrix(0.0597249,-5.5264e-18,0,0.115084,258.722,149.757)">
                        <path d="M294.758,108.527C294.758,104.872 289.04,101.905 281.997,101.905L52.296,101.905C45.253,101.905 39.535,104.872 39.535,108.527L39.535,227.735C39.535,231.39 45.253,234.357 52.296,234.357L281.997,234.357C289.04,234.357 294.758,231.39 294.758,227.735L294.758,108.527Z" style="fill:rgb(149,193,31);stroke:rgb(149,193,31);stroke-width:109.07px;"/>
                    </g>
                    <g transform="matrix(0.0597249,-5.5264e-18,0,0.115084,294.708,149.757)">
                        <path d="M294.758,108.527C294.758,104.872 289.04,101.905 281.997,101.905L52.296,101.905C45.253,101.905 39.535,104.872 39.535,108.527L39.535,227.735C39.535,231.39 45.253,234.357 52.296,234.357L281.997,234.357C289.04,234.357 294.758,231.39 294.758,227.735L294.758,108.527Z" style="fill:rgb(149,193,31);stroke:rgb(149,193,31);stroke-width:109.07px;"/>
                    </g>
                    <g transform="matrix(0.0597249,-5.5264e-18,0,0.115084,330.695,149.757)">
                        <path d="M294.758,108.527C294.758,104.872 289.04,101.905 281.997,101.905L52.296,101.905C45.253,101.905 39.535,104.872 39.535,108.527L39.535,227.735C39.535,231.39 45.253,234.357 52.296,234.357L281.997,234.357C289.04,234.357 294.758,231.39 294.758,227.735L294.758,108.527Z" style="fill:rgb(149,193,31);stroke:rgb(149,193,31);stroke-width:109.07px;"/>
                    </g>
                </g>
                <g id="tasten_l11" serif:id="tasten_l1" transform="matrix(1,0,0,1,0,88.5149)">
                    <g transform="matrix(0.0597249,-5.5264e-18,0,0.115084,42.8026,149.757)">
                        <path d="M294.758,108.527C294.758,104.872 289.04,101.905 281.997,101.905L52.296,101.905C45.253,101.905 39.535,104.872 39.535,108.527L39.535,227.735C39.535,231.39 45.253,234.357 52.296,234.357L281.997,234.357C289.04,234.357 294.758,231.39 294.758,227.735L294.758,108.527Z" style="fill:rgb(149,193,31);stroke:rgb(149,193,31);stroke-width:109.07px;"/>
                    </g>
                    <g transform="matrix(0.0597249,-5.5264e-18,0,0.115084,78.7891,149.757)">
                        <path d="M294.758,108.527C294.758,104.872 289.04,101.905 281.997,101.905L52.296,101.905C45.253,101.905 39.535,104.872 39.535,108.527L39.535,227.735C39.535,231.39 45.253,234.357 52.296,234.357L281.997,234.357C289.04,234.357 294.758,231.39 294.758,227.735L294.758,108.527Z" style="fill:rgb(149,193,31);stroke:rgb(149,193,31);stroke-width:109.07px;"/>
                    </g>
                    <g transform="matrix(0.628904,-5.5264e-18,0,0.115084,92.2731,149.757)">
                        <path d="M294.758,108.527C294.758,104.872 294.215,101.905 293.546,101.905L40.747,101.905C40.078,101.905 39.535,104.872 39.535,108.527L39.535,227.735C39.535,231.39 40.078,234.357 40.747,234.357L293.546,234.357C294.215,234.357 294.758,231.39 294.758,227.735L294.758,108.527Z" style="fill:rgb(149,193,31);stroke:rgb(149,193,31);stroke-width:22.12px;"/>
                    </g>
                    <g transform="matrix(0.0597249,-5.5264e-18,0,0.115084,294.708,149.757)">
                        <path d="M294.758,108.527C294.758,104.872 289.04,101.905 281.997,101.905L52.296,101.905C45.253,101.905 39.535,104.872 39.535,108.527L39.535,227.735C39.535,231.39 45.253,234.357 52.296,234.357L281.997,234.357C289.04,234.357 294.758,231.39 294.758,227.735L294.758,108.527Z" style="fill:rgb(149,193,31);stroke:rgb(149,193,31);stroke-width:109.07px;"/>
                    </g>
                    <g transform="matrix(0.0597249,-5.5264e-18,0,0.115084,330.695,149.757)">
                        <path d="M294.758,108.527C294.758,104.872 289.04,101.905 281.997,101.905L52.296,101.905C45.253,101.905 39.535,104.872 39.535,108.527L39.535,227.735C39.535,231.39 45.253,234.357 52.296,234.357L281.997,234.357C289.04,234.357 294.758,231.39 294.758,227.735L294.758,108.527Z" style="fill:rgb(149,193,31);stroke:rgb(149,193,31);stroke-width:109.07px;"/>
                    </g>
                </g>
                <g id="tasten_l2" transform="matrix(1,0,0,1,17.9933,42.651)">
                    <g transform="matrix(0.0597249,-5.5264e-18,0,0.115084,42.8026,149.757)">
                        <path d="M294.758,108.527C294.758,104.872 289.04,101.905 281.997,101.905L52.296,101.905C45.253,101.905 39.535,104.872 39.535,108.527L39.535,227.735C39.535,231.39 45.253,234.357 52.296,234.357L281.997,234.357C289.04,234.357 294.758,231.39 294.758,227.735L294.758,108.527Z" style="fill:rgb(149,193,31);stroke:rgb(149,193,31);stroke-width:109.07px;"/>
                    </g>
                    <g transform="matrix(0.0597249,-5.5264e-18,0,0.115084,78.7891,149.757)">
                        <path d="M294.758,108.527C294.758,104.872 289.04,101.905 281.997,101.905L52.296,101.905C45.253,101.905 39.535,104.872 39.535,108.527L39.535,227.735C39.535,231.39 45.253,234.357 52.296,234.357L281.997,234.357C289.04,234.357 294.758,231.39 294.758,227.735L294.758,108.527Z" style="fill:rgb(149,193,31);stroke:rgb(149,193,31);stroke-width:109.07px;"/>
                    </g>
                    <g transform="matrix(0.0597249,-5.5264e-18,0,0.115084,114.776,149.757)">
                        <path d="M294.758,108.527C294.758,104.872 289.04,101.905 281.997,101.905L52.296,101.905C45.253,101.905 39.535,104.872 39.535,108.527L39.535,227.735C39.535,231.39 45.253,234.357 52.296,234.357L281.997,234.357C289.04,234.357 294.758,231.39 294.758,227.735L294.758,108.527Z" style="fill:rgb(149,193,31);stroke:rgb(149,193,31);stroke-width:109.07px;"/>
                    </g>
                    <g transform="matrix(0.0597249,-5.5264e-18,0,0.115084,150.762,149.757)">
                        <path d="M294.758,108.527C294.758,104.872 289.04,101.905 281.997,101.905L52.296,101.905C45.253,101.905 39.535,104.872 39.535,108.527L39.535,227.735C39.535,231.39 45.253,234.357 52.296,234.357L281.997,234.357C289.04,234.357 294.758,231.39 294.758,227.735L294.758,108.527Z" style="fill:rgb(149,193,31);stroke:rgb(149,193,31);stroke-width:109.07px;"/>
                    </g>
                    <g transform="matrix(0.0597249,-5.5264e-18,0,0.115084,186.749,149.757)">
                        <path d="M294.758,108.527C294.758,104.872 289.04,101.905 281.997,101.905L52.296,101.905C45.253,101.905 39.535,104.872 39.535,108.527L39.535,227.735C39.535,231.39 45.253,234.357 52.296,234.357L281.997,234.357C289.04,234.357 294.758,231.39 294.758,227.735L294.758,108.527Z" style="fill:rgb(149,193,31);stroke:rgb(149,193,31);stroke-width:109.07px;"/>
                    </g>
                    <g transform="matrix(0.0597249,-5.5264e-18,0,0.115084,222.735,149.757)">
                        <path d="M294.758,108.527C294.758,104.872 289.04,101.905 281.997,101.905L52.296,101.905C45.253,101.905 39.535,104.872 39.535,108.527L39.535,227.735C39.535,231.39 45.253,234.357 52.296,234.357L281.997,234.357C289.04,234.357 294.758,231.39 294.758,227.735L294.758,108.527Z" style="fill:rgb(149,193,31);stroke:rgb(149,193,31);stroke-width:109.07px;"/>
                    </g>
                    <g transform="matrix(0.0597249,-5.5264e-18,0,0.115084,258.722,149.757)">
                        <path d="M294.758,108.527C294.758,104.872 289.04,101.905 281.997,101.905L52.296,101.905C45.253,101.905 39.535,104.872 39.535,108.527L39.535,227.735C39.535,231.39 45.253,234.357 52.296,234.357L281.997,234.357C289.04,234.357 294.758,231.39 294.758,227.735L294.758,108.527Z" style="fill:rgb(149,193,31);stroke:rgb(149,193,31);stroke-width:109.07px;"/>
                    </g>
                    <g transform="matrix(0.0597249,-5.5264e-18,0,0.115084,294.708,149.757)">
                        <path d="M294.758,108.527C294.758,104.872 289.04,101.905 281.997,101.905L52.296,101.905C45.253,101.905 39.535,104.872 39.535,108.527L39.535,227.735C39.535,231.39 45.253,234.357 52.296,234.357L281.997,234.357C289.04,234.357 294.758,231.39 294.758,227.735L294.758,108.527Z" style="fill:rgb(149,193,31);stroke:rgb(149,193,31);stroke-width:109.07px;"/>
                    </g>
                </g>
            </g>
        </g>
        <g id="maus" transform="matrix(0.883241,0.468919,-0.468919,0.883241,301.364,-148.269)">
            <g transform="matrix(1,0,0,1,31.7148,-17.7749)">
                <ellipse cx="295.339" cy="421.684" rx="45.339" ry="70.153" style="fill:rgb(60,60,59);stroke:rgb(60,60,59);stroke-width:10px;"/>
            </g>
            <g transform="matrix(0.937388,0,0,0.937388,50.2065,8.62746)">
                <clipPath id="_clip1">
                    <rect x="246.972" y="346.845" width="96.734" height="53.886"/>
                </clipPath>
                <g clip-path="url(#_clip1)">
                    <g>
                        <ellipse cx="295.339" cy="421.684" rx="45.339" ry="70.153" style="fill:rgb(149,193,31);"/>
                    </g>
                </g>
            </g>
            <g transform="matrix(1,0,0,1,129.661,-17.6209)">
                <path d="M197.392,351.377L197.392,410.846" style="fill:none;stroke:rgb(60,60,59);stroke-width:10px;"/>
            </g>
        </g>
        <g id="kabel" transform="matrix(1.59302,0,0,1,-470.961,163.659)">
            <path d="M527.69,-10.556C527.69,-10.556 571.168,-28.349 579.573,17.495C583.702,40.021 561.208,57.884 567.696,70.707C584.253,103.428 567.696,133.584 567.696,133.584" style="fill:none;stroke:rgb(60,60,59);stroke-width:7.52px;"/>
        </g>
    </g>
</svg>
