<?xml version="1.0" encoding="UTF-8" standalone="no"?>
<!DOCTYPE svg PUBLIC "-//W3C//DTD SVG 1.1//EN" "http://www.w3.org/Graphics/SVG/1.1/DTD/svg11.dtd">
<svg width="100%" height="100%" viewBox="0 0 500 500" version="1.1" xmlns="http://www.w3.org/2000/svg" xmlns:xlink="http://www.w3.org/1999/xlink" xml:space="preserve" xmlns:serif="http://www.serif.com/" style="fill-rule:evenodd;clip-rule:evenodd;stroke-miterlimit:10;">
    <g transform="matrix(5.76471,0,0,5.76471,-1414.16,-31.4906)">
        <circle cx="288.68" cy="48.83" r="42.5" style="fill:rgb(60,60,59);stroke:rgb(149,193,31);stroke-width:1.21px;"/>
    </g>
    <g transform="matrix(5.76471,0,0,5.76471,-1414.16,-31.4906)">
        <g>
            <path d="M259.84,54.07C259.84,47.23 263.61,43.07 268.97,43.07C274.33,43.07 278.1,47.24 278.1,54.07C278.1,60.91 274.33,65.22 268.97,65.22C263.61,65.22 259.84,60.92 259.84,54.07ZM275.29,54.07C275.29,48.75 272.78,45.46 268.97,45.46C265.16,45.46 262.65,48.74 262.65,54.07C262.65,59.39 265.16,62.83 268.97,62.83C272.78,62.83 275.29,59.39 275.29,54.07Z" style="fill:rgb(149,193,31);fill-rule:nonzero;"/>
            <path d="M280.71,43.47L283.98,43.47L288.08,54.89C288.59,56.35 289.08,57.86 289.6,59.34L289.73,59.34C290.24,57.86 290.69,56.35 291.21,54.89L295.26,43.47L298.53,43.47L298.53,64.84L296,64.84L296,53.07C296,51.21 296.21,48.64 296.35,46.75L296.22,46.75L294.52,51.62L290.5,62.67L288.7,62.67L284.66,51.62L282.97,46.75L282.84,46.75C282.98,48.64 283.19,51.21 283.19,53.07L283.19,64.83L280.73,64.83L280.73,43.47L280.71,43.47Z" style="fill:rgb(149,193,31);fill-rule:nonzero;"/>
            <path d="M302.09,43.47L307.44,43.47C314.01,43.47 317.53,47.29 317.53,54.08C317.53,60.87 314.01,64.84 307.56,64.84L302.09,64.84L302.09,43.47ZM307.23,62.6C312.22,62.6 314.72,59.47 314.72,54.07C314.72,48.67 312.23,45.69 307.23,45.69L304.81,45.69L304.81,62.6L307.23,62.6Z" style="fill:rgb(149,193,31);fill-rule:nonzero;"/>
        </g>
        <path d="M289.68,53.68L299.63,26.63L280,26.63L289.68,53.68Z" style="fill:rgb(149,193,31);fill-rule:nonzero;"/>
    </g>
</svg>
