<?xml version="1.0" encoding="utf-8"?>
<!-- Generator: Adobe Illustrator 23.0.3, SVG Export Plug-In . SVG Version: 6.00 Build 0)  -->
<svg version="1.1" id="Ebene_1" xmlns="http://www.w3.org/2000/svg" xmlns:xlink="http://www.w3.org/1999/xlink" x="0px" y="0px"
	 viewBox="0 0 549.81 316.56" style="enable-background:new 0 0 549.81 316.56;" xml:space="preserve">
<style type="text/css">
	.st0{fill:#3C3C3B;}
	.st1{fill:#95C11F;}
	.st2{fill:#3C3C3B;stroke:#3C3C3B;stroke-width:1.1126;stroke-miterlimit:10;}
	.st3{fill:none;stroke:#3C3C3B;stroke-width:2.2252;stroke-linecap:round;stroke-dasharray:0,4;}
	.st4{fill:#3C3C3B;stroke:#95C11F;stroke-width:1.5083;stroke-miterlimit:10;}
	.st5{fill:#878787;}
	.st6{fill:none;stroke:#95C11F;stroke-width:4;stroke-linecap:round;stroke-linejoin:round;stroke-miterlimit:10;}
	.st7{fill:#3C3C3B;stroke:#95C11F;stroke-width:2.7351;stroke-miterlimit:10;}
	.st8{fill:#3C3C3B;stroke:#95C11F;stroke-width:0.6906;stroke-miterlimit:10;}
	.st9{enable-background:new    ;}
</style>
<g>
	<path class="st0" d="M304.81,173.22c-8.94,3.16-18.56,4.88-28.57,4.88s-19.63-1.72-28.57-4.88c-14.77,9.44-24.57,25.97-24.57,44.79
		c0,29.35,23.79,53.14,53.14,53.14s53.14-23.79,53.14-53.14C329.37,199.19,319.57,182.66,304.81,173.22z"/>
</g>
<g>
	<path class="st1" d="M270.69,81.86c3.25,2.08,4.19,6.4,2.11,9.65c-1.33,2.08-3.59,3.22-5.89,3.22c-1.29,0-2.6-0.36-3.76-1.11
		l-21.9-14.04c-3.7-2.37-5.9-6.4-5.9-10.79s2.21-8.42,5.9-10.79l21.9-14.04c3.25-2.08,7.57-1.14,9.65,2.11s1.14,7.57-2.11,9.65
		L250.3,68.79L270.69,81.86z M311.17,129.36l-21.9,14.04c-1.17,0.75-2.47,1.11-3.76,1.11c-2.3,0-4.55-1.14-5.89-3.22
		c-2.08-3.25-1.14-7.57,2.11-9.65l20.39-13.07l-20.39-13.07c-3.25-2.08-4.19-6.4-2.11-9.65c2.08-3.25,6.4-4.19,9.65-2.11l21.9,14.04
		c3.7,2.37,5.9,6.4,5.9,10.79C317.07,122.96,314.87,127,311.17,129.36z"/>
	<path class="st1" d="M198.05,94.8c0-42.98,34.96-77.94,77.94-77.94s77.94,34.96,77.94,77.94s-34.96,77.94-77.94,77.94
		S198.05,137.77,198.05,94.8z M343.9,94.8c0-37.44-30.46-67.9-67.9-67.9s-67.9,30.46-67.9,67.9s30.46,67.9,67.9,67.9
		S343.9,132.24,343.9,94.8z"/>
</g>
<g>
	<g>
		<g>
			<polygon class="st2" points="192.54,94.85 186.76,87.85 186.76,101.75 			"/>
		</g>
		<line class="st3" x1="172.33" y1="95.15" x2="187.56" y2="95.15"/>
	</g>
</g>
<circle class="st4" cx="113.4" cy="94.66" r="53.14"/>
<g id="_x36_nBhxb_5_">
	<g>
		<path class="st1" d="M307.35,203.64c-0.21,0.8-0.45,1.59-0.63,2.39c-0.07,0.32-0.21,0.4-0.52,0.39c-0.94-0.02-1.89,0-2.84-0.01
			c-0.22,0-0.32,0.09-0.44,0.26c-0.54,0.69-0.51,1.31,0.07,1.99c0.42,0.49,0.7,1.09,1.07,1.63c0.13,0.19,0.16,0.36,0,0.54
			c-0.58,0.63-1.17,1.27-1.75,1.9c-0.16,0.17-0.31,0.16-0.5,0.05c-0.85-0.49-1.7-0.98-2.56-1.44c-0.13-0.07-0.33-0.06-0.47-0.01
			c-0.72,0.22-0.96,0.68-0.86,1.45c0.1,0.76,0.02,1.53,0.05,2.3c0.01,0.33-0.11,0.44-0.41,0.52c-0.75,0.18-1.48,0.39-2.22,0.61
			c-0.23,0.07-0.38,0.02-0.5-0.18c-0.4-0.67-0.81-1.33-1.21-2c-0.04-0.06-0.07-0.12-0.11-0.18c-0.4-0.66-0.82-0.82-1.53-0.52
			c-0.17,0.07-0.31,0.26-0.4,0.42c-0.43,0.74-0.86,1.49-1.26,2.26c-0.18,0.33-0.38,0.4-0.74,0.3c-0.75-0.21-1.51-0.39-2.27-0.56
			c-0.22-0.05-0.28-0.15-0.28-0.36c-0.01-1.04-0.05-2.08-0.06-3.12c0-0.22-0.08-0.33-0.27-0.43c-0.85-0.41-0.84-0.42-1.63,0.08
			c-0.63,0.39-1.27,0.78-1.89,1.19c-0.27,0.18-0.44,0.17-0.67-0.05c-0.62-0.6-1.24-1.19-1.88-1.78c-0.15-0.14-0.1-0.25-0.02-0.4
			c0.52-0.88,1.02-1.76,1.54-2.63c0.1-0.16,0.07-0.28,0.01-0.45c-0.28-0.73-0.75-0.99-1.55-0.88c-0.74,0.1-1.51,0.05-2.27,0.08
			c-0.24,0.01-0.36-0.05-0.42-0.3c-0.19-0.71-0.42-1.4-0.62-2.11c-0.14-0.48-0.07-0.66,0.36-0.92c0.73-0.44,1.46-0.87,2.2-1.29
			c0.25-0.14,0.32-0.31,0.33-0.6c0.03-0.73-0.19-1.23-0.94-1.52c-0.67-0.25-1.27-0.67-1.9-1.02c-0.24-0.13-0.3-0.31-0.23-0.59
			c0.21-0.75,0.4-1.5,0.58-2.26c0.06-0.25,0.16-0.34,0.43-0.34c0.93,0.02,1.87,0,2.8,0.01c0.27,0,0.37-0.12,0.51-0.32
			c0.55-0.75,0.47-1.4-0.12-2.1c-0.42-0.5-0.72-1.11-1.08-1.66c-0.13-0.19-0.1-0.3,0.06-0.45c0.63-0.61,1.25-1.22,1.86-1.85
			c0.18-0.19,0.31-0.17,0.51-0.05c0.65,0.39,1.3,0.77,1.96,1.14c1.03,0.58,1.89,0.06,1.87-1.14c-0.02-0.77-0.05-1.54-0.09-2.3
			c-0.01-0.22,0.02-0.34,0.27-0.4c0.83-0.21,1.66-0.45,2.49-0.7c0.23-0.07,0.35,0,0.46,0.19c0.46,0.8,0.93,1.59,1.39,2.39
			c0.11,0.19,0.22,0.28,0.45,0.26c0.32-0.02,0.64-0.02,0.96,0c0.26,0.02,0.37-0.1,0.48-0.31c0.42-0.81,0.86-1.6,1.29-2.4
			c0.12-0.22,0.27-0.28,0.52-0.22c0.8,0.2,1.61,0.38,2.42,0.55c0.26,0.05,0.33,0.18,0.33,0.43c-0.01,0.92,0,1.84-0.01,2.77
			c0,0.23,0.07,0.36,0.27,0.47c1.02,0.56,1.02,0.57,2.01-0.03c0.55-0.33,1.09-0.66,1.63-1.01c0.18-0.11,0.32-0.13,0.47,0.02
			c0.67,0.63,1.34,1.26,2,1.91c0.06,0.06,0.04,0.26-0.02,0.36c-0.46,0.81-0.92,1.62-1.41,2.42c-0.15,0.24-0.16,0.43,0.02,0.63
			c0.01,0.01,0.01,0.02,0.02,0.03c0.54,0.89,0.54,0.89,1.59,0.83c0.79-0.04,1.58-0.08,2.42-0.12c0.15,0.54,0.32,1.08,0.46,1.62
			c0.1,0.39,0.17,0.79,0.28,1.17c0.07,0.24-0.01,0.37-0.21,0.49c-0.79,0.45-1.57,0.92-2.36,1.37c-0.23,0.13-0.27,0.28-0.31,0.53
			c-0.14,0.85,0.19,1.32,0.98,1.66c0.73,0.31,1.4,0.78,2.09,1.18C307.35,203.5,307.35,203.57,307.35,203.64z M299.37,201.29
			c0.04-3.77-3.22-7.12-6.98-7.16c-3.99-0.05-7.22,3.07-7.32,6.97c-0.09,3.7,2.87,7.17,7.02,7.28
			C295.99,208.47,299.33,205.18,299.37,201.29z"/>
		<path class="st1" d="M243.6,225.67c1.6-0.38,3.09-0.75,4.58-1.1c0.29-0.07,0.45-0.17,0.51-0.48c0.1-0.46,0.23-0.92,0.38-1.36
			c0.08-0.24,0.04-0.39-0.14-0.56c-1.1-1.06-2.18-2.13-3.27-3.19c-0.2-0.19-0.22-0.32-0.08-0.56c0.69-1.16,1.37-2.32,2.02-3.5
			c0.15-0.27,0.29-0.29,0.56-0.21c1.4,0.42,2.81,0.82,4.21,1.24c0.22,0.07,0.37,0.05,0.53-0.13c0.35-0.38,0.72-0.75,1.1-1.11
			c0.18-0.17,0.2-0.33,0.13-0.56c-0.41-1.38-0.8-2.77-1.21-4.15c-0.08-0.27-0.03-0.43,0.22-0.58c1.14-0.64,2.28-1.29,3.41-1.96
			c0.26-0.15,0.43-0.11,0.64,0.1c0.99,1.03,2,2.04,2.99,3.07c0.17,0.18,0.31,0.23,0.55,0.16c0.45-0.14,0.91-0.27,1.37-0.37
			c0.36-0.08,0.54-0.29,0.63-0.63c0.26-1.02,0.52-2.04,0.78-3.05c0.09-0.37,0.18-0.73,0.25-1.11c0.04-0.2,0.14-0.26,0.34-0.26
			c1.42,0.01,2.84,0.01,4.25,0c0.22,0,0.3,0.07,0.36,0.28c0.34,1.39,0.71,2.77,1.05,4.15c0.08,0.32,0.25,0.51,0.57,0.59
			c0.48,0.12,0.96,0.24,1.43,0.39c0.24,0.08,0.39,0.02,0.55-0.16c1-1.07,2.01-2.13,3.02-3.19c0.06-0.07,0.12-0.15,0.18-0.24
			c0.35,0.2,0.65,0.37,0.96,0.55c0.96,0.56,1.92,1.12,2.89,1.66c0.24,0.13,0.3,0.27,0.22,0.53c-0.42,1.4-0.81,2.81-1.23,4.22
			c-0.07,0.25-0.05,0.41,0.14,0.58c0.37,0.33,0.72,0.69,1.05,1.05c0.17,0.18,0.32,0.21,0.56,0.15c1.4-0.42,2.81-0.81,4.21-1.24
			c0.28-0.08,0.41-0.03,0.56,0.23c0.67,1.18,1.36,2.35,2.05,3.52c0.13,0.22,0.11,0.33-0.07,0.5c-1.09,1.03-2.16,2.08-3.26,3.11
			c-0.21,0.2-0.26,0.37-0.17,0.65c0.15,0.46,0.26,0.93,0.37,1.4c0.06,0.25,0.17,0.37,0.43,0.43c1.42,0.32,2.83,0.67,4.24,1.01
			c0.1,0.02,0.2,0.06,0.33,0.1c0.01,0.14,0.02,0.28,0.02,0.42c0.02,1.35,0.02,2.69,0.06,4.04c0.01,0.28-0.08,0.39-0.35,0.45
			c-1.43,0.35-2.86,0.73-4.29,1.09c-0.31,0.08-0.49,0.23-0.55,0.55c-0.09,0.43-0.21,0.85-0.34,1.26c-0.07,0.21-0.01,0.34,0.15,0.49
			c1.13,1.08,2.25,2.16,3.38,3.24c0.18,0.17,0.2,0.29,0.07,0.51c-0.69,1.14-1.36,2.3-2.03,3.45c-0.12,0.21-0.24,0.3-0.5,0.23
			c-1.5-0.43-3-0.83-4.5-1.25c-0.26-0.07-0.44-0.05-0.62,0.16c-0.27,0.31-0.59,0.59-0.84,0.91c-0.1,0.12-0.14,0.35-0.1,0.51
			c0.35,1.35,0.74,2.68,1.09,4.03c0.25,1,0.3,0.74-0.5,1.23c-0.99,0.6-2.01,1.16-3,1.75c-0.24,0.14-0.4,0.13-0.61-0.08
			c-1.09-1.13-2.19-2.25-3.28-3.38c-0.16-0.17-0.3-0.21-0.53-0.14c-0.44,0.14-0.88,0.26-1.33,0.36c-0.22,0.05-0.31,0.16-0.36,0.37
			c-0.36,1.55-0.74,3.1-1.1,4.65c-0.06,0.26-0.16,0.34-0.42,0.33c-1.38-0.03-2.76-0.05-4.15-0.06c-0.23,0-0.32-0.08-0.38-0.31
			c-0.37-1.53-0.75-3.05-1.12-4.58c-0.06-0.24-0.16-0.38-0.42-0.43c-0.42-0.08-0.83-0.19-1.23-0.33c-0.27-0.09-0.43,0-0.61,0.19
			c-1.06,1.11-2.14,2.21-3.2,3.32c-0.21,0.22-0.37,0.25-0.63,0.09c-1.12-0.66-2.25-1.31-3.38-1.95c-0.24-0.14-0.33-0.27-0.25-0.56
			c0.4-1.42,0.77-2.85,1.18-4.26c0.1-0.36,0.04-0.62-0.2-0.9c-0.87-1.02-0.87-1.02-2.15-0.66c-1.23,0.34-2.46,0.66-3.69,1
			c-0.26,0.07-0.38-0.01-0.5-0.23c-0.67-1.17-1.35-2.33-2.04-3.49c-0.11-0.19-0.09-0.3,0.07-0.45c1.12-1.07,2.23-2.15,3.36-3.21
			c0.19-0.18,0.24-0.34,0.16-0.58c-0.13-0.45-0.25-0.91-0.34-1.37c-0.05-0.24-0.17-0.35-0.41-0.41c-1.48-0.36-2.95-0.74-4.43-1.1
			c-0.27-0.06-0.35-0.17-0.35-0.45C243.61,228.63,243.6,227.16,243.6,225.67z M276.85,227.89c-0.08-0.71-0.09-1.62-0.31-2.48
			c-0.45-1.74-1.36-3.24-2.58-4.58c-3.15-3.5-8.87-4.45-13.14-1.86c-4.79,2.91-6.57,9.04-4.02,13.99c2.57,4.97,8.63,7.18,13.74,4.85
			C274.65,235.92,276.74,232.62,276.85,227.89z"/>
	</g>
</g>
<g>
	<g>
		<path class="st5" d="M202.76,292.8h3.38c2.65,0,4.43,0.89,4.43,3.48c0,2.49-1.78,3.65-4.36,3.65h-1.94v4.69h-1.5L202.76,292.8
			L202.76,292.8z M206.01,298.71c2.07,0,3.05-0.75,3.05-2.43c0-1.7-1.05-2.26-3.12-2.26h-1.68v4.69H206.01z"/>
		<path class="st5" d="M212.81,302.86v-11.07h1.48v11.18c0,0.45,0.2,0.63,0.41,0.63c0.08,0,0.16,0,0.32-0.04l0.2,1.13
			c-0.21,0.08-0.46,0.14-0.85,0.14C213.26,304.84,212.81,304.13,212.81,302.86z"/>
		<path class="st5" d="M217.28,301.42v-5.54h1.48v5.35c0,1.63,0.49,2.33,1.65,2.33c0.9,0,1.51-0.44,2.34-1.47v-6.21h1.48v8.75h-1.22
			l-0.12-1.37h-0.05c-0.81,0.96-1.68,1.59-2.89,1.59C218.11,304.84,217.28,303.65,217.28,301.42z"/>
		<path class="st5" d="M226.52,306.3c0-0.75,0.48-1.46,1.28-1.98v-0.07c-0.45-0.28-0.78-0.75-0.78-1.44c0-0.73,0.51-1.31,0.96-1.62
			v-0.07c-0.58-0.45-1.13-1.31-1.13-2.35c0-1.91,1.51-3.12,3.28-3.12c0.48,0,0.92,0.09,1.24,0.22h3.05v1.14h-1.8
			c0.41,0.4,0.71,1.05,0.71,1.8c0,1.87-1.42,3.03-3.2,3.03c-0.42,0-0.91-0.1-1.3-0.3c-0.32,0.26-0.56,0.55-0.56,1.03
			c0,0.56,0.36,0.95,1.53,0.95h1.7c2.03,0,3.06,0.64,3.06,2.09c0,1.63-1.72,3.03-4.42,3.03C228,308.65,226.52,307.81,226.52,306.3z
			 M233.12,305.84c0-0.81-0.61-1.09-1.76-1.09h-1.51c-0.33,0-0.75-0.04-1.14-0.13c-0.63,0.44-0.89,0.96-0.89,1.47
			c0,0.94,0.95,1.53,2.54,1.53C232.02,307.63,233.12,306.76,233.12,305.84z M232,298.77c0-1.27-0.83-2.04-1.86-2.04
			s-1.86,0.76-1.86,2.04c0,1.27,0.85,2.08,1.86,2.08C231.15,300.85,232,300.04,232,298.77z"/>
		<path class="st5" d="M235.72,302.35c0-1.91,1.65-2.86,5.38-3.27c0-1.13-0.38-2.21-1.81-2.21c-1.01,0-1.92,0.48-2.61,0.94
			l-0.58-1.01c0.81-0.53,2.03-1.14,3.44-1.14c2.14,0,3.04,1.42,3.04,3.6v5.37h-1.22l-0.12-1.05h-0.05
			c-0.83,0.69-1.81,1.26-2.89,1.26C236.82,304.84,235.72,303.93,235.72,302.35z M241.09,302.49v-2.43
			c-2.93,0.35-3.92,1.07-3.92,2.19c0,0.99,0.67,1.4,1.53,1.4C239.55,303.64,240.25,303.23,241.09,302.49z"/>
		<path class="st5" d="M246.7,303.72h-0.05l-0.14,0.9h-1.18v-12.83h1.48v3.51l-0.05,1.57c0.8-0.69,1.78-1.22,2.75-1.22
			c2.26,0,3.48,1.75,3.48,4.45c0,2.99-1.79,4.73-3.79,4.73C248.39,304.84,247.48,304.42,246.7,303.72z M251.46,300.13
			c0-1.93-0.66-3.23-2.31-3.23c-0.74,0-1.51,0.41-2.34,1.19v4.59c0.77,0.67,1.55,0.91,2.13,0.91
			C250.39,303.59,251.46,302.29,251.46,300.13z"/>
		<path class="st5" d="M255.29,302.86v-11.07h1.48v11.18c0,0.45,0.2,0.63,0.41,0.63c0.08,0,0.16,0,0.32-0.04l0.2,1.13
			c-0.21,0.08-0.46,0.14-0.85,0.14C255.74,304.84,255.29,304.13,255.29,302.86z"/>
		<path class="st5" d="M259.22,300.26c0-2.85,1.92-4.6,3.93-4.6c2.23,0,3.49,1.6,3.49,4.11c0,0.31-0.03,0.62-0.07,0.84h-5.89
			c0.11,1.85,1.24,3.06,2.91,3.06c0.84,0,1.53-0.27,2.18-0.7l0.53,0.97c-0.77,0.5-1.7,0.91-2.89,0.91
			C261.08,304.84,259.22,303.13,259.22,300.26z M265.34,299.54c0-1.75-0.79-2.71-2.16-2.71c-1.23,0-2.33,0.99-2.51,2.71H265.34z"/>
		<path class="st5" d="M272.4,302.86v-11.07h1.48v11.18c0,0.45,0.2,0.63,0.41,0.63c0.08,0,0.16,0,0.32-0.04l0.2,1.13
			c-0.21,0.08-0.46,0.14-0.85,0.14C272.86,304.84,272.4,304.13,272.4,302.86z"/>
		<path class="st5" d="M276.72,293.11c0-0.58,0.45-0.96,1.02-0.96s1.02,0.38,1.02,0.96c0,0.56-0.45,0.96-1.02,0.96
			S276.72,293.67,276.72,293.11z M276.99,295.87h1.48v8.75h-1.48V295.87z"/>
		<path class="st5" d="M280.48,295.96l1.26-0.08H285v1.21h-4.52V295.96z M281.67,294.49c0-1.78,0.81-2.91,2.56-2.91
			c0.53,0,1.06,0.13,1.45,0.3l-0.31,1.13c-0.33-0.15-0.68-0.23-0.99-0.23c-0.83,0-1.23,0.58-1.23,1.71v10.13h-1.48V294.49z"/>
		<path class="st5" d="M286.03,300.26c0-2.85,1.92-4.6,3.93-4.6c2.23,0,3.49,1.6,3.49,4.11c0,0.31-0.03,0.62-0.07,0.84h-5.89
			c0.11,1.85,1.24,3.06,2.91,3.06c0.84,0,1.53-0.27,2.18-0.7l0.53,0.97c-0.77,0.5-1.7,0.91-2.89,0.91
			C287.88,304.84,286.03,303.13,286.03,300.26z M292.15,299.54c0-1.75-0.79-2.71-2.16-2.71c-1.23,0-2.33,0.99-2.51,2.71H292.15z"/>
		<path class="st5" d="M294.95,300.26c0-2.92,1.97-4.6,4.21-4.6c1.15,0,1.95,0.47,2.56,1.03l-0.76,0.98
			c-0.51-0.46-1.05-0.77-1.74-0.77c-1.59,0-2.75,1.37-2.75,3.37c0,2.01,1.1,3.35,2.71,3.35c0.8,0,1.51-0.39,2.06-0.87l0.64,0.99
			c-0.79,0.7-1.78,1.11-2.83,1.11C296.73,304.84,294.95,303.16,294.95,300.26z"/>
		<path class="st5" d="M302.94,308.21l0.29-1.18c0.17,0.06,0.44,0.13,0.67,0.13c0.99,0,1.61-0.79,1.97-1.88l0.2-0.65l-3.51-8.77
			h1.53l1.79,4.84c0.28,0.76,0.57,1.66,0.85,2.47h0.07c0.25-0.8,0.5-1.69,0.74-2.47l1.56-4.84h1.45l-3.3,9.47
			c-0.62,1.74-1.52,3.05-3.28,3.05C303.55,308.39,303.22,308.32,302.94,308.21z"/>
		<path class="st5" d="M311.57,300.26c0-2.92,1.97-4.6,4.21-4.6c1.15,0,1.95,0.47,2.56,1.03l-0.76,0.98
			c-0.51-0.46-1.05-0.77-1.74-0.77c-1.59,0-2.75,1.37-2.75,3.37c0,2.01,1.1,3.35,2.71,3.35c0.8,0,1.51-0.39,2.06-0.87l0.64,0.99
			c-0.79,0.7-1.78,1.11-2.83,1.11C313.34,304.84,311.57,303.16,311.57,300.26z"/>
		<path class="st5" d="M320.43,302.86v-11.07h1.48v11.18c0,0.45,0.2,0.63,0.41,0.63c0.09,0,0.16,0,0.32-0.04l0.2,1.13
			c-0.21,0.08-0.46,0.14-0.85,0.14C320.88,304.84,320.43,304.13,320.43,302.86z"/>
		<path class="st5" d="M324.37,300.26c0-2.85,1.92-4.6,3.94-4.6c2.23,0,3.49,1.6,3.49,4.11c0,0.31-0.03,0.62-0.07,0.84h-5.89
			c0.11,1.85,1.24,3.06,2.91,3.06c0.84,0,1.53-0.27,2.18-0.7l0.53,0.97c-0.77,0.5-1.7,0.91-2.89,0.91
			C326.22,304.84,324.37,303.13,324.37,300.26z M330.48,299.54c0-1.75-0.79-2.71-2.16-2.71c-1.23,0-2.33,0.99-2.51,2.71H330.48z"/>
		<path class="st5" d="M337.68,292.8h1.5v4.95h5.5v-4.95h1.5v11.82h-1.5v-5.56h-5.5v5.56h-1.5V292.8z"/>
		<path class="st5" d="M348.63,300.26c0-2.92,1.91-4.6,4.06-4.6c2.14,0,4.05,1.68,4.05,4.6c0,2.9-1.91,4.58-4.05,4.58
			C350.54,304.84,348.63,303.16,348.63,300.26z M355.21,300.26c0-2-1.02-3.37-2.53-3.37s-2.53,1.37-2.53,3.37
			c0,2.01,1.02,3.35,2.53,3.35S355.21,302.26,355.21,300.26z"/>
		<path class="st5" d="M358.38,300.26c0-2.92,1.91-4.6,4.06-4.6c2.14,0,4.05,1.68,4.05,4.6c0,2.9-1.91,4.58-4.05,4.58
			C360.29,304.84,358.38,303.16,358.38,300.26z M364.97,300.26c0-2-1.02-3.37-2.53-3.37s-2.53,1.37-2.53,3.37
			c0,2.01,1.02,3.35,2.53,3.35S364.97,302.26,364.97,300.26z"/>
		<path class="st5" d="M368.79,291.79h1.46v8.69h0.05l3.74-4.61h1.64l-2.93,3.52l3.32,5.23h-1.62l-2.55-4.21l-1.64,1.91v2.3h-1.46
			v-12.83H368.79z"/>
		<path class="st5" d="M376.73,303.62l0.73-0.98c0.76,0.61,1.53,1.04,2.58,1.04c1.15,0,1.72-0.61,1.72-1.36c0-0.9-1.03-1.3-2-1.66
			c-1.23-0.45-2.61-1.05-2.61-2.53c0-1.4,1.12-2.48,3.02-2.48c1.09,0,2.04,0.45,2.72,0.98l-0.71,0.95c-0.6-0.45-1.22-0.78-2-0.78
			c-1.1,0-1.61,0.59-1.61,1.25c0,0.83,0.95,1.15,1.94,1.52c1.26,0.48,2.67,0.99,2.67,2.66c0,1.42-1.13,2.6-3.19,2.6
			C378.75,304.84,377.55,304.31,376.73,303.62z"/>
	</g>
</g>
<path class="st6" d="M282.32,270.95c26.56-2.94,47.23-25.46,47.23-52.81c0-18.83-9.8-35.35-24.57-44.79"/>
<path class="st6" d="M247.84,173.35c-14.77,9.44-24.57,25.97-24.57,44.79c0,28.48,22.4,51.72,50.54,53.07"/>
<polygon class="st6" points="304.56,181.45 304.56,172.58 313.43,172.58 "/>
<polygon class="st6" points="267.71,277.44 273.98,271.17 267.71,264.89 "/>
<g>
	<g>
		<path class="st5" d="M35.75,17.39c0-3.81,2.29-6.13,5.42-6.13c1.64,0,2.72,0.74,3.41,1.46l-0.82,0.98
			c-0.6-0.62-1.36-1.11-2.54-1.11c-2.38,0-3.91,1.83-3.91,4.77c0,2.97,1.41,4.83,3.93,4.83c0.85,0,1.66-0.25,2.13-0.69v-3.08h-2.5
			v-1.25h3.87v4.97c-0.76,0.79-2.05,1.37-3.64,1.37C37.97,23.51,35.75,21.23,35.75,17.39z"/>
		<path class="st5" d="M46.75,18.93c0-2.85,1.92-4.6,3.93-4.6c2.23,0,3.49,1.6,3.49,4.11c0,0.31-0.03,0.62-0.07,0.84h-5.89
			c0.11,1.85,1.24,3.06,2.91,3.06c0.84,0,1.53-0.27,2.18-0.7l0.53,0.97c-0.77,0.5-1.7,0.91-2.89,0.91
			C48.61,23.51,46.75,21.8,46.75,18.93z M52.87,18.21c0-1.75-0.79-2.71-2.16-2.71c-1.23,0-2.33,0.99-2.51,2.71H52.87z"/>
		<path class="st5" d="M56.33,14.54h1.22l0.12,1.26h0.05c0.83-0.82,1.73-1.48,2.94-1.48c1.84,0,2.67,1.19,2.67,3.42v5.55h-1.48
			v-5.35c0-1.63-0.49-2.33-1.65-2.33c-0.9,0-1.51,0.46-2.39,1.34v6.34h-1.48V14.54z"/>
		<path class="st5" d="M65.52,18.93c0-2.85,1.92-4.6,3.93-4.6c2.23,0,3.49,1.6,3.49,4.11c0,0.31-0.03,0.62-0.07,0.84h-5.89
			c0.11,1.85,1.24,3.06,2.91,3.06c0.84,0,1.53-0.27,2.18-0.7l0.53,0.97c-0.77,0.5-1.7,0.91-2.89,0.91
			C67.38,23.51,65.52,21.8,65.52,18.93z M71.64,18.21c0-1.75-0.79-2.71-2.16-2.71c-1.23,0-2.33,0.99-2.51,2.71H71.64z"/>
		<path class="st5" d="M75.1,14.54h1.22l0.12,1.59h0.05c0.61-1.11,1.5-1.81,2.49-1.81c0.39,0,0.66,0.05,0.93,0.18l-0.28,1.3
			c-0.3-0.09-0.5-0.14-0.85-0.14c-0.74,0-1.62,0.53-2.21,2.01v5.62H75.1V14.54z"/>
		<path class="st5" d="M81.08,11.78c0-0.58,0.45-0.96,1.02-0.96s1.02,0.38,1.02,0.96c0,0.56-0.45,0.96-1.02,0.96
			S81.08,12.34,81.08,11.78z M81.35,14.54h1.48v8.75h-1.48V14.54z"/>
		<path class="st5" d="M85.12,18.93c0-2.92,1.97-4.6,4.21-4.6c1.15,0,1.95,0.47,2.56,1.03l-0.76,0.98
			c-0.51-0.46-1.05-0.77-1.74-0.77c-1.58,0-2.75,1.36-2.75,3.37s1.1,3.35,2.71,3.35c0.8,0,1.51-0.39,2.06-0.87l0.64,0.99
			c-0.79,0.7-1.78,1.11-2.83,1.11C86.9,23.51,85.12,21.82,85.12,18.93z"/>
		<path class="st5" d="M97.72,11.47h3.38c2.65,0,4.43,0.89,4.43,3.48c0,2.49-1.78,3.65-4.36,3.65h-1.94v4.69h-1.5L97.72,11.47
			L97.72,11.47z M100.98,17.38c2.07,0,3.05-0.75,3.05-2.43c0-1.7-1.05-2.26-3.12-2.26h-1.68v4.69H100.98z"/>
		<path class="st5" d="M107.77,14.54h1.22l0.12,1.59h0.05c0.61-1.11,1.5-1.81,2.49-1.81c0.39,0,0.66,0.05,0.93,0.18l-0.28,1.3
			c-0.3-0.09-0.5-0.14-0.85-0.14c-0.74,0-1.62,0.53-2.21,2.01v5.62h-1.48L107.77,14.54L107.77,14.54z"/>
		<path class="st5" d="M113.37,18.93c0-2.92,1.91-4.6,4.06-4.6c2.15,0,4.06,1.68,4.06,4.6c0,2.9-1.91,4.58-4.06,4.58
			C115.28,23.51,113.37,21.82,113.37,18.93z M119.95,18.93c0-2.01-1.02-3.37-2.53-3.37c-1.5,0-2.53,1.36-2.53,3.37
			s1.02,3.35,2.53,3.35C118.93,22.27,119.95,20.93,119.95,18.93z"/>
		<path class="st5" d="M121.58,26.97l0.29-1.13c0.23,0.07,0.52,0.15,0.83,0.15c0.88,0,1.08-0.66,1.08-1.72v-9.73h1.48v9.74
			c0,1.79-0.66,2.92-2.4,2.92C122.33,27.2,121.89,27.09,121.58,26.97z M123.52,11.78c0-0.58,0.45-0.96,1.02-0.96
			c0.58,0,1.02,0.38,1.02,0.96c0,0.56-0.45,0.96-1.02,0.96C123.96,12.74,123.52,12.34,123.52,11.78z"/>
		<path class="st5" d="M127.57,18.93c0-2.85,1.92-4.6,3.93-4.6c2.23,0,3.49,1.6,3.49,4.11c0,0.31-0.03,0.62-0.07,0.84h-5.89
			c0.11,1.85,1.24,3.06,2.91,3.06c0.84,0,1.53-0.27,2.18-0.7l0.53,0.97c-0.77,0.5-1.7,0.91-2.89,0.91
			C129.43,23.51,127.57,21.8,127.57,18.93z M133.69,18.21c0-1.75-0.79-2.71-2.16-2.71c-1.23,0-2.33,0.99-2.51,2.71H133.69z"/>
		<path class="st5" d="M136.5,18.93c0-2.92,1.97-4.6,4.21-4.6c1.15,0,1.95,0.47,2.56,1.03l-0.76,0.98
			c-0.51-0.46-1.05-0.77-1.74-0.77c-1.58,0-2.75,1.36-2.75,3.37s1.1,3.35,2.71,3.35c0.8,0,1.51-0.39,2.06-0.87l0.64,0.99
			c-0.79,0.7-1.78,1.11-2.83,1.11C138.27,23.51,136.5,21.82,136.5,18.93z"/>
		<path class="st5" d="M145.61,20.58v-4.84h-1.3v-1.12l1.37-0.09l0.18-2.45h1.24v2.45h2.37v1.21h-2.37v4.87
			c0,1.07,0.34,1.69,1.35,1.69c0.31,0,0.71-0.12,1-0.24l0.29,1.12c-0.49,0.17-1.08,0.32-1.62,0.32
			C146.24,23.51,145.61,22.33,145.61,20.58z"/>
		<path class="st5" d="M155.18,11.47h1.5v10.54h5.16v1.27h-6.66V11.47z"/>
		<path class="st5" d="M163.14,18.93c0-2.92,1.91-4.6,4.06-4.6s4.06,1.68,4.06,4.6c0,2.9-1.91,4.58-4.06,4.58
			S163.14,21.82,163.14,18.93z M169.72,18.93c0-2.01-1.02-3.37-2.53-3.37c-1.5,0-2.53,1.36-2.53,3.37s1.02,3.35,2.53,3.35
			C168.7,22.27,169.72,20.93,169.72,18.93z"/>
		<path class="st5" d="M173,21.02c0-1.91,1.65-2.86,5.38-3.27c0-1.13-0.38-2.21-1.81-2.21c-1.01,0-1.92,0.48-2.61,0.94l-0.58-1.02
			c0.81-0.53,2.03-1.14,3.44-1.14c2.14,0,3.04,1.42,3.04,3.6v5.37h-1.22l-0.12-1.05h-0.05c-0.83,0.69-1.81,1.26-2.89,1.26
			C174.1,23.51,173,22.6,173,21.02z M178.37,21.15v-2.43c-2.93,0.35-3.92,1.07-3.92,2.19c0,0.99,0.67,1.4,1.53,1.4
			C176.83,22.31,177.53,21.9,178.37,21.15z"/>
		<path class="st5" d="M181.99,18.93c0-2.84,1.79-4.6,3.79-4.6c1.02,0,1.69,0.38,2.45,1.01l-0.06-1.5v-3.37h1.48V23.3h-1.22
			l-0.12-1.03h-0.05c-0.68,0.68-1.61,1.25-2.66,1.25C183.41,23.51,181.99,21.84,181.99,18.93z M188.17,21.07v-4.59
			c-0.75-0.67-1.42-0.91-2.13-0.91c-1.4,0-2.51,1.35-2.51,3.34c0,2.1,0.87,3.35,2.4,3.35C186.73,22.26,187.43,21.87,188.17,21.07z"
			/>
		<path class="st5" d="M191.95,18.93c0-2.85,1.92-4.6,3.93-4.6c2.23,0,3.49,1.6,3.49,4.11c0,0.31-0.03,0.62-0.07,0.84h-5.89
			c0.11,1.85,1.24,3.06,2.91,3.06c0.84,0,1.53-0.27,2.18-0.7l0.53,0.97c-0.77,0.5-1.7,0.91-2.89,0.91
			C193.81,23.51,191.95,21.8,191.95,18.93z M198.07,18.21c0-1.75-0.79-2.71-2.16-2.71c-1.23,0-2.33,0.99-2.51,2.71H198.07z"/>
		<path class="st5" d="M201.53,14.54h1.22l0.12,1.59h0.05c0.61-1.11,1.5-1.81,2.49-1.81c0.39,0,0.66,0.05,0.93,0.18l-0.28,1.3
			c-0.3-0.09-0.5-0.14-0.85-0.14c-0.74,0-1.62,0.53-2.21,2.01v5.62h-1.48v-8.75H201.53z"/>
	</g>
</g>
<circle class="st4" cx="443.64" cy="94.76" r="53.14"/>
<g>
	<g>
		<g>
			<polygon class="st2" points="382.31,95.02 376.52,88.01 376.52,101.91 			"/>
		</g>
		<line class="st3" x1="362.09" y1="95.24" x2="377.32" y2="95.24"/>
	</g>
</g>
<g id="Q4o2qO_1_">
	<g>
		<path class="st1" d="M133.11,58.81c2.17,2.14,4.36,4.26,6.48,6.45c0.43,0.44,0.79,1.17,0.8,1.77c0.04,14.23,0.03,28.46,0.03,42.69
			c0,0.34-0.04,0.68-0.07,1.11c-1.65,0-3.24,0-4.84,0c-0.14-1.68-0.18-3.41-0.16-3.39c0.01,0.01,0.88-0.15,1.36-0.2
			c0-13.06,0-26.13,0-39.39c-1.83,0-3.67,0-5.65,0c0-1.91,0-3.64,0-5.45c-9.14,0-18.16,0-27.27,0c0,0.79,0,1.52,0,2.35
			c-1.21,0-2.32,0-3.69,0c0-1.96,0-3.94,0-5.93C111.11,58.81,122.11,58.81,133.11,58.81z"/>
		<path class="st1" d="M126.48,126.06c-13.45,0-26.77,0-40.14,0c0-17.34,0-34.6,0-52.05c0.52,0,0.98,0,1.44,0
			c10,0,19.99-0.02,29.99,0.03c0.69,0,1.53,0.34,2.04,0.81c2.06,1.88,4.05,3.84,6.01,5.84c0.38,0.38,0.67,1.04,0.67,1.57
			c0.04,14.27,0,28.55,0,42.82C126.48,125.37,126.51,125.67,126.48,126.06z M122.82,122.55c0-13.18,0-26.26,0-39.47
			c-1.9,0-3.71,0-5.7,0c0-1.89,0-3.65,0-5.4c-9.15,0-18.13,0-27.17,0c0,14.98,0,29.88,0,44.86
			C100.92,122.55,111.81,122.55,122.82,122.55z"/>
		<path class="st1" d="M133.21,118.16c-1.71,0-3.27,0-4.94,0c0-1.15,0-2.26,0-3.45c0.4-0.05,0.82-0.1,1.34-0.17
			c0-13.09,0-26.2,0-39.46c-1.82,0-3.67,0-5.62,0c0-1.88,0-3.6,0-5.43c-9.11,0-18.12,0-27.25,0c-0.05,0.76-0.1,1.56-0.16,2.43
			c-1.15,0-2.22,0-3.41,0c0-1.91,0-3.85,0-5.95c0.41-0.03,0.86-0.08,1.32-0.08c10.04,0,20.08-0.02,30.11,0.03
			c0.69,0,1.51,0.36,2.03,0.83c2.01,1.81,3.96,3.69,5.85,5.63c0.43,0.44,0.78,1.18,0.78,1.78c0.04,14.18,0.03,28.37,0.03,42.55
			C133.29,117.26,133.24,117.64,133.21,118.16z"/>
	</g>
</g>
<g id="Q4o2qO_2_">
	<g>
		<path class="st1" d="M464.37,121.66c-15.96,0-31.76,0-47.61,0c0-20.56,0-41.04,0-61.75c0.61,0,1.16,0,1.71,0
			c11.86,0,23.71-0.02,35.57,0.04c0.82,0,1.81,0.4,2.42,0.96c2.45,2.23,4.81,4.56,7.13,6.92c0.45,0.46,0.79,1.24,0.79,1.87
			c0.04,16.93,0,33.86,0,50.79C464.37,120.84,464.39,121.2,464.37,121.66z M460.02,117.5c0-15.64,0-31.15,0-46.81
			c-2.25,0-4.4,0-6.76,0c0-2.24,0-4.33,0-6.4c-10.86,0-21.5,0-32.23,0c0,17.77,0,35.45,0,53.22
			C434.04,117.5,446.96,117.5,460.02,117.5z"/>
	</g>
</g>
<circle class="st0" cx="462.05" cy="119.2" r="13.54"/>
<circle class="st7" cx="462.05" cy="119.2" r="9.56"/>
<polyline class="st7" points="462.07,113.2 462.08,119.35 465.08,121.75 "/>
<g>
	<g>
		<polygon class="st1" points="412.31,69.43 416.5,65.64 423.18,73.03 442.88,55.03 446.69,59.2 422.79,81.04 		"/>
		<path class="st0" d="M442.8,56.8l2.12,2.32l-22.03,20.14l-8.8-9.74l2.33-2.1l6.68,7.4L442.8,56.8 M442.96,53.26l-1.85,1.69
			l-17.84,16.3l-4.99-5.52l-1.68-1.86l-1.86,1.68l-2.33,2.1l-1.86,1.68l1.68,1.86l8.8,9.74l1.69,1.87l1.86-1.7l22.03-20.14
			l1.85-1.69l-1.69-1.85l-2.12-2.32L442.96,53.26L442.96,53.26z"/>
	</g>
</g>
<g>
	<polyline class="st0" points="424.46,99.07 432.77,92.2 435.54,95.58 438.91,92.56 443.49,96.66 456.98,90.52 	"/>
</g>
<g>
	<polyline class="st0" points="423.86,105.33 428.19,102.44 430.6,105.81 433.61,102.8 437.83,106.9 451.08,98.95 456.64,103.48 	
		"/>
	<polygon class="st1" points="437.63,115.05 433.63,111.16 430.43,114.36 427.85,110.75 423.59,114.07 423.59,110.39 428.54,107.01 
		430.78,110.15 433.6,107.32 436.87,110.69 450.9,91.79 457.65,97.34 457.65,101.26 451.3,96.47 	"/>
</g>
<circle class="st8" cx="16.09" cy="16.31" r="12.11"/>
<g class="st9">
	<path class="st1" d="M15.42,12.74h-0.04l-2.19,1.04l-0.44-2.01l3.04-1.41h2.22v11.48h-2.6V12.74z"/>
</g>
<g>
	<circle class="st8" cx="182.01" cy="300.29" r="12.11"/>
	<g class="st9">
		<path class="st1" d="M177.91,305.8v-1.62l1.48-1.34c2.51-2.24,3.73-3.53,3.76-4.87c0-0.94-0.56-1.68-1.89-1.68
			c-0.99,0-1.85,0.49-2.45,0.95l-0.76-1.92c0.86-0.65,2.21-1.18,3.76-1.18c2.6,0,4.03,1.52,4.03,3.6c0,1.92-1.4,3.46-3.05,4.94
			l-1.06,0.88v0.04h4.33v2.21H177.91z"/>
	</g>
</g>
<g>
	<g>
		<path class="st5" d="M360.5,17.39c0-3.81,2.29-6.13,5.42-6.13c1.64,0,2.72,0.74,3.41,1.46l-0.82,0.98
			c-0.6-0.62-1.36-1.11-2.54-1.11c-2.38,0-3.91,1.83-3.91,4.77c0,2.97,1.41,4.83,3.93,4.83c0.85,0,1.66-0.25,2.13-0.69v-3.08h-2.5
			v-1.25h3.87v4.97c-0.76,0.79-2.05,1.37-3.64,1.37C362.72,23.51,360.5,21.23,360.5,17.39z"/>
		<path class="st5" d="M371.51,18.93c0-2.85,1.92-4.6,3.93-4.6c2.23,0,3.49,1.6,3.49,4.11c0,0.31-0.03,0.62-0.07,0.84h-5.89
			c0.11,1.85,1.24,3.06,2.91,3.06c0.84,0,1.53-0.27,2.18-0.7l0.53,0.97c-0.77,0.5-1.7,0.91-2.89,0.91
			C373.36,23.51,371.51,21.8,371.51,18.93z M377.62,18.21c0-1.75-0.79-2.71-2.16-2.71c-1.23,0-2.33,0.99-2.51,2.71H377.62z"/>
		<path class="st5" d="M381.08,14.54h1.22l0.12,1.26h0.05c0.83-0.82,1.73-1.48,2.94-1.48c1.84,0,2.67,1.19,2.67,3.42v5.55h-1.48
			v-5.35c0-1.63-0.49-2.33-1.65-2.33c-0.9,0-1.51,0.46-2.39,1.34v6.34h-1.48L381.08,14.54L381.08,14.54z"/>
		<path class="st5" d="M390.28,18.93c0-2.85,1.92-4.6,3.93-4.6c2.23,0,3.49,1.6,3.49,4.11c0,0.31-0.03,0.62-0.07,0.84h-5.89
			c0.11,1.85,1.24,3.06,2.91,3.06c0.84,0,1.53-0.27,2.18-0.7l0.53,0.97c-0.77,0.5-1.7,0.91-2.89,0.91
			C392.14,23.51,390.28,21.8,390.28,18.93z M396.4,18.21c0-1.75-0.79-2.71-2.16-2.71c-1.23,0-2.33,0.99-2.51,2.71H396.4z"/>
		<path class="st5" d="M399.86,14.54h1.22l0.12,1.59h0.05c0.61-1.11,1.5-1.81,2.49-1.81c0.39,0,0.66,0.05,0.93,0.18l-0.28,1.3
			c-0.3-0.09-0.5-0.14-0.85-0.14c-0.74,0-1.62,0.53-2.21,2.01v5.62h-1.48v-8.75H399.86z"/>
		<path class="st5" d="M405.83,11.78c0-0.58,0.45-0.96,1.02-0.96s1.02,0.38,1.02,0.96c0,0.56-0.45,0.96-1.02,0.96
			S405.83,12.34,405.83,11.78z M406.1,14.54h1.48v8.75h-1.48V14.54z"/>
		<path class="st5" d="M409.88,18.93c0-2.92,1.97-4.6,4.21-4.6c1.15,0,1.95,0.47,2.56,1.03l-0.76,0.98
			c-0.51-0.46-1.05-0.77-1.74-0.77c-1.58,0-2.75,1.36-2.75,3.37s1.1,3.35,2.71,3.35c0.8,0,1.51-0.39,2.05-0.87l0.64,0.99
			c-0.79,0.7-1.78,1.11-2.83,1.11C411.66,23.51,409.88,21.82,409.88,18.93z"/>
		<path class="st5" d="M422.48,11.47h3.7c2.41,0,4.13,0.86,4.13,3.33c0,2.36-1.73,3.5-4.13,3.5h-2.2v4.99h-1.5V11.47z M425.96,17.08
			c1.84,0,2.85-0.75,2.85-2.28c0-1.55-1.01-2.11-2.85-2.11h-1.98v4.38h1.98V17.08z M425.88,17.88l1.18-0.78l3.61,6.19h-1.71
			L425.88,17.88z"/>
		<path class="st5" d="M431.93,18.93c0-2.85,1.92-4.6,3.93-4.6c2.23,0,3.49,1.6,3.49,4.11c0,0.31-0.03,0.62-0.07,0.84h-5.89
			c0.11,1.85,1.24,3.06,2.91,3.06c0.84,0,1.53-0.27,2.18-0.7l0.53,0.97c-0.77,0.5-1.7,0.91-2.89,0.91
			C433.79,23.51,431.93,21.8,431.93,18.93z M438.05,18.21c0-1.75-0.79-2.71-2.16-2.71c-1.23,0-2.33,0.99-2.51,2.71H438.05z"/>
		<path class="st5" d="M440.54,22.29l0.73-0.98c0.76,0.61,1.53,1.04,2.58,1.04c1.15,0,1.72-0.61,1.72-1.36c0-0.9-1.03-1.3-2-1.66
			c-1.23-0.45-2.61-1.05-2.61-2.53c0-1.4,1.12-2.48,3.02-2.48c1.09,0,2.04,0.45,2.72,0.98l-0.71,0.95c-0.6-0.45-1.22-0.78-2-0.78
			c-1.1,0-1.61,0.59-1.61,1.26c0,0.83,0.95,1.15,1.94,1.52c1.26,0.48,2.67,0.99,2.67,2.66c0,1.42-1.13,2.6-3.19,2.6
			C442.56,23.51,441.36,22.98,440.54,22.29z"/>
		<path class="st5" d="M448.93,20.08v-5.55h1.48v5.35c0,1.63,0.49,2.33,1.65,2.33c0.9,0,1.51-0.44,2.34-1.48v-6.21h1.48v8.75h-1.22
			l-0.12-1.37h-0.05c-0.81,0.96-1.68,1.59-2.89,1.59C449.76,23.51,448.93,22.32,448.93,20.08z"/>
		<path class="st5" d="M458.84,21.53V10.46h1.48v11.18c0,0.45,0.2,0.63,0.41,0.63c0.08,0,0.16,0,0.32-0.04l0.2,1.13
			c-0.21,0.08-0.46,0.14-0.85,0.14C459.3,23.51,458.84,22.8,458.84,21.53z"/>
		<path class="st5" d="M463.69,20.58v-4.84h-1.3v-1.12l1.37-0.09l0.18-2.45h1.24v2.45h2.37v1.21h-2.37v4.87
			c0,1.07,0.34,1.69,1.35,1.69c0.31,0,0.71-0.12,1-0.24l0.29,1.12c-0.49,0.17-1.08,0.32-1.62,0.32
			C464.32,23.51,463.69,22.33,463.69,20.58z"/>
		<path class="st5" d="M472.17,14.62l1.25-0.09h3.27v1.21h-4.52V14.62z M473.36,13.16c0-1.78,0.81-2.91,2.56-2.91
			c0.53,0,1.06,0.13,1.45,0.3l-0.31,1.13c-0.33-0.15-0.68-0.23-0.99-0.23c-0.83,0-1.23,0.58-1.23,1.71v10.13h-1.48V13.16z"/>
		<path class="st5" d="M477.72,18.93c0-2.92,1.91-4.6,4.06-4.6s4.06,1.68,4.06,4.6c0,2.9-1.91,4.58-4.06,4.58
			S477.72,21.82,477.72,18.93z M484.3,18.93c0-2.01-1.02-3.37-2.53-3.37c-1.5,0-2.53,1.36-2.53,3.37s1.02,3.35,2.53,3.35
			C483.28,22.27,484.3,20.93,484.3,18.93z"/>
		<path class="st5" d="M488.13,14.54h1.22l0.12,1.59h0.05c0.61-1.11,1.5-1.81,2.49-1.81c0.39,0,0.66,0.05,0.93,0.18l-0.28,1.3
			c-0.3-0.09-0.5-0.14-0.85-0.14c-0.74,0-1.62,0.53-2.21,2.01v5.62h-1.48v-8.75H488.13z"/>
		<path class="st5" d="M493.33,14.54h1.51l1.3,5.06c0.19,0.83,0.35,1.62,0.52,2.44h0.07c0.19-0.82,0.38-1.62,0.59-2.44l1.35-5.06
			h1.45l1.37,5.06c0.22,0.83,0.41,1.62,0.61,2.44h0.07c0.19-0.82,0.35-1.61,0.54-2.44l1.28-5.06h1.41l-2.35,8.75h-1.8l-1.26-4.7
			c-0.21-0.83-0.38-1.63-0.59-2.52h-0.07c-0.19,0.89-0.37,1.72-0.6,2.54l-1.23,4.68h-1.73L493.33,14.54z"/>
		<path class="st5" d="M506.76,21.02c0-1.91,1.65-2.86,5.38-3.27c0-1.13-0.38-2.21-1.81-2.21c-1.01,0-1.92,0.48-2.61,0.94
			l-0.58-1.02c0.81-0.53,2.03-1.14,3.44-1.14c2.14,0,3.04,1.42,3.04,3.6v5.37h-1.22l-0.12-1.05h-0.05
			c-0.83,0.69-1.81,1.26-2.89,1.26C507.86,23.51,506.76,22.6,506.76,21.02z M512.13,21.15v-2.43c-2.93,0.35-3.92,1.07-3.92,2.19
			c0,0.99,0.67,1.4,1.53,1.4C510.59,22.31,511.28,21.9,512.13,21.15z"/>
		<path class="st5" d="M516.37,14.54h1.22l0.12,1.59h0.05c0.61-1.11,1.5-1.81,2.49-1.81c0.39,0,0.66,0.05,0.93,0.18l-0.28,1.3
			c-0.3-0.09-0.5-0.14-0.85-0.14c-0.74,0-1.62,0.53-2.21,2.01v5.62h-1.48v-8.75H516.37z"/>
		<path class="st5" d="M521.99,18.93c0-2.84,1.79-4.6,3.79-4.6c1.02,0,1.69,0.38,2.45,1.01l-0.06-1.5v-3.37h1.48V23.3h-1.22
			l-0.12-1.03h-0.05c-0.68,0.68-1.61,1.25-2.66,1.25C523.41,23.51,521.99,21.84,521.99,18.93z M528.17,21.07v-4.59
			c-0.75-0.67-1.42-0.91-2.13-0.91c-1.4,0-2.51,1.35-2.51,3.34c0,2.1,0.87,3.35,2.4,3.35C526.73,22.26,527.44,21.87,528.17,21.07z"
			/>
		<path class="st5" d="M531.95,18.93c0-2.85,1.92-4.6,3.93-4.6c2.23,0,3.49,1.6,3.49,4.11c0,0.31-0.03,0.62-0.07,0.84h-5.89
			c0.11,1.85,1.24,3.06,2.91,3.06c0.84,0,1.53-0.27,2.18-0.7l0.53,0.97c-0.77,0.5-1.7,0.91-2.89,0.91
			C533.81,23.51,531.95,21.8,531.95,18.93z M538.07,18.21c0-1.75-0.79-2.71-2.16-2.71c-1.23,0-2.33,0.99-2.51,2.71H538.07z"/>
		<path class="st5" d="M541.53,14.54h1.22l0.12,1.59h0.05c0.61-1.11,1.5-1.81,2.49-1.81c0.39,0,0.66,0.05,0.93,0.18l-0.28,1.3
			c-0.3-0.09-0.5-0.14-0.85-0.14c-0.74,0-1.62,0.53-2.21,2.01v5.62h-1.48v-8.75H541.53z"/>
	</g>
</g>
<g>
	<circle class="st8" cx="341.77" cy="18.06" r="12.11"/>
	<g class="st9">
		<path class="st1" d="M338.15,20.94c0.48,0.25,1.57,0.71,2.67,0.71c1.4,0,2.1-0.67,2.1-1.54c0-1.13-1.13-1.64-2.31-1.64h-1.09
			v-1.92h1.04c0.9-0.02,2.05-0.35,2.05-1.32c0-0.69-0.56-1.2-1.69-1.2c-0.94,0-1.92,0.41-2.4,0.69l-0.55-1.94
			c0.69-0.44,2.07-0.87,3.55-0.87c2.45,0,3.81,1.29,3.81,2.86c0,1.22-0.69,2.17-2.1,2.67v0.04c1.38,0.25,2.49,1.29,2.49,2.79
			c0,2.03-1.78,3.51-4.7,3.51c-1.48,0-2.74-0.39-3.41-0.81L338.15,20.94z"/>
	</g>
</g>
<g>
	<g>
		<path class="st5" d="M418.82,157.17h2.52c1.78,0,3.1,0.62,3.1,2.47c0,1.79-1.32,2.6-3.05,2.6h-1.15v2.95h-1.42V157.17z
			 M421.27,161.1c1.2,0,1.76-0.47,1.76-1.46c0-1-0.62-1.33-1.81-1.33h-0.99v2.79L421.27,161.1L421.27,161.1z"/>
		<path class="st5" d="M425.43,162.18c0-1.96,1.36-3.16,2.77-3.16c1.63,0,2.48,1.18,2.48,2.86c0,0.27-0.03,0.54-0.06,0.69h-3.82
			c0.12,1.07,0.8,1.68,1.77,1.68c0.51,0,0.96-0.16,1.4-0.44l0.48,0.88c-0.57,0.39-1.3,0.65-2.06,0.65
			C426.73,165.34,425.43,164.17,425.43,162.18z M429.47,161.6c0-0.93-0.41-1.49-1.23-1.49c-0.7,0-1.32,0.52-1.44,1.49H429.47z"/>
		<path class="st5" d="M432.04,159.17h1.16l0.11,1.07h0.04c0.43-0.78,1.07-1.22,1.71-1.22c0.31,0,0.5,0.04,0.68,0.12l-0.25,1.23
			c-0.21-0.06-0.37-0.1-0.62-0.1c-0.48,0-1.06,0.33-1.42,1.25v3.67h-1.41L432.04,159.17L432.04,159.17z"/>
		<path class="st5" d="M436.04,159.23l0.88-0.06h2.51v1.12h-3.4L436.04,159.23L436.04,159.23z M436.85,158.55
			c0-1.25,0.57-2.16,2-2.16c0.44,0,0.83,0.1,1.1,0.21l-0.27,1.05c-0.22-0.09-0.45-0.14-0.65-0.14c-0.5,0-0.76,0.32-0.76,1.01v6.67
			h-1.41v-6.64H436.85z"/>
		<path class="st5" d="M440.09,162.18c0-2,1.36-3.16,2.86-3.16s2.86,1.16,2.86,3.16c0,1.99-1.36,3.15-2.86,3.15
			S440.09,164.18,440.09,162.18z M444.37,162.18c0-1.21-0.53-2.01-1.41-2.01s-1.41,0.8-1.41,2.01c0,1.21,0.53,2,1.41,2
			S444.37,163.39,444.37,162.18z"/>
		<path class="st5" d="M447.22,159.17h1.16l0.11,1.07h0.04c0.43-0.78,1.07-1.22,1.71-1.22c0.31,0,0.5,0.04,0.68,0.12l-0.25,1.23
			c-0.21-0.06-0.37-0.1-0.62-0.1c-0.48,0-1.06,0.33-1.42,1.25v3.67h-1.41L447.22,159.17L447.22,159.17z"/>
		<path class="st5" d="M451.79,159.17h1.16l0.11,0.82h0.04c0.51-0.53,1.09-0.97,1.85-0.97c0.88,0,1.38,0.4,1.66,1.08
			c0.58-0.61,1.17-1.08,1.94-1.08c1.27,0,1.86,0.87,1.86,2.39v3.77H459v-3.59c0-0.99-0.29-1.36-0.93-1.36
			c-0.38,0-0.79,0.25-1.26,0.75v4.21h-1.41v-3.59c0-0.99-0.29-1.36-0.93-1.36c-0.37,0-0.79,0.25-1.26,0.75v4.21h-1.41L451.79,159.17
			L451.79,159.17z"/>
		<path class="st5" d="M461.79,163.57c0-1.29,1.07-1.96,3.54-2.23c-0.02-0.65-0.28-1.19-1.09-1.19c-0.6,0-1.16,0.27-1.69,0.59
			l-0.52-0.94c0.66-0.42,1.51-0.79,2.47-0.79c1.5,0,2.24,0.93,2.24,2.6v3.56h-1.16l-0.11-0.67h-0.04c-0.54,0.46-1.16,0.81-1.87,0.81
			C462.52,165.34,461.79,164.62,461.79,163.57z M465.33,163.58v-1.35c-1.63,0.21-2.18,0.63-2.18,1.24c0,0.53,0.36,0.76,0.87,0.76
			C464.51,164.23,464.89,163.99,465.33,163.58z"/>
		<path class="st5" d="M468.44,159.17h1.16l0.11,0.81h0.04c0.54-0.52,1.15-0.96,1.98-0.96c1.29,0,1.85,0.87,1.85,2.39v3.77h-1.41
			v-3.59c0-0.99-0.28-1.36-0.94-1.36c-0.53,0-0.88,0.26-1.37,0.75v4.21h-1.41v-6.02H468.44z"/>
		<path class="st5" d="M474.9,162.18c0-2,1.42-3.16,3.02-3.16c0.76,0,1.32,0.29,1.76,0.68l-0.69,0.92c-0.32-0.28-0.62-0.44-1-0.44
			c-0.97,0-1.64,0.8-1.64,2.01c0,1.21,0.66,2,1.6,2c0.47,0,0.9-0.23,1.24-0.52l0.57,0.93c-0.56,0.5-1.28,0.74-1.97,0.74
			C476.16,165.34,474.9,164.18,474.9,162.18z"/>
		<path class="st5" d="M480.56,162.18c0-1.96,1.36-3.16,2.77-3.16c1.63,0,2.48,1.18,2.48,2.86c0,0.27-0.03,0.54-0.06,0.69h-3.82
			c0.12,1.07,0.8,1.68,1.77,1.68c0.51,0,0.96-0.16,1.4-0.44l0.48,0.88c-0.57,0.39-1.3,0.65-2.06,0.65
			C481.87,165.34,480.56,164.17,480.56,162.18z M484.6,161.6c0-0.93-0.41-1.49-1.23-1.49c-0.7,0-1.32,0.52-1.44,1.49H484.6z"/>
		<path class="st5" d="M420.41,176.36h-2.19v-1.02h2.19v-2.32h1.07v2.32h2.19v1.02h-2.19v2.32h-1.07V176.36z"/>
		<path class="st5" d="M427.55,171.88h2.7c1.67,0,2.95,0.59,2.95,2.38c0,1.72-1.28,2.5-2.95,2.5h-1.28v3.13h-1.42V171.88z
			 M430.11,175.62c1.1,0,1.7-0.46,1.7-1.37c0-0.92-0.6-1.24-1.7-1.24h-1.13v2.61H430.11z M429.99,176.38l1.03-0.85l2.5,4.36h-1.6
			L429.99,176.38z"/>
		<path class="st5" d="M434.29,176.89c0-1.96,1.36-3.16,2.77-3.16c1.63,0,2.48,1.18,2.48,2.86c0,0.27-0.03,0.54-0.06,0.69h-3.82
			c0.12,1.07,0.8,1.68,1.77,1.68c0.51,0,0.96-0.16,1.4-0.44l0.48,0.88c-0.57,0.39-1.3,0.65-2.06,0.65
			C435.59,180.04,434.29,178.87,434.29,176.89z M438.33,176.31c0-0.93-0.41-1.49-1.23-1.49c-0.7,0-1.32,0.52-1.44,1.49H438.33z"/>
		<path class="st5" d="M440.3,179.2l0.66-0.9c0.53,0.42,1.05,0.67,1.66,0.67c0.66,0,0.97-0.31,0.97-0.72c0-0.5-0.65-0.73-1.29-0.98
			c-0.79-0.3-1.69-0.75-1.69-1.75c0-1.04,0.84-1.8,2.19-1.8c0.84,0,1.51,0.34,2,0.72l-0.65,0.87c-0.42-0.31-0.85-0.52-1.32-0.52
			c-0.61,0-0.89,0.29-0.89,0.67c0,0.48,0.61,0.66,1.26,0.9c0.81,0.3,1.73,0.7,1.73,1.82c0,1.03-0.82,1.87-2.34,1.87
			C441.75,180.04,440.89,179.69,440.3,179.2z"/>
		<path class="st5" d="M446.11,177.65v-3.77h1.41v3.59c0,0.99,0.28,1.36,0.94,1.36c0.53,0,0.88-0.25,1.33-0.83v-4.12h1.41v6.02
			h-1.16l-0.11-0.89h-0.04c-0.53,0.63-1.11,1.03-1.94,1.03C446.67,180.04,446.11,179.17,446.11,177.65z"/>
		<path class="st5" d="M452.99,178.34v-7.11h1.41v7.18c0,0.35,0.16,0.47,0.3,0.47c0.06,0,0.11,0,0.22-0.02l0.18,1.05
			c-0.17,0.07-0.41,0.12-0.75,0.12C453.36,180.04,452.99,179.39,452.99,178.34z"/>
		<path class="st5" d="M456.52,177.86v-2.87h-0.86v-1.06l0.93-0.06l0.17-1.64h1.17v1.64h1.53v1.12h-1.53v2.87
			c0,0.71,0.27,1.06,0.85,1.06c0.21,0,0.45-0.07,0.63-0.14l0.24,1.04c-0.33,0.11-0.75,0.22-1.23,0.22
			C457.03,180.04,456.52,179.16,456.52,177.86z"/>
		<path class="st5" d="M460.13,179.2l0.66-0.9c0.53,0.42,1.05,0.67,1.66,0.67c0.66,0,0.97-0.31,0.97-0.72c0-0.5-0.65-0.73-1.29-0.98
			c-0.79-0.3-1.69-0.75-1.69-1.75c0-1.04,0.84-1.8,2.19-1.8c0.84,0,1.51,0.34,2,0.72l-0.65,0.87c-0.42-0.31-0.85-0.52-1.32-0.52
			c-0.61,0-0.89,0.29-0.89,0.67c0,0.48,0.61,0.66,1.26,0.9c0.81,0.3,1.73,0.7,1.73,1.82c0,1.03-0.82,1.87-2.34,1.87
			C461.59,180.04,460.72,179.69,460.13,179.2z"/>
	</g>
</g>
</svg>
