<?xml version="1.0" encoding="utf-8"?>
<!-- Generator: Adobe Illustrator 23.0.3, SVG Export Plug-In . SVG Version: 6.00 Build 0)  -->
<svg version="1.1" id="Ebene_1" xmlns="http://www.w3.org/2000/svg" xmlns:xlink="http://www.w3.org/1999/xlink" x="0px" y="0px"
	 viewBox="0 0 466.21 442.4" style="enable-background:new 0 0 466.21 442.4;" xml:space="preserve">
<style type="text/css">
	.st0{fill:#EDEDED;stroke:#95C11F;stroke-width:1.5;stroke-linecap:round;stroke-linejoin:round;stroke-miterlimit:10;}
	.st1{fill:none;stroke:#394E55;stroke-width:0.6765;stroke-linecap:round;}
	.st2{fill:#D5ECF0;}
	.st3{fill:#394E55;}
	.st4{fill:none;stroke:#394E55;stroke-width:2.0893;stroke-linecap:round;stroke-linejoin:round;}
	.st5{clip-path:url(#SVGID_2_);}
	.st6{fill:#00ADD4;}
	.st7{fill:#33BDEA;}
	.st8{fill:#020203;stroke:#394E55;stroke-width:0.3104;}
	.st9{clip-path:url(#SVGID_4_);fill:#1FB4E9;}
	.st10{clip-path:url(#SVGID_6_);fill:#020203;fill-opacity:0.17;}
	.st11{clip-path:url(#SVGID_8_);fill:#D5ECF0;}
	.st12{clip-path:url(#SVGID_10_);fill:#020203;fill-opacity:0.085;}
	.st13{fill:#95C11F;stroke:#95C11F;stroke-width:1.5;stroke-miterlimit:10;}
	.st14{fill:#3C3C3B;}
	.st15{fill:#3C3C3B;stroke:#95C11F;stroke-width:1.5;stroke-miterlimit:10;}
	.st16{fill:#95C11F;}
	.st17{fill:none;stroke:#95C11F;stroke-width:1.5;stroke-linecap:round;stroke-linejoin:round;stroke-miterlimit:10;}
	.st18{fill:#3C3C3B;stroke:#95C11F;stroke-width:1.5;stroke-linecap:round;stroke-linejoin:round;stroke-miterlimit:10;}
	.st19{fill:#FFFFFF;stroke:#95C11F;stroke-width:1.5;stroke-linecap:round;stroke-linejoin:round;stroke-miterlimit:10;}
</style>
<path class="st0" d="M443.49,430.6H22.14c-7.62,0-13.8-6.18-13.8-13.8V158.98c0-7.62,6.18-13.8,13.8-13.8h421.35
	c7.62,0,13.8,6.18,13.8,13.8v257.82C457.29,424.42,451.11,430.6,443.49,430.6z"/>
<path id="path46_1_" class="st1" d="M290.3,184.39c2.82,0.15,5.83,0.18,8.45-0.64"/>
<path id="path48_1_" class="st2" d="M301.55,182.39c0,0.6-0.49,1.09-1.09,1.09c-0.6,0-1.09-0.49-1.09-1.09s0.49-1.09,1.09-1.09
	C301.06,181.3,301.55,181.79,301.55,182.39z"/>
<path id="path50_1_" class="st3" d="M300.74,181.66c-0.09,0.05-0.16,0.16-0.16,0.28c0,0.18,0.14,0.32,0.32,0.32
	c0.12,0,0.22-0.07,0.28-0.17c0.04,0.09,0.06,0.19,0.06,0.3c0,0.43-0.35,0.78-0.78,0.78c-0.43,0-0.78-0.35-0.78-0.78
	c0-0.43,0.35-0.78,0.78-0.78C300.56,181.61,300.65,181.63,300.74,181.66z"/>
<g>
	<path id="path12_1_" class="st4" d="M374.3,177.59l-0.01-5.09l-0.03-9.08 M379.41,167.33l-5.12,5.17l5.14,5.1 M345.15,172.57
		c0.02-1.09-0.29-2.2-0.93-3.11c-0.93-1.3-2.42-2.19-4.07-2.21c-0.11,0-0.22,0-0.33,0.01c-0.65,0.04-1.28,0.13-1.84,0.36
		c-3.66,1.52-4.31,6.61-1.22,8.91c2.68,1.99,6.57,1.18,7.91-1.86C344.96,174.03,345.15,173.22,345.15,172.57v-9.19 M369.85,167.86
		c-0.76-0.49-1.64-0.67-2.52-0.67c-0.09,0-0.19,0-0.28,0.01c-2.53,0.11-4.87,1.9-4.87,5.36c0,4.1,4.4,6.31,7.68,4.38 M384.61,176.5
		c2.59-2.22,7.77-6.66,7.77-6.66s-0.19-0.36-0.31-0.52c-1.05-1.4-2.64-2.1-4.33-2.1C383.58,167.21,380.46,172.59,384.61,176.5
		c0.29,0.27,0.68,0.48,1.12,0.67c1.52,0.63,3.6,0.58,4.73-0.25 M353.65,167.23c-0.12,0-0.24,0.01-0.35,0.02
		c-3.15,0.06-5.43,3.33-4.74,6.37c0.67,2.96,3.91,4.71,6.7,3.75c3.26-0.85,4.58-4.95,2.8-7.72
		C357.08,168.13,355.42,167.2,353.65,167.23L353.65,167.23z M401.55,167.33c-1.28,0-2.52,0.45-3.44,1.31
		c-1.45,1.2-1.77,2.72-1.75,4.63l0.04,4.35"/>
	<path id="path14_1_" class="st3" d="M310.56,164.15h4.55v4.65h2.3c1.06,0,2.16-0.19,3.16-0.53c0.49-0.17,1.05-0.4,1.54-0.69
		c-0.64-0.84-0.97-1.9-1.07-2.94c-0.13-1.42,0.16-3.27,1.12-4.38l0.48-0.55l0.57,0.46c1.43,1.15,2.64,2.76,2.85,4.6
		c1.73-0.51,3.76-0.39,5.28,0.49l0.62,0.36l-0.33,0.64c-1.29,2.51-3.98,3.29-6.61,3.15c-3.94,9.81-12.52,14.46-22.91,14.46
		c-5.37,0-10.3-2.01-13.11-6.77c-0.16-0.3-0.31-0.61-0.45-0.91c-0.95-2.1-1.26-4.4-1.05-6.69l0.06-0.69h3.89v-4.65H296v-4.55h9.1
		v-4.55h5.46L310.56,164.15"/>
	<g>
		<defs>
			<path id="SVGID_1_" d="M296.34,155.45v9.15h-4.38v4.58h-3.67c-0.02,0.13-0.03,0.27-0.04,0.4c-0.23,2.49,0.21,4.79,1.21,6.76
				l0.34,0.6c0.2,0.36,0.44,0.7,0.68,1.03c0.25,0.33,0.34,0.51,0.49,0.73c2.64,2.97,6.59,4.4,11.14,4.4
				c10.08,0,18.63-4.46,22.42-14.49c2.69,0.28,5.26-0.41,6.44-2.7c-1.87-1.08-4.27-0.73-5.66-0.04l3.67-10.42l-14.33,9.15h-4.58
				v-9.15H296.34z"/>
		</defs>
		<clipPath id="SVGID_2_">
			<use xlink:href="#SVGID_1_"  style="overflow:visible;"/>
		</clipPath>
		<g id="g16_1_" class="st5">
			<g id="g18_1_">
				<g id="g20_1_" transform="translate(0,-22.866)">
					<path id="path22_1_" class="st6" d="M305.86,174.13h3.94v3.94h-3.94V174.13z"/>
					<path id="path24_1_" class="st7" d="M305.86,178.68h3.94v3.94h-3.94V178.68z"/>
					<path id="path26_1_" class="st8" d="M306.35,177.74v-3.29 M306.94,177.74v-3.29 M307.54,177.74v-3.29 M308.13,177.74v-3.29
						 M308.73,177.74v-3.29 M309.32,177.74v-3.29"/>
					<g id="use28_1_" transform="translate(0,22.866)">
						<path class="st8" d="M306.35,182.29v-3.29 M306.94,182.29v-3.29 M307.54,182.29v-3.29 M308.13,182.29v-3.29 M308.73,182.29
							v-3.29 M309.32,182.29v-3.29"/>
					</g>
				</g>
				<g id="use30_1_" transform="matrix(1,0,0,-1,22.866,4.572651)">
					<g transform="translate(0,-22.866)">
						<path class="st6" d="M310.41,182.62h3.94v-3.94h-3.94V182.62z"/>
						<path class="st7" d="M310.41,178.07h3.94v-3.94h-3.94V178.07z"/>
						<path class="st8" d="M310.9,179.01v3.29 M311.49,179.01v3.29 M312.08,179.01v3.29 M312.68,179.01v3.29 M313.28,179.01v3.29
							 M313.87,179.01v3.29"/>
						<g transform="translate(0,22.866)">
							<path class="st8" d="M310.9,174.46v3.29 M311.49,174.46v3.29 M312.08,174.46v3.29 M312.68,174.46v3.29 M313.28,174.46v3.29
								 M313.87,174.46v3.29"/>
						</g>
					</g>
				</g>
			</g>
			<g id="use32_1_" transform="translate(-91.464,45.732)">
				<g>
					<g transform="translate(0,-22.866)">
						<path class="st6" d="M287.66,183.23h3.94v3.94h-3.94L287.66,183.23z"/>
						<path class="st7" d="M287.66,187.78h3.94v3.94h-3.94L287.66,187.78z"/>
						<path class="st8" d="M288.15,186.84v-3.29 M288.74,186.84v-3.29 M289.34,186.84v-3.29 M289.93,186.84v-3.29 M290.53,186.84
							v-3.29 M291.12,186.84v-3.29"/>
						<g transform="translate(0,22.866)">
							<path class="st8" d="M288.15,191.39v-3.29 M288.74,191.39v-3.29 M289.34,191.39v-3.29 M289.93,191.39v-3.29 M290.53,191.39
								v-3.29 M291.12,191.39v-3.29"/>
						</g>
					</g>
					<g transform="matrix(1,0,0,-1,22.866,4.572651)">
						<g transform="translate(0,-22.866)">
							<path class="st6" d="M292.21,191.72h3.94v-3.94h-3.94V191.72z"/>
							<path class="st7" d="M292.21,187.17h3.94v-3.94h-3.94V187.17z"/>
							<path class="st8" d="M292.7,188.11v3.29 M293.29,188.11v3.29 M293.89,188.11v3.29 M294.48,188.11v3.29 M295.08,188.11v3.29
								 M295.67,188.11v3.29"/>
							<g transform="translate(0,22.866)">
								<path class="st8" d="M292.7,183.56v3.29 M293.29,183.56v3.29 M293.89,183.56v3.29 M294.48,183.56v3.29 M295.08,183.56v3.29
									 M295.67,183.56v3.29"/>
							</g>
						</g>
					</g>
				</g>
			</g>
			<g id="use34_1_" transform="translate(-45.732,45.732)">
				<g>
					<g transform="translate(0,-22.866)">
						<path class="st6" d="M296.76,183.23h3.94v3.94h-3.94V183.23z"/>
						<path class="st7" d="M296.76,187.78h3.94v3.94h-3.94V187.78z"/>
						<path class="st8" d="M297.25,186.84v-3.29 M297.84,186.84v-3.29 M298.44,186.84v-3.29 M299.03,186.84v-3.29 M299.63,186.84
							v-3.29 M300.22,186.84v-3.29"/>
						<g transform="translate(0,22.866)">
							<path class="st8" d="M297.25,191.39v-3.29 M297.84,191.39v-3.29 M298.44,191.39v-3.29 M299.03,191.39v-3.29 M299.63,191.39
								v-3.29 M300.22,191.39v-3.29"/>
						</g>
					</g>
					<g transform="matrix(1,0,0,-1,22.866,4.572651)">
						<g transform="translate(0,-22.866)">
							<path class="st6" d="M301.31,191.72h3.94v-3.94h-3.94V191.72z"/>
							<path class="st7" d="M301.31,187.17h3.94v-3.94h-3.94V187.17z"/>
							<path class="st8" d="M301.8,188.11v3.29 M302.39,188.11v3.29 M302.99,188.11v3.29 M303.58,188.11v3.29 M304.18,188.11v3.29
								 M304.77,188.11v3.29"/>
							<g transform="translate(0,22.866)">
								<path class="st8" d="M301.8,183.56v3.29 M302.39,183.56v3.29 M302.99,183.56v3.29 M303.58,183.56v3.29 M304.18,183.56v3.29
									 M304.77,183.56v3.29"/>
							</g>
						</g>
					</g>
				</g>
			</g>
			<g id="use36_1_" transform="translate(0,45.732)">
				<g>
					<g transform="translate(0,-22.866)">
						<path class="st6" d="M305.86,183.23h3.94v3.94h-3.94V183.23z"/>
						<path class="st7" d="M305.86,187.78h3.94v3.94h-3.94V187.78z"/>
						<path class="st8" d="M306.35,186.84v-3.29 M306.94,186.84v-3.29 M307.54,186.84v-3.29 M308.13,186.84v-3.29 M308.73,186.84
							v-3.29 M309.32,186.84v-3.29"/>
						<g transform="translate(0,22.866)">
							<path class="st8" d="M306.35,191.39v-3.29 M306.94,191.39v-3.29 M307.54,191.39v-3.29 M308.13,191.39v-3.29 M308.73,191.39
								v-3.29 M309.32,191.39v-3.29"/>
						</g>
					</g>
					<g transform="matrix(1,0,0,-1,22.866,4.572651)">
						<g transform="translate(0,-22.866)">
							<path class="st6" d="M310.41,191.72h3.94v-3.94h-3.94V191.72z"/>
							<path class="st7" d="M310.41,187.17h3.94v-3.94h-3.94V187.17z"/>
							<path class="st8" d="M310.9,188.11v3.29 M311.49,188.11v3.29 M312.08,188.11v3.29 M312.68,188.11v3.29 M313.28,188.11v3.29
								 M313.87,188.11v3.29"/>
							<g transform="translate(0,22.866)">
								<path class="st8" d="M310.9,183.56v3.29 M311.49,183.56v3.29 M312.08,183.56v3.29 M312.68,183.56v3.29 M313.28,183.56v3.29
									 M313.87,183.56v3.29"/>
							</g>
						</g>
					</g>
				</g>
			</g>
		</g>
	</g>
	<g>
		<defs>
			<path id="SVGID_3_" d="M296.34,155.45v9.15h-4.38v4.58h-3.67c-0.02,0.13-0.03,0.27-0.04,0.4c-0.23,2.49,0.21,4.79,1.21,6.76
				l0.34,0.6c0.2,0.36,0.44,0.7,0.68,1.03c0.25,0.33,0.34,0.51,0.49,0.73c2.64,2.97,6.59,4.4,11.14,4.4
				c10.08,0,18.63-4.46,22.42-14.49c2.69,0.28,5.26-0.41,6.44-2.7c-1.87-1.08-4.27-0.73-5.66-0.04l3.67-10.42l-14.33,9.15h-4.58
				v-9.15H296.34z"/>
		</defs>
		<clipPath id="SVGID_4_">
			<use xlink:href="#SVGID_3_"  style="overflow:visible;"/>
		</clipPath>
		<path id="path38_1_" class="st9" d="M325.3,165.88c0.31-2.37-1.47-4.23-2.57-5.12c-1.27,1.47-1.47,5.31,0.52,6.93
			c-1.11,0.99-3.45,1.88-5.85,1.88h-29.43c-0.23,2.5,0,14.54,0,14.54h43.18l-0.2-18.19C329.09,164.84,326.69,165.18,325.3,165.88"/>
	</g>
	<g>
		<defs>
			<path id="SVGID_5_" d="M296.34,155.45v9.15h-4.38v4.58h-3.67c-0.02,0.13-0.03,0.27-0.04,0.4c-0.23,2.49,0.21,4.79,1.21,6.76
				l0.34,0.6c0.2,0.36,0.44,0.7,0.68,1.03c0.25,0.33,0.34,0.51,0.49,0.73c2.64,2.97,6.59,4.4,11.14,4.4
				c10.08,0,18.63-4.46,22.42-14.49c2.69,0.28,5.26-0.41,6.44-2.7c-1.87-1.08-4.27-0.73-5.66-0.04l3.67-10.42l-14.33,9.15h-4.58
				v-9.15H296.34z"/>
		</defs>
		<clipPath id="SVGID_6_">
			<use xlink:href="#SVGID_5_"  style="overflow:visible;"/>
		</clipPath>
		<path id="path40_1_" class="st10" d="M287.98,172.76v11.34h43.18v-11.34"/>
	</g>
	<g>
		<defs>
			<path id="SVGID_7_" d="M296.34,155.45v9.15h-4.38v4.58h-3.67c-0.02,0.13-0.03,0.27-0.04,0.4c-0.23,2.49,0.21,4.79,1.21,6.76
				l0.34,0.6c0.2,0.36,0.44,0.7,0.68,1.03c0.25,0.33,0.34,0.51,0.49,0.73c2.64,2.97,6.59,4.4,11.14,4.4
				c10.08,0,18.63-4.46,22.42-14.49c2.69,0.28,5.26-0.41,6.44-2.7c-1.87-1.08-4.27-0.73-5.66-0.04l3.67-10.42l-14.33,9.15h-4.58
				v-9.15H296.34z"/>
		</defs>
		<clipPath id="SVGID_8_">
			<use xlink:href="#SVGID_7_"  style="overflow:visible;"/>
		</clipPath>
		<path id="path42_1_" class="st11" d="M303.35,183.09c-2.69-1.28-4.17-3.02-5-4.91l-8.18,0.36l4.18,5.57L303.35,183.09"/>
	</g>
	<g>
		<defs>
			<path id="SVGID_9_" d="M296.34,155.45v9.15h-4.38v4.58h-3.67c-0.02,0.13-0.03,0.27-0.04,0.4c-0.23,2.49,0.21,4.79,1.21,6.76
				l0.34,0.6c0.2,0.36,0.44,0.7,0.68,1.03c0.25,0.33,0.34,0.51,0.49,0.73c2.64,2.97,6.59,4.4,11.14,4.4
				c10.08,0,18.63-4.46,22.42-14.49c2.69,0.28,5.26-0.41,6.44-2.7c-1.87-1.08-4.27-0.73-5.66-0.04l3.67-10.42l-14.33,9.15h-4.58
				v-9.15H296.34z"/>
		</defs>
		<clipPath id="SVGID_10_">
			<use xlink:href="#SVGID_9_"  style="overflow:visible;"/>
		</clipPath>
		<path id="path44_1_" class="st12" d="M325.49,165.79L325.49,165.79c-4.15,5.36-10.1,10.03-16.5,12.49
			c-5.7,2.19-10.67,2.2-14.1,0.44c-0.37-0.21-0.73-0.44-1.09-0.66c-2.51-1.76-3.93-4.66-3.81-8.49h-2v14.54h43.18V165h-4.97
			L325.49,165.79z"/>
	</g>
	<path id="path52_1_" class="st3" d="M281.22,173h50.61c-1.1-0.28-3.49-0.66-3.09-2.1c-2,2.32-6.84,1.63-8.05,0.48
		c-1.36,1.97-9.26,1.22-9.81-0.31c-1.7,2-6.98,2-8.68,0c-0.55,1.53-8.46,2.28-9.81,0.31c-1.22,1.14-6.05,1.84-8.05-0.48
		C284.7,172.34,282.32,172.72,281.22,173"/>
</g>
<path class="st13" d="M398.71,241.89H64.72c-3.35,0-6.09-2.74-6.09-6.09v-36.68c0-3.35,2.74-6.09,6.09-6.09h333.99
	c3.35,0,6.09,2.74,6.09,6.09v36.68C404.8,239.15,402.06,241.89,398.71,241.89z"/>
<g>
	<g>
		<path class="st14" d="M193.86,226.28l1.58-1.81c1.49,1.55,3.56,2.57,5.72,2.57c2.72,0,4.33-1.35,4.33-3.37
			c0-2.12-1.5-2.79-3.46-3.65l-2.98-1.31c-1.93-0.82-4.2-2.29-4.2-5.33c0-3.17,2.76-5.5,6.52-5.5c2.46,0,4.65,1.06,6.1,2.57
			l-1.4,1.69c-1.27-1.2-2.79-1.94-4.7-1.94c-2.32,0-3.86,1.17-3.86,3.03c0,2,1.81,2.74,3.43,3.43l2.95,1.28
			c2.4,1.03,4.27,2.46,4.27,5.54c0,3.27-2.71,5.89-7.06,5.89C198.2,229.36,195.67,228.17,193.86,226.28z"/>
		<path class="st14" d="M211.03,224.99c0-3.34,2.88-5.01,9.42-5.73c-0.01-1.97-0.66-3.88-3.17-3.88c-1.78,0-3.37,0.84-4.58,1.65
			l-1.02-1.78c1.41-0.93,3.56-2,6.03-2c3.75,0,5.33,2.49,5.33,6.31v9.42h-2.15l-0.22-1.83h-0.09c-1.46,1.22-3.17,2.21-5.08,2.21
			C212.96,229.36,211.03,227.76,211.03,224.99z M220.45,225.23v-4.26c-5.14,0.62-6.88,1.88-6.88,3.84c0,1.74,1.18,2.45,2.69,2.45
			C217.74,227.26,218.97,226.54,220.45,225.23z"/>
		<path class="st14" d="M227.89,206.48h2.55v15.23h0.09l6.55-8.09h2.88l-5.14,6.17l5.82,9.18h-2.84l-4.47-7.38l-2.88,3.35v4.03
			h-2.55V206.48z"/>
		<path class="st14" d="M243.32,223.35v-9.72h2.6v9.39c0,2.86,0.86,4.08,2.89,4.08c1.57,0,2.66-0.78,4.11-2.59v-10.88h2.6v15.35
			h-2.15l-0.22-2.4h-0.09c-1.42,1.67-2.95,2.78-5.06,2.78C244.77,229.36,243.32,227.27,243.32,223.35z"/>
		<path class="st14" d="M260.7,225.89v-19.41h2.6v19.6c0,0.79,0.34,1.11,0.72,1.11c0.15,0,0.28,0,0.57-0.06l0.35,1.98
			c-0.37,0.13-0.81,0.24-1.5,0.24C261.5,229.36,260.7,228.11,260.7,225.89z"/>
		<path class="st14" d="M268.28,208.8c0-1.02,0.78-1.68,1.79-1.68s1.79,0.66,1.79,1.68c0,0.98-0.78,1.68-1.79,1.68
			S268.28,209.78,268.28,208.8z M268.75,213.63h2.6v15.35h-2.6V213.63z"/>
	</g>
</g>
<path class="st15" d="M398.79,301.2H64.72c-3.35,0-6.09-2.74-6.09-6.09v-36.68c0-3.35,2.74-6.09,6.09-6.09h334.07
	c3.35,0,6.09,2.74,6.09,6.09v36.68C404.88,298.46,402.14,301.2,398.79,301.2z"/>
<path class="st15" d="M398.87,360.51H64.72c-3.35,0-6.09-2.74-6.09-6.09v-36.68c0-3.35,2.74-6.09,6.09-6.09h334.15
	c3.35,0,6.09,2.74,6.09,6.09v36.68C404.96,357.77,402.22,360.51,398.87,360.51z"/>
<g>
	<g>
		<path class="st16" d="M190.86,266.41h11.95v2.23h-9.31v6.99h7.9v2.23h-7.9v9.27h-2.64V266.41z"/>
		<path class="st16" d="M205.74,266.95c0-1.02,0.78-1.68,1.79-1.68s1.79,0.66,1.79,1.68c0,0.98-0.78,1.68-1.79,1.68
			S205.74,267.93,205.74,266.95z M206.22,271.78h2.6v15.35h-2.6V271.78z"/>
		<path class="st16" d="M213.98,271.78h2.15l0.22,2.79h0.09c1.07-1.95,2.64-3.17,4.36-3.17c0.68,0,1.16,0.09,1.64,0.32l-0.49,2.28
			c-0.53-0.17-0.87-0.25-1.49-0.25c-1.3,0-2.84,0.93-3.88,3.53v9.85h-2.6V271.78z"/>
		<path class="st16" d="M223.8,279.48c0-4.99,3.37-8.07,6.9-8.07c3.91,0,6.12,2.81,6.12,7.2c0,0.55-0.05,1.1-0.12,1.48h-10.33
			c0.19,3.25,2.17,5.36,5.1,5.36c1.47,0,2.68-0.47,3.82-1.23l0.93,1.7c-1.35,0.88-2.98,1.59-5.07,1.59
			C227.06,287.51,223.8,284.52,223.8,279.48z M234.53,278.22c0-3.08-1.38-4.75-3.78-4.75c-2.16,0-4.09,1.73-4.4,4.75H234.53z"/>
		<path class="st16" d="M238.95,271.93l2.2-0.15h5.73v2.12h-7.93V271.93z M241.03,269.36c0-3.12,1.42-5.1,4.5-5.1
			c0.93,0,1.85,0.24,2.55,0.53l-0.55,1.98c-0.58-0.27-1.19-0.4-1.74-0.4c-1.45,0-2.16,1.01-2.16,2.99v17.76h-2.6V269.36z"/>
		<path class="st16" d="M248.68,279.48c0-5.12,3.35-8.07,7.11-8.07s7.11,2.95,7.11,8.07c0,5.08-3.35,8.03-7.11,8.03
			S248.68,284.56,248.68,279.48z M260.22,279.48c0-3.52-1.79-5.91-4.43-5.91c-2.64,0-4.43,2.39-4.43,5.91s1.79,5.87,4.43,5.87
			C258.43,285.35,260.22,282.99,260.22,279.48z"/>
		<path class="st16" d="M269.8,279.12l-4.64-7.34h2.82l2.05,3.37c0.47,0.84,0.99,1.71,1.5,2.56h0.13c0.46-0.84,0.92-1.71,1.39-2.56
			l1.88-3.37h2.71l-4.64,7.61l5.02,7.74h-2.82l-2.26-3.57c-0.53-0.92-1.09-1.87-1.67-2.75h-0.13c-0.53,0.88-1.03,1.82-1.55,2.75
			l-2.08,3.57h-2.71L269.8,279.12z"/>
	</g>
</g>
<g>
	<g>
		<path class="st16" d="M182.3,336.3c0-6.68,3.94-10.76,9.19-10.76c2.52,0,4.49,1.22,5.7,2.56l-1.45,1.72
			c-1.09-1.16-2.46-1.95-4.21-1.95c-3.92,0-6.52,3.21-6.52,8.37c0,5.21,2.49,8.47,6.42,8.47c1.98,0,3.48-0.86,4.8-2.33l1.45,1.65
			c-1.64,1.9-3.67,2.99-6.36,2.99C186.17,347.02,182.3,343.03,182.3,336.3z"/>
		<path class="st16" d="M201.29,324.15h2.6v6.15l-0.09,3.15c1.43-1.39,2.99-2.54,5.09-2.54c3.23,0,4.69,2.09,4.69,6v9.72h-2.6v-9.39
			c0-2.86-0.86-4.08-2.9-4.08c-1.57,0-2.66,0.8-4.19,2.36v11.11h-2.6V324.15z"/>
		<path class="st16" d="M218.47,331.29h2.15l0.22,2.79h0.09c1.07-1.95,2.64-3.17,4.36-3.17c0.68,0,1.16,0.09,1.64,0.32l-0.49,2.28
			c-0.53-0.17-0.87-0.25-1.49-0.25c-1.3,0-2.84,0.93-3.88,3.53v9.85h-2.6V331.29z"/>
		<path class="st16" d="M228.28,338.99c0-5.12,3.35-8.07,7.11-8.07s7.11,2.95,7.11,8.07c0,5.08-3.35,8.03-7.11,8.03
			S228.28,344.07,228.28,338.99z M239.82,338.99c0-3.52-1.79-5.91-4.43-5.91c-2.64,0-4.43,2.39-4.43,5.91s1.79,5.87,4.43,5.87
			C238.03,344.86,239.82,342.5,239.82,338.99z"/>
		<path class="st16" d="M246.54,331.29h2.15l0.22,2.23h0.09c1.34-1.45,2.95-2.6,4.78-2.6c2.35,0,3.6,1.12,4.24,2.92
			c1.59-1.72,3.19-2.92,5.06-2.92c3.15,0,4.67,2.09,4.67,6v9.72h-2.6v-9.39c0-2.86-0.9-4.08-2.86-4.08c-1.19,0-2.43,0.78-3.85,2.36
			v11.11h-2.6v-9.39c0-2.86-0.9-4.08-2.86-4.08c-1.15,0-2.43,0.78-3.85,2.36v11.11h-2.6V331.29z"/>
		<path class="st16" d="M271.57,338.99c0-4.99,3.37-8.07,6.9-8.07c3.91,0,6.12,2.81,6.12,7.2c0,0.55-0.05,1.1-0.12,1.48h-10.33
			c0.19,3.25,2.17,5.36,5.1,5.36c1.47,0,2.68-0.47,3.82-1.23l0.93,1.7c-1.35,0.88-2.98,1.59-5.07,1.59
			C274.83,347.02,271.57,344.03,271.57,338.99z M282.3,337.73c0-3.08-1.38-4.75-3.78-4.75c-2.16,0-4.09,1.73-4.4,4.75H282.3z"/>
	</g>
</g>
<path class="st15" d="M398.71,419.83H64.72c-3.35,0-6.09-2.74-6.09-6.09v-36.68c0-3.35,2.74-6.09,6.09-6.09h333.99
	c3.35,0,6.09,2.74,6.09,6.09v36.68C404.8,417.08,402.06,419.83,398.71,419.83z"/>
<g>
	<g>
		<path class="st16" d="M105.3,385.87h2.79l3.34,11.2c0.73,2.44,1.23,4.41,1.99,6.84h0.13c0.77-2.43,1.28-4.41,1.99-6.84l3.32-11.2
			h2.68l-6.58,20.72h-3.05L105.3,385.87z"/>
		<path class="st16" d="M124.39,385.87h2.72l7.5,13.03l2.24,4.29h0.13c-0.13-2.09-0.33-4.43-0.33-6.59v-10.72h2.5v20.72h-2.72
			l-7.5-13.04l-2.24-4.28h-0.13c0.13,2.1,0.34,4.31,0.34,6.47v10.84h-2.5V385.87z"/>
		<path class="st16" d="M143.61,396.25c0-6.68,3.94-10.76,9.19-10.76c2.52,0,4.49,1.22,5.7,2.56l-1.45,1.72
			c-1.09-1.16-2.46-1.95-4.21-1.95c-3.92,0-6.52,3.21-6.52,8.37c0,5.21,2.49,8.47,6.42,8.47c1.98,0,3.48-0.86,4.8-2.33l1.45,1.65
			c-1.64,1.9-3.67,2.99-6.36,2.99C147.48,406.97,143.61,402.97,143.61,396.25z"/>
		<path class="st16" d="M173.13,397.15h-5.73v-1.95h5.73v-6.16h2.08v6.16h5.73v1.95h-5.73v6.16h-2.08V397.15z"/>
		<path class="st16" d="M190.92,391.24h2.15l0.22,2.21h0.09c1.46-1.44,3.04-2.59,5.15-2.59c3.23,0,4.69,2.09,4.69,6v9.72h-2.6v-9.39
			c0-2.86-0.86-4.08-2.9-4.08c-1.57,0-2.66,0.8-4.19,2.36v11.11h-2.6V391.24z"/>
		<path class="st16" d="M207.06,398.93c0-5.12,3.35-8.07,7.11-8.07s7.11,2.95,7.11,8.07c0,5.08-3.35,8.03-7.11,8.03
			S207.06,404.01,207.06,398.93z M218.6,398.93c0-3.52-1.79-5.91-4.43-5.91c-2.64,0-4.43,2.39-4.43,5.91s1.79,5.87,4.43,5.87
			C216.81,404.8,218.6,402.45,218.6,398.93z"/>
		<path class="st16" d="M222.72,385.87h2.79l3.34,11.2c0.73,2.44,1.23,4.41,1.99,6.84h0.13c0.77-2.43,1.28-4.41,1.99-6.84l3.32-11.2
			h2.68l-6.58,20.72h-3.05L222.72,385.87z"/>
		<path class="st16" d="M241.81,385.87h2.72l7.5,13.03l2.24,4.29h0.13c-0.13-2.09-0.33-4.43-0.33-6.59v-10.72h2.5v20.72h-2.72
			l-7.5-13.04l-2.24-4.28h-0.13c0.13,2.1,0.34,4.31,0.34,6.47v10.84h-2.5V385.87z"/>
		<path class="st16" d="M261.04,396.25c0-6.68,3.94-10.76,9.19-10.76c2.52,0,4.49,1.22,5.7,2.56l-1.45,1.72
			c-1.09-1.16-2.46-1.95-4.21-1.95c-3.92,0-6.52,3.21-6.52,8.37c0,5.21,2.49,8.47,6.42,8.47c1.98,0,3.48-0.86,4.8-2.33l1.45,1.65
			c-1.64,1.9-3.67,2.99-6.36,2.99C264.91,406.97,261.04,402.97,261.04,396.25z"/>
		<path class="st16" d="M285.08,403.89l1.58-1.81c1.49,1.55,3.56,2.57,5.72,2.57c2.72,0,4.33-1.35,4.33-3.37
			c0-2.12-1.5-2.79-3.46-3.65l-2.98-1.31c-1.93-0.82-4.2-2.29-4.2-5.33c0-3.17,2.76-5.5,6.52-5.5c2.46,0,4.65,1.06,6.1,2.57
			l-1.4,1.69c-1.27-1.2-2.79-1.94-4.7-1.94c-2.32,0-3.86,1.17-3.86,3.03c0,2,1.81,2.74,3.43,3.43l2.95,1.28
			c2.4,1.03,4.27,2.46,4.27,5.54c0,3.27-2.71,5.89-7.06,5.89C289.42,406.97,286.9,405.78,285.08,403.89z"/>
		<path class="st16" d="M302.07,398.93c0-4.99,3.37-8.07,6.9-8.07c3.91,0,6.12,2.81,6.12,7.2c0,0.55-0.05,1.1-0.12,1.48h-10.33
			c0.19,3.25,2.17,5.36,5.1,5.36c1.47,0,2.68-0.47,3.82-1.23l0.93,1.7c-1.35,0.88-2.98,1.59-5.07,1.59
			C305.32,406.97,302.07,403.97,302.07,398.93z M312.79,397.68c0-3.08-1.38-4.75-3.78-4.75c-2.16,0-4.09,1.73-4.4,4.75H312.79z"/>
		<path class="st16" d="M318.87,391.24h2.15l0.22,2.79h0.09c1.07-1.95,2.64-3.17,4.36-3.17c0.68,0,1.16,0.09,1.64,0.32l-0.49,2.28
			c-0.53-0.17-0.87-0.25-1.49-0.25c-1.3,0-2.84,0.93-3.88,3.53v9.85h-2.6V391.24z"/>
		<path class="st16" d="M327.61,391.24h2.68l2.9,8.72c0.46,1.5,0.96,3.06,1.42,4.53h0.13c0.46-1.46,0.96-3.03,1.42-4.53l2.9-8.72
			h2.54l-5.43,15.35h-3.02L327.61,391.24z"/>
		<path class="st16" d="M343.43,398.93c0-4.99,3.37-8.07,6.9-8.07c3.91,0,6.12,2.81,6.12,7.2c0,0.55-0.05,1.1-0.12,1.48H346
			c0.19,3.25,2.17,5.36,5.1,5.36c1.47,0,2.68-0.47,3.82-1.23l0.93,1.7c-1.35,0.88-2.98,1.59-5.07,1.59
			C346.69,406.97,343.43,403.97,343.43,398.93z M354.16,397.68c0-3.08-1.38-4.75-3.78-4.75c-2.16,0-4.09,1.73-4.4,4.75H354.16z"/>
		<path class="st16" d="M360.23,391.24h2.15l0.22,2.79h0.09c1.07-1.95,2.64-3.17,4.36-3.17c0.68,0,1.16,0.09,1.64,0.32l-0.49,2.28
			c-0.53-0.17-0.87-0.25-1.49-0.25c-1.3,0-2.84,0.93-3.88,3.53v9.85h-2.6V391.24z"/>
	</g>
</g>
<g id="_x39_I3WM9_1_">
	<g>
		<path class="st15" d="M230.15,83.62c1.13-0.81,2.29-0.51,3.64,0.01c0.66,0.26,1.17,0.76,1.8,1.05c0.47,0.21,0.44,0.34,0.89,0.26
			c0.3-0.06,0.9-0.76,1.08-0.95c1.7-1.79,2.5-4.34,1.8-6.75c-0.84-2.9-3.93-5.08-5.99-7.12c-1.28-1.27-2.56-2.53-3.84-3.79
			c-1.61-1.59-2.27-2.22-2.25-4.51c0.01-1.69,0-3.37,0-5.06c0-0.73,0.14-1.5-0.31-1.81c-0.49-0.33-1.82,0.08-2.43,0
			c-1.53-0.19-1.73-1.73-2.36-3.05c-0.85-1.79-1.69-3.58-2.54-5.38c-0.79-1.67-1.58-3.35-2.37-5.02c-0.63-1.35-2.14-3.29-1.64-4.81
			c0.5-1.51,1.95-3.14,2.79-4.49c1-1.6,2.01-3.2,3.04-4.78c2.15-3.29,3.95-5.33,7.92-6.2c3.98-0.87,7.37,0.12,10.95,1.83
			c0-3.23,0-6.45,0-9.68c0-1.53-0.72-6.7,1.66-6.78c2.69-0.09,1.72,5.79,1.73,7.43c0.03,3.32,0.06,6.64,0.08,9.96
			c0.01,1.27-0.16,2.64,0.32,3.83c0.59,1.48,1.72,2.92,2.53,4.29c0.75,1.27,1.55,2.53,2.26,3.82c0.96,1.73,0.25,2.51-0.57,4.24
			c-1.46,3.09-2.91,6.19-4.36,9.29c-0.67,1.42-1.26,2.91-2.02,4.28c-0.94,1.7-2.33,1.22-4.15,1.22c0,1.16-0.4,3.37,0.23,4.38
			c0.71,1.14,2.9,2.11,3.98,2.87c2.54,1.81,5.09,3.69,7.06,6.15c3.74,4.66,4.85,10.84,2.91,16.51
			c-3.08,8.99-12.91,14.67-22.28,12.27c-3.35-0.86-6.21-3.35-8.23-6.26c-1.28-1.84-1.72-4.49-2.19-4.49 M230.08,45.68
			c-0.04,3.08,4.53,3.55,4.91,0.49C235.42,42.75,230.13,42.24,230.08,45.68z"/>
		<path class="st15" d="M223.23,6.55c0.83,0.38,1.25,1.02,1.26,1.95c0.02,3.13,0.05,6.25,0.07,9.38c0,0.14-0.09,0.34-0.2,0.42
			c-1.04,0.7-2.1,1.38-3.29,2.16c0-0.68-0.01-1.19,0-1.71c0.05-3.43,0.1-6.86,0.14-10.29c0.01-0.89,0.37-1.53,1.19-1.9
			C222.68,6.55,222.96,6.55,223.23,6.55z"/>
		<path class="st15" d="M217.51,75.57c-0.07-1.38-0.05-2.77-0.24-4.13c-0.12-0.88-0.55-1.72-0.84-2.58c-0.2-0.59-0.4-1.16,0.17-1.68
			c0.6-0.54,1.16-0.76,2-0.36c1.42,0.67,2.41,1.74,3.19,3.04c1.62,2.7,2.47,5.71,3.25,8.73c0.05,0.2,0.18,1.11,0,1.25
			c-2.98,0.47-3.28,0.84-6.17,1.58c-0.53,0.4-0.92,0.19-1.02-0.4c-0.24-1.52-0.21-0.83-0.35-2.37c-0.09-1.01-0.02-2.04-0.02-3.07
			C217.49,75.57,217.5,75.57,217.51,75.57z"/>
	</g>
</g>
<line class="st17" x1="252.83" y1="84.08" x2="431.07" y2="145.61"/>
<line class="st17" x1="37.1" y1="144.98" x2="238.77" y2="81.4"/>
<g>
	<circle class="st18" cx="36.63" cy="145.58" r="8.93"/>
	<circle class="st19" cx="36.63" cy="145.58" r="2.72"/>
</g>
<g>
	<circle class="st18" cx="431.75" cy="145.27" r="8.93"/>
	<circle class="st19" cx="431.75" cy="145.27" r="2.72"/>
</g>
</svg>
