<?xml version="1.0" encoding="utf-8"?>
<!-- Generator: Adobe Illustrator 23.0.3, SVG Export Plug-In . SVG Version: 6.00 Build 0)  -->
<svg version="1.1" id="Ebene_1" xmlns="http://www.w3.org/2000/svg" xmlns:xlink="http://www.w3.org/1999/xlink" x="0px" y="0px"
	 viewBox="0 0 537.37 397.29" style="enable-background:new 0 0 537.37 397.29;" xml:space="preserve">
<style type="text/css">
	.st0{fill:#95C11F;}
	.st1{fill:#3C3C3B;stroke:#3C3C3B;stroke-width:1.2063;stroke-miterlimit:10;}
	.st2{fill:none;stroke:#3C3C3B;stroke-width:2.4127;stroke-linecap:round;stroke-dasharray:0,4;}
	.st3{fill:#3C3C3B;stroke:#95C11F;stroke-width:1.2063;stroke-miterlimit:10;}
	.st4{enable-background:new    ;}
	.st5{fill:none;stroke:#95C11F;stroke-width:4.8049;stroke-linecap:round;stroke-linejoin:round;stroke-miterlimit:10;}
	.st6{fill:#878787;}
</style>
<g>
	<path class="st0" d="M65.35,187.35c2.59,1.66,3.34,5.1,1.68,7.69c-1.06,1.66-2.86,2.56-4.69,2.56c-1.03,0-2.07-0.28-3-0.88
		L41.9,185.54c-2.94-1.89-4.7-5.1-4.7-8.6s1.76-6.71,4.7-8.6l17.44-11.18c2.59-1.66,6.03-0.9,7.69,1.68
		c1.66,2.59,0.91,6.03-1.68,7.69l-16.24,10.41L65.35,187.35z M97.59,225.2l-17.45,11.18c-0.93,0.6-1.97,0.88-3,0.88
		c-1.83,0-3.63-0.9-4.69-2.56c-1.66-2.59-0.91-6.03,1.68-7.69l16.24-10.41l-16.24-10.41c-2.59-1.66-3.34-5.1-1.68-7.69
		c1.66-2.59,5.1-3.34,7.69-1.68L97.59,208c2.94,1.89,4.7,5.1,4.7,8.6C102.29,220.1,100.54,223.31,97.59,225.2z"/>
	<path class="st0" d="M7.48,197.66c0-34.23,27.85-62.09,62.09-62.09s62.09,27.85,62.09,62.09s-27.85,62.09-62.09,62.09
		S7.48,231.9,7.48,197.66z M123.66,197.66c0-29.83-24.27-54.09-54.09-54.09s-54.09,24.27-54.09,54.09s24.27,54.09,54.09,54.09
		S123.66,227.49,123.66,197.66z"/>
</g>
<g>
	<g>
		<g>
			<polygon class="st1" points="181.35,196.28 175.08,188.68 175.08,203.76 			"/>
		</g>
		<line class="st2" x1="140.56" y1="196.6" x2="175.95" y2="196.6"/>
	</g>
</g>
<g>
	<circle class="st3" cx="288.68" cy="48.83" r="42.5"/>
	<g>
		<g>
			<path class="st0" d="M259.84,54.07c0-6.84,3.77-11,9.13-11s9.13,4.17,9.13,11c0,6.84-3.77,11.15-9.13,11.15
				S259.84,60.92,259.84,54.07z M275.29,54.07c0-5.32-2.51-8.61-6.32-8.61s-6.32,3.28-6.32,8.61c0,5.32,2.51,8.76,6.32,8.76
				S275.29,59.39,275.29,54.07z"/>
			<path class="st0" d="M280.71,43.47h3.27l4.1,11.42c0.51,1.46,1,2.97,1.52,4.45h0.13c0.51-1.48,0.96-2.99,1.48-4.45l4.05-11.42
				h3.27v21.37H296V53.07c0-1.86,0.21-4.43,0.35-6.32h-0.13l-1.7,4.87l-4.02,11.05h-1.8l-4.04-11.05l-1.69-4.87h-0.13
				c0.14,1.89,0.35,4.46,0.35,6.32v11.76h-2.46V43.47H280.71z"/>
			<path class="st0" d="M302.09,43.47h5.35c6.57,0,10.09,3.82,10.09,10.61s-3.52,10.76-9.97,10.76h-5.47V43.47z M307.23,62.6
				c4.99,0,7.49-3.13,7.49-8.53s-2.49-8.38-7.49-8.38h-2.42V62.6H307.23z"/>
		</g>
		<polygon class="st0" points="289.68,53.68 299.63,26.63 280,26.63 		"/>
	</g>
</g>
<circle class="st3" cx="375.27" cy="135.18" r="42.5"/>
<g>
	<path class="st3" d="M262.88,247.63h-47.16c-9.71,0-17.66-7.95-17.66-17.66v-74.25c0-9.71,7.95-17.66,17.66-17.66h47.16
		c9.71,0,17.66,7.95,17.66,17.66v74.25C280.54,239.68,272.6,247.63,262.88,247.63z"/>
	<path class="st3" d="M262.27,251.95h-54.13c-7.8,0-14.17-6.38-14.17-14.17v-81.22c0-7.8,6.38-14.17,14.17-14.17h54.13
		c7.8,0,14.17,6.38,14.17,14.17v81.22C276.44,245.57,270.06,251.95,262.27,251.95z"/>
	<path class="st3" d="M262.4,256.41h-63.03c-5.35,0-9.72-4.37-9.72-9.72v-90.12c0-5.35,4.37-9.72,9.72-9.72h63.03
		c5.35,0,9.72,4.37,9.72,9.72v90.12C272.12,252.04,267.75,256.41,262.4,256.41z"/>
	<g class="st4">
		<path class="st0" d="M204.36,198.73c5.37,0,6.13-2.95,6.13-5.6c0-2.12-0.3-4.24-0.6-6.36c-0.3-2.12-0.61-4.16-0.61-6.28
			c0-6.96,4.54-9.91,10.97-9.91h1.59v4.16h-1.36c-4.46,0-5.98,2.42-5.98,6.51c0,1.74,0.23,3.56,0.53,5.37
			c0.3,1.89,0.53,3.71,0.53,5.75c0.08,4.84-2.04,7.26-5.45,8.17v0.15c3.4,0.83,5.52,3.41,5.45,8.25c0,2.04-0.23,3.93-0.53,5.75
			c-0.3,1.89-0.53,3.63-0.53,5.45c0,4.24,1.74,6.58,5.98,6.58h1.36v4.16h-1.59c-6.28,0-10.97-2.72-10.97-10.36
			c0-2.04,0.3-4.16,0.61-6.2c0.3-2.04,0.6-4.08,0.6-6.13c0-2.35-0.76-5.6-6.13-5.6V198.73z"/>
		<path class="st0" d="M259.14,202.59c-5.37,0-6.13,3.25-6.13,5.6c0,2.04,0.3,4.08,0.61,6.13c0.3,2.04,0.6,4.16,0.6,6.2
			c0,7.64-4.77,10.36-10.97,10.36h-1.59v-4.16h1.29c4.24-0.08,6.05-2.35,6.05-6.58c0-1.82-0.3-3.56-0.53-5.45
			c-0.3-1.82-0.61-3.71-0.61-5.75c0-4.84,2.12-7.41,5.45-8.25v-0.15c-3.33-0.91-5.45-3.33-5.45-8.17c0-2.04,0.3-3.86,0.61-5.75
			c0.23-1.82,0.53-3.63,0.53-5.37c0-4.08-1.59-6.43-5.98-6.51h-1.36v-4.16h1.51c6.43,0,11.05,2.95,11.05,9.91
			c0,2.12-0.3,4.16-0.6,6.28c-0.3,2.12-0.61,4.24-0.61,6.36c0,2.65,0.76,5.6,6.13,5.6V202.59z"/>
	</g>
</g>
<g>
	<circle class="st3" cx="288.68" cy="347.62" r="42.5"/>
	<g id="_x36_nBhxb_1_">
		<g>
			<path class="st0" d="M313.52,336.11c-0.17,0.64-0.36,1.27-0.51,1.91c-0.06,0.25-0.17,0.32-0.42,0.32c-0.76-0.02-1.51,0-2.27-0.01
				c-0.18,0-0.25,0.08-0.35,0.21c-0.43,0.55-0.41,1.05,0.05,1.59c0.33,0.39,0.56,0.87,0.85,1.3c0.1,0.16,0.13,0.29,0,0.43
				c-0.47,0.51-0.93,1.01-1.4,1.52c-0.12,0.14-0.25,0.13-0.4,0.04c-0.68-0.39-1.36-0.78-2.05-1.15c-0.1-0.05-0.26-0.05-0.38-0.01
				c-0.57,0.18-0.77,0.55-0.69,1.16c0.08,0.6,0.01,1.23,0.04,1.84c0.01,0.26-0.09,0.36-0.33,0.41c-0.6,0.14-1.19,0.31-1.78,0.49
				c-0.19,0.05-0.3,0.02-0.4-0.15c-0.32-0.53-0.65-1.07-0.97-1.6c-0.03-0.05-0.06-0.1-0.09-0.15c-0.32-0.53-0.66-0.66-1.22-0.42
				c-0.13,0.06-0.25,0.21-0.32,0.34c-0.35,0.6-0.69,1.2-1.01,1.81c-0.14,0.27-0.3,0.32-0.59,0.24c-0.6-0.17-1.21-0.31-1.81-0.45
				c-0.17-0.04-0.23-0.12-0.23-0.29c-0.01-0.83-0.04-1.66-0.05-2.49c0-0.18-0.06-0.27-0.22-0.34c-0.68-0.33-0.67-0.33-1.31,0.06
				c-0.51,0.31-1.02,0.62-1.51,0.96c-0.21,0.14-0.36,0.13-0.53-0.04c-0.49-0.48-0.99-0.95-1.5-1.42c-0.12-0.11-0.08-0.2-0.01-0.32
				c0.41-0.7,0.81-1.41,1.23-2.1c0.08-0.13,0.06-0.22,0.01-0.36c-0.23-0.58-0.6-0.79-1.24-0.7c-0.6,0.08-1.21,0.04-1.81,0.06
				c-0.19,0.01-0.29-0.04-0.34-0.24c-0.15-0.57-0.33-1.12-0.49-1.69c-0.11-0.38-0.06-0.53,0.28-0.74c0.58-0.35,1.17-0.7,1.76-1.03
				c0.2-0.11,0.26-0.25,0.26-0.48c0.02-0.58-0.15-0.98-0.75-1.21c-0.53-0.2-1.02-0.54-1.52-0.82c-0.19-0.11-0.24-0.25-0.18-0.47
				c0.17-0.6,0.32-1.2,0.47-1.81c0.05-0.2,0.13-0.28,0.34-0.27c0.75,0.01,1.49,0,2.24,0.01c0.21,0,0.29-0.09,0.41-0.25
				c0.44-0.6,0.38-1.12-0.1-1.68c-0.34-0.4-0.57-0.89-0.87-1.33c-0.1-0.15-0.08-0.24,0.05-0.36c0.5-0.49,1-0.98,1.49-1.48
				c0.14-0.15,0.25-0.14,0.41-0.04c0.52,0.31,1.04,0.61,1.57,0.91c0.83,0.46,1.51,0.05,1.49-0.91c-0.01-0.61-0.04-1.23-0.07-1.84
				c-0.01-0.18,0.02-0.27,0.21-0.32c0.67-0.17,1.33-0.36,1.99-0.56c0.18-0.05,0.28,0,0.37,0.15c0.37,0.64,0.75,1.27,1.11,1.91
				c0.08,0.15,0.18,0.22,0.36,0.21c0.25-0.01,0.51-0.02,0.77,0c0.21,0.02,0.3-0.08,0.39-0.25c0.34-0.64,0.69-1.28,1.03-1.92
				c0.09-0.18,0.21-0.23,0.41-0.18c0.64,0.16,1.29,0.31,1.93,0.44c0.21,0.04,0.27,0.14,0.26,0.35c-0.01,0.74,0,1.47-0.01,2.21
				c0,0.19,0.06,0.29,0.22,0.38c0.82,0.45,0.82,0.46,1.61-0.02c0.44-0.26,0.87-0.53,1.3-0.8c0.14-0.09,0.25-0.1,0.38,0.01
				c0.53,0.51,1.07,1.01,1.6,1.52c0.05,0.05,0.03,0.21-0.02,0.29c-0.37,0.65-0.74,1.3-1.13,1.93c-0.12,0.19-0.13,0.34,0.01,0.51
				c0.01,0.01,0.01,0.02,0.01,0.02c0.43,0.71,0.43,0.71,1.27,0.66c0.63-0.04,1.26-0.06,1.93-0.09c0.12,0.43,0.25,0.86,0.37,1.3
				c0.08,0.31,0.14,0.63,0.23,0.94c0.06,0.19-0.01,0.3-0.17,0.39c-0.63,0.36-1.25,0.74-1.89,1.09c-0.18,0.1-0.21,0.23-0.25,0.42
				c-0.11,0.68,0.15,1.06,0.79,1.32c0.59,0.25,1.12,0.62,1.67,0.94C313.52,336,313.52,336.05,313.52,336.11z M307.14,334.23
				c0.03-3.01-2.57-5.69-5.58-5.73c-3.19-0.04-5.78,2.46-5.85,5.57c-0.07,2.96,2.3,5.74,5.62,5.82
				C304.43,339.97,307.11,337.34,307.14,334.23z"/>
			<path class="st0" d="M262.53,353.73c1.28-0.31,2.47-0.6,3.67-0.88c0.23-0.05,0.36-0.14,0.41-0.38c0.08-0.37,0.19-0.73,0.31-1.09
				c0.06-0.19,0.03-0.31-0.11-0.45c-0.88-0.85-1.74-1.71-2.62-2.55c-0.16-0.15-0.17-0.26-0.06-0.45c0.55-0.93,1.09-1.86,1.62-2.8
				c0.12-0.21,0.23-0.23,0.45-0.17c1.12,0.34,2.25,0.66,3.37,1c0.18,0.05,0.29,0.04,0.42-0.1c0.28-0.3,0.58-0.6,0.88-0.88
				c0.15-0.14,0.16-0.27,0.11-0.45c-0.33-1.1-0.64-2.21-0.97-3.32c-0.06-0.22-0.03-0.34,0.18-0.46c0.91-0.51,1.82-1.04,2.73-1.57
				c0.21-0.12,0.35-0.09,0.51,0.08c0.79,0.82,1.6,1.63,2.39,2.46c0.14,0.14,0.25,0.19,0.44,0.12c0.36-0.12,0.72-0.21,1.09-0.3
				c0.29-0.06,0.43-0.23,0.5-0.5c0.2-0.81,0.42-1.63,0.62-2.44c0.07-0.29,0.14-0.59,0.2-0.88c0.03-0.16,0.11-0.21,0.27-0.21
				c1.13,0.01,2.27,0.01,3.4,0c0.17,0,0.24,0.05,0.29,0.23c0.27,1.11,0.56,2.21,0.84,3.32c0.06,0.26,0.2,0.41,0.46,0.47
				c0.39,0.09,0.77,0.19,1.15,0.31c0.19,0.06,0.31,0.01,0.44-0.13c0.8-0.86,1.61-1.7,2.42-2.55c0.05-0.05,0.09-0.12,0.15-0.19
				c0.28,0.16,0.52,0.3,0.76,0.44c0.77,0.44,1.53,0.9,2.31,1.33c0.19,0.11,0.24,0.21,0.18,0.43c-0.33,1.12-0.65,2.25-0.98,3.37
				c-0.06,0.2-0.04,0.33,0.12,0.47c0.29,0.27,0.57,0.55,0.84,0.84c0.13,0.14,0.26,0.17,0.44,0.12c1.12-0.33,2.25-0.65,3.37-0.99
				c0.22-0.07,0.33-0.02,0.45,0.18c0.54,0.94,1.08,1.88,1.64,2.81c0.1,0.18,0.09,0.27-0.06,0.4c-0.87,0.82-1.73,1.66-2.61,2.49
				c-0.17,0.16-0.21,0.3-0.14,0.52c0.12,0.37,0.21,0.74,0.3,1.12c0.04,0.2,0.14,0.29,0.34,0.34c1.13,0.26,2.26,0.53,3.39,0.81
				c0.08,0.02,0.16,0.05,0.27,0.08c0.01,0.11,0.01,0.22,0.02,0.33c0.01,1.08,0.02,2.15,0.04,3.23c0.01,0.22-0.06,0.31-0.28,0.36
				c-1.15,0.28-2.29,0.59-3.43,0.87c-0.25,0.06-0.39,0.18-0.44,0.44c-0.07,0.34-0.17,0.68-0.27,1.01c-0.05,0.17-0.01,0.27,0.12,0.39
				c0.9,0.86,1.8,1.73,2.7,2.59c0.14,0.14,0.16,0.23,0.06,0.4c-0.55,0.91-1.09,1.84-1.62,2.76c-0.1,0.17-0.19,0.24-0.4,0.18
				c-1.2-0.34-2.4-0.66-3.6-1c-0.21-0.06-0.35-0.04-0.5,0.13c-0.22,0.25-0.47,0.47-0.67,0.73c-0.08,0.1-0.11,0.28-0.08,0.41
				c0.28,1.08,0.6,2.15,0.87,3.23c0.2,0.8,0.24,0.6-0.4,0.98c-0.79,0.48-1.6,0.92-2.4,1.4c-0.2,0.12-0.32,0.11-0.49-0.06
				c-0.87-0.91-1.75-1.8-2.63-2.71c-0.13-0.13-0.24-0.17-0.42-0.11c-0.35,0.11-0.71,0.21-1.07,0.29c-0.17,0.04-0.25,0.13-0.29,0.29
				c-0.29,1.24-0.59,2.48-0.88,3.72c-0.05,0.21-0.13,0.27-0.34,0.26c-1.11-0.02-2.21-0.04-3.32-0.05c-0.18,0-0.26-0.06-0.3-0.24
				c-0.29-1.22-0.6-2.44-0.9-3.66c-0.05-0.2-0.13-0.3-0.34-0.35c-0.33-0.07-0.66-0.15-0.98-0.27c-0.22-0.08-0.34,0-0.49,0.15
				c-0.85,0.89-1.71,1.76-2.56,2.65c-0.16,0.17-0.29,0.2-0.51,0.08c-0.89-0.53-1.8-1.05-2.7-1.56c-0.19-0.11-0.27-0.22-0.2-0.45
				c0.32-1.13,0.62-2.28,0.94-3.41c0.08-0.29,0.03-0.5-0.16-0.72c-0.7-0.82-0.69-0.81-1.72-0.52c-0.98,0.28-1.97,0.53-2.95,0.8
				c-0.21,0.06-0.31-0.01-0.4-0.18c-0.54-0.93-1.08-1.86-1.63-2.79c-0.09-0.15-0.07-0.24,0.06-0.36c0.9-0.85,1.78-1.72,2.69-2.57
				c0.15-0.14,0.19-0.27,0.13-0.47c-0.11-0.36-0.2-0.73-0.28-1.1c-0.04-0.19-0.13-0.28-0.33-0.33c-1.18-0.29-2.36-0.59-3.55-0.88
				c-0.21-0.05-0.28-0.13-0.28-0.36C262.54,356.1,262.53,354.92,262.53,353.73z M289.13,355.5c-0.07-0.57-0.07-1.3-0.25-1.99
				c-0.36-1.39-1.09-2.59-2.06-3.67c-2.52-2.8-7.1-3.56-10.51-1.49c-3.83,2.33-5.26,7.23-3.22,11.19c2.05,3.98,6.9,5.74,10.99,3.88
				C287.37,361.92,289.04,359.29,289.13,355.5z"/>
		</g>
	</g>
</g>
<g>
	<circle class="st3" cx="375.27" cy="265.48" r="42.5"/>
	<g id="_x30_bRrWc_2_">
		<g>
			<path class="st0" d="M375.22,260.26c-4.58-0.03-9.06-0.61-13.38-2.16c-1.99-0.71-3.89-1.63-5.49-3.04
				c-1.33-1.17-2.33-2.52-2.27-4.43c0.05-1.77,1.02-3.04,2.27-4.12c2.28-1.96,5.03-3.01,7.89-3.79c4.35-1.19,8.78-1.53,13.26-1.33
				c4.14,0.19,8.21,0.86,12.08,2.44c1.9,0.78,3.69,1.75,5.15,3.24c2.36,2.41,2.28,5.36-0.21,7.66c-2.2,2.03-4.86,3.14-7.67,3.96
				c-2.65,0.78-5.36,1.25-8.13,1.39C377.55,260.14,376.39,260.2,375.22,260.26z"/>
			<path class="st0" d="M354.08,273.88c0.8,2.57,2.79,3.98,4.98,5.16c2.69,1.44,5.61,2.21,8.6,2.73c2.87,0.49,5.78,0.72,8.69,0.62
				c4.99-0.17,9.89-0.86,14.46-3.04c1.86-0.89,3.61-1.96,4.76-3.75c0.36-0.56,0.59-1.19,0.88-1.81c0,0.43,0,0.88,0,1.33
				c0,1.48-0.06,2.96,0.01,4.43c0.11,2.2-0.93,3.81-2.54,5.12c-2.42,1.96-5.27,3.02-8.25,3.75c-4.32,1.07-8.71,1.41-13.15,1.14
				c-3.61-0.22-7.14-0.78-10.55-2c-2.16-0.77-4.23-1.75-5.92-3.36c-1.25-1.18-2.05-2.55-1.98-4.37
				C354.14,277.84,354.08,275.86,354.08,273.88z"/>
			<path class="st0" d="M396.45,263.88c0,2.32,0.05,4.52-0.02,6.72c-0.05,1.64-0.96,2.88-2.14,3.93c-2.14,1.91-4.73,2.96-7.43,3.76
				c-4.69,1.38-9.5,1.72-14.35,1.46c-4.12-0.21-8.16-0.93-11.97-2.57c-2.22-0.95-4.31-2.12-5.68-4.21c-0.52-0.78-0.8-1.64-0.78-2.6
				c0.03-2.09,0.01-4.17,0.04-6.27c0.79,2.59,2.81,4,5.03,5.17c2.62,1.38,5.45,2.13,8.36,2.66c3.37,0.61,6.76,0.76,10.17,0.58
				c4.98-0.26,9.84-1.12,14.28-3.56c1.59-0.88,3.03-1.97,3.91-3.63C396.07,264.9,396.22,264.44,396.45,263.88z"/>
			<path class="st0" d="M396.36,254.27c0,2.28,0.12,4.67-0.04,7.05c-0.13,1.86-1.49,3.09-2.92,4.14c-2.45,1.8-5.27,2.76-8.18,3.47
				c-3.5,0.84-7.07,1.18-10.66,1.11c-4.77-0.09-9.46-0.74-13.9-2.59c-2.17-0.91-4.2-2.06-5.63-4.01c-0.64-0.88-0.99-1.85-0.97-2.97
				c0.04-2.05,0.01-4.1,0.01-6.33c0.95,3.05,3.26,4.5,5.77,5.69c3.13,1.48,6.47,2.22,9.9,2.62c2.92,0.35,5.85,0.45,8.78,0.22
				c4.63-0.37,9.15-1.2,13.29-3.45c1.67-0.91,3.18-2.03,4.08-3.78C396.1,255.03,396.24,254.59,396.36,254.27z"/>
		</g>
	</g>
</g>
<g>
	<g>
		<g>
			<polygon class="st1" points="330.88,157.32 321.92,153.23 328.51,166.79 			"/>
		</g>
		<line class="st2" x1="288.04" y1="178.1" x2="326.16" y2="159.98"/>
	</g>
</g>
<g>
	<g>
		<g>
			<polygon class="st1" points="328.51,236.82 321.92,250.38 330.88,246.29 			"/>
		</g>
		<line class="st2" x1="326.16" y1="243.63" x2="288.04" y2="225.51"/>
	</g>
</g>
<g>
	<g>
		<g>
			<polygon class="st1" points="263.55,91 253.93,93.17 267.39,99.98 			"/>
		</g>
		<line class="st2" x1="242.01" y1="133.47" x2="261.4" y2="95.97"/>
	</g>
</g>
<g>
	<g>
		<g>
			<polygon class="st1" points="267.39,297.03 253.93,303.84 263.55,306 			"/>
		</g>
		<line class="st2" x1="261.4" y1="301.03" x2="242.01" y2="263.54"/>
	</g>
</g>
<g>
	<path class="st5" d="M392.8,117.54l-16.29,18.48v0.19l16.29,18.47"/>
</g>
<polyline class="st5" points="360.33,154.68 360.33,118.19 370.72,129.88 "/>
<g>
	<g>
		<path class="st6" d="M343.57,336.36c0-4.7,2.77-7.56,6.47-7.56c1.77,0,3.16,0.86,4.01,1.8l-1.02,1.21
			c-0.77-0.82-1.73-1.38-2.96-1.38c-2.75,0-4.58,2.26-4.58,5.89c0,3.66,1.75,5.96,4.51,5.96c1.39,0,2.45-0.6,3.38-1.64l1.02,1.16
			c-1.15,1.34-2.58,2.1-4.47,2.1C346.29,343.9,343.57,341.09,343.57,336.36z"/>
		<path class="st6" d="M356.77,339.68v-6.84h1.83v6.6c0,2.01,0.61,2.87,2.04,2.87c1.1,0,1.87-0.55,2.89-1.82v-7.65h1.83v10.79h-1.51
			l-0.15-1.69h-0.06c-1,1.18-2.08,1.96-3.56,1.96C357.79,343.9,356.77,342.43,356.77,339.68z"/>
		<path class="st6" d="M367.79,342.4l0.9-1.2c0.94,0.75,1.89,1.28,3.19,1.28c1.42,0,2.12-0.75,2.12-1.68c0-1.11-1.27-1.6-2.47-2.05
			c-1.51-0.55-3.22-1.3-3.22-3.12c0-1.73,1.38-3.06,3.72-3.06c1.34,0,2.52,0.55,3.36,1.21l-0.87,1.17
			c-0.74-0.55-1.51-0.96-2.46-0.96c-1.36,0-1.99,0.73-1.99,1.55c0,1.03,1.17,1.42,2.4,1.87c1.56,0.59,3.29,1.22,3.29,3.27
			c0,1.75-1.39,3.21-3.94,3.21C370.29,343.9,368.81,343.25,367.79,342.4z"/>
		<path class="st6" d="M378.61,340.3v-5.97H377v-1.38l1.69-0.1l0.22-3.03h1.52v3.03h2.92v1.49h-2.92v6c0,1.32,0.43,2.08,1.67,2.08
			c0.38,0,0.88-0.14,1.23-0.29l0.35,1.38c-0.6,0.21-1.33,0.4-2,0.4C379.39,343.9,378.61,342.44,378.61,340.3z"/>
		<path class="st6" d="M384.99,338.25c0-3.6,2.36-5.68,5-5.68c2.65,0,5,2.08,5,5.68c0,3.57-2.36,5.65-5,5.65
			C387.35,343.9,384.99,341.83,384.99,338.25z M393.11,338.25c0-2.47-1.26-4.16-3.11-4.16c-1.86,0-3.11,1.68-3.11,4.16
			c0,2.47,1.26,4.13,3.11,4.13C391.85,342.38,393.11,340.72,393.11,338.25z"/>
		<path class="st6" d="M397.82,332.84h1.51l0.15,1.56h0.06c0.94-1.02,2.07-1.83,3.36-1.83c1.65,0,2.54,0.79,2.98,2.06
			c1.12-1.21,2.25-2.06,3.56-2.06c2.22,0,3.28,1.47,3.28,4.22v6.84h-1.83v-6.6c0-2.01-0.64-2.87-2.01-2.87
			c-0.84,0-1.71,0.55-2.7,1.66v7.82h-1.83v-6.6c0-2.01-0.64-2.87-2.01-2.87c-0.81,0-1.71,0.55-2.7,1.66v7.82h-1.83v-10.81H397.82z"
			/>
		<path class="st6" d="M415.42,338.25c0-3.51,2.37-5.68,4.85-5.68c2.75,0,4.31,1.98,4.31,5.06c0,0.39-0.03,0.77-0.08,1.04h-7.27
			c0.13,2.29,1.53,3.77,3.59,3.77c1.04,0,1.89-0.33,2.69-0.86l0.65,1.2c-0.95,0.62-2.1,1.12-3.56,1.12
			C417.71,343.9,415.42,341.8,415.42,338.25z M422.97,337.37c0-2.16-0.97-3.34-2.66-3.34c-1.52,0-2.87,1.22-3.1,3.34H422.97z"/>
		<path class="st6" d="M427.23,332.84h1.51l0.15,1.96h0.06c0.75-1.37,1.85-2.23,3.07-2.23c0.48,0,0.81,0.06,1.15,0.22l-0.34,1.6
			c-0.37-0.12-0.61-0.18-1.05-0.18c-0.91,0-2,0.66-2.73,2.48v6.93h-1.83L427.23,332.84L427.23,332.84z"/>
		<path class="st6" d="M344.41,355.7h1.85v14.57h-1.85V355.7z"/>
		<path class="st6" d="M350.08,359.48h1.51l0.15,1.56h0.06c1.03-1.01,2.14-1.82,3.62-1.82c2.27,0,3.3,1.47,3.3,4.22v6.84h-1.83v-6.6
			c0-2.01-0.61-2.87-2.04-2.87c-1.1,0-1.87,0.56-2.95,1.66v7.82h-1.83v-10.81H350.08z"/>
		<path class="st6" d="M362.54,366.93v-5.97h-1.61v-1.38l1.69-0.1l0.22-3.03h1.52v3.03h2.92v1.49h-2.92v6
			c0,1.32,0.43,2.08,1.67,2.08c0.38,0,0.88-0.14,1.23-0.29l0.35,1.38c-0.6,0.21-1.33,0.4-2,0.4
			C363.32,370.54,362.54,369.08,362.54,366.93z"/>
		<path class="st6" d="M368.92,364.89c0-3.51,2.37-5.68,4.85-5.68c2.75,0,4.31,1.98,4.31,5.06c0,0.39-0.03,0.77-0.08,1.04h-7.27
			c0.13,2.29,1.53,3.77,3.59,3.77c1.04,0,1.89-0.33,2.69-0.86l0.65,1.2c-0.95,0.62-2.1,1.12-3.56,1.12
			C371.21,370.54,368.92,368.43,368.92,364.89z M376.47,364c0-2.16-0.97-3.34-2.66-3.34c-1.52,0-2.87,1.22-3.1,3.34H376.47z"/>
		<path class="st6" d="M379.91,372.34c0-0.92,0.59-1.79,1.58-2.44v-0.09c-0.55-0.34-0.96-0.92-0.96-1.77c0-0.9,0.63-1.61,1.19-2
			v-0.09c-0.71-0.56-1.4-1.61-1.4-2.9c0-2.36,1.86-3.84,4.05-3.84c0.59,0,1.13,0.12,1.52,0.27h3.76v1.41h-2.22
			c0.51,0.49,0.88,1.3,0.88,2.22c0,2.31-1.75,3.74-3.95,3.74c-0.52,0-1.12-0.13-1.61-0.37c-0.39,0.33-0.69,0.68-0.69,1.28
			c0,0.68,0.44,1.17,1.89,1.17h2.1c2.51,0,3.77,0.79,3.77,2.58c0,2-2.12,3.73-5.46,3.73C381.74,375.24,379.91,374.2,379.91,372.34z
			 M388.05,371.78c0-1-0.76-1.34-2.17-1.34h-1.86c-0.41,0-0.92-0.04-1.4-0.16c-0.77,0.55-1.1,1.19-1.1,1.81
			c0,1.16,1.17,1.89,3.13,1.89C386.69,373.98,388.05,372.9,388.05,371.78z M386.66,363.05c0-1.57-1.02-2.52-2.29-2.52
			s-2.29,0.94-2.29,2.52c0,1.57,1.05,2.56,2.29,2.56C385.61,365.62,386.66,364.63,386.66,363.05z"/>
		<path class="st6" d="M391.92,359.48h1.51l0.15,1.96h0.06c0.75-1.37,1.85-2.23,3.07-2.23c0.48,0,0.81,0.06,1.15,0.22l-0.34,1.6
			c-0.37-0.12-0.61-0.18-1.05-0.18c-0.91,0-2,0.66-2.73,2.48v6.93h-1.83L391.92,359.48L391.92,359.48z"/>
		<path class="st6" d="M398.95,367.47c0-2.35,2.03-3.53,6.63-4.03c0-1.39-0.46-2.73-2.23-2.73c-1.25,0-2.37,0.59-3.22,1.16
			l-0.71-1.25c0.99-0.65,2.51-1.41,4.24-1.41c2.63,0,3.75,1.75,3.75,4.44v6.62h-1.51l-0.15-1.29h-0.06
			c-1.03,0.86-2.23,1.56-3.57,1.56C400.31,370.54,398.95,369.41,398.95,367.47z M405.58,367.64v-3c-3.62,0.44-4.84,1.32-4.84,2.7
			c0,1.23,0.83,1.73,1.89,1.73C403.68,369.06,404.54,368.56,405.58,367.64z"/>
		<path class="st6" d="M411.13,366.93v-5.97h-1.61v-1.38l1.69-0.1l0.22-3.03h1.52v3.03h2.92v1.49h-2.92v6
			c0,1.32,0.43,2.08,1.67,2.08c0.38,0,0.88-0.14,1.23-0.29l0.35,1.38c-0.6,0.21-1.33,0.4-2,0.4
			C411.91,370.54,411.13,369.08,411.13,366.93z"/>
		<path class="st6" d="M417.98,356.08c0-0.72,0.55-1.18,1.26-1.18s1.26,0.46,1.26,1.18c0,0.69-0.55,1.18-1.26,1.18
			S417.98,356.77,417.98,356.08z M418.31,359.48h1.83v10.79h-1.83V359.48z"/>
		<path class="st6" d="M422.97,364.89c0-3.6,2.36-5.68,5-5.68c2.65,0,5,2.08,5,5.68c0,3.57-2.36,5.65-5,5.65
			S422.97,368.46,422.97,364.89z M431.08,364.89c0-2.47-1.26-4.16-3.11-4.16c-1.86,0-3.11,1.68-3.11,4.16
			c0,2.47,1.26,4.13,3.11,4.13C429.83,369.02,431.08,367.36,431.08,364.89z"/>
		<path class="st6" d="M435.8,359.48h1.51l0.15,1.56h0.06c1.03-1.01,2.14-1.82,3.62-1.82c2.27,0,3.3,1.47,3.3,4.22v6.84h-1.83v-6.6
			c0-2.01-0.61-2.87-2.04-2.87c-1.1,0-1.87,0.56-2.95,1.66v7.82h-1.83v-10.81H435.8z"/>
	</g>
</g>
<g>
	<g>
		<path class="st6" d="M428.43,135.81c0-4.7,2.77-7.56,6.47-7.56c1.77,0,3.16,0.86,4.01,1.8l-1.02,1.21
			c-0.77-0.82-1.73-1.37-2.96-1.37c-2.75,0-4.58,2.26-4.58,5.89c0,3.66,1.75,5.96,4.51,5.96c1.39,0,2.45-0.6,3.38-1.64l1.02,1.16
			c-1.15,1.34-2.58,2.1-4.47,2.1C431.15,143.35,428.43,140.54,428.43,135.81z"/>
		<path class="st6" d="M441.95,128.51h1.85v6.1h6.78v-6.1h1.85v14.57h-1.85v-6.85h-6.78v6.85h-1.85V128.51z"/>
		<path class="st6" d="M456.42,128.51h8.4v1.57h-6.54v4.57h5.52v1.57h-5.52v5.3h6.77v1.57h-8.62L456.42,128.51L456.42,128.51z"/>
		<path class="st6" d="M467.27,135.81c0-4.7,2.77-7.56,6.47-7.56c1.77,0,3.16,0.86,4.01,1.8l-1.02,1.21
			c-0.77-0.82-1.73-1.37-2.96-1.37c-2.75,0-4.58,2.26-4.58,5.89c0,3.66,1.75,5.96,4.51,5.96c1.39,0,2.45-0.6,3.38-1.64l1.02,1.16
			c-1.15,1.34-2.58,2.1-4.47,2.1C469.99,143.35,467.27,140.54,467.27,135.81z"/>
		<path class="st6" d="M480.79,128.51h1.85v7.31h0.06l6.05-7.31h2.1l-4.56,5.55l5.26,9.02h-2.07l-4.35-7.57l-2.5,2.96v4.61h-1.85
			v-14.57H480.79z"/>
		<path class="st6" d="M491.92,144.66h10.57v1.22h-10.57V144.66z"/>
		<path class="st6" d="M504.74,128.51h2.23l2.79,7.79c0.35,1,0.68,2.02,1.04,3.04h0.09c0.35-1.01,0.66-2.04,1.01-3.04l2.76-7.79
			h2.23v14.57h-1.72v-8.02c0-1.27,0.14-3.02,0.24-4.31h-0.09l-1.16,3.32l-2.74,7.54h-1.23l-2.76-7.54l-1.15-3.32h-0.09
			c0.09,1.29,0.24,3.04,0.24,4.31v8.02h-1.68v-14.57H504.74z"/>
		<path class="st6" d="M520.88,128.51h1.85v7.31h0.06l6.05-7.31h2.1l-4.56,5.55l5.26,9.02h-2.07l-4.35-7.57l-2.5,2.96v4.61h-1.85
			v-14.57H520.88z"/>
	</g>
</g>
<g>
	<g>
		<path class="st6" d="M430.37,257.74h3.65c4.48,0,6.88,2.6,6.88,7.23s-2.4,7.34-6.8,7.34h-3.73V257.74z M433.87,270.79
			c3.41,0,5.1-2.13,5.1-5.82s-1.7-5.71-5.1-5.71h-1.65v11.53H433.87z"/>
		<path class="st6" d="M444.02,257.74h4.33c2.96,0,5.01,1.01,5.01,3.57c0,1.44-0.77,2.72-2.13,3.17v0.09
			c1.74,0.34,2.96,1.49,2.96,3.49c0,2.86-2.27,4.26-5.52,4.26h-4.66v-14.58H444.02z M448.03,263.94c2.48,0,3.5-0.91,3.5-2.39
			c0-1.7-1.17-2.34-3.42-2.34h-2.24v4.73H448.03z M448.41,270.84c2.49,0,3.96-0.9,3.96-2.86c0-1.8-1.41-2.62-3.96-2.62h-2.54v5.48
			L448.41,270.84L448.41,270.84z"/>
	</g>
</g>
<g>
	<g>
		<path class="st6" d="M340.77,48.68c0-4.67,2.57-7.5,6.23-7.5s6.23,2.84,6.23,7.5c0,4.67-2.57,7.6-6.23,7.6
			S340.77,53.35,340.77,48.68z M351.31,48.68c0-3.63-1.71-5.87-4.31-5.87s-4.31,2.24-4.31,5.87c0,3.63,1.71,5.97,4.31,5.97
			S351.31,52.31,351.31,48.68z"/>
		<path class="st6" d="M356.35,41.45h2.23l2.79,7.79c0.35,1,0.68,2.02,1.04,3.04h0.09c0.35-1.01,0.66-2.04,1.01-3.04l2.76-7.79h2.23
			v14.57h-1.72V48c0-1.27,0.14-3.02,0.24-4.31h-0.09l-1.16,3.32l-2.74,7.54h-1.23l-2.76-7.54l-1.15-3.32h-0.09
			c0.09,1.29,0.24,3.04,0.24,4.31v8.02h-1.68V41.45H356.35z"/>
		<path class="st6" d="M372.49,41.45h3.65c4.48,0,6.88,2.6,6.88,7.23s-2.4,7.34-6.8,7.34h-3.73V41.45z M376,54.5
			c3.41,0,5.1-2.13,5.1-5.82c0-3.68-1.7-5.71-5.1-5.71h-1.65V54.5H376z"/>
	</g>
</g>
</svg>
