<?xml version="1.0" encoding="utf-8"?>
<!-- Generator: Adobe Illustrator 23.0.3, SVG Export Plug-In . SVG Version: 6.00 Build 0)  -->
<svg version="1.1" id="Ebene_1" xmlns="http://www.w3.org/2000/svg" xmlns:xlink="http://www.w3.org/1999/xlink" x="0px" y="0px"
	 width="1100px" height="304px" viewBox="0 0 1100 304" style="enable-background:new 0 0 1100 304;" xml:space="preserve">
<style type="text/css">
	.st0{fill:#FEC300;stroke:#2E2E2D;stroke-width:1.6741;}
	.st1{fill:#2E2E2D;stroke:#2E2E2D;stroke-width:0.8371;}
	.st2{fill:#2E2E2D;stroke:#454545;stroke-width:0.437;}
	.st3{fill:#2E2E2D;stroke:#2E2E2D;stroke-width:1.3099;stroke-linecap:round;stroke-miterlimit:10;}
	.st4{fill:#454545;}
	.st5{fill:#009288;}
	.st6{fill:#85B819;}
	.st7{fill:#FFFFFF;}
	.st8{fill:#008CDC;}
	.st9{fill:#A3A3A3;}
	.st10{fill:#2AADE7;}
	.st11{opacity:0.1;fill:#FFFFFF;enable-background:new    ;}
	.st12{opacity:0.5;fill:none;stroke:#FFFFFF;stroke-miterlimit:10;enable-background:new    ;}
	.st13{fill:#0F0F0F;}
	.st14{fill:#F2BA0E;}
	.st15{fill:#B27C12;}
	.st16{fill:#3B3B3A;}
	.st17{fill:#FEFEFE;}
	.st18{fill:#CCCCCC;}
	.st19{fill:#F4F4F4;}
	.st20{fill:#FEC307;stroke:#2E2E2D;stroke-width:1.6741;}
	.st21{fill:none;stroke:#2E2E2D;stroke-width:2;stroke-dasharray:1,2;}
	.st22{fill:#7C7C7B;}
	.st23{fill:#95C11F;}
</style>
<g>
	<circle class="st0" cx="556.5" cy="151.6" r="10.4"/>
	<polygon class="st1" points="560.5,151.8 555.2,145.5 555.2,158 	"/>
</g>
<circle class="st2" cx="372.7" cy="234.1" r="29.1"/>
<rect x="610.4" y="54.1" class="st3" width="487.8" height="188.9"/>
<rect x="749.1" y="175.9" class="st4" width="217.5" height="52.2"/>
<rect x="866" y="110.4" class="st5" width="217.5" height="51"/>
<rect x="629.8" y="110.4" class="st5" width="221.1" height="51.5"/>
<rect x="0.3" y="50.4" class="st6" width="267" height="51.3"/>
<g>
	<path class="st7" d="M76.9,74.9c0-5.6,3.1-9.2,7.6-9.2c2.1,0,3.7,1,4.6,2.1l-0.7,0.8c-1-1.1-2.3-1.8-3.9-1.8c-3.9,0-6.3,3.1-6.3,8
		s2.4,8.1,6.2,8.1c1.8,0,3.2-0.7,4.5-2.2l0.7,0.8c-1.4,1.6-3,2.5-5.3,2.5C79.9,84.1,76.9,80.5,76.9,74.9z"/>
	<path class="st7" d="M93.2,66h1.2v17.8h-1.2V66z"/>
	<path class="st7" d="M103.7,81.4l0.8-0.9c1.3,1.5,3.1,2.4,5.2,2.4c2.7,0,4.4-1.5,4.4-3.6c0-2.2-1.4-2.9-3.2-3.7l-2.7-1.2
		c-1.5-0.7-3.6-1.8-3.6-4.4s2.2-4.4,5.2-4.4c2.1,0,3.9,1,4.9,2.1l-0.7,0.8c-1-1.1-2.5-1.8-4.2-1.8c-2.3,0-3.9,1.3-3.9,3.2
		c0,2.1,1.8,2.9,3.1,3.4l2.7,1.2c2,0.9,3.7,2,3.7,4.7s-2.2,4.8-5.7,4.8C107.1,84.1,105.1,83,103.7,81.4z"/>
	<path class="st7" d="M117.2,89.4l0.3-1c0.3,0.1,0.7,0.2,1.1,0.2c1.6,0,2.7-1.5,3.3-3.4l0.4-1.1L117,70.9h1.3l3.1,8.1
		c0.4,1.1,0.9,2.5,1.4,3.6h0.1c0.4-1.1,0.8-2.5,1.2-3.6l2.8-8.1h1.2L123,85.5c-0.7,2.2-2,4.3-4.4,4.3
		C118,89.7,117.5,89.6,117.2,89.4z"/>
	<path class="st7" d="M129.1,82.3l0.7-0.9c1.1,0.9,2.3,1.6,4.1,1.6c2,0,3.1-1.2,3.1-2.6c0-1.6-1.7-2.3-3.2-2.9
		c-2-0.7-4.1-1.5-4.1-3.7c0-1.9,1.5-3.4,4.2-3.4c1.4,0,2.8,0.6,3.7,1.3l-0.6,0.9c-0.9-0.7-1.8-1.2-3.1-1.2c-2,0-2.9,1.2-2.9,2.4
		c0,1.5,1.5,2,3.1,2.6c2,0.8,4.2,1.4,4.2,3.9c0,2-1.6,3.6-4.4,3.6C132,84.1,130.3,83.3,129.1,82.3z"/>
	<path class="st7" d="M141.4,80.2v-8.3h-2V71l2-0.1l0.2-3.7h1v3.7h3.8v1h-3.8v8.4c0,1.7,0.4,2.8,2.2,2.8c0.5,0,1.2-0.2,1.6-0.4
		l0.3,1c-0.7,0.3-1.6,0.5-2.1,0.5C142.2,84.1,141.4,82.5,141.4,80.2z"/>
	<path class="st7" d="M148.2,77.3c0-4.2,2.7-6.8,5.6-6.8c3.1,0,5,2.2,5,6c0,0.3,0,0.6-0.1,1h-9.3c0,3.3,2,5.6,4.9,5.6
		c1.4,0,2.5-0.5,3.5-1.1l0.5,0.9c-1,0.6-2.2,1.3-4.1,1.3C150.8,84.1,148.2,81.6,148.2,77.3z M157.6,76.5c0-3.3-1.5-4.9-3.8-4.9
		c-2.2,0-4.2,1.9-4.4,4.9H157.6z"/>
	<path class="st7" d="M162.3,70.9h1l0.1,2h0.1c1.2-1.3,2.6-2.3,4.1-2.3c2.1,0,3.1,1,3.6,2.6c1.5-1.6,2.9-2.6,4.4-2.6
		c2.6,0,3.9,1.6,3.9,5v8.3h-1.2v-8.1c0-2.7-0.9-4-2.9-4c-1.2,0-2.4,0.8-3.9,2.4V84h-1.2v-8.1c0-2.7-0.9-4-2.9-4
		c-1.2,0-2.4,0.8-3.9,2.4v9.8h-1.2L162.3,70.9L162.3,70.9z"/>
</g>
<g>
	<circle class="st8" cx="434.3" cy="152" r="63.3"/>
	<path class="st8" d="M434.3,91.9c33.1,0,60.1,27,60.1,60.1s-27,60.1-60.1,60.1s-60.1-27-60.1-60.1S401.1,91.9,434.3,91.9
		 M434.3,85.4c-36.8,0-66.6,29.8-66.6,66.6s29.8,66.6,66.6,66.6s66.6-29.8,66.6-66.6S471,85.4,434.3,85.4L434.3,85.4z"/>
</g>
<g>
	<path class="st7" d="M675.6,127.5h4.9c3.4,0,5.7,1.3,5.7,4.5c0,3.1-2.2,4.8-5.7,4.8h-3.7v7.9h-1.2V127.5z M680.2,135.8
		c3,0,4.7-1.2,4.7-3.7c0-2.6-1.7-3.5-4.7-3.5h-3.4v7.3h3.4V135.8z M680.3,136.5l1.1-0.3l5.1,8.6h-1.4L680.3,136.5z"/>
	<path class="st7" d="M689.8,127.5h1.2v17.2h-1.2V127.5z"/>
	<path class="st7" d="M695,136.1c0-5.5,3-8.9,7.3-8.9c2,0,3.6,1,4.5,2.1l-0.7,0.8c-0.9-1.1-2.2-1.8-3.8-1.8c-3.8,0-6.1,3-6.1,7.8
		s2.3,7.9,6,7.9c1.8,0,3.1-0.7,4.3-2.1l0.7,0.8c-1.3,1.5-2.9,2.5-5.1,2.5C697.9,145,695,141.6,695,136.1z"/>
	<path class="st7" d="M710.8,127.5h1.2v7.5h9.2v-7.5h1.2v17.2h-1.2v-8.6H712v8.6h-1.2V127.5z"/>
	<path class="st7" d="M726,137.7h5.7v1H726V137.7z"/>
	<path class="st7" d="M734.2,136.1c0-5.5,3-8.9,7.3-8.9c2,0,3.6,1,4.5,2.1l-0.7,0.8c-0.9-1.1-2.2-1.8-3.8-1.8c-3.8,0-6.1,3-6.1,7.8
		s2.3,7.9,6,7.9c1.8,0,3.1-0.7,4.3-2.1l0.7,0.8c-1.3,1.5-2.9,2.5-5.1,2.5C737.1,145,734.2,141.6,734.2,136.1z"/>
	<path class="st7" d="M750,127.5h1.2v16.2h7.9v1H750V127.5z"/>
	<path class="st7" d="M762.2,127.5h1.2v17.2h-1.2V127.5z"/>
	<path class="st7" d="M768.5,127.5h9.4v1h-8.2v6.5h6.9v1h-6.9v7.6h8.5v1h-9.7V127.5z"/>
	<path class="st7" d="M781.9,127.5h1.3l7.2,12.1l1.9,3.4h0.1c-0.1-1.7-0.2-3.4-0.2-5v-10.5h1.1v17.2H792l-7.2-12.1l-1.9-3.4h-0.1
		c0.1,1.6,0.2,3.2,0.2,4.9v10.7h-1.1V127.5z"/>
	<path class="st7" d="M802.2,128.6h-5.5v-1h12.1v1h-5.5v16.2h-1.2v-16.2H802.2z"/>
</g>
<g>
	<path class="st7" d="M913.6,127.5h1.3l2.2,10.1c0.4,1.9,0.8,3.7,1.2,5.6h0.1c0.4-1.9,0.9-3.7,1.3-5.6l2.7-10.1h1.2l2.7,10.1
		c0.5,1.9,0.9,3.7,1.4,5.6h0.1c0.4-1.9,0.7-3.7,1.1-5.6l2.2-10.1h1.2l-3.9,17.2H927l-3.1-11.8c-0.3-1.4-0.6-2.5-0.9-3.9h-0.1
		c-0.3,1.3-0.6,2.5-1,3.9l-3.1,11.8h-1.3L913.6,127.5z"/>
	<path class="st7" d="M935.5,127.5h9.4v1h-8.2v6.5h6.9v1h-6.9v7.6h8.5v1h-9.7V127.5z"/>
	<path class="st7" d="M948.9,127.5h4.6c3.5,0,5.7,1.3,5.7,4.2c0,1.8-0.9,3.2-2.7,3.7v0.1c2.2,0.4,3.7,1.8,3.7,4.2c0,3.3-2.5,5-6.4,5
		h-5v-17.2H948.9z M953.1,135.1c3.5,0,5-1.2,5-3.3c0-2.4-1.7-3.3-4.8-3.3h-3.1v6.6H953.1z M953.6,143.7c3.4,0,5.5-1.2,5.5-4
		c0-2.5-2-3.6-5.5-3.6h-3.5v7.6H953.6z"/>
	<path class="st7" d="M962.5,137.7h5.7v1h-5.7V137.7z"/>
	<path class="st7" d="M970.7,136.1c0-5.5,3-8.9,7.3-8.9c2,0,3.6,1,4.5,2.1l-0.7,0.8c-0.9-1.1-2.2-1.8-3.8-1.8c-3.8,0-6.1,3-6.1,7.8
		s2.3,7.9,6,7.9c1.8,0,3.1-0.7,4.3-2.1l0.7,0.8c-1.3,1.5-2.9,2.5-5.1,2.5C973.7,145,970.7,141.6,970.7,136.1z"/>
	<path class="st7" d="M986.5,127.5h1.2v16.2h7.9v1h-9.1L986.5,127.5L986.5,127.5z"/>
	<path class="st7" d="M998.7,127.5h1.2v17.2h-1.2V127.5z"/>
	<path class="st7" d="M1005,127.5h9.4v1h-8.2v6.5h6.9v1h-6.9v7.6h8.5v1h-9.7V127.5z"/>
	<path class="st7" d="M1018.4,127.5h1.3l7.2,12.1l1.9,3.4h0.1c-0.1-1.7-0.2-3.4-0.2-5v-10.5h1.1v17.2h-1.3l-7.2-12.1l-1.9-3.4h-0.1
		c0.1,1.6,0.2,3.2,0.2,4.9v10.7h-1.1V127.5z"/>
	<path class="st7" d="M1038.7,128.6h-5.5v-1h12.1v1h-5.5v16.2h-1.2L1038.7,128.6L1038.7,128.6z"/>
</g>
<g>
	<path class="st9" d="M733.9,85.1l0.8-0.9c1.4,1.6,3.3,2.6,5.6,2.6c2.9,0,4.7-1.5,4.7-3.8c0-2.4-1.5-3.1-3.4-4l-2.9-1.3
		c-1.6-0.7-3.8-1.9-3.8-4.7c0-2.7,2.4-4.7,5.5-4.7c2.3,0,4.1,1,5.3,2.3l-0.8,0.9c-1.1-1.2-2.6-1.9-4.5-1.9c-2.5,0-4.2,1.3-4.2,3.4
		c0,2.2,1.9,3,3.3,3.6l2.9,1.3c2.1,0.9,4,2.1,4,5S744,88,740.3,88C737.5,88,735.4,86.8,733.9,85.1z"/>
	<path class="st9" d="M752.9,80l-5.7-11.2h1.4l2.9,5.9c0.7,1.4,1.3,2.7,2,4.1h0.1c0.7-1.4,1.4-2.7,2.1-4.1l2.9-5.9h1.3L754.3,80v7.7
		H753L752.9,80L752.9,80z"/>
	<path class="st9" d="M760.9,85.1l0.8-0.9c1.4,1.6,3.3,2.6,5.6,2.6c2.9,0,4.7-1.5,4.7-3.8c0-2.4-1.5-3.1-3.4-4l-2.9-1.3
		c-1.6-0.7-3.8-1.9-3.8-4.7c0-2.7,2.4-4.7,5.5-4.7c2.3,0,4.1,1,5.3,2.3l-0.8,0.9c-1.1-1.2-2.6-1.9-4.5-1.9c-2.5,0-4.2,1.3-4.2,3.4
		c0,2.2,1.9,3,3.3,3.6l2.9,1.3c2.1,0.9,4,2.1,4,5S771,88,767.3,88C764.5,88,762.4,86.8,760.9,85.1z"/>
	<path class="st9" d="M780.8,69.8h-6v-1.1h13.4v1.1h-6v17.8h-1.3V69.8H780.8z"/>
	<path class="st9" d="M791.8,68.7h10.4v1.1h-9V77h7.6v1.1h-7.6v8.3h9.3v1.1h-10.6V68.7H791.8z"/>
	<path class="st9" d="M806.6,68.7h1.9l4,11.1c0.5,1.4,1,2.8,1.5,4.2h0.1c0.5-1.4,0.9-2.8,1.4-4.2l3.9-11.1h1.9v18.9H820V75.2
		c0-1.5,0.1-3.5,0.2-5.1h-0.1l-1.5,4.2l-4.1,11.3h-1.1l-4.1-11.3l-1.5-4.2h-0.1c0.1,1.6,0.2,3.6,0.2,5.1v12.4h-1.2V68.7H806.6z"/>
	<path class="st9" d="M832.6,80.4V68.7h1.3v11.5c0,5,2.4,6.6,5,6.6c2.7,0,5.1-1.5,5.1-6.6V68.7h1.3v11.7c0,5.9-3.1,7.6-6.4,7.6
		C835.6,88,832.6,86.3,832.6,80.4z"/>
	<path class="st9" d="M850.8,68.7h1.4l8,13.3l2.1,3.8h0.1c-0.1-1.9-0.2-3.7-0.2-5.5V68.7h1.2v18.9H862l-8-13.3l-2.1-3.8h-0.1
		c0.1,1.8,0.2,3.5,0.2,5.4v11.8h-1.2V68.7z"/>
	<path class="st9" d="M869.1,68.7h4.4c5.8,0,8.6,3.7,8.6,9.4s-2.8,9.5-8.6,9.5h-4.4V68.7z M873.3,86.5c5.1,0,7.4-3.5,7.4-8.4
		s-2.2-8.3-7.4-8.3h-2.9v16.7H873.3z"/>
	<path class="st9" d="M886.4,68.7h10.4v1.1h-9V77h7.6v1.1h-7.6v8.3h9.3v1.1h-10.6V68.7H886.4z"/>
	<path class="st9" d="M901.2,68.7h5.4c3.8,0,6.2,1.4,6.2,5c0,3.4-2.5,5.2-6.2,5.2h-4.1v8.7h-1.3L901.2,68.7L901.2,68.7z M906.3,77.8
		c3.3,0,5.2-1.3,5.2-4.1c0-2.8-1.9-3.9-5.2-3.9h-3.7v8H906.3z M906.3,78.6l1.3-0.4l5.6,9.5h-1.5L906.3,78.6z"/>
	<path class="st9" d="M926.7,69.8h-6v-1.1H934v1.1h-6v17.8h-1.3V69.8z"/>
	<path class="st9" d="M937.6,68.7H948v1.1h-9V77h7.6v1.1H939v8.3h9.3v1.1h-10.6V68.7H937.6z"/>
	<path class="st9" d="M951,85.1l0.8-0.9c1.4,1.6,3.3,2.6,5.6,2.6c2.9,0,4.7-1.5,4.7-3.8c0-2.4-1.5-3.1-3.4-4l-2.9-1.3
		c-1.6-0.7-3.8-1.9-3.8-4.7c0-2.7,2.4-4.7,5.5-4.7c2.3,0,4.1,1,5.3,2.3l-0.8,0.9c-1.1-1.2-2.6-1.9-4.5-1.9c-2.5,0-4.2,1.3-4.2,3.4
		c0,2.2,1.9,3,3.3,3.6l2.9,1.3c2.1,0.9,4,2.1,4,5s-2.4,5.1-6.1,5.1C954.6,88,952.5,86.8,951,85.1z"/>
	<path class="st9" d="M970.9,69.8h-6v-1.1h13.4v1.1h-6v17.8H971V69.8H970.9z"/>
</g>
<g>
	<path class="st7" d="M810.2,193.1h4.7c3.5,0,5.7,1.3,5.7,4.2c0,1.8-0.9,3.2-2.7,3.7v0.1c2.2,0.4,3.7,1.8,3.7,4.2c0,3.3-2.5,5-6.4,5
		h-5V193.1z M814.4,200.7c3.5,0,5-1.2,5-3.3c0-2.4-1.7-3.3-4.8-3.3h-3.1v6.6H814.4z M814.9,209.3c3.4,0,5.5-1.2,5.5-4
		c0-2.5-2-3.6-5.5-3.6h-3.5v7.6H814.9z"/>
	<path class="st7" d="M829,193.1h1.2l6.1,17.2H835l-3.4-10.1c-0.7-2-1.3-3.8-1.9-5.9h-0.1c-0.6,2.1-1.2,3.9-1.9,5.9l-3.5,10.1H823
		L829,193.1z M825.7,203.4h7.7v1h-7.7V203.4z"/>
	<path class="st7" d="M837.6,201.7c0-5.5,3-8.9,7.3-8.9c2,0,3.6,1,4.5,2.1l-0.7,0.8c-0.9-1.1-2.2-1.8-3.8-1.8c-3.8,0-6.1,3-6.1,7.8
		s2.3,7.9,6,7.9c1.8,0,3.1-0.7,4.3-2.1l0.7,0.8c-1.3,1.5-2.9,2.5-5.1,2.5C840.6,210.6,837.6,207.1,837.6,201.7z"/>
	<path class="st7" d="M853.5,193.1h1.2v9.6h0.1l8.3-9.6h1.4l-5.5,6.4l6.2,10.8h-1.4l-5.7-9.9l-3.5,4v5.9h-1.2v-17.2H853.5z"/>
	<path class="st7" d="M868,193.1h9.4v1h-8.2v6.5h6.9v1h-6.9v7.6h8.5v1H868V193.1z"/>
	<path class="st7" d="M881.5,193.1h1.3l7.2,12.1l1.9,3.4h0.1c-0.1-1.7-0.2-3.3-0.2-5v-10.5h1.1v17.2h-1.3l-7.2-12.1l-1.9-3.4h-0.1
		c0.1,1.6,0.2,3.2,0.2,4.9v10.7h-1.1V193.1z"/>
	<path class="st7" d="M898.1,193.1h4c5.3,0,7.8,3.3,7.8,8.5s-2.5,8.7-7.8,8.7h-4V193.1z M901.9,209.3c4.7,0,6.7-3.2,6.7-7.6
		c0-4.5-2-7.5-6.7-7.5h-2.7v15.2L901.9,209.3L901.9,209.3z"/>
</g>
<g>
	<path class="st10" d="M386.4,217.9v0.1c0,5.1,0,10.1,0,15.2c0,0.1,0,0.1-0.1,0.1c-0.4,0-0.8,0-1.2,0c-0.7,0-1.4,0-2.1,0s-1.4,0-2,0
		c-0.7,0-1.4,0-2.1,0s-1.4,0-2,0c-0.7,0-1.4,0-2.1,0s-1.4,0-2,0c-0.7,0-1.4,0-2.1,0c-0.6,0-1.2,0-1.7,0c-0.1,0-0.1,0-0.1-0.1
		c0-4.3,0-8.5,0-12.8c0-0.1,0-0.1,0.1-0.1c0.7-0.1,1.3-0.2,2-0.3s1.5-0.2,2.2-0.3c0.8-0.1,1.5-0.2,2.3-0.3c0.7-0.1,1.3-0.2,2-0.3
		s1.4-0.2,2.1-0.3c0.6-0.1,1.2-0.2,1.7-0.3c0.6-0.1,1.2-0.2,1.8-0.3c0.7-0.1,1.4-0.2,2.2-0.3C385.6,218,386,217.9,386.4,217.9
		L386.4,217.9L386.4,217.9z"/>
	<path class="st10" d="M354.1,222.5c0.4-0.1,0.9-0.1,1.3-0.2c0.3,0,0.7-0.1,1-0.1s0.7-0.1,1-0.1s0.7-0.1,1-0.1
		c0.4-0.1,0.8-0.1,1.2-0.2c0.3,0,0.7-0.1,1-0.1s0.7-0.1,1-0.1s0.7-0.1,1-0.1c0.4-0.1,0.8-0.1,1.2-0.2c0.3,0,0.7-0.1,1-0.1
		s0.7-0.1,1-0.1s0.7-0.1,1-0.1c0.1,0,0.3,0,0.4-0.1c0.1,0,0.1,0,0.1,0.1c0,1.2,0,2.4,0,3.6c0,3,0,6,0,9c0,0.1,0,0.1-0.1,0.1
		c-0.6,0-1.3,0-1.9,0c-1,0-1.9,0-2.9,0c-0.9,0-1.9,0-2.8,0c-1,0-1.9,0-2.9,0c-0.8,0-1.7,0-2.5,0c0,0,0,0-0.1,0c0-1.7,0-3.5,0-5.2
		v-0.1C354.1,226.3,354.1,224.4,354.1,222.5z"/>
	<path class="st10" d="M368.9,238.8c0-1,0-2.4,0-3.7c0-0.1,0-0.1,0.1-0.1c0.2,0,0.5,0,0.7,0c3.2,0,6.3,0,9.5,0c2.4,0,4.8,0,7.2,0
		c0.1,0,0.1,0,0.1,0.1c0,2.6,0,5.3,0,7.9c0,2.4,0,4.8,0,7.2c0,0.1,0,0.1-0.1,0.1c-0.4-0.1-0.8-0.1-1.2-0.2c-0.4-0.1-0.8-0.1-1.2-0.2
		c-0.4-0.1-0.9-0.1-1.3-0.2c-0.4-0.1-0.8-0.1-1.2-0.2c-0.5-0.1-1-0.1-1.4-0.2c-0.4-0.1-0.8-0.1-1.2-0.2c-0.4-0.1-0.8-0.1-1.2-0.2
		c-0.4-0.1-0.9-0.1-1.3-0.2c-0.4-0.1-0.9-0.1-1.3-0.2c-0.4-0.1-0.9-0.1-1.3-0.2c-0.4-0.1-0.9-0.1-1.3-0.2c-0.4-0.1-0.9-0.1-1.3-0.2
		c-0.5-0.1-1-0.1-1.4-0.2c-0.1,0-0.3,0-0.4-0.1c-0.1,0-0.1,0-0.1-0.1c0-1.4,0-2.8,0-4.2C368.9,242.1,368.9,240.6,368.9,238.8z"/>
	<path class="st10" d="M354.1,245.8L354.1,245.8c0-3.7,0-7.4,0-11c0.6,0,1.3,0,1.9,0c0.9,0,1.8,0,2.8,0c0.8,0,1.7,0,2.5,0
		s1.7,0,2.5,0s1.6,0,2.5,0c0.3,0,0.6,0,0.9,0c0.1,0,0.1,0,0.1,0.1c0,2.4,0,4.7,0,7.1c0,1.8,0,3.6,0,5.5c0,0.1,0,0.1-0.1,0.1
		c-0.4-0.1-0.8-0.1-1.3-0.2c-0.4-0.1-0.8-0.1-1.2-0.2c-0.5-0.1-0.9-0.1-1.4-0.2c-0.4-0.1-0.8-0.1-1.2-0.2c-0.4-0.1-0.8-0.1-1.3-0.2
		c-0.4-0.1-0.7-0.1-1.1-0.2c-0.4-0.1-0.8-0.1-1.1-0.2c-0.4-0.1-0.8-0.1-1.2-0.2c-0.5-0.1-0.9-0.1-1.4-0.2c-0.4-0.1-0.8-0.1-1.2-0.2
		C354.5,245.9,354.3,245.9,354.1,245.8z"/>
</g>
<rect x="0.3" y="194.7" class="st6" width="267" height="51.3"/>
<g>
	<path class="st7" d="M34,210.7h1.8l3.7,10.4c0.5,1.3,0.9,2.6,1.4,3.9H41c0.5-1.3,0.9-2.6,1.4-3.9l3.7-10.4h1.8v17.8h-1.2v-11.7
		c0-1.4,0.1-3.3,0.2-4.8h-0.1l-1.4,4l-3.8,10.6h-1.1L36.6,216l-1.4-4H35c0.1,1.5,0.2,3.4,0.2,4.8v11.7H34V210.7z"/>
	<path class="st7" d="M51.8,222c0-4.3,2.7-6.8,5.8-6.8s5.8,2.5,5.8,6.8s-2.7,6.8-5.8,6.8S51.8,226.2,51.8,222z M62.2,222
		c0-3.4-1.9-5.8-4.6-5.8c-2.6,0-4.6,2.4-4.6,5.8s1.9,5.7,4.6,5.7C60.2,227.7,62.2,225.4,62.2,222z"/>
	<path class="st7" d="M67.3,215.5h1l0.1,2h0.1c1.3-1.3,2.7-2.3,4.5-2.3c2.7,0,3.9,1.6,3.9,5v8.3h-1.2v-8.1c0-2.7-0.9-4-2.9-4
		c-1.5,0-2.7,0.8-4.2,2.4v9.8h-1.2v-13.1H67.3z"/>
	<path class="st7" d="M81.2,211.3c0-0.7,0.5-1.1,1.1-1.1s1.1,0.4,1.1,1.1c0,0.6-0.5,1.1-1.1,1.1C81.7,212.3,81.2,211.9,81.2,211.3z
		 M81.7,215.5h1.2v12.9h-1.2V215.5z"/>
	<path class="st7" d="M88.1,224.8v-8.3h-2v-0.9l2-0.1l0.2-3.7h1v3.7h3.8v1h-3.8v8.4c0,1.7,0.4,2.8,2.2,2.8c0.5,0,1.2-0.2,1.6-0.4
		l0.3,1c-0.7,0.3-1.6,0.5-2.1,0.5C88.8,228.7,88.1,227.2,88.1,224.8z"/>
	<path class="st7" d="M94.8,222c0-4.3,2.7-6.8,5.8-6.8s5.8,2.5,5.8,6.8s-2.7,6.8-5.8,6.8S94.8,226.2,94.8,222z M105.2,222
		c0-3.4-1.9-5.8-4.6-5.8c-2.6,0-4.6,2.4-4.6,5.8s1.9,5.7,4.6,5.7C103.3,227.7,105.2,225.4,105.2,222z"/>
	<path class="st7" d="M110.3,215.5h1l0.1,2.4h0.1c0.9-1.6,2.1-2.7,3.7-2.7c0.5,0,0.9,0.1,1.3,0.3l-0.3,1.1c-0.4-0.2-0.7-0.2-1.2-0.2
		c-1.2,0-2.5,0.9-3.5,3.3v8.8h-1.2V215.5z"/>
	<path class="st7" d="M118.4,211.3c0-0.7,0.5-1.1,1.1-1.1s1.1,0.4,1.1,1.1c0,0.6-0.5,1.1-1.1,1.1
		C118.9,212.3,118.4,211.9,118.4,211.3z M118.9,215.5h1.2v12.9h-1.2V215.5z"/>
	<path class="st7" d="M125,215.5h1l0.1,2h0.1c1.3-1.3,2.7-2.3,4.5-2.3c2.7,0,3.9,1.6,3.9,5v8.3h-1.2v-8.1c0-2.7-0.9-4-2.9-4
		c-1.5,0-2.7,0.8-4.2,2.4v9.8H125V215.5z"/>
	<path class="st7" d="M138.3,231.1c0-1.1,0.7-2.3,1.9-3.1v-0.1c-0.7-0.4-1.1-1.1-1.1-2.1c0-1.2,0.8-2,1.4-2.4v-0.1
		c-0.8-0.7-1.6-2-1.6-3.5c0-2.7,2-4.6,4.6-4.6c0.7,0,1.3,0.2,1.7,0.3h4.4v1h-3c0.8,0.7,1.4,1.9,1.4,3.2c0,2.6-2,4.6-4.5,4.6
		c-0.7,0-1.5-0.2-2.1-0.6c-0.6,0.5-1.1,1-1.1,1.9s0.5,1.7,2.5,1.7h2.8c2.9,0,4.3,0.9,4.3,3c0,2.2-2.4,4.4-6.1,4.4
		C140.3,234.6,138.3,233.2,138.3,231.1z M148.5,230.4c0-1.4-1-2-3-2h-2.8c-0.3,0-0.9-0.1-1.6-0.2c-1.2,0.8-1.7,1.8-1.7,2.7
		c0,1.6,1.6,2.7,4.3,2.7C146.6,233.7,148.5,232,148.5,230.4z M146.7,219.7c0-2.2-1.5-3.6-3.3-3.6s-3.3,1.4-3.3,3.6
		c0,2.2,1.6,3.6,3.3,3.6S146.7,221.9,146.7,219.7z"/>
	<path class="st7" d="M156.6,226.1l0.8-0.9c1.3,1.5,3.1,2.4,5.2,2.4c2.7,0,4.4-1.5,4.4-3.6c0-2.2-1.4-2.9-3.2-3.7l-2.7-1.2
		c-1.5-0.7-3.6-1.8-3.6-4.4c0-2.6,2.2-4.4,5.2-4.4c2.1,0,3.9,1,4.9,2.1l-0.7,0.8c-1-1.1-2.5-1.8-4.2-1.8c-2.3,0-3.9,1.3-3.9,3.2
		c0,2.1,1.8,2.9,3.1,3.4l2.7,1.2c2,0.9,3.7,2,3.7,4.7s-2.2,4.8-5.7,4.8C160,228.7,158,227.6,156.6,226.1z"/>
	<path class="st7" d="M170.1,234l0.3-1c0.3,0.1,0.7,0.2,1.1,0.2c1.6,0,2.7-1.5,3.3-3.4l0.4-1.1l-5.3-13.2h1.3l3.1,8.1
		c0.4,1.1,0.9,2.5,1.4,3.6h0.1c0.4-1.1,0.8-2.5,1.2-3.6l2.8-8.1h1.2l-5.1,14.6c-0.7,2.2-2,4.3-4.4,4.3
		C170.9,234.3,170.4,234.2,170.1,234z"/>
	<path class="st7" d="M182,226.9l0.7-0.9c1.1,0.9,2.3,1.6,4.1,1.6c2,0,3.1-1.2,3.1-2.6c0-1.6-1.7-2.3-3.2-2.9
		c-2-0.7-4.1-1.5-4.1-3.7c0-1.9,1.5-3.4,4.2-3.4c1.4,0,2.8,0.6,3.7,1.3l-0.6,0.9c-0.9-0.7-1.8-1.2-3.1-1.2c-2,0-2.9,1.2-2.9,2.4
		c0,1.5,1.5,2,3.1,2.6c2,0.8,4.2,1.4,4.2,3.9c0,2-1.6,3.6-4.4,3.6C184.9,228.7,183.2,227.9,182,226.9z"/>
	<path class="st7" d="M194.3,224.8v-8.3h-2v-0.9l2-0.1l0.2-3.7h1v3.7h3.8v1h-3.8v8.4c0,1.7,0.4,2.8,2.2,2.8c0.5,0,1.2-0.2,1.6-0.4
		l0.3,1c-0.7,0.3-1.6,0.5-2.1,0.5C195.1,228.7,194.3,227.2,194.3,224.8z"/>
	<path class="st7" d="M201.1,222c0-4.2,2.7-6.8,5.6-6.8c3.1,0,5,2.2,5,6c0,0.3,0,0.6-0.1,1h-9.3c0,3.3,2,5.6,4.9,5.6
		c1.4,0,2.5-0.5,3.5-1.1l0.5,0.9c-1,0.6-2.2,1.3-4.1,1.3C203.7,228.7,201.1,226.2,201.1,222z M210.5,221.1c0-3.3-1.5-4.9-3.8-4.9
		c-2.2,0-4.2,1.9-4.4,4.9H210.5z"/>
	<path class="st7" d="M215.2,215.5h1l0.1,2h0.1c1.2-1.3,2.6-2.3,4.1-2.3c2.1,0,3.1,1,3.6,2.6c1.5-1.6,2.9-2.6,4.4-2.6
		c2.6,0,3.9,1.6,3.9,5v8.3h-1.2v-8.1c0-2.7-0.9-4-2.9-4c-1.2,0-2.4,0.8-3.9,2.4v9.8h-1.2v-8.1c0-2.7-0.9-4-2.9-4
		c-1.2,0-2.4,0.8-3.9,2.4v9.8h-1.2L215.2,215.5L215.2,215.5z"/>
</g>
<circle class="st11" cx="434.4" cy="152" r="58.2"/>
<g>
	<path class="st7" d="M390.1,155.6v-13.8h1.6v13.7c0,6,2.8,7.8,6,7.8s6.1-1.8,6.1-7.8v-13.7h1.5v13.8c0,7-3.7,9-7.6,9
		S390.1,162.6,390.1,155.6z"/>
	<path class="st7" d="M411.8,141.8h1.6v22.4h-1.6V141.8z"/>
	<path class="st7" d="M431.7,143.1h-7.1v-1.3h15.9v1.3h-7.1v21.1h-1.6L431.7,143.1L431.7,143.1z"/>
	<path class="st7" d="M441.1,156.1c0-5.3,3.5-8.6,7.1-8.6c3.9,0,6.3,2.8,6.3,7.6c0,0.4,0,0.8-0.1,1.2h-11.8c0.1,4.1,2.5,7.1,6.2,7.1
		c1.8,0,3.2-0.6,4.4-1.5l0.6,1.1c-1.3,0.8-2.8,1.6-5.2,1.6C444.5,164.6,441.1,161.4,441.1,156.1z M453.1,155c0-4.2-1.9-6.3-4.8-6.3
		c-2.8,0-5.3,2.3-5.6,6.3H453.1z"/>
	<path class="st7" d="M456.9,162.4l0.9-1.1c1.4,1.2,2.9,2.1,5.2,2.1c2.6,0,3.9-1.5,3.9-3.2c0-2.1-2.1-2.9-4-3.6
		c-2.5-0.9-5.2-1.9-5.2-4.7c0-2.4,1.9-4.4,5.3-4.4c1.8,0,3.5,0.7,4.7,1.7l-0.8,1.1c-1.1-0.8-2.3-1.5-3.9-1.5c-2.6,0-3.7,1.5-3.7,3
		c0,1.9,1.9,2.6,3.9,3.3c2.5,1,5.3,1.8,5.3,5c0,2.5-2,4.6-5.5,4.6C460.5,164.6,458.3,163.6,456.9,162.4z"/>
	<path class="st7" d="M472.4,159.7v-10.5h-2.6V148l2.6-0.1l0.2-4.7h1.3v4.7h4.7v1.3h-4.7v10.6c0,2.1,0.5,3.5,2.8,3.5
		c0.6,0,1.5-0.3,2.1-0.5l0.4,1.2c-0.9,0.3-2,0.6-2.7,0.6C473.3,164.6,472.4,162.6,472.4,159.7z"/>
</g>
<path class="st12" d="M492.5,152c0,32.1-26,58.2-58.2,58.2s-58.2-26-58.2-58.2s26-58.2,58.2-58.2c30.6,0,55.7,23.7,58,53.7
	C492.4,149,492.5,150.5,492.5,152z"/>
<circle class="st2" cx="433.2" cy="255.1" r="29.1"/>
<ellipse transform="matrix(0.1602 -0.9871 0.9871 0.1602 184.2421 684.3507)" class="st2" cx="494.3" cy="233.9" rx="29.1" ry="29.1"/>
<g id="d96MyR_1_">
	<g>
		<path class="st13" d="M421.3,261.6c-0.6-0.9-0.3-1.9,0.2-2.7c1-1.6,1.7-3.3,2.1-5c0.3-1.1,1-1.8,1.7-2.7c0.4-0.5,0.8-1.1,1.3-1.6
			c1.2-1.2,1.1-2.7,1-4.3c-0.1-2.1-0.5-4.3,0-6.4c0.7-3.1,3-4.5,6.2-4c3.2,0.6,5,2.6,5.3,6c0.1,1.3,0,2.7,0.2,4
			c0.2,1.4,1,2.6,1.7,3.9c0.7,1.3,1.7,2.3,2.5,3.4c1.3,1.7,1.9,3.8,2.3,5.9c0.3,1.4,0.2,2.8-0.3,4.2c-0.6,0.4-0.7,1.1-1.1,1.5
			c-0.4,0.2-0.8,0.5-1.2,0.6c-1.6,0.5-2.6-0.1-2.7-1.7c0.1-0.4,0.2-0.7-0.3-0.9c0.5-1.7,0.4-3.4,0.1-5.2c-0.2-1.2-0.6-2.3-1.4-3.2
			l0,0c0-0.2-0.2-0.4-0.4-0.5c0-0.3-0.2-0.4-0.3-0.6c-0.3-1.4-0.6-2.8-1.5-4.1c0-0.1,0-0.1-0.1-0.1l0,0c-0.3-0.4-0.3-0.9-0.6-1.3
			c0-0.1,0-0.3,0-0.4c0.3-0.4,0.2-0.8,0.3-1.2c0.1-0.2,0-0.3-0.2-0.4l0,0c-0.1-0.1-0.2-0.2-0.2-0.3c0.2-0.2,0.3-0.5,0.4-0.7
			c0.5-1.7-0.7-3.5-2.3-3.3c-0.2-0.1-0.4,0-0.4,0.2c-0.7,0.6-1,1.3-0.7,2.3c-0.1,0.1-0.1,0.3-0.2,0.4c-0.5-0.2-1.1-0.1-1.6-0.1
			c0-0.1,0-0.2,0-0.3c0.1-0.7,0-1.4-0.6-1.9c-0.7-0.7-1.3-0.6-1.8,0.3c-0.6,1.2-0.3,2.2,0.2,3.3c-0.2,0.5-0.8,0.9-0.4,1.5
			c0.2,0.3,0.3,0.6,0.5,0.8c-0.3,0.5-0.1,1.1-0.1,1.6c-0.9,1.3-1.8,2.6-1.9,4.3c0,0.3-0.2,0.6-0.4,0.8c-0.8,1.5-1.6,3-2,4.6
			c-0.4,1.9-0.3,3.5,1.7,4.6c0.9,0.5,1.7,1.2,2.4,2c0.9,0.9,0.7,1.8-0.5,2.2c-0.2,0.1-0.3,0.1-0.5,0.2c-0.6-0.9-1.2-1.9-1.8-2.8
			c-0.6-1-1.3-2.1-2.2-2.9c-0.3-0.3-0.7-0.6-1.2-0.5c-0.1,0-0.1,0-0.2,0s-0.2,0.1-0.3,0.1C421.6,261.5,421.5,261.5,421.3,261.6z
			 M440.6,253.5c-0.1-0.4-0.4-0.5-0.9-0.6C439.9,253.4,440.2,253.4,440.6,253.5c0.7,0.6,1.1,1.5,1.8,2.1
			C441.8,254.8,441.7,253.7,440.6,253.5z M434.4,237.5c0,0.3-0.1,0.9,0.4,0.8c0.5-0.1,1.2-0.2,1.6-0.7c0.2-0.3-0.9-1.3-1.4-1.2
			C434.4,236.5,434.6,237.1,434.4,237.5z M425,254.3c-0.1,0-0.2-0.1-0.2-0.1c0,0.1-0.1,0.1-0.1,0.2c-0.7,1.6-1.6,3.1-1.6,5
			c0,0.6-0.2,1,0.7,1.4C422.8,258.2,424,256.3,425,254.3z M437.6,246.4c-0.2,0-0.2,0.1-0.2,0.3c0,0.4,0.7,1.4,1,1.4
			c0.4,0,0.5-0.2,0.5-0.5C438.9,247.2,438,246.4,437.6,246.4z M442.7,260.9c0.6,0.4,1.6,0.3,1.7,1.3c0,0.1,0.2,0,0.3-0.1
			c0.4-0.4,0-0.7-0.3-0.8C443.9,261,443.3,260.9,442.7,260.9z M441.4,255.4c-0.1-0.2-0.2-0.4-0.4-0.4c-0.3,0-0.3,0.3-0.3,0.5
			s0,0.4,0.3,0.4C441.2,255.8,441.4,255.6,441.4,255.4z M442.5,256.2c0,0.6,0.1,1.2,0.1,1.9C443,257.4,442.9,256.8,442.5,256.2z
			 M441,261.3c0.5-0.2,1-0.2,1.1-0.8C441.8,260.9,441.3,260.8,441,261.3z M442.1,260.3c0.4-0.3,0.3-0.6,0.4-1.1
			C442.2,259.5,442.1,259.8,442.1,260.3z M431.7,242.6l-0.1-0.1v0.1C431.6,242.7,431.6,242.7,431.7,242.6
			C431.6,242.7,431.7,242.6,431.7,242.6z"/>
		<path class="st14" d="M440.1,261.9c0.5,0.1,0.5,0.5,0.3,0.9c-0.6,0.8-0.5,2.1,0.2,2.6c0.6,0.4,1.3,0.5,1.9,0.3
			c0.8-0.3,1.8-0.6,1.8-1.8c0.4-0.5,0.6-1.2,1.1-1.5c0.4,0.3,0.8,0.7,0.8,1.3c-0.1,1.4,0.9,2.2,1.8,2.9c1.4,1.1,1.4,1.8-0.2,2.8
			c-0.6,0.4-1.4,0.4-2,0.8c-0.1,0-0.2,0-0.2,0.2l0,0c-0.3,0-0.5,0-0.7,0.2c-1,0.6-2,1.1-3.1,1.4c-1.4,0.4-2.5-0.3-2.8-1.7
			c-0.3-1.3-0.1-2.7-0.1-4c0-0.3,0.1-0.7-0.4-0.7c-0.1-0.6,0.1-1.1-0.1-1.7C438.5,261.9,438.5,261.9,440.1,261.9z"/>
		<path class="st13" d="M438.4,272.7c-0.6-1.3-1.8-1.1-2.9-1.2c-1.9-0.1-3.7-0.1-5.6,0.1c-0.5,0.1-0.7,0.6-1.3,0.6
			c0-0.2,0.1-0.4,0.2-0.6c0.2-0.6,0.5-1.1-0.1-1.7c-0.1-0.4-0.3-0.9-0.4-1.3c0.6,0.6,1.4,0.9,2.2,1c2.7,0.2,5.1-0.6,7-2.7
			c0.4-0.1,0.5-0.4,0.7-0.7c0.1,0.2,0.1,0.5,0.1,0.7C438.2,268.8,437.8,270.7,438.4,272.7C438.4,272.6,438.4,272.6,438.4,272.7z"/>
		<path class="st15" d="M428.3,268.6c0.1,0.4,0.3,0.9,0.4,1.3c-0.2,1.7-1.5,2.7-2.9,2.7c-0.7,0-1.4-0.1-2-0.1c-2-0.5-4-1.1-6-1.6
			c-1.1-0.3-1.4-0.7-1-1.8c0.6-1.3,0.5-2.7,0.3-4.1c-0.1-1.2,0.2-1.8,1.8-1.8c1.5-0.1,1.8-0.3,2.3-1.7c0.2,0,0.3-0.1,0.5-0.1
			c0,0.3-0.3,0.5-0.3,0.8c-0.2,1.4-0.7,1.7-2.1,1.7s-1.7,0.5-1.3,1.8c0.3,1,0.4,2-0.1,3c-0.3,0.7,0,1.2,0.8,1.4
			c0.2,0,0.4,0.1,0.6,0.1c2,0.3,4,0.5,5.9,1.3c0.4,0.2,1.1,0.2,1.5-0.1c0.9-0.7,1.4-1.6,1.1-2.8c0-0.2-0.1-0.4-0.1-0.6
			C428,268.1,428.2,268.3,428.3,268.6z"/>
		<path class="st15" d="M438.4,272.7C438.4,272.6,438.4,272.6,438.4,272.7c-0.6-2-0.2-3.8,0-5.7c0-0.2,0-0.5-0.1-0.7
			c0.2-0.3,0-0.7,0.2-0.9c0.4,0.1,0.3,0.5,0.4,0.7c0.1,1.3-0.1,2.7,0.1,4c0.3,1.4,1.4,2.1,2.8,1.7c1.1-0.3,2.1-0.8,3.1-1.4
			c0.2-0.2,0.5-0.2,0.7-0.2c-1,0.8-2,1.7-3,2.6c-0.5,0.5-1.3,0.8-2.1,0.6c-0.2-0.4-0.4-0.3-0.7-0.1c-0.1,0-0.3,0.1-0.3-0.1
			c-0.1-0.4-0.3-0.4-0.6-0.3C438.5,272.9,438.5,272.8,438.4,272.7z"/>
		<path class="st16" d="M423.8,272.5c0.7,0,1.4,0.1,2,0.1c1.4,0,2.7-1,2.9-2.7c0.6,0.5,0.3,1.1,0.1,1.7c-0.1,0.2-0.2,0.4-0.2,0.6
			C427.1,273.9,425.9,273.6,423.8,272.5z"/>
		<path class="st13" d="M438.7,272.9c0.3-0.1,0.6,0,0.6,0.3C439.1,273.2,438.9,273.1,438.7,272.9z"/>
		<path class="st13" d="M439.7,273.3c0.3-0.2,0.5-0.3,0.7,0.1C440.2,273.4,439.9,273.3,439.7,273.3z"/>
		<path class="st15" d="M445.5,270.2c0-0.1,0.1-0.2,0.2-0.2C445.7,270.1,445.7,270.2,445.5,270.2z"/>
		<path class="st17" d="M428.3,268.6c-0.1-0.3-0.3-0.5-0.6-0.6l0,0c0-0.1,0-0.3-0.2-0.3l0,0c0-0.1-0.1-0.2-0.2-0.2l0,0
			c0.2-0.1,0.3-0.1,0.5-0.2c1.2-0.4,1.5-1.3,0.5-2.2c-0.7-0.7-1.5-1.4-2.4-2c-1.9-1.1-2.1-2.7-1.7-4.6c0.4-1.7,1.2-3.1,2-4.6
			c0.2-0.3,0.4-0.5,0.4-0.8c0.1-1.7,1-3,1.9-4.3c0.7,0,0.8,0.6,1.1,1c0.3,0.6,0.7,0.8,1.3,0.7c1.4,0,2.3-1,3.3-1.7
			c0.7-0.5,1.3-0.9,2.1-0.5l0,0c0,0.1,0,0.1,0.1,0.1c0.9,1.2,1.2,2.6,1.5,4.1c-1.3-0.5-2.4,0.1-3.6,0.2c0.1,0.1,0.2,0.2,0.3,0.2
			c1.1,0.5,2.4,0.5,3.4,1.4c0.2,0.2,0.5,0.5,0.8,0.7c0.1,0.1,0.2,0.1,0.4,0c0.1-0.1,0-0.2,0-0.3c-0.2-0.4-0.6-0.7-0.4-1.2
			c0.8,0.9,1.2,2,1.4,3.2c0.3,1.7,0.5,3.5-0.1,5.2c-1.6,0.1-1.6,0.1-1.7,1.8c-0.7,0.1-1,0.5-1,1.3c0,0.7,0.3,1.3,0.2,2
			c-1.9,2.1-4.2,2.9-7,2.7C429.7,269.5,429,269.3,428.3,268.6z M430.1,256.1c-0.1,0.2-0.2,0.3-0.2,0.5c-0.3,2-0.4,4-0.3,6
			c0,0.1,0,0.2,0,0.3c0,0.2,0.2,0.4,0.4,0.3c0.3,0,0.3-0.2,0.2-0.4c-0.2-0.4-0.1-0.8-0.1-1.2c0.1-1.5,0.2-3,0.1-4.5
			C430.2,256.7,430.6,256.4,430.1,256.1z"/>
		<path class="st14" d="M427.4,267.5L427.4,267.5c0,0.1,0,0.2,0.2,0.2l0,0c0,0.1,0,0.3,0.2,0.3l0,0c0,0.2,0.1,0.4,0.1,0.6
			c0.3,1.2-0.2,2.1-1.1,2.8c-0.4,0.4-1.1,0.3-1.5,0.1c-1.9-0.8-3.9-1-5.9-1.3c-0.2,0-0.4-0.1-0.6-0.1c-0.8-0.2-1.1-0.6-0.8-1.4
			c0.4-1,0.3-2,0.1-3c-0.4-1.3,0-1.8,1.3-1.8c1.5,0,1.9-0.3,2.1-1.7c0.1-0.3,0.4-0.5,0.3-0.8c0.1,0,0.2-0.1,0.3-0.1
			c0.1,0.1,0.1,0.1,0.2,0c0.5-0.1,0.8,0.1,1.2,0.5c0.9,0.8,1.6,1.8,2.2,2.9C426.2,265.6,426.8,266.5,427.4,267.5z"/>
		<path class="st14" d="M430.8,243.4c0.5-0.1,1.1-0.1,1.6,0.1c0.1,0.2,0.2,0.1,0.4,0.1c0.2,0.1,0.5,0.2,0.7,0.2
			c0.3,0.3,0.8,0.5,1.2,0.5c0.1,0.1,0.2,0.1,0.3,0.2h0.1l0,0c0.3,0.1,0.5,0.5,0.9,0.4l0,0c-0.1,0.2,0,0.3,0.2,0.4
			c-0.1,0.4,0.1,0.9-0.3,1.2c-0.2,0-0.4,0.1-0.6,0.2c-0.4,0.2-0.8,0.4-1.2,0.5c-0.2,0.1-0.5,0.2-0.6-0.1c-0.1-0.2,0.1-0.3,0.3-0.5
			c0.2-0.2,0.5-0.2,0.6-0.6c0.5-0.1,0.9-0.2,1.2-0.8c-0.6,0.1-0.9,0.4-1.3,0.7c-0.3,0.2-0.6,0.3-0.9,0.5c-1.2,0.6-2.4,0.9-3.6,0.4
			c-0.7-0.3-0.9-0.7-0.5-1.4c0.4-0.6,0.5-1.3,1.3-1.5c0.2-0.1,0.2-0.4,0.2-0.6C430.8,243.4,430.8,243.4,430.8,243.4z"/>
		<path class="st18" d="M436.5,248.2c-0.8-0.5-1.4-0.1-2.1,0.5c-1,0.8-1.9,1.7-3.3,1.7c-0.6,0-1-0.2-1.3-0.7c-0.2-0.4-0.4-1-1.1-1
			c0-0.5-0.1-1.1,0.1-1.6c0.2,0.1,0.3,0.2,0.5,0.4c1.5,1.7,2.7,1.8,4.5,0.4c0.6-0.4,1.2-0.9,2-0.9
			C436.2,247.3,436.2,247.8,436.5,248.2z"/>
		<path class="st15" d="M435.8,246.9c-0.8,0-1.4,0.5-2,0.9c-1.8,1.3-3,1.2-4.5-0.4c-0.1-0.2-0.3-0.3-0.5-0.4
			c-0.2-0.3-0.3-0.6-0.5-0.8c-0.4-0.6,0.2-1,0.4-1.5c0.3-0.1,0.4-0.3,0.6-0.5c0.4-0.2,0.7-0.4,1-0.7c0.1-0.1,0.2-0.1,0.3-0.2
			c0,0,0.1,0,0.1,0.1c0,0.2,0,0.5-0.2,0.6c-0.8,0.2-0.9,1-1.3,1.5c-0.4,0.6-0.3,1.1,0.5,1.4c1.3,0.5,2.5,0.1,3.6-0.4
			c0.3-0.1,0.6-0.3,0.9-0.5c0,0,0,0,0.1,0.1c-0.1,0.3-0.4,0.4-0.6,0.6c-0.2,0.1-0.4,0.3-0.3,0.5c0.1,0.3,0.4,0.2,0.6,0.1
			c0.4-0.1,0.8-0.3,1.2-0.5c0.2-0.1,0.4-0.2,0.6-0.2C435.9,246.6,435.8,246.8,435.8,246.9z M431.1,247.9c0.2,0,0.3,0,0.3-0.2
			c0-0.3-0.3-0.2-0.5-0.2c-0.1,0-0.4,0-0.3,0.2S430.9,247.9,431.1,247.9z"/>
		<path class="st18" d="M433.5,243.7c-0.2-0.1-0.5-0.2-0.7-0.2c0-0.2,0-0.4-0.1-0.5c-0.3-0.9,0-1.7,0.7-2.3c0.2,0.1,0.3,0,0.4-0.2
			c1.6-0.2,2.8,1.6,2.3,3.3c-0.1,0.3-0.2,0.5-0.4,0.7c-0.2,0-0.4,0-0.6,0l0,0c0,0-0.1-0.1-0.1,0c-0.1-0.1-0.2-0.1-0.3-0.2
			c0.8-0.8,0.8-1.2,0.4-2l0,0c0-0.1-0.1-0.2-0.2-0.3v-0.1h-0.1c-0.6-0.5-0.9-0.2-1.3,0.3C433.3,242.7,433.4,243.2,433.5,243.7z"/>
		<path class="st18" d="M438.7,253.5c-0.2,0.5,0.3,0.8,0.4,1.2c0,0.1,0.2,0.2,0,0.3c-0.1,0.1-0.3,0.1-0.4,0
			c-0.3-0.2-0.5-0.4-0.8-0.7c-0.9-0.9-2.3-0.9-3.4-1.4c-0.1,0-0.2-0.1-0.3-0.2c1.2-0.1,2.4-0.7,3.6-0.2c0.2,0.2,0.4,0.3,0.3,0.6
			C438.3,253.2,438.3,253.5,438.7,253.5L438.7,253.5z"/>
		<path class="st15" d="M444.3,263.8c0,1.2-1,1.4-1.8,1.8c-0.6,0.3-1.3,0.1-1.9-0.3c-0.7-0.5-0.8-1.8-0.2-2.6
			c0.1,1.6,1.1,2.2,2.7,1.7C443.5,264.3,443.9,264,444.3,263.8z"/>
		<path class="st18" d="M430.6,243.4c-0.1,0.1-0.2,0.1-0.3,0.2c-0.1-0.5,0-1-0.4-1.4l0,0l0,0c-0.5-0.5-0.9-0.3-1.1,0.3
			c-0.2,0.7-0.1,1.3,0.5,1.7c-0.2,0.2-0.3,0.4-0.6,0.5c-0.6-1.1-0.8-2.2-0.2-3.3c0.4-0.9,1.1-1,1.8-0.3c0.5,0.5,0.7,1.2,0.6,1.9
			C430.8,243.1,430.7,243.3,430.6,243.4z"/>
		<path class="st16" d="M434.4,237.5c0.1-0.4-0.1-1,0.5-1.1c0.5-0.1,1.6,0.9,1.4,1.2c-0.3,0.5-1,0.5-1.6,0.7
			C434.4,238.4,434.5,237.9,434.4,237.5z"/>
		<path class="st16" d="M425,254.3c-0.9,2-2.2,4-1.3,6.4c-0.9-0.4-0.7-0.8-0.7-1.4c0.1-1.8,0.9-3.4,1.6-5c0-0.1,0.1-0.1,0.1-0.2
			C424.8,254.2,424.9,254.2,425,254.3z"/>
		<path class="st16" d="M437.6,246.4c0.4,0,1.3,0.8,1.2,1.1c0,0.3-0.1,0.6-0.5,0.5c-0.3,0-1-0.9-1-1.4
			C437.4,246.5,437.4,246.4,437.6,246.4z"/>
		<path class="st16" d="M442.7,260.9c0.7,0,1.3,0.1,1.8,0.4c0.3,0.1,0.7,0.4,0.3,0.8c-0.1,0.1-0.3,0.2-0.3,0.1
			C444.3,261.1,443.3,261.3,442.7,260.9z"/>
		<path class="st16" d="M440.6,253.5c1.1,0.3,1.3,1.3,1.8,2.1C441.7,255,441.2,254.1,440.6,253.5L440.6,253.5z"/>
		<path class="st16" d="M441.4,255.4c-0.1,0.2-0.2,0.4-0.5,0.4s-0.3-0.2-0.3-0.4s0-0.5,0.3-0.5C441.2,255,441.4,255.2,441.4,255.4z"
			/>
		<path class="st16" d="M442.5,256.2c0.4,0.6,0.5,1.2,0.1,1.9C442.6,257.4,442.5,256.8,442.5,256.2z"/>
		<path class="st16" d="M441,261.3c0.3-0.5,0.9-0.4,1.1-0.8C442,261.1,441.5,261.1,441,261.3z"/>
		<path class="st16" d="M440.5,253.5c-0.3-0.1-0.6-0.1-0.8-0.6C440.2,253,440.5,253.1,440.5,253.5
			C440.6,253.5,440.5,253.5,440.5,253.5z"/>
		<path class="st16" d="M442.1,260.3c0.1-0.5,0.1-0.7,0.4-1.1C442.4,259.6,442.4,259.9,442.1,260.3z"/>
		<path class="st15" d="M435.1,244.5c0.2,0,0.4,0,0.6,0c0.1,0.1,0.2,0.2,0.2,0.3C435.5,244.9,435.4,244.6,435.1,244.5z"/>
		<path class="st17" d="M438.7,253.5c-0.4,0-0.4-0.2-0.4-0.5C438.6,253.1,438.7,253.3,438.7,253.5z"/>
		<path class="st16" d="M432.7,243c0.1,0.1,0.1,0.3,0.1,0.5c-0.1,0-0.3,0.1-0.4-0.1C432.5,243.3,432.6,243.1,432.7,243z"/>
		<path class="st16" d="M433.8,240.5c-0.1,0.2-0.2,0.3-0.4,0.2C433.4,240.4,433.5,240.4,433.8,240.5z"/>
		<path class="st15" d="M436.1,245.3c-0.2-0.1-0.3-0.2-0.2-0.4C436.1,245,436.2,245.1,436.1,245.3z"/>
		<path class="st16" d="M430.6,243.4c0.1-0.1,0.1-0.2,0.2-0.3c0,0.1,0,0.2,0,0.3C430.8,243.4,430.8,243.4,430.6,243.4
			C430.7,243.4,430.7,243.4,430.6,243.4z"/>
		<path class="st16" d="M431.7,242.6C431.7,242.6,431.6,242.7,431.7,242.6c-0.1,0.1-0.1,0-0.1,0v-0.1
			C431.6,242.6,431.6,242.6,431.7,242.6z"/>
		<path class="st15" d="M422.3,261.3c0,0.1-0.1,0.1-0.2,0C422.2,261.3,422.2,261.3,422.3,261.3z"/>
		<path class="st18" d="M436.6,248.4c-0.1,0-0.1-0.1-0.1-0.1C436.6,248.2,436.6,248.3,436.6,248.4z"/>
		<path class="st18" d="M437.6,266.9c0.1-0.7-0.2-1.3-0.2-2c0-0.8,0.3-1.2,1-1.3c0.2,0.6,0,1.1,0.1,1.7c-0.2,0.3,0,0.7-0.2,0.9
			C438.1,266.5,437.9,266.9,437.6,266.9z"/>
		<path class="st18" d="M430.1,256.1c0.4,0.4,0.1,0.6,0.1,0.9c0.1,1.5,0,3-0.1,4.5c0,0.4,0,0.8,0.1,1.2c0.1,0.2,0.1,0.4-0.2,0.4
			c-0.2,0-0.3-0.1-0.4-0.3c0-0.1,0-0.2,0-0.3c-0.1-2,0-4,0.3-6C430,256.4,430.1,256.3,430.1,256.1z"/>
		<path class="st15" d="M427.7,268c-0.2-0.1-0.2-0.2-0.2-0.3C427.8,267.7,427.7,267.9,427.7,268z"/>
		<path class="st15" d="M427.6,267.7c-0.1,0-0.2-0.1-0.2-0.2C427.5,267.5,427.6,267.6,427.6,267.7z"/>
		<path class="st13" d="M433.5,243.7c-0.1-0.5-0.2-1,0.1-1.5c0.3-0.5,0.7-0.8,1.3-0.3c-0.2,0-0.5-0.1-0.5,0.2s0.2,0.5,0.5,0.6
			c0.3,0,0.2-0.3,0.2-0.5c0.4,0.8,0.4,1.1-0.4,2C434.2,244.2,433.8,244,433.5,243.7z"/>
		<path class="st15" d="M434.3,246c0.3-0.3,0.7-0.6,1.3-0.7C435.2,245.9,434.8,246,434.3,246L434.3,246z"/>
		<path class="st15" d="M435,244.4h0.1C435,244.4,435,244.4,435,244.4z"/>
		<path class="st13" d="M429.4,244.2c-0.7-0.4-0.8-1-0.5-1.7c0.2-0.6,0.5-0.8,1.1-0.3c-0.2,0-0.4-0.1-0.4,0.2s0.2,0.5,0.5,0.7
			c0-0.4,0-0.6-0.1-0.9c0.5,0.4,0.3,0.9,0.4,1.4C430,243.8,429.7,244,429.4,244.2z"/>
		<path class="st14" d="M431.1,247.9c-0.2,0-0.4,0-0.5-0.3c0-0.2,0.2-0.2,0.3-0.2c0.2,0,0.5-0.1,0.5,0.2
			C431.5,247.9,431.3,247.9,431.1,247.9z"/>
		<path class="st16" d="M435.1,242.2c0,0.2,0.1,0.5-0.2,0.5c-0.3,0-0.5-0.3-0.5-0.6s0.3-0.2,0.5-0.2h0.1v0.1
			C435,242.1,435,242.2,435.1,242.2L435.1,242.2z"/>
		<path class="st13" d="M435.1,242.3c-0.1-0.1-0.1-0.2-0.2-0.3C435,242.1,435.1,242.2,435.1,242.3z"/>
		<path class="st16" d="M429.9,242.2c0,0.2,0,0.5,0.1,0.9c-0.3-0.2-0.5-0.4-0.5-0.7C429.5,242,429.7,242.1,429.9,242.2
			C429.9,242.1,429.9,242.1,429.9,242.2L429.9,242.2z"/>
	</g>
</g>
<g id="_x35_pQf8I_1_">
	<g>
		<path class="st19" d="M473.4,245.5c0.2,0,0.1-0.2,0.2-0.3c0.8-2.3,3.1-3.2,5.3-2.1c0.1,0.1,0.2,0.2,0.4,0.1c0-0.9,0-1.9,0-2.8
			c0-0.4,0.1-0.7,0.6-0.8c0.4,0,0.7,0.2,0.7,0.6c0,2.2,0.1,4.4-0.1,6.6c-0.1,1.3-1,2.2-2.2,2.7c-0.2,0.1-0.4,0-0.5,0.2
			c-0.5,0-1,0-1.6,0c0,0,0-0.1-0.1-0.1c-1.3-0.4-2.2-1.3-2.6-2.7l-0.1-0.1C473.4,246.4,473.4,246,473.4,245.5z M479.2,246.2
			c0-1.2-1-2.2-2.2-2.2s-2.2,1-2.2,2.2s1,2.2,2.2,2.2S479.2,247.4,479.2,246.2z"/>
		<path class="st19" d="M505.1,249.7c-0.1-0.2-0.3-0.1-0.4-0.2c-1.7-0.6-2.7-2.3-2.3-4c0.3-1.8,1.9-3,3.7-2.9
			c1.7,0.1,3.1,1.5,3.3,3.2c0.1,0.7-0.2,1-0.9,1c-1.5,0-3,0-4.5,0h-0.1c0.3,1.2,1.8,1.9,3,1.3c0.1,0,0.1-0.1,0.2-0.1
			c0.6-0.4,1-0.4,1.2,0c0.3,0.4,0.1,0.8-0.5,1.2c-0.4,0.3-0.8,0.3-1.2,0.5C506,249.7,505.5,249.7,505.1,249.7z M505.8,245.5
			c0.6,0,1.2,0,1.8,0c0.3,0,0.4,0,0.3-0.3c-0.3-0.7-1.2-1.2-2-1.2s-1.7,0.6-2,1.2c-0.1,0.3-0.1,0.3,0.2,0.3
			C504.6,245.5,505.2,245.5,505.8,245.5z"/>
		<path class="st19" d="M496,249.7c-0.3-0.3-0.4-0.6-0.4-1c0-2.8,0-5.5,0-8.3c0-0.4,0.1-0.7,0.5-0.9c0.5-0.2,0.9,0.2,0.9,0.8
			c0,1.3,0,2.7,0,4c0,0.2,0,0.4,0,0.6c0.3,0,0.5-0.2,0.7-0.3c0.9-0.6,1.9-1.2,2.8-1.8c0.5-0.3,0.9-0.3,1.2,0
			c0.3,0.4,0.1,0.7-0.4,1.1c-0.7,0.4-1.3,0.9-2,1.3c-0.3,0.2-0.3,0.3-0.1,0.6c0.8,0.8,1.5,1.7,2.2,2.5c0.5,0.6,0.5,0.8-0.1,1.3
			c-0.2,0-0.4,0-0.6,0c-0.9-1-1.8-2-2.7-3c-0.4-0.5-0.6-0.3-1-0.1c-0.2,0.1-0.2,0.3-0.2,0.4c0,0.5,0,1.1,0,1.6c0,0.4-0.1,0.8-0.4,1
			C496.3,249.7,496.1,249.7,496,249.7z"/>
		<path class="st19" d="M483.9,249.7c-0.1-0.2-0.3-0.2-0.4-0.2c-1.6-0.6-2.5-2.3-2.2-4s1.8-2.9,3.6-2.8c1.7,0,3.1,1.3,3.4,3.1
			c0.3,1.7-0.7,3.3-2.4,3.9c-0.1,0.1-0.3,0-0.4,0.2C484.9,249.7,484.4,249.7,483.9,249.7z M482.5,246.2c0,1.2,0.9,2.2,2.1,2.2
			s2.3-1,2.3-2.2s-1-2.2-2.2-2.2C483.5,244,482.5,245,482.5,246.2z"/>
		<path class="st19" d="M491.6,249.7c-0.1-0.2-0.3-0.2-0.5-0.2c-1.9-0.7-2.8-3-2-4.8s3.1-2.6,4.9-1.7c0.2,0.1,0.4,0.2,0.6,0.4
			c0.3,0.3,0.4,0.6,0.2,1c-0.3,0.4-0.6,0.3-1,0.1c-0.6-0.4-1.2-0.7-1.9-0.5c-0.9,0.2-1.5,0.8-1.7,1.8c-0.2,0.8,0.2,1.7,1,2.2
			s1.6,0.5,2.4,0l0.1-0.1c0.4-0.2,0.7-0.3,1,0.1c0.3,0.4,0.1,0.7-0.2,1c-0.4,0.4-0.9,0.5-1.4,0.7
			C492.7,249.7,492.1,249.7,491.6,249.7z"/>
		<path class="st19" d="M515.3,243.9c-0.3,0.3-0.7,0.4-1.1,0.2c-1.5-0.5-2.8,0.6-2.9,2.1c0,0.8,0,1.7,0,2.5c0,0.4-0.1,0.8-0.4,1
			c-0.2,0-0.4,0-0.6,0c-0.3-0.3-0.4-0.6-0.4-1c0-1.7,0-3.4,0-5c0-0.4,0-0.9,0.5-1s0.8,0.2,0.9,0.6c1.3-0.7,2.6-1,3.9-0.1
			C515.3,243.4,515.3,243.6,515.3,243.9z"/>
		<path class="st19" d="M497.6,215c0,0.9,0,1.7,0,2.6c0,0.3-0.1,0.4-0.4,0.4c-0.8,0-1.7,0-2.5,0c-0.3,0-0.4-0.1-0.4-0.4
			c0-0.9,0-1.7,0-2.6C495.5,215,496.6,215,497.6,215z"/>
		<path class="st19" d="M491.8,225.6c3.4,0,6.8,0,10.2,0c0.6,0,1.2-0.1,1.8-0.3c0.3-0.1,0.4-0.2,0.2-0.6c-0.8-1.9-0.4-3.6,0.7-5.2
			c0.2-0.2,0.3-0.2,0.4-0.1c1.1,0.8,2,1.7,2.3,3c0.1,0.3,0.2,0.3,0.5,0.3c1.2-0.1,2.4-0.1,3.5,0.7c0.2,0.2,0.3,0.3,0.2,0.6
			c-0.8,1.8-2.2,2.7-4.1,2.7c-0.4,0-0.6,0.1-0.8,0.5c-2.4,5.3-6.6,8.3-12.4,9.2c-2.3,0.4-4.6,0.4-6.9-0.1c-3.7-0.9-6.2-3.8-6.8-7.7
			c-0.1-0.8-0.1-1.7-0.1-2.5c0-0.5,0.2-0.7,0.7-0.7C484.7,225.6,488.3,225.6,491.8,225.6z"/>
		<path class="st19" d="M492.3,218.5c0.4,0.1,1.1-0.2,1.5,0.1c0.3,0.3,0.1,1,0.1,1.5c0,1.4,0,1.4-1.3,1.4c-0.5,0-1,0-1.5,0
			c-0.3,0-0.5-0.1-0.5-0.4c0-0.7,0-1.4,0-2.2c0-0.3,0.1-0.4,0.4-0.4C491.3,218.5,491.8,218.5,492.3,218.5z"/>
		<path class="st19" d="M492.2,225c-0.4,0-0.9,0-1.3,0c-0.2,0-0.3-0.1-0.3-0.3c0-0.8,0-1.5,0-2.3c0-0.2,0.1-0.3,0.3-0.3
			c0.9,0,1.7,0,2.6,0c0.3,0,0.4,0.1,0.4,0.4c0,0.8,0,1.5,0,2.3c0,0.3-0.1,0.4-0.4,0.3C493.1,225,492.6,225,492.2,225z"/>
		<path class="st19" d="M496,218.5c0.4,0,0.8,0,1.2,0c0.3,0,0.4,0.1,0.4,0.4c0,0.7,0,1.5,0,2.2c0,0.3-0.1,0.4-0.4,0.4
			c-0.8,0-1.7,0-2.5,0c-0.3,0-0.4-0.1-0.4-0.4c0-0.7,0-1.5,0-2.2c0-0.3,0.1-0.4,0.4-0.4C495.2,218.5,495.6,218.5,496,218.5z"/>
		<path class="st19" d="M488.3,221.5c-0.4,0-0.7,0-1.1,0s-0.6-0.1-0.5-0.5c0-0.7,0-1.4,0-2.1c0-0.3,0.1-0.4,0.4-0.4
			c0.8,0,1.7,0,2.5,0c0.3,0,0.4,0.1,0.4,0.4c0,0.7,0,1.5,0,2.2c0,0.3-0.1,0.4-0.4,0.4C489.2,221.5,488.8,221.5,488.3,221.5z"/>
		<path class="st19" d="M499.7,225c-0.4,0-1.1,0.2-1.4-0.1s-0.1-1-0.1-1.5c0-1.3,0-1.3,1.3-1.3c0.5,0,1,0,1.6,0
			c0.3,0,0.4,0.1,0.4,0.4c0,0.7,0,1.5,0,2.2c0,0.3-0.1,0.4-0.4,0.4C500.6,225,500.2,225,499.7,225z"/>
		<path class="st19" d="M496,222.1c0.5,0,1.2-0.2,1.5,0.1c0.4,0.3,0.1,1,0.1,1.5c0,1.3,0,1.3-1.3,1.3c-0.5,0-1,0-1.5,0
			c-0.3,0-0.4-0.1-0.4-0.4c0-0.7,0-1.5,0-2.2c0-0.3,0.1-0.4,0.4-0.4C495.2,222.1,495.6,222.1,496,222.1L496,222.1z"/>
		<path class="st19" d="M488.2,225c-0.4-0.1-1.1,0.2-1.4-0.1c-0.2-0.3-0.1-1-0.1-1.4c0-1.4,0-1.4,1.4-1.4c0.5,0,1,0,1.5,0
			c0.3,0,0.4,0.1,0.4,0.4c0,0.8,0,1.5,0,2.3c0,0.2-0.1,0.3-0.3,0.3C489.2,225,488.8,225,488.2,225z"/>
		<path class="st19" d="M484.5,225c-0.4-0.1-1.1,0.2-1.4-0.1s-0.1-1-0.1-1.5c0-1.3,0-1.3,1.3-1.3c0.5,0,1,0,1.4,0
			c0.3,0,0.5,0.1,0.5,0.5c0,0.7,0,1.4,0,2c0,0.4-0.1,0.5-0.5,0.5C485.3,225,484.9,225,484.5,225z"/>
	</g>
</g>
<g>
	<circle class="st20" cx="314.8" cy="150.3" r="10.4"/>
	<polygon class="st1" points="318.7,150.5 313.5,144.2 313.5,156.7 	"/>
</g>
<line class="st21" x1="545.1" y1="151" x2="513.3" y2="151"/>
<line class="st21" x1="597.1" y1="151" x2="567.4" y2="151"/>
<line class="st21" x1="356.2" y1="151.1" x2="326.4" y2="151.1"/>
<line class="st21" x1="307.7" y1="142.2" x2="276.8" y2="111.3"/>
<line class="st21" x1="308.4" y1="158.9" x2="278.7" y2="188.6"/>
<g>
	<path class="st22" d="M388.8,76.8L388.8,76.8c0.2-0.8,1-1.4,1.8-1.4h10.7c0.6,0,1.1-0.2,1.5-0.6c0.4-0.4,0.6-0.9,0.6-1.5
		c0-0.6-0.2-1.1-0.6-1.5s-0.9-0.6-1.5-0.6h-7.9c-1.6,0-3-0.6-4.1-1.7c-1.2-1.2-1.7-2.5-1.7-4.1c0-1.6,0.6-3,1.7-4.1
		c1.2-1.2,2.5-1.7,4.1-1.7h9.6c1.2,0,2.1,1.2,1.8,2.3l0,0c-0.2,0.8-1,1.4-1.8,1.4h-9.6c-0.6,0-1.1,0.2-1.5,0.6
		c-0.4,0.4-0.6,0.9-0.6,1.5c0,0.6,0.2,1.1,0.6,1.5c0.4,0.4,0.9,0.6,1.5,0.6h7.9c1.6,0,3,0.6,4.1,1.7c1.2,1.2,1.7,2.5,1.7,4.1
		c0,1.6-0.6,3-1.7,4.1c-1.2,1.2-2.5,1.7-4.1,1.7h-10.7C389.4,79.2,388.5,78,388.8,76.8z"/>
	<path class="st22" d="M474.9,50.3L474.9,50.3c0.5,0.3,0.9,0.9,0.9,1.6v25.4c0,1-0.8,1.9-1.9,1.9l0,0c-1,0-1.9-0.8-1.9-1.9V51.8
		C472,50.4,473.7,49.5,474.9,50.3z"/>
	<path class="st22" d="M478.1,77.3V61.5c0-1,0.8-1.9,1.9-1.9l0,0c1,0,1.9,0.8,1.9,1.9v15.8c0,1-0.8,1.9-1.9,1.9l0,0
		C478.9,79.2,478.1,78.3,478.1,77.3z"/>
	<circle class="st22" cx="479.9" cy="55.7" r="1.9"/>
	<path class="st22" d="M447.7,76.3C447.6,76.2,447.6,76.2,447.7,76.3l-4-5.7c-0.5-0.7-0.5-1.7,0-2.4l4.1-5.7
		c0.3-0.3,0.4-0.7,0.4-1.2c0-1-0.8-1.9-1.9-1.9c-0.8,0-1.3,0.3-1.7,1.1c-0.2,0.3-0.2,0.2-0.3,0.3l-2.8,3.8l-1,1.4
		c-0.6,0.9-1.6,1.4-2.7,1.4l0,0c-1.8,0-3.3-1.5-3.3-3.3v-6.3c0-0.1,0-0.2,0-0.2c0,0,0-0.1,0-0.1c0-1-0.8-1.9-1.9-1.9
		c-1,0-1.8,0.7-1.9,1.7c0,0.1,0,0.1,0,0.2v19.9c0,0.1,0,0.2,0,0.3c0.1,0.9,0.9,1.6,1.8,1.6s1.7-0.7,1.8-1.6c0-0.1,0-0.2,0-0.3v-2.8
		c0-1.8,1.5-3.3,3.3-3.3l0,0c1.1,0,2.1,0.5,2.7,1.4l1,1.4l3.1,4.3c0,0.1,0.1,0.1,0.1,0.2c0.3,0.4,0.9,0.7,1.5,0.7
		c1,0,1.9-0.8,1.9-1.9C448,77,447.9,76.6,447.7,76.3z"/>
	<path class="st22" d="M426.7,61.3c-1.2-1.2-2.5-1.7-4.1-1.7h-9.7c-1.2,0-2.1,1.2-1.8,2.3c0.2,0.8,1,1.4,1.8,1.4h9.7
		c0.6,0,1.1,0.2,1.5,0.6c0.3,0.3,0.5,0.7,0.6,1.1c0.2,1.3-0.9,2.4-2.2,2.4h-7.8c-1.6,0-3,0.6-4.1,1.7c-1.2,1.2-1.7,2.5-1.7,4.1
		s0.6,3,1.7,4.1c1.2,1.2,2.5,1.7,4.1,1.7h6.5h1.4h3.9c0.9,0,1.7-0.7,1.8-1.6c0-0.1,0-0.2,0-0.3V77v-2.5v-9
		C428.4,63.8,427.9,62.5,426.7,61.3z M414.7,75.4c-0.6,0-1.1-0.2-1.5-0.6c-0.4-0.4-0.6-0.9-0.6-1.5c0-0.6,0.2-1.1,0.6-1.5
		c0.4-0.4,0.9-0.6,1.5-0.6h7.8c1.3,0,2.3,1,2.1,2.3c-0.1,0.5-0.3,0.9-0.6,1.2c-0.4,0.4-0.9,0.6-1.5,0.6L414.7,75.4L414.7,75.4z"/>
	<path class="st22" d="M469.6,61.5C469.6,61.5,469.6,61.5,469.6,61.5c0-1.1-0.8-1.9-1.9-1.9s-1.9,0.8-1.9,1.9c0,0,0,0,0,0
		c0,0,0,0.1,0,0.1v11.7c0,0.6-0.2,1.1-0.6,1.5c-0.4,0.4-0.9,0.6-1.5,0.6h-7.9c-0.6,0-1.1-0.2-1.5-0.6c-0.4-0.4-0.6-0.9-0.6-1.5V61.6
		c0-0.1,0-0.2,0-0.3c-0.1-0.9-0.9-1.7-1.9-1.7c-1,0-1.9,0.8-1.9,1.9c0,0,0,0,0,0.1c0,0,0,0,0,0.1v11.7c0,1.6,0.6,3,1.7,4.1
		c1.2,1.2,2.5,1.7,4.1,1.7h5.9h2h3.9c0.9,0,1.7-0.7,1.8-1.6c0-0.1,0-0.2,0-0.3V77v-2.5L469.6,61.5C469.6,61.6,469.6,61.5,469.6,61.5
		z"/>
</g>
<g>
	<path class="st23" d="M433.4,25.1c0.8,0.5,1.1,1.6,0.5,2.4c-0.3,0.5-0.9,0.8-1.5,0.8c-0.3,0-0.7-0.1-1-0.3l-5.6-3.6
		c-0.9-0.6-1.5-1.6-1.5-2.7s0.6-2.1,1.5-2.7l5.6-3.6c0.8-0.5,1.9-0.3,2.4,0.5c0.5,0.8,0.3,1.9-0.5,2.4l-5.2,3.3L433.4,25.1z
		 M443.6,37.1l-5.6,3.6c-0.3,0.2-0.6,0.3-1,0.3c-0.6,0-1.2-0.3-1.5-0.8c-0.5-0.8-0.3-1.9,0.5-2.4l5.2-3.3l-5.2-3.3
		c-0.8-0.5-1.1-1.6-0.5-2.4c0.5-0.8,1.6-1.1,2.4-0.5l5.6,3.6c0.9,0.6,1.5,1.6,1.5,2.7S444.6,36.5,443.6,37.1z"/>
	<path class="st23" d="M414.9,28.3c0-10.9,8.9-19.8,19.8-19.8c10.9,0,19.8,8.9,19.8,19.8s-8.9,19.8-19.8,19.8
		C423.8,48.1,414.9,39.2,414.9,28.3z M451.9,28.3c0-9.5-7.7-17.2-17.2-17.2s-17.2,7.7-17.2,17.2s7.7,17.2,17.2,17.2
		S451.9,37.8,451.9,28.3z"/>
</g>
</svg>
