<?xml version="1.0" encoding="utf-8"?>
<!-- Generator: Adobe Illustrator 23.0.3, SVG Export Plug-In . SVG Version: 6.00 Build 0)  -->
<svg version="1.1" id="Ebene_1" xmlns="http://www.w3.org/2000/svg" xmlns:xlink="http://www.w3.org/1999/xlink" x="0px" y="0px"
	 viewBox="0 0 73.7 73.7" style="enable-background:new 0 0 73.7 73.7;" xml:space="preserve">
<style type="text/css">
	.st0{fill:#3C3C3B;stroke:#95C11F;stroke-width:0.9656;stroke-miterlimit:10;}
	.st1{enable-background:new    ;}
	.st2{fill:#95C11F;}
</style>
<g>
	<circle class="st0" cx="36.85" cy="36.85" r="34.02"/>
	<g class="st1">
		<path class="st2" d="M45.34,49.06c0,0.19-0.01,0.35-0.04,0.49s-0.07,0.26-0.12,0.36s-0.12,0.18-0.21,0.23s-0.18,0.07-0.29,0.07
			H33.2c-0.25,0-0.5-0.09-0.76-0.28c-0.26-0.18-0.39-0.52-0.39-1.01v-24.8c0-0.08,0.02-0.16,0.06-0.23
			c0.04-0.07,0.11-0.12,0.21-0.16c0.1-0.04,0.23-0.08,0.39-0.1c0.16-0.03,0.36-0.04,0.59-0.04c0.25,0,0.45,0.01,0.6,0.04
			c0.16,0.03,0.28,0.06,0.38,0.1c0.1,0.04,0.16,0.1,0.21,0.16c0.04,0.07,0.06,0.14,0.06,0.23v23.82h10.14c0.11,0,0.2,0.02,0.29,0.07
			s0.15,0.12,0.21,0.2c0.05,0.09,0.1,0.21,0.12,0.35S45.34,48.87,45.34,49.06z"/>
	</g>
</g>
</svg>
