<?xml version="1.0" encoding="utf-8"?>
<!-- Generator: Adobe Illustrator 23.0.3, SVG Export Plug-In . SVG Version: 6.00 Build 0)  -->
<svg version="1.1" id="Ebene_1" xmlns="http://www.w3.org/2000/svg" xmlns:xlink="http://www.w3.org/1999/xlink" x="0px" y="0px"
	 viewBox="0 0 73.7 73.7" style="enable-background:new 0 0 73.7 73.7;" xml:space="preserve">
<style type="text/css">
	.st0{fill:#3C3C3B;stroke:#95C11F;stroke-width:0.9656;stroke-miterlimit:10;}
	.st1{enable-background:new    ;}
	.st2{fill:#95C11F;}
</style>
<g>
	<circle class="st0" cx="36.85" cy="36.85" r="34.02"/>
	<g class="st1">
		<path class="st2" d="M50.81,49.79c0,0.08-0.02,0.16-0.06,0.22s-0.11,0.12-0.21,0.16c-0.1,0.04-0.23,0.08-0.39,0.1
			s-0.36,0.04-0.6,0.04c-0.22,0-0.41-0.01-0.57-0.04c-0.16-0.03-0.29-0.06-0.39-0.1s-0.16-0.1-0.21-0.16s-0.06-0.14-0.06-0.22V25.9
			h-0.04L37.85,49.94c-0.03,0.05-0.07,0.11-0.12,0.15c-0.05,0.05-0.13,0.09-0.23,0.12c-0.1,0.03-0.21,0.06-0.34,0.08
			c-0.13,0.02-0.28,0.03-0.46,0.03c-0.19,0-0.35-0.01-0.49-0.03c-0.14-0.02-0.25-0.05-0.34-0.08c-0.09-0.03-0.16-0.07-0.21-0.12
			c-0.05-0.05-0.09-0.1-0.1-0.15L25.64,25.9h-0.02v23.9c0,0.08-0.02,0.16-0.06,0.22c-0.04,0.07-0.11,0.12-0.22,0.16
			s-0.23,0.08-0.39,0.1s-0.37,0.04-0.62,0.04c-0.23,0-0.43-0.01-0.58-0.04c-0.16-0.03-0.28-0.06-0.38-0.1
			c-0.1-0.04-0.16-0.1-0.19-0.16c-0.03-0.07-0.05-0.14-0.05-0.22v-24.8c0-0.49,0.13-0.83,0.39-1.01c0.26-0.18,0.51-0.28,0.76-0.28
			h1.35c0.34,0,0.64,0.04,0.9,0.11c0.26,0.08,0.49,0.18,0.69,0.33c0.2,0.14,0.36,0.32,0.5,0.52c0.14,0.21,0.26,0.44,0.37,0.7
			l8.74,21.05h0.1l9.11-20.97c0.14-0.33,0.28-0.6,0.44-0.83c0.16-0.23,0.32-0.41,0.49-0.54c0.17-0.14,0.35-0.23,0.55-0.29
			c0.2-0.05,0.41-0.08,0.64-0.08h1.5c0.12,0,0.25,0.02,0.39,0.06c0.14,0.04,0.26,0.11,0.37,0.21s0.2,0.24,0.28,0.4
			s0.11,0.37,0.11,0.61V49.79z"/>
	</g>
</g>
</svg>
