<?xml version="1.0" encoding="utf-8"?>
<!-- Generator: Adobe Illustrator 23.0.3, SVG Export Plug-In . SVG Version: 6.00 Build 0)  -->
<svg version="1.1" id="Ebene_1" xmlns="http://www.w3.org/2000/svg" xmlns:xlink="http://www.w3.org/1999/xlink" x="0px" y="0px"
	 viewBox="0 0 73.7 73.7" style="enable-background:new 0 0 73.7 73.7;" xml:space="preserve">
<style type="text/css">
	.st0{fill:#3C3C3B;stroke:#95C11F;stroke-width:0.9656;stroke-miterlimit:10;}
	.st1{enable-background:new    ;}
	.st2{fill:#95C11F;}
</style>
<g>
	<circle class="st0" cx="36.85" cy="36.85" r="34.02"/>
	<g class="st1">
		<path class="st2" d="M44.76,43.04c0,1.17-0.21,2.23-0.63,3.15c-0.42,0.93-1.02,1.72-1.78,2.37c-0.77,0.65-1.67,1.14-2.72,1.48
			c-1.05,0.34-2.2,0.51-3.44,0.51c-0.85,0-1.65-0.08-2.4-0.24c-0.75-0.16-1.42-0.34-2.01-0.56c-0.59-0.22-1.08-0.44-1.48-0.67
			c-0.4-0.23-0.68-0.42-0.83-0.57s-0.26-0.34-0.33-0.55s-0.1-0.47-0.1-0.79c0-0.23,0.01-0.42,0.04-0.57
			c0.03-0.15,0.06-0.27,0.11-0.37s0.11-0.16,0.18-0.19s0.15-0.05,0.24-0.05c0.19,0,0.46,0.12,0.81,0.36c0.35,0.24,0.8,0.5,1.35,0.78
			c0.55,0.28,1.22,0.54,1.99,0.78c0.77,0.24,1.67,0.36,2.69,0.36c0.83,0,1.6-0.11,2.29-0.34s1.3-0.55,1.8-0.97s0.9-0.95,1.18-1.57
			c0.28-0.62,0.42-1.33,0.42-2.12c0-0.82-0.18-1.52-0.53-2.11c-0.36-0.59-0.82-1.1-1.4-1.55s-1.24-0.85-1.98-1.21
			c-0.74-0.36-1.49-0.72-2.26-1.09c-0.77-0.36-1.53-0.75-2.26-1.18c-0.74-0.42-1.4-0.92-1.98-1.49c-0.58-0.57-1.05-1.23-1.4-2
			c-0.36-0.76-0.53-1.67-0.53-2.72c0-1.02,0.18-1.94,0.55-2.75c0.37-0.81,0.89-1.5,1.56-2.07s1.47-1,2.41-1.3
			c0.94-0.3,1.96-0.45,3.08-0.45c0.56,0,1.13,0.05,1.7,0.16s1.12,0.25,1.63,0.42c0.51,0.17,0.97,0.36,1.37,0.57
			c0.4,0.21,0.67,0.38,0.8,0.51c0.13,0.13,0.21,0.23,0.25,0.29s0.06,0.14,0.09,0.24s0.05,0.21,0.06,0.34s0.02,0.29,0.02,0.48
			c0,0.18-0.01,0.34-0.03,0.48c-0.02,0.14-0.05,0.27-0.09,0.37s-0.09,0.18-0.15,0.24c-0.06,0.05-0.13,0.08-0.21,0.08
			c-0.15,0-0.38-0.1-0.69-0.3c-0.31-0.2-0.69-0.42-1.16-0.67c-0.46-0.25-1.02-0.47-1.66-0.67c-0.64-0.2-1.37-0.3-2.19-0.3
			c-0.81,0-1.51,0.11-2.11,0.33c-0.6,0.22-1.1,0.52-1.5,0.89c-0.4,0.38-0.69,0.82-0.89,1.32c-0.2,0.51-0.3,1.04-0.3,1.6
			c0,0.82,0.18,1.52,0.53,2.11c0.35,0.59,0.83,1.11,1.41,1.56c0.59,0.45,1.25,0.86,2,1.22c0.74,0.36,1.5,0.72,2.27,1.09
			c0.77,0.36,1.53,0.75,2.27,1.17c0.74,0.42,1.41,0.91,2,1.48s1.06,1.23,1.41,1.99C44.58,41.1,44.76,42,44.76,43.04z"/>
	</g>
</g>
</svg>
