<?xml version="1.0" encoding="utf-8"?>
<!-- Generator: Adobe Illustrator 23.0.3, SVG Export Plug-In . SVG Version: 6.00 Build 0)  -->
<svg version="1.1" id="Ebene_1" xmlns="http://www.w3.org/2000/svg" xmlns:xlink="http://www.w3.org/1999/xlink" x="0px" y="0px"
	 viewBox="0 0 510.73 422.41" style="enable-background:new 0 0 510.73 422.41;" xml:space="preserve">
<style type="text/css">
	.st0{fill:#3C3C3B;stroke:#95C11F;stroke-width:1.2249;stroke-miterlimit:10;}
	.st1{fill:#95C11F;}
	.st2{fill:#3C3C3B;stroke:#95C11F;stroke-width:1.0169;stroke-miterlimit:10;}
	.st3{fill:#3C3C3B;stroke:#95C11F;stroke-width:0.7627;stroke-miterlimit:10;}
	.st4{fill:#3C3C3B;stroke:#3C3C3B;stroke-width:1.2063;stroke-miterlimit:10;}
	.st5{fill:none;stroke:#3C3C3B;stroke-width:2.4127;stroke-linecap:round;stroke-dasharray:0,4;}
	.st6{fill:#3C3C3B;stroke:#95C11F;stroke-width:1.0728;stroke-miterlimit:10;}
	.st7{fill:none;stroke:#3C3C3B;stroke-width:2.3337;stroke-dasharray:1.1668,2.3337;}
	.st8{fill:none;stroke:#3C3C3B;stroke-width:2.3337;stroke-linecap:round;stroke-dasharray:0,4;}
	.st9{fill:#E6332A;}
	.st10{fill:#3C3C3B;}
	.st11{fill:none;stroke:#3C3C3B;stroke-width:2.3337;}
	.st12{fill:#E94E1B;}
</style>
<g>
	<path class="st0" d="M139.78,43.21H24.42c-9.59,0-17.44-7.85-17.44-17.44v0c0-9.59,7.85-17.44,17.44-17.44h115.36
		c9.59,0,17.44,7.85,17.44,17.44v0C157.21,35.37,149.37,43.21,139.78,43.21z"/>
	<g>
		<g>
			<path class="st1" d="M43.93,19.45h-4.47v-1.59h10.83v1.59h-4.47v13.2h-1.88V19.45z"/>
			<path class="st1" d="M51.94,27.19c0-3.57,2.4-5.76,4.92-5.76c2.79,0,4.37,2.01,4.37,5.14c0,0.39-0.03,0.78-0.09,1.05h-7.38
				c0.13,2.32,1.55,3.83,3.64,3.83c1.05,0,1.92-0.34,2.73-0.88l0.66,1.22c-0.96,0.63-2.13,1.14-3.62,1.14
				C54.27,32.92,51.94,30.79,51.94,27.19z M59.6,26.29c0-2.2-0.99-3.39-2.7-3.39c-1.54,0-2.92,1.24-3.14,3.39H59.6z"/>
			<path class="st1" d="M62.72,31.4l0.92-1.22c0.95,0.77,1.92,1.3,3.23,1.3c1.44,0,2.15-0.77,2.15-1.7c0-1.13-1.29-1.63-2.5-2.08
				c-1.54-0.56-3.27-1.32-3.27-3.16c0-1.75,1.4-3.11,3.78-3.11c1.36,0,2.56,0.56,3.41,1.23l-0.89,1.19
				c-0.75-0.56-1.53-0.98-2.5-0.98c-1.38,0-2.02,0.74-2.02,1.57c0,1.04,1.19,1.44,2.43,1.9c1.58,0.6,3.34,1.24,3.34,3.32
				c0,1.78-1.41,3.26-4,3.26C65.25,32.92,63.75,32.26,62.72,31.4z"/>
			<path class="st1" d="M73.7,29.27v-6.06h-1.63v-1.4l1.71-0.11l0.22-3.07h1.55v3.07h2.97v1.51h-2.97v6.09
				c0,1.34,0.43,2.12,1.69,2.12c0.39,0,0.89-0.15,1.25-0.29l0.36,1.4c-0.61,0.21-1.35,0.41-2.03,0.41
				C74.49,32.92,73.7,31.45,73.7,29.27z"/>
			<path class="st1" d="M84.29,31.4l0.92-1.22c0.95,0.77,1.92,1.3,3.23,1.3c1.44,0,2.15-0.77,2.15-1.7c0-1.13-1.29-1.63-2.5-2.08
				c-1.54-0.56-3.27-1.32-3.27-3.16c0-1.75,1.4-3.11,3.78-3.11c1.36,0,2.56,0.56,3.41,1.23l-0.89,1.19
				c-0.75-0.56-1.53-0.98-2.5-0.98c-1.38,0-2.02,0.74-2.02,1.57c0,1.04,1.19,1.44,2.43,1.9c1.58,0.6,3.34,1.24,3.34,3.32
				c0,1.78-1.41,3.26-4,3.26C86.82,32.92,85.32,32.26,84.29,31.4z"/>
			<path class="st1" d="M94.8,28.64V21.7h1.85v6.7c0,2.04,0.62,2.91,2.07,2.91c1.12,0,1.9-0.56,2.93-1.85V21.7h1.85v10.96h-1.53
				l-0.16-1.72h-0.06c-1.02,1.2-2.11,1.99-3.61,1.99C95.83,32.92,94.8,31.43,94.8,28.64z"/>
			<path class="st1" d="M106.87,18.25c0-0.73,0.56-1.2,1.28-1.2c0.72,0,1.28,0.47,1.28,1.2c0,0.7-0.56,1.2-1.28,1.2
				C107.43,19.45,106.87,18.95,106.87,18.25z M107.21,21.7h1.85v10.96h-1.85V21.7z"/>
			<path class="st1" d="M113.07,29.27v-6.06h-1.63v-1.4l1.71-0.11l0.22-3.07h1.55v3.07h2.97v1.51h-2.97v6.09
				c0,1.34,0.43,2.12,1.69,2.12c0.39,0,0.89-0.15,1.25-0.29l0.36,1.4c-0.61,0.21-1.35,0.41-2.03,0.41
				C113.86,32.92,113.07,31.45,113.07,29.27z"/>
			<path class="st1" d="M119.55,27.19c0-3.57,2.4-5.76,4.92-5.76c2.79,0,4.37,2.01,4.37,5.14c0,0.39-0.03,0.78-0.09,1.05h-7.38
				c0.13,2.32,1.55,3.83,3.64,3.83c1.05,0,1.92-0.34,2.73-0.88l0.66,1.22c-0.96,0.63-2.13,1.14-3.62,1.14
				C121.88,32.92,119.55,30.79,119.55,27.19z M127.21,26.29c0-2.2-0.99-3.39-2.7-3.39c-1.54,0-2.92,1.24-3.14,3.39H127.21z"/>
		</g>
	</g>
</g>
<g>
	<path class="st2" d="M129.98,110.98H34.21c-7.96,0-14.48-6.51-14.48-14.48v0c0-7.96,6.51-14.48,14.48-14.48h95.77
		c7.96,0,14.48,6.51,14.48,14.48v0C144.46,104.47,137.94,110.98,129.98,110.98z"/>
	<g>
		<g>
			<path class="st1" d="M45.46,91.26h-3.71v-1.32h8.99v1.32h-3.71v10.96h-1.56V91.26z"/>
			<path class="st1" d="M52.11,97.68c0-2.96,2-4.78,4.09-4.78c2.32,0,3.63,1.67,3.63,4.27c0,0.32-0.03,0.65-0.07,0.87h-6.12
				c0.11,1.93,1.29,3.18,3.02,3.18c0.87,0,1.59-0.28,2.26-0.73l0.55,1.01c-0.8,0.52-1.77,0.94-3,0.94
				C54.04,102.44,52.11,100.67,52.11,97.68z M58.47,96.94c0-1.82-0.82-2.81-2.24-2.81c-1.28,0-2.42,1.03-2.61,2.81H58.47z"/>
			<path class="st1" d="M61.06,101.18l0.76-1.01c0.79,0.64,1.59,1.08,2.68,1.08c1.19,0,1.79-0.64,1.79-1.41
				c0-0.94-1.07-1.35-2.08-1.72c-1.27-0.47-2.71-1.09-2.71-2.63c0-1.46,1.17-2.58,3.14-2.58c1.13,0,2.12,0.46,2.83,1.02l-0.74,0.99
				c-0.63-0.46-1.27-0.81-2.07-0.81c-1.15,0-1.67,0.61-1.67,1.3c0,0.86,0.99,1.19,2.02,1.58c1.31,0.49,2.77,1.03,2.77,2.76
				c0,1.47-1.17,2.7-3.32,2.7C63.16,102.44,61.91,101.89,61.06,101.18z"/>
			<path class="st1" d="M70.18,99.4v-5.03h-1.35v-1.17l1.42-0.09l0.18-2.55h1.29v2.55h2.46v1.25h-2.46v5.06
				c0,1.11,0.36,1.76,1.41,1.76c0.32,0,0.74-0.12,1.04-0.24l0.3,1.16c-0.51,0.17-1.12,0.34-1.69,0.34
				C70.83,102.44,70.18,101.21,70.18,99.4z"/>
			<path class="st1" d="M79.3,97.68c0-3.03,2.05-4.78,4.38-4.78c1.19,0,2.02,0.49,2.66,1.07l-0.79,1.02c-0.53-0.48-1.09-0.8-1.8-0.8
				c-1.65,0-2.85,1.42-2.85,3.5c0,2.08,1.14,3.48,2.81,3.48c0.83,0,1.57-0.4,2.13-0.91l0.67,1.03c-0.82,0.73-1.85,1.16-2.94,1.16
				C81.14,102.44,79.3,100.69,79.3,97.68z"/>
			<path class="st1" d="M87.94,99.86c0-1.98,1.71-2.97,5.58-3.39c0-1.17-0.39-2.3-1.88-2.3c-1.05,0-2,0.5-2.71,0.98l-0.6-1.06
				c0.84-0.55,2.11-1.19,3.57-1.19c2.22,0,3.16,1.48,3.16,3.74v5.58h-1.27l-0.13-1.09h-0.05c-0.87,0.72-1.88,1.31-3.01,1.31
				C89.08,102.44,87.94,101.5,87.94,99.86z M93.53,100v-2.53c-3.05,0.37-4.08,1.11-4.08,2.27c0,1.03,0.7,1.45,1.59,1.45
				C91.92,101.2,92.65,100.77,93.53,100z"/>
			<path class="st1" d="M96.93,101.18l0.76-1.01c0.79,0.64,1.59,1.08,2.68,1.08c1.19,0,1.79-0.64,1.79-1.41
				c0-0.94-1.07-1.35-2.08-1.72c-1.27-0.47-2.71-1.09-2.71-2.63c0-1.46,1.17-2.58,3.14-2.58c1.13,0,2.12,0.46,2.83,1.02l-0.74,0.99
				c-0.63-0.46-1.27-0.81-2.07-0.81c-1.15,0-1.67,0.61-1.67,1.3c0,0.86,0.99,1.19,2.02,1.58c1.31,0.49,2.77,1.03,2.77,2.76
				c0,1.47-1.17,2.7-3.32,2.7C99.03,102.44,97.78,101.89,96.93,101.18z"/>
			<path class="st1" d="M105.1,97.68c0-2.96,2-4.78,4.09-4.78c2.32,0,3.63,1.67,3.63,4.27c0,0.32-0.03,0.65-0.07,0.87h-6.12
				c0.11,1.93,1.29,3.18,3.02,3.18c0.87,0,1.59-0.28,2.26-0.73l0.55,1.01c-0.8,0.52-1.77,0.94-3,0.94
				C107.03,102.44,105.1,100.67,105.1,97.68z M111.46,96.94c0-1.82-0.82-2.81-2.24-2.81c-1.28,0-2.42,1.03-2.61,2.81H111.46z"/>
			<path class="st1" d="M118.73,100.94h2.73v-8.78h-2.17v-0.99c1.09-0.19,1.88-0.48,2.54-0.88h1.17v10.65h2.46v1.28h-6.74V100.94z"
				/>
		</g>
	</g>
</g>
<g>
	<path class="st3" d="M118.01,177.87H46.18c-5.97,0-10.86-4.89-10.86-10.86v0c0-5.97,4.89-10.86,10.86-10.86h71.83
		c5.97,0,10.86,4.89,10.86,10.86v0C128.87,172.98,123.98,177.87,118.01,177.87z"/>
	<g>
		<g>
			<path class="st1" d="M60.42,170.09l0.7-0.8c0.66,0.69,1.58,1.14,2.54,1.14c1.21,0,1.93-0.6,1.93-1.5c0-0.94-0.67-1.24-1.54-1.62
				l-1.32-0.58c-0.86-0.37-1.87-1.02-1.87-2.37c0-1.41,1.23-2.45,2.9-2.45c1.09,0,2.07,0.47,2.71,1.14l-0.62,0.75
				c-0.56-0.53-1.24-0.86-2.09-0.86c-1.03,0-1.72,0.52-1.72,1.35c0,0.89,0.8,1.22,1.52,1.52l1.31,0.57c1.07,0.46,1.9,1.09,1.9,2.46
				c0,1.46-1.2,2.62-3.14,2.62C62.35,171.46,61.22,170.93,60.42,170.09z"/>
			<path class="st1" d="M68.67,169.18v-3.77h-1.01v-0.87l1.07-0.07l0.14-1.91h0.96v1.91h1.85v0.94h-1.85v3.79
				c0,0.83,0.27,1.32,1.05,1.32c0.24,0,0.56-0.09,0.78-0.18l0.22,0.87c-0.38,0.13-0.84,0.25-1.27,0.25
				C69.17,171.46,68.67,170.54,68.67,169.18z"/>
			<path class="st1" d="M72.71,167.89c0-2.22,1.5-3.59,3.07-3.59c1.74,0,2.72,1.25,2.72,3.2c0,0.24-0.02,0.49-0.05,0.66h-4.59
				c0.08,1.45,0.97,2.38,2.27,2.38c0.66,0,1.19-0.21,1.7-0.55l0.41,0.76c-0.6,0.39-1.33,0.71-2.25,0.71
				C74.16,171.46,72.71,170.13,72.71,167.89z M77.48,167.33c0-1.37-0.62-2.11-1.68-2.11c-0.96,0-1.82,0.77-1.96,2.11H77.48z"/>
			<path class="st1" d="M80.17,164.47h0.95l0.1,0.79h0.04c0.62-0.51,1.38-0.96,2.17-0.96c1.76,0,2.71,1.37,2.71,3.48
				c0,2.33-1.4,3.68-2.96,3.68c-0.62,0-1.27-0.29-1.89-0.79l0.03,1.19v2.31h-1.15V164.47z M84.95,167.79c0-1.51-0.51-2.52-1.8-2.52
				c-0.58,0-1.16,0.32-1.82,0.93v3.58c0.62,0.52,1.21,0.71,1.66,0.71C84.12,170.49,84.95,169.47,84.95,167.79z"/>
			<path class="st1" d="M90.72,170.33h2.05v-6.59h-1.63V163c0.82-0.14,1.41-0.36,1.9-0.66h0.88v7.99h1.85v0.96h-5.05V170.33z"/>
			<path class="st1" d="M97.51,170.59c0-0.53,0.38-0.89,0.84-0.89c0.46,0,0.84,0.36,0.84,0.89c0,0.51-0.38,0.87-0.84,0.87
				C97.88,171.46,97.51,171.1,97.51,170.59z"/>
			<path class="st1" d="M101.19,170.33h2.05v-6.59h-1.63V163c0.82-0.14,1.41-0.36,1.9-0.66h0.88v7.99h1.85v0.96h-5.05V170.33z"/>
		</g>
	</g>
</g>
<g>
	<path class="st3" d="M118.01,248.14H46.18c-5.97,0-10.86-4.89-10.86-10.86v0c0-5.97,4.89-10.86,10.86-10.86h71.83
		c5.97,0,10.86,4.89,10.86,10.86v0C128.87,243.26,123.98,248.14,118.01,248.14z"/>
	<g>
		<g>
			<path class="st1" d="M60.42,240.37l0.7-0.8c0.66,0.69,1.58,1.14,2.54,1.14c1.21,0,1.93-0.6,1.93-1.5c0-0.94-0.67-1.24-1.54-1.62
				L62.73,237c-0.86-0.37-1.87-1.02-1.87-2.37c0-1.41,1.23-2.45,2.9-2.45c1.09,0,2.07,0.47,2.71,1.14l-0.62,0.75
				c-0.56-0.53-1.24-0.86-2.09-0.86c-1.03,0-1.72,0.52-1.72,1.35c0,0.89,0.8,1.22,1.52,1.52l1.31,0.57c1.07,0.46,1.9,1.09,1.9,2.46
				c0,1.46-1.2,2.62-3.14,2.62C62.35,241.74,61.22,241.21,60.42,240.37z"/>
			<path class="st1" d="M68.67,239.46v-3.77h-1.01v-0.88l1.07-0.07l0.14-1.91h0.96v1.91h1.85v0.94h-1.85v3.79
				c0,0.83,0.27,1.32,1.05,1.32c0.24,0,0.56-0.09,0.78-0.18l0.22,0.87c-0.38,0.13-0.84,0.25-1.27,0.25
				C69.17,241.74,68.67,240.82,68.67,239.46z"/>
			<path class="st1" d="M72.71,238.17c0-2.22,1.5-3.59,3.07-3.59c1.74,0,2.72,1.25,2.72,3.2c0,0.24-0.02,0.49-0.05,0.66h-4.59
				c0.08,1.45,0.97,2.38,2.27,2.38c0.66,0,1.19-0.21,1.7-0.54l0.41,0.76c-0.6,0.39-1.33,0.71-2.25,0.71
				C74.16,241.74,72.71,240.41,72.71,238.17z M77.48,237.61c0-1.37-0.62-2.11-1.68-2.11c-0.96,0-1.82,0.77-1.96,2.11H77.48z"/>
			<path class="st1" d="M80.17,234.74h0.95l0.1,0.79h0.04c0.62-0.51,1.38-0.96,2.17-0.96c1.76,0,2.71,1.37,2.71,3.48
				c0,2.33-1.4,3.68-2.96,3.68c-0.62,0-1.27-0.29-1.89-0.79l0.03,1.19v2.31h-1.15V234.74z M84.95,238.06c0-1.51-0.51-2.52-1.8-2.52
				c-0.58,0-1.16,0.32-1.82,0.93v3.58c0.62,0.52,1.21,0.71,1.66,0.71C84.12,240.77,84.95,239.75,84.95,238.06z"/>
			<path class="st1" d="M90.72,240.61h2.05v-6.59h-1.63v-0.74c0.82-0.14,1.41-0.36,1.9-0.66h0.88v7.99h1.85v0.96h-5.05V240.61z"/>
			<path class="st1" d="M97.51,240.86c0-0.53,0.38-0.89,0.84-0.89c0.46,0,0.84,0.36,0.84,0.89c0,0.51-0.38,0.88-0.84,0.88
				C97.88,241.74,97.51,241.38,97.51,240.86z"/>
			<path class="st1" d="M100.65,240.88c2.69-2.68,4.21-4.29,4.21-5.75c0-1.02-0.56-1.75-1.7-1.75c-0.75,0-1.39,0.47-1.9,1.07
				l-0.67-0.65c0.75-0.82,1.56-1.36,2.71-1.36c1.66,0,2.69,1.04,2.69,2.64c0,1.68-1.54,3.35-3.66,5.57
				c0.48-0.04,1.04-0.08,1.51-0.08h2.59v0.99h-5.78V240.88z"/>
		</g>
	</g>
</g>
<g>
	<path class="st2" d="M129.98,322.92H34.21c-7.96,0-14.48-6.51-14.48-14.48v0c0-7.96,6.51-14.48,14.48-14.48h95.77
		c7.96,0,14.48,6.51,14.48,14.48v0C144.46,316.41,137.94,322.92,129.98,322.92z"/>
	<g>
		<g>
			<path class="st1" d="M45.46,303.2h-3.71v-1.32h8.99v1.32h-3.71v10.96h-1.56V303.2z"/>
			<path class="st1" d="M52.11,309.62c0-2.96,2-4.78,4.09-4.78c2.32,0,3.63,1.67,3.63,4.27c0,0.32-0.03,0.65-0.07,0.87h-6.12
				c0.11,1.93,1.29,3.17,3.02,3.17c0.87,0,1.59-0.28,2.26-0.73l0.55,1.01c-0.8,0.52-1.77,0.94-3,0.94
				C54.04,314.38,52.11,312.61,52.11,309.62z M58.47,308.88c0-1.82-0.82-2.81-2.24-2.81c-1.28,0-2.42,1.03-2.61,2.81H58.47z"/>
			<path class="st1" d="M61.06,313.12l0.76-1.01c0.79,0.64,1.59,1.08,2.68,1.08c1.19,0,1.79-0.64,1.79-1.41
				c0-0.94-1.07-1.35-2.08-1.72c-1.27-0.46-2.71-1.09-2.71-2.63c0-1.46,1.17-2.58,3.14-2.58c1.13,0,2.12,0.46,2.83,1.02l-0.74,0.99
				c-0.63-0.46-1.27-0.81-2.07-0.81c-1.15,0-1.67,0.61-1.67,1.3c0,0.86,0.99,1.19,2.02,1.58c1.31,0.49,2.77,1.03,2.77,2.76
				c0,1.47-1.17,2.7-3.32,2.7C63.16,314.38,61.91,313.83,61.06,313.12z"/>
			<path class="st1" d="M70.18,311.34v-5.03h-1.35v-1.17l1.42-0.09l0.18-2.55h1.29v2.55h2.46v1.25h-2.46v5.05
				c0,1.11,0.36,1.76,1.41,1.76c0.32,0,0.74-0.12,1.04-0.24l0.3,1.16c-0.51,0.17-1.12,0.34-1.69,0.34
				C70.83,314.38,70.18,313.15,70.18,311.34z"/>
			<path class="st1" d="M79.3,309.62c0-3.03,2.05-4.78,4.38-4.78c1.19,0,2.02,0.49,2.66,1.07l-0.79,1.02
				c-0.53-0.48-1.09-0.8-1.8-0.8c-1.65,0-2.85,1.42-2.85,3.5s1.14,3.48,2.81,3.48c0.83,0,1.57-0.4,2.13-0.91l0.67,1.03
				c-0.82,0.73-1.85,1.16-2.94,1.16C81.14,314.38,79.3,312.63,79.3,309.62z"/>
			<path class="st1" d="M87.94,311.79c0-1.98,1.71-2.97,5.58-3.39c0-1.17-0.39-2.3-1.88-2.3c-1.05,0-2,0.5-2.71,0.97l-0.6-1.05
				c0.84-0.55,2.11-1.19,3.57-1.19c2.22,0,3.16,1.48,3.16,3.74v5.58h-1.27l-0.13-1.09h-0.05c-0.87,0.72-1.88,1.31-3.01,1.31
				C89.08,314.38,87.94,313.43,87.94,311.79z M93.53,311.94v-2.53c-3.05,0.37-4.08,1.11-4.08,2.28c0,1.03,0.7,1.45,1.59,1.45
				C91.92,313.14,92.65,312.71,93.53,311.94z"/>
			<path class="st1" d="M96.93,313.12l0.76-1.01c0.79,0.64,1.59,1.08,2.68,1.08c1.19,0,1.79-0.64,1.79-1.41
				c0-0.94-1.07-1.35-2.08-1.72c-1.27-0.46-2.71-1.09-2.71-2.63c0-1.46,1.17-2.58,3.14-2.58c1.13,0,2.12,0.46,2.83,1.02l-0.74,0.99
				c-0.63-0.46-1.27-0.81-2.07-0.81c-1.15,0-1.67,0.61-1.67,1.3c0,0.86,0.99,1.19,2.02,1.58c1.31,0.49,2.77,1.03,2.77,2.76
				c0,1.47-1.17,2.7-3.32,2.7C99.03,314.38,97.78,313.83,96.93,313.12z"/>
			<path class="st1" d="M105.1,309.62c0-2.96,2-4.78,4.09-4.78c2.32,0,3.63,1.67,3.63,4.27c0,0.32-0.03,0.65-0.07,0.87h-6.12
				c0.11,1.93,1.29,3.17,3.02,3.17c0.87,0,1.59-0.28,2.26-0.73l0.55,1.01c-0.8,0.52-1.77,0.94-3,0.94
				C107.03,314.38,105.1,312.61,105.1,309.62z M111.46,308.88c0-1.82-0.82-2.81-2.24-2.81c-1.28,0-2.42,1.03-2.61,2.81H111.46z"/>
			<path class="st1" d="M118.01,313.24c3.59-3.58,5.62-5.72,5.62-7.66c0-1.36-0.74-2.33-2.26-2.33c-1,0-1.86,0.63-2.54,1.43
				l-0.89-0.87c1-1.1,2.07-1.81,3.62-1.81c2.21,0,3.58,1.39,3.58,3.51c0,2.24-2.06,4.46-4.87,7.42c0.65-0.05,1.39-0.1,2.01-0.1h3.45
				v1.32h-7.71V313.24z"/>
		</g>
	</g>
</g>
<g>
	<path class="st3" d="M118.01,391.78H46.18c-5.97,0-10.86-4.89-10.86-10.86v0c0-5.97,4.89-10.86,10.86-10.86h71.83
		c5.97,0,10.86,4.89,10.86,10.86v0C128.87,386.89,123.98,391.78,118.01,391.78z"/>
	<g>
		<g>
			<path class="st1" d="M60.42,384l0.7-0.8c0.66,0.69,1.58,1.14,2.54,1.14c1.21,0,1.93-0.6,1.93-1.5c0-0.94-0.67-1.24-1.54-1.62
				l-1.32-0.58c-0.86-0.37-1.87-1.02-1.87-2.37c0-1.41,1.23-2.45,2.9-2.45c1.09,0,2.07,0.47,2.71,1.14l-0.62,0.75
				c-0.56-0.53-1.24-0.86-2.09-0.86c-1.03,0-1.72,0.52-1.72,1.35c0,0.89,0.8,1.22,1.52,1.52l1.31,0.57c1.07,0.46,1.9,1.09,1.9,2.46
				c0,1.46-1.2,2.62-3.14,2.62C62.35,385.37,61.22,384.84,60.42,384z"/>
			<path class="st1" d="M68.67,383.09v-3.77h-1.01v-0.88l1.07-0.07l0.14-1.91h0.96v1.91h1.85v0.94h-1.85v3.79
				c0,0.83,0.27,1.32,1.05,1.32c0.24,0,0.56-0.09,0.78-0.18l0.22,0.87c-0.38,0.13-0.84,0.25-1.27,0.25
				C69.16,385.37,68.67,384.45,68.67,383.09z"/>
			<path class="st1" d="M72.71,381.8c0-2.22,1.5-3.59,3.07-3.59c1.74,0,2.72,1.25,2.72,3.2c0,0.24-0.02,0.49-0.05,0.66h-4.59
				c0.08,1.45,0.97,2.38,2.27,2.38c0.66,0,1.19-0.21,1.7-0.54l0.41,0.76c-0.6,0.39-1.33,0.71-2.25,0.71
				C74.16,385.37,72.71,384.04,72.71,381.8z M77.48,381.24c0-1.37-0.62-2.11-1.68-2.11c-0.96,0-1.82,0.77-1.96,2.11H77.48z"/>
			<path class="st1" d="M80.17,378.38h0.95l0.1,0.79h0.04c0.62-0.51,1.38-0.96,2.17-0.96c1.76,0,2.71,1.37,2.71,3.48
				c0,2.33-1.4,3.68-2.96,3.68c-0.62,0-1.27-0.29-1.89-0.79l0.03,1.19v2.31h-1.15V378.38z M84.95,381.7c0-1.51-0.51-2.52-1.8-2.52
				c-0.58,0-1.16,0.32-1.82,0.93v3.58c0.62,0.52,1.21,0.71,1.66,0.71C84.12,384.4,84.95,383.38,84.95,381.7z"/>
			<path class="st1" d="M90.18,384.52c2.69-2.68,4.21-4.29,4.21-5.75c0-1.02-0.56-1.75-1.7-1.75c-0.75,0-1.39,0.47-1.9,1.07
				l-0.67-0.65c0.75-0.82,1.56-1.36,2.71-1.36c1.66,0,2.69,1.04,2.69,2.64c0,1.68-1.54,3.35-3.66,5.57
				c0.48-0.04,1.04-0.08,1.51-0.08h2.59v0.99h-5.78V384.52z"/>
			<path class="st1" d="M97.5,384.5c0-0.53,0.38-0.89,0.84-0.89c0.46,0,0.84,0.36,0.84,0.89c0,0.51-0.38,0.87-0.84,0.87
				C97.88,385.37,97.5,385.01,97.5,384.5z"/>
			<path class="st1" d="M101.19,384.24h2.05v-6.59h-1.63v-0.74c0.82-0.14,1.41-0.36,1.9-0.66h0.88v7.99h1.85v0.96h-5.05V384.24z"/>
		</g>
	</g>
</g>
<g>
	<g>
		<g>
			<polygon class="st4" points="81.24,149.02 88.84,142.75 73.76,142.75 			"/>
		</g>
		<line class="st5" x1="81.19" y1="118.71" x2="81.19" y2="143.62"/>
	</g>
</g>
<g>
	<g>
		<g>
			<polygon class="st4" points="81.24,75.65 88.84,69.38 73.76,69.38 			"/>
		</g>
		<line class="st5" x1="81.19" y1="49.88" x2="81.19" y2="70.25"/>
	</g>
</g>
<g>
	<g>
		<g>
			<polygon class="st4" points="81.24,219.84 88.84,213.57 73.76,213.57 			"/>
		</g>
		<line class="st5" x1="81.19" y1="185" x2="81.19" y2="214.44"/>
	</g>
</g>
<g>
	<g>
		<g>
			<polygon class="st4" points="81.24,286.41 88.84,280.13 73.76,280.13 			"/>
		</g>
		<line class="st5" x1="81.19" y1="255.82" x2="81.19" y2="281"/>
	</g>
</g>
<g>
	<g>
		<g>
			<polygon class="st4" points="81.24,363.46 88.84,357.19 73.76,357.19 			"/>
		</g>
		<line class="st5" x1="81.19" y1="330.32" x2="81.19" y2="358.06"/>
	</g>
</g>
<circle class="st6" cx="68.86" cy="411.15" r="3.23"/>
<circle class="st6" cx="81.34" cy="411.15" r="3.23"/>
<circle class="st6" cx="93.81" cy="411.15" r="3.23"/>
<line class="st7" x1="170.48" y1="25.08" x2="501.42" y2="25.08"/>
<line class="st8" x1="171.9" y1="96.29" x2="501.42" y2="96.29"/>
<line class="st8" x1="171.9" y1="167.5" x2="501.42" y2="167.5"/>
<line class="st8" x1="173.31" y1="238.71" x2="501.42" y2="238.71"/>
<line class="st8" x1="173.31" y1="309.92" x2="501.42" y2="309.92"/>
<line class="st8" x1="173.31" y1="381.13" x2="501.42" y2="381.13"/>
<polygon class="st1" points="496.74,33.07 170.43,33.07 170.43,18.48 496.74,18.48 502.87,26.14 "/>
<rect x="170.24" y="89.05" class="st9" width="178.72" height="14.53"/>
<rect x="170.13" y="160.33" class="st1" width="72.82" height="14.53"/>
<rect x="242.96" y="231.61" class="st1" width="106" height="14.53"/>
<rect x="348.96" y="373.54" class="st1" width="81.43" height="14.53"/>
<polygon class="st1" points="496.74,317.25 348.96,317.25 348.96,302.66 496.74,302.66 502.87,310.31 "/>
<g id="_x35_jqoRQ_1_">
	<g>
		<path class="st9" d="M321.21,79.88c-5.26,0-10.53,0-15.79,0c-1.17,0-1.74-1.02-1.13-2.06c1.24-2.11,2.5-4.21,3.75-6.32
			c3.84-6.46,7.69-12.92,11.54-19.39c0.89-1.49,2.45-1.51,3.34-0.03c5.16,8.55,10.32,17.1,15.49,25.65
			c0.23,0.39,0.47,0.76,0.27,1.24c-0.25,0.62-0.69,0.9-1.46,0.9C331.88,79.88,326.54,79.88,321.21,79.88z M321.29,55.95
			c-3.98,6.84-7.92,13.6-11.85,20.35c8,0,15.95,0,23.98,0C329.35,69.49,325.35,62.77,321.29,55.95z"/>
		<path class="st10" d="M322.99,65.28c-0.08,1.4-0.16,2.8-0.26,4.2c-0.01,0.2-0.06,0.41-0.14,0.59c-0.23,0.54-0.77,0.86-1.31,0.81
			c-0.46-0.04-0.97-0.51-1.04-1.06c-0.13-1.02-0.22-2.04-0.29-3.06c-0.11-1.57-0.19-3.14-0.29-4.72c-0.04-0.66-0.02-1.31,0.64-1.66
			c0.71-0.38,1.46-0.34,2.16,0.07c0.46,0.26,0.69,0.68,0.68,1.24L322.99,65.28z"/>
		<path class="st10" d="M321.52,75.14c-0.88-0.02-1.64-0.79-1.63-1.65c0.01-0.86,0.79-1.59,1.69-1.58c0.92,0,1.66,0.76,1.64,1.68
			C323.2,74.48,322.46,75.16,321.52,75.14z"/>
	</g>
</g>
<line class="st11" x1="321.61" y1="79.95" x2="321.63" y2="88.98"/>
<g>
	<g>
		<path class="st12" d="M343.83,61.96h1.2l0.96,4.96c0.18,0.98,0.36,1.96,0.53,2.94h0.06c0.2-0.98,0.42-1.96,0.64-2.94l1.26-4.96
			h1.05l1.26,4.96c0.22,0.96,0.44,1.95,0.66,2.94h0.06c0.18-0.98,0.34-1.97,0.52-2.94l0.96-4.96h1.12l-1.89,9.11h-1.39l-1.38-5.48
			c-0.16-0.71-0.3-1.37-0.44-2.08h-0.06c-0.14,0.7-0.3,1.36-0.46,2.08l-1.35,5.48h-1.38L343.83,61.96z"/>
		<path class="st12" d="M355.15,69.32c0-1.47,1.27-2.21,4.15-2.52c0-0.87-0.29-1.71-1.39-1.71c-0.78,0-1.48,0.37-2.01,0.72
			l-0.45-0.78c0.62-0.41,1.57-0.88,2.65-0.88c1.65,0,2.34,1.1,2.34,2.78v4.14h-0.94l-0.1-0.81h-0.04c-0.64,0.54-1.39,0.97-2.23,0.97
			C356,71.24,355.15,70.54,355.15,69.32z M359.29,69.43v-1.87c-2.26,0.27-3.03,0.83-3.03,1.69c0,0.77,0.52,1.08,1.18,1.08
			C358.1,70.32,358.64,70.01,359.29,69.43z"/>
		<path class="st12" d="M362.56,64.33h0.94l0.1,1.23h0.04c0.47-0.86,1.16-1.4,1.92-1.4c0.3,0,0.51,0.04,0.72,0.14l-0.21,1
			c-0.23-0.07-0.38-0.11-0.66-0.11c-0.57,0-1.25,0.41-1.71,1.55v4.33h-1.14V64.33z"/>
		<path class="st12" d="M367.38,64.33h0.94l0.1,0.97h0.04c0.64-0.63,1.34-1.14,2.26-1.14c1.42,0,2.06,0.92,2.06,2.64v4.28h-1.14
			v-4.13c0-1.26-0.38-1.79-1.27-1.79c-0.69,0-1.17,0.35-1.84,1.04v4.89h-1.14V64.33z"/>
		<path class="st12" d="M374.76,62.2c0-0.45,0.34-0.74,0.79-0.74s0.79,0.29,0.79,0.74c0,0.43-0.34,0.74-0.79,0.74
			S374.76,62.63,374.76,62.2z M374.97,64.33h1.14v6.75h-1.14V64.33z"/>
		<path class="st12" d="M378.39,64.33h0.94l0.1,0.97h0.04c0.64-0.63,1.34-1.14,2.26-1.14c1.42,0,2.06,0.92,2.06,2.64v4.28h-1.14
			v-4.13c0-1.26-0.38-1.79-1.27-1.79c-0.69,0-1.17,0.35-1.84,1.04v4.89h-1.14V64.33z"/>
		<path class="st12" d="M385.47,72.37c0-0.58,0.37-1.12,0.99-1.53v-0.06c-0.34-0.21-0.6-0.58-0.6-1.11c0-0.56,0.39-1.01,0.74-1.25
			v-0.06c-0.45-0.35-0.87-1.01-0.87-1.81c0-1.48,1.16-2.4,2.53-2.4c0.37,0,0.71,0.07,0.95,0.17h2.35v0.88h-1.39
			c0.32,0.31,0.55,0.81,0.55,1.39c0,1.45-1.09,2.34-2.47,2.34c-0.33,0-0.7-0.08-1.01-0.23c-0.24,0.2-0.43,0.43-0.43,0.8
			c0,0.43,0.28,0.73,1.18,0.73h1.31c1.57,0,2.36,0.49,2.36,1.61c0,1.25-1.33,2.33-3.41,2.33C386.61,74.18,385.47,73.54,385.47,72.37
			z M390.55,72.02c0-0.62-0.47-0.84-1.36-0.84h-1.16c-0.26,0-0.58-0.03-0.88-0.1c-0.48,0.34-0.69,0.74-0.69,1.13
			c0,0.73,0.73,1.18,1.96,1.18C389.71,73.4,390.55,72.72,390.55,72.02z M389.69,66.56c0-0.98-0.64-1.58-1.43-1.58
			c-0.79,0-1.43,0.59-1.43,1.58c0,0.98,0.66,1.6,1.43,1.6C389.03,68.17,389.69,67.55,389.69,66.56z"/>
		<path class="st12" d="M393.02,70.38c0-0.52,0.37-0.88,0.83-0.88s0.83,0.36,0.83,0.88c0,0.51-0.37,0.86-0.83,0.86
			S393.02,70.89,393.02,70.38z M393.29,63.07l-0.03-1.3h1.16l-0.03,1.3l-0.16,5.25h-0.78L393.29,63.07z"/>
		<path class="st12" d="M399.96,68.99v-3.73h-1v-0.86l1.05-0.07l0.14-1.89h0.95v1.89h1.83v0.93h-1.83v3.75c0,0.83,0.27,1.3,1.04,1.3
			c0.24,0,0.55-0.09,0.77-0.18l0.22,0.86c-0.38,0.13-0.83,0.25-1.25,0.25C400.45,71.24,399.96,70.33,399.96,68.99z"/>
		<path class="st12" d="M404.24,62.2c0-0.45,0.34-0.74,0.79-0.74s0.79,0.29,0.79,0.74c0,0.43-0.34,0.74-0.79,0.74
			S404.24,62.63,404.24,62.2z M404.45,64.33h1.14v6.75h-1.14V64.33z"/>
		<path class="st12" d="M407.87,64.33h0.94l0.1,0.98h0.04c0.59-0.64,1.3-1.15,2.1-1.15c1.03,0,1.58,0.49,1.86,1.29
			c0.7-0.76,1.41-1.29,2.23-1.29c1.39,0,2.05,0.92,2.05,2.64v4.28h-1.14v-4.13c0-1.26-0.4-1.79-1.26-1.79
			c-0.52,0-1.07,0.34-1.69,1.04v4.89h-1.14v-4.13c0-1.26-0.4-1.79-1.26-1.79c-0.51,0-1.07,0.34-1.69,1.04v4.89h-1.14V64.33z"/>
		<path class="st12" d="M418.87,67.71c0-2.2,1.48-3.55,3.03-3.55c1.72,0,2.69,1.24,2.69,3.17c0,0.24-0.02,0.48-0.05,0.65H420
			c0.08,1.43,0.96,2.36,2.24,2.36c0.65,0,1.18-0.21,1.68-0.54l0.41,0.75c-0.59,0.39-1.31,0.7-2.23,0.7
			C420.3,71.24,418.87,69.93,418.87,67.71z M423.59,67.16c0-1.35-0.61-2.09-1.66-2.09c-0.95,0-1.8,0.76-1.94,2.09H423.59z"/>
		<path class="st12" d="M428.53,67.71c0-2.2,1.48-3.55,3.03-3.55c1.72,0,2.69,1.24,2.69,3.17c0,0.24-0.02,0.48-0.05,0.65h-4.54
			c0.08,1.43,0.96,2.36,2.24,2.36c0.65,0,1.18-0.21,1.68-0.54l0.41,0.75c-0.59,0.39-1.31,0.7-2.23,0.7
			C429.96,71.24,428.53,69.93,428.53,67.71z M433.25,67.16c0-1.35-0.61-2.09-1.66-2.09c-0.95,0-1.8,0.76-1.94,2.09H433.25z"/>
		<path class="st12" d="M437.18,67.55l-2.04-3.23h1.24l0.9,1.48c0.21,0.37,0.44,0.75,0.66,1.12H438c0.2-0.37,0.41-0.75,0.61-1.12
			l0.82-1.48h1.19l-2.04,3.35l2.21,3.4h-1.24l-0.99-1.57c-0.24-0.41-0.48-0.82-0.73-1.21h-0.06c-0.23,0.39-0.45,0.8-0.68,1.21
			l-0.92,1.57h-1.19L437.18,67.55z"/>
		<path class="st12" d="M441.61,67.71c0-2.25,1.52-3.55,3.25-3.55c0.89,0,1.5,0.37,1.97,0.79l-0.58,0.75
			c-0.39-0.35-0.81-0.6-1.34-0.6c-1.22,0-2.12,1.05-2.12,2.6c0,1.55,0.85,2.58,2.09,2.58c0.62,0,1.16-0.3,1.58-0.67l0.5,0.77
			c-0.61,0.54-1.37,0.86-2.18,0.86C442.98,71.24,441.61,69.95,441.61,67.71z"/>
		<path class="st12" d="M447.94,67.71c0-2.2,1.48-3.55,3.03-3.55c1.72,0,2.69,1.24,2.69,3.17c0,0.24-0.02,0.48-0.05,0.65h-4.54
			c0.08,1.43,0.96,2.36,2.24,2.36c0.65,0,1.18-0.21,1.68-0.54l0.41,0.75c-0.59,0.39-1.31,0.7-2.23,0.7
			C449.37,71.24,447.94,69.93,447.94,67.71z M452.66,67.16c0-1.35-0.61-2.09-1.66-2.09c-0.95,0-1.8,0.76-1.94,2.09H452.66z"/>
		<path class="st12" d="M454.82,67.71c0-2.2,1.48-3.55,3.03-3.55c1.72,0,2.69,1.24,2.69,3.17c0,0.24-0.02,0.48-0.05,0.65h-4.54
			c0.08,1.43,0.96,2.36,2.24,2.36c0.65,0,1.18-0.21,1.68-0.54l0.41,0.75c-0.59,0.39-1.31,0.7-2.23,0.7
			C456.25,71.24,454.82,69.93,454.82,67.71z M459.54,67.16c0-1.35-0.61-2.09-1.66-2.09c-0.95,0-1.8,0.76-1.94,2.09H459.54z"/>
		<path class="st12" d="M461.73,67.71c0-2.19,1.38-3.55,2.92-3.55c0.79,0,1.3,0.3,1.89,0.78l-0.05-1.16v-2.6h1.14v9.89h-0.94
			l-0.1-0.8h-0.04c-0.52,0.52-1.24,0.96-2.05,0.96C462.82,71.24,461.73,69.96,461.73,67.71z M466.49,69.36v-3.54
			c-0.58-0.51-1.1-0.7-1.65-0.7c-1.08,0-1.94,1.04-1.94,2.58c0,1.62,0.67,2.58,1.85,2.58C465.38,70.28,465.92,69.98,466.49,69.36z"
			/>
		<path class="st12" d="M469.41,67.71c0-2.2,1.48-3.55,3.03-3.55c1.72,0,2.69,1.24,2.69,3.17c0,0.24-0.02,0.48-0.05,0.65h-4.54
			c0.08,1.43,0.96,2.36,2.24,2.36c0.65,0,1.18-0.21,1.68-0.54l0.41,0.75c-0.59,0.39-1.31,0.7-2.23,0.7
			C470.84,71.24,469.41,69.93,469.41,67.71z M474.13,67.16c0-1.35-0.61-2.09-1.66-2.09c-0.95,0-1.8,0.76-1.94,2.09H474.13z"/>
		<path class="st12" d="M476.32,67.71c0-2.19,1.38-3.55,2.92-3.55c0.79,0,1.3,0.3,1.89,0.78l-0.05-1.16v-2.6h1.14v9.89h-0.94
			l-0.1-0.8h-0.04c-0.52,0.52-1.24,0.96-2.05,0.96C477.41,71.24,476.32,69.96,476.32,67.71z M481.08,69.36v-3.54
			c-0.58-0.51-1.1-0.7-1.65-0.7c-1.08,0-1.94,1.04-1.94,2.58c0,1.62,0.67,2.58,1.85,2.58C479.97,70.28,480.51,69.98,481.08,69.36z"
			/>
	</g>
</g>
</svg>
